<?xml version="1.0" encoding="UTF-8" standalone="no"?>
<!DOCTYPE svg PUBLIC "-//W3C//DTD SVG 1.1//EN"
 "http://www.w3.org/Graphics/SVG/1.1/DTD/svg11.dtd">
<!-- Generated by graphviz version 2.42.3 (20191010.1750)
 -->
<!-- Title: snakemake_dag Pages: 1 -->
<svg width="574pt" height="476pt"
 viewBox="0.00 0.00 574.00 476.00" xmlns="http://www.w3.org/2000/svg" xmlns:xlink="http://www.w3.org/1999/xlink">
<g id="graph0" class="graph" transform="scale(1 1) rotate(0) translate(4 472)">
<title>snakemake_dag</title>
<polygon fill="white" stroke="transparent" points="-4,4 -4,-472 570,-472 570,4 -4,4"/>
<!-- 0 -->
<g id="node1" class="node">
<title>0</title>
<path fill="none" stroke="#56a2d8" stroke-width="2" d="M295,-36C295,-36 265,-36 265,-36 259,-36 253,-30 253,-24 253,-24 253,-12 253,-12 253,-6 259,0 265,0 265,0 295,0 295,0 301,0 307,-6 307,-12 307,-12 307,-24 307,-24 307,-30 301,-36 295,-36"/>
<text text-anchor="middle" x="280" y="-15.5" font-family="sans" font-size="10.00">all</text>
</g>
<!-- 1 -->
<g id="node2" class="node">
<title>1</title>
<path fill="none" stroke="#59d856" stroke-width="2" d="M295,-108C295,-108 265,-108 265,-108 259,-108 253,-102 253,-96 253,-96 253,-84 253,-84 253,-78 259,-72 265,-72 265,-72 295,-72 295,-72 301,-72 307,-78 307,-84 307,-84 307,-96 307,-96 307,-102 301,-108 295,-108"/>
<text text-anchor="middle" x="280" y="-87.5" font-family="sans" font-size="10.00">quast</text>
</g>
<!-- 1&#45;&gt;0 -->
<g id="edge1" class="edge">
<title>1&#45;&gt;0</title>
<path fill="none" stroke="grey" stroke-width="2" d="M280,-71.7C280,-63.98 280,-54.71 280,-46.11"/>
<polygon fill="grey" stroke="grey" stroke-width="2" points="283.5,-46.1 280,-36.1 276.5,-46.1 283.5,-46.1"/>
</g>
<!-- 2 -->
<g id="node3" class="node">
<title>2</title>
<path fill="none" stroke="#d8c356" stroke-width="2" d="M64,-180C64,-180 12,-180 12,-180 6,-180 0,-174 0,-168 0,-168 0,-156 0,-156 0,-150 6,-144 12,-144 12,-144 64,-144 64,-144 70,-144 76,-150 76,-156 76,-156 76,-168 76,-168 76,-174 70,-180 64,-180"/>
<text text-anchor="middle" x="38" y="-165" font-family="sans" font-size="10.00">soapdenovo</text>
<text text-anchor="middle" x="38" y="-154" font-family="sans" font-size="10.00">kmer: lower</text>
</g>
<!-- 2&#45;&gt;1 -->
<g id="edge2" class="edge">
<title>2&#45;&gt;1</title>
<path fill="none" stroke="grey" stroke-width="2" d="M76.13,-146.91C79.12,-145.9 82.1,-144.92 85,-144 139.5,-126.77 203.62,-110 243.04,-100.09"/>
<polygon fill="grey" stroke="grey" stroke-width="2" points="244.13,-103.42 252.99,-97.6 242.44,-96.63 244.13,-103.42"/>
</g>
<!-- 3 -->
<g id="node4" class="node">
<title>3</title>
<path fill="none" stroke="#d8c356" stroke-width="2" d="M158,-180C158,-180 106,-180 106,-180 100,-180 94,-174 94,-168 94,-168 94,-156 94,-156 94,-150 100,-144 106,-144 106,-144 158,-144 158,-144 164,-144 170,-150 170,-156 170,-156 170,-168 170,-168 170,-174 164,-180 158,-180"/>
<text text-anchor="middle" x="132" y="-165" font-family="sans" font-size="10.00">soapdenovo</text>
<text text-anchor="middle" x="132" y="-154" font-family="sans" font-size="10.00">kmer: upper</text>
</g>
<!-- 3&#45;&gt;1 -->
<g id="edge3" class="edge">
<title>3&#45;&gt;1</title>
<path fill="none" stroke="grey" stroke-width="2" d="M168.2,-143.88C191.22,-132.99 220.9,-118.95 243.9,-108.07"/>
<polygon fill="grey" stroke="grey" stroke-width="2" points="245.44,-111.22 252.99,-103.78 242.45,-104.89 245.44,-111.22"/>
</g>
<!-- 4 -->
<g id="node5" class="node">
<title>4</title>
<path fill="none" stroke="#d8c356" stroke-width="2" d="M262,-180C262,-180 200,-180 200,-180 194,-180 188,-174 188,-168 188,-168 188,-156 188,-156 188,-150 194,-144 200,-144 200,-144 262,-144 262,-144 268,-144 274,-150 274,-156 274,-156 274,-168 274,-168 274,-174 268,-180 262,-180"/>
<text text-anchor="middle" x="231" y="-165" font-family="sans" font-size="10.00">soapdenovo</text>
<text text-anchor="middle" x="231" y="-154" font-family="sans" font-size="10.00">kmer: optimal</text>
</g>
<!-- 4&#45;&gt;1 -->
<g id="edge4" class="edge">
<title>4&#45;&gt;1</title>
<path fill="none" stroke="grey" stroke-width="2" d="M243.11,-143.7C248.87,-135.47 255.86,-125.48 262.21,-116.42"/>
<polygon fill="grey" stroke="grey" stroke-width="2" points="265.16,-118.3 268.03,-108.1 259.42,-114.29 265.16,-118.3"/>
</g>
<!-- 5 -->
<g id="node6" class="node">
<title>5</title>
<path fill="none" stroke="#c6d856" stroke-width="2" d="M355.5,-180C355.5,-180 304.5,-180 304.5,-180 298.5,-180 292.5,-174 292.5,-168 292.5,-168 292.5,-156 292.5,-156 292.5,-150 298.5,-144 304.5,-144 304.5,-144 355.5,-144 355.5,-144 361.5,-144 367.5,-150 367.5,-156 367.5,-156 367.5,-168 367.5,-168 367.5,-174 361.5,-180 355.5,-180"/>
<text text-anchor="middle" x="330" y="-165" font-family="sans" font-size="10.00">ABySS</text>
<text text-anchor="middle" x="330" y="-154" font-family="sans" font-size="10.00">kmer: lower</text>
</g>
<!-- 5&#45;&gt;1 -->
<g id="edge5" class="edge">
<title>5&#45;&gt;1</title>
<path fill="none" stroke="grey" stroke-width="2" d="M317.64,-143.7C311.77,-135.47 304.63,-125.48 298.16,-116.42"/>
<polygon fill="grey" stroke="grey" stroke-width="2" points="300.88,-114.21 292.22,-108.1 295.18,-118.28 300.88,-114.21"/>
</g>
<!-- 6 -->
<g id="node7" class="node">
<title>6</title>
<path fill="none" stroke="#c6d856" stroke-width="2" d="M450,-180C450,-180 398,-180 398,-180 392,-180 386,-174 386,-168 386,-168 386,-156 386,-156 386,-150 392,-144 398,-144 398,-144 450,-144 450,-144 456,-144 462,-150 462,-156 462,-156 462,-168 462,-168 462,-174 456,-180 450,-180"/>
<text text-anchor="middle" x="424" y="-165" font-family="sans" font-size="10.00">ABySS</text>
<text text-anchor="middle" x="424" y="-154" font-family="sans" font-size="10.00">kmer: upper</text>
</g>
<!-- 6&#45;&gt;1 -->
<g id="edge6" class="edge">
<title>6&#45;&gt;1</title>
<path fill="none" stroke="grey" stroke-width="2" d="M388.77,-143.88C366.77,-133.18 338.51,-119.44 316.3,-108.65"/>
<polygon fill="grey" stroke="grey" stroke-width="2" points="317.72,-105.44 307.2,-104.22 314.66,-111.74 317.72,-105.44"/>
</g>
<!-- 7 -->
<g id="node8" class="node">
<title>7</title>
<path fill="none" stroke="#c6d856" stroke-width="2" d="M554,-180C554,-180 492,-180 492,-180 486,-180 480,-174 480,-168 480,-168 480,-156 480,-156 480,-150 486,-144 492,-144 492,-144 554,-144 554,-144 560,-144 566,-150 566,-156 566,-156 566,-168 566,-168 566,-174 560,-180 554,-180"/>
<text text-anchor="middle" x="523" y="-165" font-family="sans" font-size="10.00">ABySS</text>
<text text-anchor="middle" x="523" y="-154" font-family="sans" font-size="10.00">kmer: optimal</text>
</g>
<!-- 7&#45;&gt;1 -->
<g id="edge7" class="edge">
<title>7&#45;&gt;1</title>
<path fill="none" stroke="grey" stroke-width="2" d="M479.92,-146.75C476.9,-145.8 473.91,-144.88 471,-144 417.78,-127.92 355.66,-111.03 317.07,-100.75"/>
<polygon fill="grey" stroke="grey" stroke-width="2" points="317.88,-97.35 307.31,-98.16 316.08,-104.11 317.88,-97.35"/>
</g>
<!-- 8 -->
<g id="node9" class="node">
<title>8</title>
<path fill="none" stroke="#56d8c9" stroke-width="2" d="M337,-252C337,-252 213,-252 213,-252 207,-252 201,-246 201,-240 201,-240 201,-228 201,-228 201,-222 207,-216 213,-216 213,-216 337,-216 337,-216 343,-216 349,-222 349,-228 349,-228 349,-240 349,-240 349,-246 343,-252 337,-252"/>
<text text-anchor="middle" x="275" y="-231.5" font-family="sans" font-size="10.00">KmerInputLowerUpperBest</text>
</g>
<!-- 8&#45;&gt;2 -->
<g id="edge8" class="edge">
<title>8&#45;&gt;2</title>
<path fill="none" stroke="grey" stroke-width="2" d="M209.13,-215.93C174.77,-206.72 131.88,-194.75 85.72,-180.13"/>
<polygon fill="grey" stroke="grey" stroke-width="2" points="86.73,-176.77 76.14,-177.07 84.6,-183.44 86.73,-176.77"/>
</g>
<!-- 8&#45;&gt;3 -->
<g id="edge10" class="edge">
<title>8&#45;&gt;3</title>
<path fill="none" stroke="grey" stroke-width="2" d="M240.02,-215.88C220.8,-206.47 196.77,-194.71 176.26,-184.67"/>
<polygon fill="grey" stroke="grey" stroke-width="2" points="177.64,-181.44 167.12,-180.19 174.56,-187.73 177.64,-181.44"/>
</g>
<!-- 8&#45;&gt;4 -->
<g id="edge12" class="edge">
<title>8&#45;&gt;4</title>
<path fill="none" stroke="grey" stroke-width="2" d="M264.12,-215.7C259.01,-207.56 252.8,-197.69 247.16,-188.7"/>
<polygon fill="grey" stroke="grey" stroke-width="2" points="250.04,-186.71 241.75,-180.1 244.11,-190.43 250.04,-186.71"/>
</g>
<!-- 8&#45;&gt;5 -->
<g id="edge14" class="edge">
<title>8&#45;&gt;5</title>
<path fill="none" stroke="grey" stroke-width="2" d="M288.6,-215.7C295.12,-207.39 303.07,-197.28 310.25,-188.14"/>
<polygon fill="grey" stroke="grey" stroke-width="2" points="313.13,-190.13 316.56,-180.1 307.63,-185.81 313.13,-190.13"/>
</g>
<!-- 8&#45;&gt;6 -->
<g id="edge16" class="edge">
<title>8&#45;&gt;6</title>
<path fill="none" stroke="grey" stroke-width="2" d="M311.45,-215.88C331.64,-206.39 356.92,-194.51 378.41,-184.42"/>
<polygon fill="grey" stroke="grey" stroke-width="2" points="380.11,-187.49 387.67,-180.07 377.13,-181.15 380.11,-187.49"/>
</g>
<!-- 8&#45;&gt;7 -->
<g id="edge18" class="edge">
<title>8&#45;&gt;7</title>
<path fill="none" stroke="grey" stroke-width="2" d="M341.47,-215.94C377.15,-206.57 422.07,-194.43 470.25,-180.16"/>
<polygon fill="grey" stroke="grey" stroke-width="2" points="471.34,-183.48 479.92,-177.27 469.34,-176.77 471.34,-183.48"/>
</g>
<!-- 9 -->
<g id="node10" class="node">
<title>9</title>
<path fill="none" stroke="#56d87b" stroke-width="2" d="M168,-252C168,-252 118,-252 118,-252 112,-252 106,-246 106,-240 106,-240 106,-228 106,-228 106,-222 112,-216 118,-216 118,-216 168,-216 168,-216 174,-216 180,-222 180,-228 180,-228 180,-240 180,-240 180,-246 174,-252 168,-252"/>
<text text-anchor="middle" x="143" y="-231.5" font-family="sans" font-size="10.00">soap_config</text>
</g>
<!-- 9&#45;&gt;2 -->
<g id="edge9" class="edge">
<title>9&#45;&gt;2</title>
<path fill="none" stroke="grey" stroke-width="2" d="M117.31,-215.88C103.71,-206.81 86.83,-195.55 72.14,-185.76"/>
<polygon fill="grey" stroke="grey" stroke-width="2" points="74.05,-182.82 63.78,-180.19 70.16,-188.65 74.05,-182.82"/>
</g>
<!-- 9&#45;&gt;3 -->
<g id="edge11" class="edge">
<title>9&#45;&gt;3</title>
<path fill="none" stroke="grey" stroke-width="2" d="M140.28,-215.7C139.07,-207.98 137.61,-198.71 136.26,-190.11"/>
<polygon fill="grey" stroke="grey" stroke-width="2" points="139.7,-189.44 134.69,-180.1 132.78,-190.53 139.7,-189.44"/>
</g>
<!-- 9&#45;&gt;4 -->
<g id="edge13" class="edge">
<title>9&#45;&gt;4</title>
<path fill="none" stroke="grey" stroke-width="2" d="M164.75,-215.7C175.84,-206.88 189.47,-196.03 201.49,-186.47"/>
<polygon fill="grey" stroke="grey" stroke-width="2" points="203.85,-189.07 209.5,-180.1 199.49,-183.59 203.85,-189.07"/>
</g>
<!-- 10 -->
<g id="node11" class="node">
<title>10</title>
<path fill="none" stroke="#56d8a2" stroke-width="2" d="M405,-468C405,-468 349,-468 349,-468 343,-468 337,-462 337,-456 337,-456 337,-444 337,-444 337,-438 343,-432 349,-432 349,-432 405,-432 405,-432 411,-432 417,-438 417,-444 417,-444 417,-456 417,-456 417,-462 411,-468 405,-468"/>
<text text-anchor="middle" x="377" y="-453" font-family="sans" font-size="10.00">trimmomatic</text>
<text text-anchor="middle" x="377" y="-442" font-family="sans" font-size="10.00">id: TESTFILE</text>
</g>
<!-- 10&#45;&gt;5 -->
<g id="edge15" class="edge">
<title>10&#45;&gt;5</title>
<path fill="none" stroke="grey" stroke-width="2" d="M377.92,-431.91C379.53,-392.8 380.78,-294.12 358,-216 355.33,-206.85 350.99,-197.47 346.52,-189.19"/>
<polygon fill="grey" stroke="grey" stroke-width="2" points="349.49,-187.33 341.49,-180.38 343.41,-190.8 349.49,-187.33"/>
</g>
<!-- 10&#45;&gt;6 -->
<g id="edge17" class="edge">
<title>10&#45;&gt;6</title>
<path fill="none" stroke="grey" stroke-width="2" d="M382.47,-431.96C385.63,-421.65 389.46,-408.17 392,-396 407.41,-322.31 417.22,-233.91 421.51,-190.21"/>
<polygon fill="grey" stroke="grey" stroke-width="2" points="425,-190.38 422.48,-180.1 418.04,-189.72 425,-190.38"/>
</g>
<!-- 10&#45;&gt;7 -->
<g id="edge19" class="edge">
<title>10&#45;&gt;7</title>
<path fill="none" stroke="grey" stroke-width="2" d="M388.06,-431.56C394.41,-421.33 402.41,-408.08 409,-396 448.99,-322.63 490.9,-233.22 510.94,-189.56"/>
<polygon fill="grey" stroke="grey" stroke-width="2" points="514.23,-190.77 515.21,-180.22 507.87,-187.86 514.23,-190.77"/>
</g>
<!-- 10&#45;&gt;9 -->
<g id="edge21" class="edge">
<title>10&#45;&gt;9</title>
<path fill="none" stroke="grey" stroke-width="2" d="M336.79,-441.03C307.12,-433.5 267.17,-419.72 239,-396 195.27,-359.18 166.36,-297.08 152.51,-261.74"/>
<polygon fill="grey" stroke="grey" stroke-width="2" points="155.67,-260.21 148.85,-252.1 149.13,-262.69 155.67,-260.21"/>
</g>
<!-- 12 -->
<g id="node13" class="node">
<title>12</title>
<path fill="none" stroke="#d8a456" stroke-width="2" d="M334,-396C334,-396 260,-396 260,-396 254,-396 248,-390 248,-384 248,-384 248,-372 248,-372 248,-366 254,-360 260,-360 260,-360 334,-360 334,-360 340,-360 346,-366 346,-372 346,-372 346,-384 346,-384 346,-390 340,-396 334,-396"/>
<text text-anchor="middle" x="297" y="-375.5" font-family="sans" font-size="10.00">KmerGenie_prep</text>
</g>
<!-- 10&#45;&gt;12 -->
<g id="edge23" class="edge">
<title>10&#45;&gt;12</title>
<path fill="none" stroke="grey" stroke-width="2" d="M357.22,-431.7C347.25,-422.97 334.99,-412.24 324.14,-402.75"/>
<polygon fill="grey" stroke="grey" stroke-width="2" points="326.38,-400.06 316.55,-396.1 321.77,-405.32 326.38,-400.06"/>
</g>
<!-- 11 -->
<g id="node12" class="node">
<title>11</title>
<path fill="none" stroke="#78d856" stroke-width="2" d="M310.5,-324C310.5,-324 263.5,-324 263.5,-324 257.5,-324 251.5,-318 251.5,-312 251.5,-312 251.5,-300 251.5,-300 251.5,-294 257.5,-288 263.5,-288 263.5,-288 310.5,-288 310.5,-288 316.5,-288 322.5,-294 322.5,-300 322.5,-300 322.5,-312 322.5,-312 322.5,-318 316.5,-324 310.5,-324"/>
<text text-anchor="middle" x="287" y="-303.5" font-family="sans" font-size="10.00">KmerGenie</text>
</g>
<!-- 11&#45;&gt;8 -->
<g id="edge20" class="edge">
<title>11&#45;&gt;8</title>
<path fill="none" stroke="grey" stroke-width="2" d="M284.03,-287.7C282.71,-279.98 281.12,-270.71 279.65,-262.11"/>
<polygon fill="grey" stroke="grey" stroke-width="2" points="283.07,-261.37 277.93,-252.1 276.17,-262.55 283.07,-261.37"/>
</g>
<!-- 12&#45;&gt;11 -->
<g id="edge22" class="edge">
<title>12&#45;&gt;11</title>
<path fill="none" stroke="grey" stroke-width="2" d="M294.53,-359.7C293.43,-351.98 292.1,-342.71 290.87,-334.11"/>
<polygon fill="grey" stroke="grey" stroke-width="2" points="294.32,-333.51 289.44,-324.1 287.39,-334.5 294.32,-333.51"/>
</g>
</g>
</svg>
