<?xml version="1.0" encoding="UTF-8" standalone="no"?>
<!DOCTYPE svg PUBLIC "-//W3C//DTD SVG 1.1//EN"
 "http://www.w3.org/Graphics/SVG/1.1/DTD/svg11.dtd">
<!-- Generated by graphviz version 2.42.3 (20191010.1750)
 -->
<!-- Title: snakemake_dag Pages: 1 -->
<svg width="2910pt" height="476pt"
 viewBox="0.00 0.00 2909.50 476.00" xmlns="http://www.w3.org/2000/svg" xmlns:xlink="http://www.w3.org/1999/xlink">
<g id="graph0" class="graph" transform="scale(1 1) rotate(0) translate(4 472)">
<title>snakemake_dag</title>
<polygon fill="white" stroke="transparent" points="-4,4 -4,-472 2905.5,-472 2905.5,4 -4,4"/>
<!-- 0 -->
<g id="node1" class="node">
<title>0</title>
<path fill="none" stroke="#c6d856" stroke-width="2" d="M1462.5,-36C1462.5,-36 1432.5,-36 1432.5,-36 1426.5,-36 1420.5,-30 1420.5,-24 1420.5,-24 1420.5,-12 1420.5,-12 1420.5,-6 1426.5,0 1432.5,0 1432.5,0 1462.5,0 1462.5,0 1468.5,0 1474.5,-6 1474.5,-12 1474.5,-12 1474.5,-24 1474.5,-24 1474.5,-30 1468.5,-36 1462.5,-36"/>
<text text-anchor="middle" x="1447.5" y="-15.5" font-family="sans" font-size="10.00">all</text>
</g>
<!-- 1 -->
<g id="node2" class="node">
<title>1</title>
<path fill="none" stroke="#56d8c9" stroke-width="2" d="M1462.5,-108C1462.5,-108 1432.5,-108 1432.5,-108 1426.5,-108 1420.5,-102 1420.5,-96 1420.5,-96 1420.5,-84 1420.5,-84 1420.5,-78 1426.5,-72 1432.5,-72 1432.5,-72 1462.5,-72 1462.5,-72 1468.5,-72 1474.5,-78 1474.5,-84 1474.5,-84 1474.5,-96 1474.5,-96 1474.5,-102 1468.5,-108 1462.5,-108"/>
<text text-anchor="middle" x="1447.5" y="-87.5" font-family="sans" font-size="10.00">quast</text>
</g>
<!-- 1&#45;&gt;0 -->
<g id="edge1" class="edge">
<title>1&#45;&gt;0</title>
<path fill="none" stroke="grey" stroke-width="2" d="M1447.5,-71.7C1447.5,-63.98 1447.5,-54.71 1447.5,-46.11"/>
<polygon fill="grey" stroke="grey" stroke-width="2" points="1451,-46.1 1447.5,-36.1 1444,-46.1 1451,-46.1"/>
</g>
<!-- 2 -->
<g id="node3" class="node">
<title>2</title>
<path fill="none" stroke="#d85656" stroke-width="2" d="M355.5,-180C355.5,-180 303.5,-180 303.5,-180 297.5,-180 291.5,-174 291.5,-168 291.5,-168 291.5,-156 291.5,-156 291.5,-150 297.5,-144 303.5,-144 303.5,-144 355.5,-144 355.5,-144 361.5,-144 367.5,-150 367.5,-156 367.5,-156 367.5,-168 367.5,-168 367.5,-174 361.5,-180 355.5,-180"/>
<text text-anchor="middle" x="329.5" y="-165" font-family="sans" font-size="10.00">soapdenovo</text>
<text text-anchor="middle" x="329.5" y="-154" font-family="sans" font-size="10.00">kmer: lower</text>
</g>
<!-- 2&#45;&gt;1 -->
<g id="edge2" class="edge">
<title>2&#45;&gt;1</title>
<path fill="none" stroke="grey" stroke-width="2" d="M367.71,-146.13C370.65,-145.31 373.61,-144.58 376.5,-144 580.55,-103.01 1245.16,-93.19 1410.16,-91.36"/>
<polygon fill="grey" stroke="grey" stroke-width="2" points="1410.34,-94.86 1420.3,-91.25 1410.26,-87.86 1410.34,-94.86"/>
</g>
<!-- 3 -->
<g id="node4" class="node">
<title>3</title>
<path fill="none" stroke="#d85656" stroke-width="2" d="M449.5,-180C449.5,-180 397.5,-180 397.5,-180 391.5,-180 385.5,-174 385.5,-168 385.5,-168 385.5,-156 385.5,-156 385.5,-150 391.5,-144 397.5,-144 397.5,-144 449.5,-144 449.5,-144 455.5,-144 461.5,-150 461.5,-156 461.5,-156 461.5,-168 461.5,-168 461.5,-174 455.5,-180 449.5,-180"/>
<text text-anchor="middle" x="423.5" y="-165" font-family="sans" font-size="10.00">soapdenovo</text>
<text text-anchor="middle" x="423.5" y="-154" font-family="sans" font-size="10.00">kmer: upper</text>
</g>
<!-- 3&#45;&gt;1 -->
<g id="edge3" class="edge">
<title>3&#45;&gt;1</title>
<path fill="none" stroke="grey" stroke-width="2" d="M461.71,-146.15C464.66,-145.32 467.61,-144.59 470.5,-144 655.21,-106.44 1253.89,-94.17 1409.99,-91.57"/>
<polygon fill="grey" stroke="grey" stroke-width="2" points="1410.52,-95.06 1420.46,-91.4 1410.4,-88.06 1410.52,-95.06"/>
</g>
<!-- 4 -->
<g id="node5" class="node">
<title>4</title>
<path fill="none" stroke="#d85656" stroke-width="2" d="M553.5,-180C553.5,-180 491.5,-180 491.5,-180 485.5,-180 479.5,-174 479.5,-168 479.5,-168 479.5,-156 479.5,-156 479.5,-150 485.5,-144 491.5,-144 491.5,-144 553.5,-144 553.5,-144 559.5,-144 565.5,-150 565.5,-156 565.5,-156 565.5,-168 565.5,-168 565.5,-174 559.5,-180 553.5,-180"/>
<text text-anchor="middle" x="522.5" y="-165" font-family="sans" font-size="10.00">soapdenovo</text>
<text text-anchor="middle" x="522.5" y="-154" font-family="sans" font-size="10.00">kmer: optimal</text>
</g>
<!-- 4&#45;&gt;1 -->
<g id="edge4" class="edge">
<title>4&#45;&gt;1</title>
<path fill="none" stroke="grey" stroke-width="2" d="M565.69,-145.96C568.65,-145.22 571.61,-144.55 574.5,-144 738.57,-112.73 1265.35,-96.07 1410.29,-91.99"/>
<polygon fill="grey" stroke="grey" stroke-width="2" points="1410.54,-95.49 1420.44,-91.71 1410.35,-88.49 1410.54,-95.49"/>
</g>
<!-- 5 -->
<g id="node6" class="node">
<title>5</title>
<path fill="none" stroke="#d85656" stroke-width="2" d="M939.5,-180C939.5,-180 887.5,-180 887.5,-180 881.5,-180 875.5,-174 875.5,-168 875.5,-168 875.5,-156 875.5,-156 875.5,-150 881.5,-144 887.5,-144 887.5,-144 939.5,-144 939.5,-144 945.5,-144 951.5,-150 951.5,-156 951.5,-156 951.5,-168 951.5,-168 951.5,-174 945.5,-180 939.5,-180"/>
<text text-anchor="middle" x="913.5" y="-165" font-family="sans" font-size="10.00">soapdenovo</text>
<text text-anchor="middle" x="913.5" y="-154" font-family="sans" font-size="10.00">kmer: lower</text>
</g>
<!-- 5&#45;&gt;1 -->
<g id="edge5" class="edge">
<title>5&#45;&gt;1</title>
<path fill="none" stroke="grey" stroke-width="2" d="M951.75,-146.32C954.69,-145.46 957.63,-144.67 960.5,-144 1125.4,-105.78 1328.25,-94.96 1410.37,-92.03"/>
<polygon fill="grey" stroke="grey" stroke-width="2" points="1410.59,-95.52 1420.46,-91.69 1410.35,-88.53 1410.59,-95.52"/>
</g>
<!-- 6 -->
<g id="node7" class="node">
<title>6</title>
<path fill="none" stroke="#d85656" stroke-width="2" d="M1033.5,-180C1033.5,-180 981.5,-180 981.5,-180 975.5,-180 969.5,-174 969.5,-168 969.5,-168 969.5,-156 969.5,-156 969.5,-150 975.5,-144 981.5,-144 981.5,-144 1033.5,-144 1033.5,-144 1039.5,-144 1045.5,-150 1045.5,-156 1045.5,-156 1045.5,-168 1045.5,-168 1045.5,-174 1039.5,-180 1033.5,-180"/>
<text text-anchor="middle" x="1007.5" y="-165" font-family="sans" font-size="10.00">soapdenovo</text>
<text text-anchor="middle" x="1007.5" y="-154" font-family="sans" font-size="10.00">kmer: upper</text>
</g>
<!-- 6&#45;&gt;1 -->
<g id="edge6" class="edge">
<title>6&#45;&gt;1</title>
<path fill="none" stroke="grey" stroke-width="2" d="M1045.51,-146.48C1048.53,-145.57 1051.55,-144.72 1054.5,-144 1182.97,-112.49 1339.98,-98.42 1410.32,-93.37"/>
<polygon fill="grey" stroke="grey" stroke-width="2" points="1410.72,-96.85 1420.45,-92.66 1410.23,-89.86 1410.72,-96.85"/>
</g>
<!-- 7 -->
<g id="node8" class="node">
<title>7</title>
<path fill="none" stroke="#d85656" stroke-width="2" d="M1137.5,-180C1137.5,-180 1075.5,-180 1075.5,-180 1069.5,-180 1063.5,-174 1063.5,-168 1063.5,-168 1063.5,-156 1063.5,-156 1063.5,-150 1069.5,-144 1075.5,-144 1075.5,-144 1137.5,-144 1137.5,-144 1143.5,-144 1149.5,-150 1149.5,-156 1149.5,-156 1149.5,-168 1149.5,-168 1149.5,-174 1143.5,-180 1137.5,-180"/>
<text text-anchor="middle" x="1106.5" y="-165" font-family="sans" font-size="10.00">soapdenovo</text>
<text text-anchor="middle" x="1106.5" y="-154" font-family="sans" font-size="10.00">kmer: optimal</text>
</g>
<!-- 7&#45;&gt;1 -->
<g id="edge7" class="edge">
<title>7&#45;&gt;1</title>
<path fill="none" stroke="grey" stroke-width="2" d="M1149.78,-146.37C1152.72,-145.52 1155.65,-144.72 1158.5,-144 1247.68,-121.35 1354.66,-104.31 1410.09,-96.21"/>
<polygon fill="grey" stroke="grey" stroke-width="2" points="1410.75,-99.66 1420.14,-94.76 1409.74,-92.73 1410.75,-99.66"/>
</g>
<!-- 8 -->
<g id="node9" class="node">
<title>8</title>
<path fill="none" stroke="#d85656" stroke-width="2" d="M1523.5,-180C1523.5,-180 1471.5,-180 1471.5,-180 1465.5,-180 1459.5,-174 1459.5,-168 1459.5,-168 1459.5,-156 1459.5,-156 1459.5,-150 1465.5,-144 1471.5,-144 1471.5,-144 1523.5,-144 1523.5,-144 1529.5,-144 1535.5,-150 1535.5,-156 1535.5,-156 1535.5,-168 1535.5,-168 1535.5,-174 1529.5,-180 1523.5,-180"/>
<text text-anchor="middle" x="1497.5" y="-165" font-family="sans" font-size="10.00">soapdenovo</text>
<text text-anchor="middle" x="1497.5" y="-154" font-family="sans" font-size="10.00">kmer: lower</text>
</g>
<!-- 8&#45;&gt;1 -->
<g id="edge8" class="edge">
<title>8&#45;&gt;1</title>
<path fill="none" stroke="grey" stroke-width="2" d="M1485.14,-143.7C1479.27,-135.47 1472.13,-125.48 1465.66,-116.42"/>
<polygon fill="grey" stroke="grey" stroke-width="2" points="1468.38,-114.21 1459.72,-108.1 1462.68,-118.28 1468.38,-114.21"/>
</g>
<!-- 9 -->
<g id="node10" class="node">
<title>9</title>
<path fill="none" stroke="#d85656" stroke-width="2" d="M1617.5,-180C1617.5,-180 1565.5,-180 1565.5,-180 1559.5,-180 1553.5,-174 1553.5,-168 1553.5,-168 1553.5,-156 1553.5,-156 1553.5,-150 1559.5,-144 1565.5,-144 1565.5,-144 1617.5,-144 1617.5,-144 1623.5,-144 1629.5,-150 1629.5,-156 1629.5,-156 1629.5,-168 1629.5,-168 1629.5,-174 1623.5,-180 1617.5,-180"/>
<text text-anchor="middle" x="1591.5" y="-165" font-family="sans" font-size="10.00">soapdenovo</text>
<text text-anchor="middle" x="1591.5" y="-154" font-family="sans" font-size="10.00">kmer: upper</text>
</g>
<!-- 9&#45;&gt;1 -->
<g id="edge9" class="edge">
<title>9&#45;&gt;1</title>
<path fill="none" stroke="grey" stroke-width="2" d="M1556.27,-143.88C1534.27,-133.18 1506.01,-119.44 1483.8,-108.65"/>
<polygon fill="grey" stroke="grey" stroke-width="2" points="1485.22,-105.44 1474.7,-104.22 1482.16,-111.74 1485.22,-105.44"/>
</g>
<!-- 10 -->
<g id="node11" class="node">
<title>10</title>
<path fill="none" stroke="#d85656" stroke-width="2" d="M1721.5,-180C1721.5,-180 1659.5,-180 1659.5,-180 1653.5,-180 1647.5,-174 1647.5,-168 1647.5,-168 1647.5,-156 1647.5,-156 1647.5,-150 1653.5,-144 1659.5,-144 1659.5,-144 1721.5,-144 1721.5,-144 1727.5,-144 1733.5,-150 1733.5,-156 1733.5,-156 1733.5,-168 1733.5,-168 1733.5,-174 1727.5,-180 1721.5,-180"/>
<text text-anchor="middle" x="1690.5" y="-165" font-family="sans" font-size="10.00">soapdenovo</text>
<text text-anchor="middle" x="1690.5" y="-154" font-family="sans" font-size="10.00">kmer: optimal</text>
</g>
<!-- 10&#45;&gt;1 -->
<g id="edge10" class="edge">
<title>10&#45;&gt;1</title>
<path fill="none" stroke="grey" stroke-width="2" d="M1647.42,-146.75C1644.4,-145.8 1641.41,-144.88 1638.5,-144 1585.28,-127.92 1523.16,-111.03 1484.57,-100.75"/>
<polygon fill="grey" stroke="grey" stroke-width="2" points="1485.38,-97.35 1474.81,-98.16 1483.58,-104.11 1485.38,-97.35"/>
</g>
<!-- 11 -->
<g id="node12" class="node">
<title>11</title>
<path fill="none" stroke="#d85656" stroke-width="2" d="M2107.5,-180C2107.5,-180 2055.5,-180 2055.5,-180 2049.5,-180 2043.5,-174 2043.5,-168 2043.5,-168 2043.5,-156 2043.5,-156 2043.5,-150 2049.5,-144 2055.5,-144 2055.5,-144 2107.5,-144 2107.5,-144 2113.5,-144 2119.5,-150 2119.5,-156 2119.5,-156 2119.5,-168 2119.5,-168 2119.5,-174 2113.5,-180 2107.5,-180"/>
<text text-anchor="middle" x="2081.5" y="-165" font-family="sans" font-size="10.00">soapdenovo</text>
<text text-anchor="middle" x="2081.5" y="-154" font-family="sans" font-size="10.00">kmer: lower</text>
</g>
<!-- 11&#45;&gt;1 -->
<g id="edge11" class="edge">
<title>11&#45;&gt;1</title>
<path fill="none" stroke="grey" stroke-width="2" d="M2043.26,-146.26C2040.32,-145.41 2037.38,-144.64 2034.5,-144 1830.59,-98.71 1578.64,-91.95 1484.91,-91.07"/>
<polygon fill="grey" stroke="grey" stroke-width="2" points="1484.82,-87.57 1474.79,-90.99 1484.77,-94.57 1484.82,-87.57"/>
</g>
<!-- 12 -->
<g id="node13" class="node">
<title>12</title>
<path fill="none" stroke="#d85656" stroke-width="2" d="M2201.5,-180C2201.5,-180 2149.5,-180 2149.5,-180 2143.5,-180 2137.5,-174 2137.5,-168 2137.5,-168 2137.5,-156 2137.5,-156 2137.5,-150 2143.5,-144 2149.5,-144 2149.5,-144 2201.5,-144 2201.5,-144 2207.5,-144 2213.5,-150 2213.5,-156 2213.5,-156 2213.5,-168 2213.5,-168 2213.5,-174 2207.5,-180 2201.5,-180"/>
<text text-anchor="middle" x="2175.5" y="-165" font-family="sans" font-size="10.00">soapdenovo</text>
<text text-anchor="middle" x="2175.5" y="-154" font-family="sans" font-size="10.00">kmer: upper</text>
</g>
<!-- 12&#45;&gt;1 -->
<g id="edge12" class="edge">
<title>12&#45;&gt;1</title>
<path fill="none" stroke="grey" stroke-width="2" d="M2137.27,-146.22C2134.33,-145.38 2131.38,-144.62 2128.5,-144 1887.51,-92.04 1588.82,-89.52 1485.08,-90.41"/>
<polygon fill="grey" stroke="grey" stroke-width="2" points="1484.77,-86.91 1474.81,-90.51 1484.84,-93.91 1484.77,-86.91"/>
</g>
<!-- 13 -->
<g id="node14" class="node">
<title>13</title>
<path fill="none" stroke="#d85656" stroke-width="2" d="M2305.5,-180C2305.5,-180 2243.5,-180 2243.5,-180 2237.5,-180 2231.5,-174 2231.5,-168 2231.5,-168 2231.5,-156 2231.5,-156 2231.5,-150 2237.5,-144 2243.5,-144 2243.5,-144 2305.5,-144 2305.5,-144 2311.5,-144 2317.5,-150 2317.5,-156 2317.5,-156 2317.5,-168 2317.5,-168 2317.5,-174 2311.5,-180 2305.5,-180"/>
<text text-anchor="middle" x="2274.5" y="-165" font-family="sans" font-size="10.00">soapdenovo</text>
<text text-anchor="middle" x="2274.5" y="-154" font-family="sans" font-size="10.00">kmer: optimal</text>
</g>
<!-- 13&#45;&gt;1 -->
<g id="edge13" class="edge">
<title>13&#45;&gt;1</title>
<path fill="none" stroke="grey" stroke-width="2" d="M2231.3,-145.99C2228.34,-145.24 2225.39,-144.56 2222.5,-144 2078.46,-115.98 1619.32,-97.3 1484.85,-92.33"/>
<polygon fill="grey" stroke="grey" stroke-width="2" points="1484.77,-88.82 1474.65,-91.95 1484.51,-95.82 1484.77,-88.82"/>
</g>
<!-- 14 -->
<g id="node15" class="node">
<title>14</title>
<path fill="none" stroke="#d85656" stroke-width="2" d="M2691.5,-180C2691.5,-180 2639.5,-180 2639.5,-180 2633.5,-180 2627.5,-174 2627.5,-168 2627.5,-168 2627.5,-156 2627.5,-156 2627.5,-150 2633.5,-144 2639.5,-144 2639.5,-144 2691.5,-144 2691.5,-144 2697.5,-144 2703.5,-150 2703.5,-156 2703.5,-156 2703.5,-168 2703.5,-168 2703.5,-174 2697.5,-180 2691.5,-180"/>
<text text-anchor="middle" x="2665.5" y="-165" font-family="sans" font-size="10.00">soapdenovo</text>
<text text-anchor="middle" x="2665.5" y="-154" font-family="sans" font-size="10.00">kmer: lower</text>
</g>
<!-- 14&#45;&gt;1 -->
<g id="edge14" class="edge">
<title>14&#45;&gt;1</title>
<path fill="none" stroke="grey" stroke-width="2" d="M2627.3,-146.12C2624.35,-145.3 2621.39,-144.57 2618.5,-144 2393.91,-99.37 1659.3,-92.25 1484.89,-91.18"/>
<polygon fill="grey" stroke="grey" stroke-width="2" points="1484.7,-87.68 1474.68,-91.12 1484.66,-94.68 1484.7,-87.68"/>
</g>
<!-- 15 -->
<g id="node16" class="node">
<title>15</title>
<path fill="none" stroke="#d85656" stroke-width="2" d="M2785.5,-180C2785.5,-180 2733.5,-180 2733.5,-180 2727.5,-180 2721.5,-174 2721.5,-168 2721.5,-168 2721.5,-156 2721.5,-156 2721.5,-150 2727.5,-144 2733.5,-144 2733.5,-144 2785.5,-144 2785.5,-144 2791.5,-144 2797.5,-150 2797.5,-156 2797.5,-156 2797.5,-168 2797.5,-168 2797.5,-174 2791.5,-180 2785.5,-180"/>
<text text-anchor="middle" x="2759.5" y="-165" font-family="sans" font-size="10.00">soapdenovo</text>
<text text-anchor="middle" x="2759.5" y="-154" font-family="sans" font-size="10.00">kmer: upper</text>
</g>
<!-- 15&#45;&gt;1 -->
<g id="edge15" class="edge">
<title>15&#45;&gt;1</title>
<path fill="none" stroke="grey" stroke-width="2" d="M2721.3,-146.11C2718.35,-145.29 2715.39,-144.57 2712.5,-144 2468.53,-95.95 1667.77,-91.43 1484.91,-91.03"/>
<polygon fill="grey" stroke="grey" stroke-width="2" points="1484.74,-87.53 1474.73,-91.01 1484.72,-94.53 1484.74,-87.53"/>
</g>
<!-- 16 -->
<g id="node17" class="node">
<title>16</title>
<path fill="none" stroke="#d85656" stroke-width="2" d="M2889.5,-180C2889.5,-180 2827.5,-180 2827.5,-180 2821.5,-180 2815.5,-174 2815.5,-168 2815.5,-168 2815.5,-156 2815.5,-156 2815.5,-150 2821.5,-144 2827.5,-144 2827.5,-144 2889.5,-144 2889.5,-144 2895.5,-144 2901.5,-150 2901.5,-156 2901.5,-156 2901.5,-168 2901.5,-168 2901.5,-174 2895.5,-180 2889.5,-180"/>
<text text-anchor="middle" x="2858.5" y="-165" font-family="sans" font-size="10.00">soapdenovo</text>
<text text-anchor="middle" x="2858.5" y="-154" font-family="sans" font-size="10.00">kmer: optimal</text>
</g>
<!-- 16&#45;&gt;1 -->
<g id="edge16" class="edge">
<title>16&#45;&gt;1</title>
<path fill="none" stroke="grey" stroke-width="2" d="M2815.32,-145.89C2812.36,-145.16 2809.4,-144.52 2806.5,-144 2542.19,-96.59 1674.77,-91.59 1484.58,-91.06"/>
<polygon fill="grey" stroke="grey" stroke-width="2" points="1484.53,-87.56 1474.52,-91.04 1484.51,-94.56 1484.53,-87.56"/>
</g>
<!-- 17 -->
<g id="node18" class="node">
<title>17</title>
<path fill="none" stroke="#56c9d8" stroke-width="2" d="M63,-180C63,-180 12,-180 12,-180 6,-180 0,-174 0,-168 0,-168 0,-156 0,-156 0,-150 6,-144 12,-144 12,-144 63,-144 63,-144 69,-144 75,-150 75,-156 75,-156 75,-168 75,-168 75,-174 69,-180 63,-180"/>
<text text-anchor="middle" x="37.5" y="-165" font-family="sans" font-size="10.00">ABySS</text>
<text text-anchor="middle" x="37.5" y="-154" font-family="sans" font-size="10.00">kmer: lower</text>
</g>
<!-- 17&#45;&gt;1 -->
<g id="edge17" class="edge">
<title>17&#45;&gt;1</title>
<path fill="none" stroke="grey" stroke-width="2" d="M75.18,-146.24C78.3,-145.37 81.43,-144.6 84.5,-144 348.81,-92.35 1219.39,-90.64 1410.29,-90.9"/>
<polygon fill="grey" stroke="grey" stroke-width="2" points="1410.37,-94.4 1420.38,-90.92 1410.38,-87.4 1410.37,-94.4"/>
</g>
<!-- 18 -->
<g id="node19" class="node">
<title>18</title>
<path fill="none" stroke="#56c9d8" stroke-width="2" d="M157.5,-180C157.5,-180 105.5,-180 105.5,-180 99.5,-180 93.5,-174 93.5,-168 93.5,-168 93.5,-156 93.5,-156 93.5,-150 99.5,-144 105.5,-144 105.5,-144 157.5,-144 157.5,-144 163.5,-144 169.5,-150 169.5,-156 169.5,-156 169.5,-168 169.5,-168 169.5,-174 163.5,-180 157.5,-180"/>
<text text-anchor="middle" x="131.5" y="-165" font-family="sans" font-size="10.00">ABySS</text>
<text text-anchor="middle" x="131.5" y="-154" font-family="sans" font-size="10.00">kmer: upper</text>
</g>
<!-- 18&#45;&gt;1 -->
<g id="edge18" class="edge">
<title>18&#45;&gt;1</title>
<path fill="none" stroke="grey" stroke-width="2" d="M169.7,-146.11C172.65,-145.29 175.61,-144.57 178.5,-144 423.37,-95.79 1227.4,-91.4 1410.27,-91.03"/>
<polygon fill="grey" stroke="grey" stroke-width="2" points="1410.45,-94.53 1420.45,-91.01 1410.44,-87.53 1410.45,-94.53"/>
</g>
<!-- 19 -->
<g id="node20" class="node">
<title>19</title>
<path fill="none" stroke="#56c9d8" stroke-width="2" d="M261.5,-180C261.5,-180 199.5,-180 199.5,-180 193.5,-180 187.5,-174 187.5,-168 187.5,-168 187.5,-156 187.5,-156 187.5,-150 193.5,-144 199.5,-144 199.5,-144 261.5,-144 261.5,-144 267.5,-144 273.5,-150 273.5,-156 273.5,-156 273.5,-168 273.5,-168 273.5,-174 267.5,-180 261.5,-180"/>
<text text-anchor="middle" x="230.5" y="-165" font-family="sans" font-size="10.00">ABySS</text>
<text text-anchor="middle" x="230.5" y="-154" font-family="sans" font-size="10.00">kmer: optimal</text>
</g>
<!-- 19&#45;&gt;1 -->
<g id="edge19" class="edge">
<title>19&#45;&gt;1</title>
<path fill="none" stroke="grey" stroke-width="2" d="M273.68,-145.91C276.65,-145.18 279.6,-144.53 282.5,-144 506.6,-103.05 1236.95,-93.14 1410.33,-91.34"/>
<polygon fill="grey" stroke="grey" stroke-width="2" points="1410.52,-94.84 1420.48,-91.24 1410.45,-87.84 1410.52,-94.84"/>
</g>
<!-- 20 -->
<g id="node21" class="node">
<title>20</title>
<path fill="none" stroke="#56c9d8" stroke-width="2" d="M647,-180C647,-180 596,-180 596,-180 590,-180 584,-174 584,-168 584,-168 584,-156 584,-156 584,-150 590,-144 596,-144 596,-144 647,-144 647,-144 653,-144 659,-150 659,-156 659,-156 659,-168 659,-168 659,-174 653,-180 647,-180"/>
<text text-anchor="middle" x="621.5" y="-165" font-family="sans" font-size="10.00">ABySS</text>
<text text-anchor="middle" x="621.5" y="-154" font-family="sans" font-size="10.00">kmer: lower</text>
</g>
<!-- 20&#45;&gt;1 -->
<g id="edge20" class="edge">
<title>20&#45;&gt;1</title>
<path fill="none" stroke="grey" stroke-width="2" d="M659.2,-146.34C662.32,-145.44 665.44,-144.64 668.5,-144 812.83,-113.62 1274.65,-96.59 1409.93,-92.17"/>
<polygon fill="grey" stroke="grey" stroke-width="2" points="1410.31,-95.66 1420.19,-91.84 1410.08,-88.66 1410.31,-95.66"/>
</g>
<!-- 21 -->
<g id="node22" class="node">
<title>21</title>
<path fill="none" stroke="#56c9d8" stroke-width="2" d="M741.5,-180C741.5,-180 689.5,-180 689.5,-180 683.5,-180 677.5,-174 677.5,-168 677.5,-168 677.5,-156 677.5,-156 677.5,-150 683.5,-144 689.5,-144 689.5,-144 741.5,-144 741.5,-144 747.5,-144 753.5,-150 753.5,-156 753.5,-156 753.5,-168 753.5,-168 753.5,-174 747.5,-180 741.5,-180"/>
<text text-anchor="middle" x="715.5" y="-165" font-family="sans" font-size="10.00">ABySS</text>
<text text-anchor="middle" x="715.5" y="-154" font-family="sans" font-size="10.00">kmer: upper</text>
</g>
<!-- 21&#45;&gt;1 -->
<g id="edge21" class="edge">
<title>21&#45;&gt;1</title>
<path fill="none" stroke="grey" stroke-width="2" d="M753.73,-146.22C756.67,-145.38 759.62,-144.62 762.5,-144 1005.2,-91.73 1306.05,-89.42 1410.07,-90.38"/>
<polygon fill="grey" stroke="grey" stroke-width="2" points="1410.32,-93.89 1420.36,-90.5 1410.4,-86.89 1410.32,-93.89"/>
</g>
<!-- 22 -->
<g id="node23" class="node">
<title>22</title>
<path fill="none" stroke="#56c9d8" stroke-width="2" d="M845.5,-180C845.5,-180 783.5,-180 783.5,-180 777.5,-180 771.5,-174 771.5,-168 771.5,-168 771.5,-156 771.5,-156 771.5,-150 777.5,-144 783.5,-144 783.5,-144 845.5,-144 845.5,-144 851.5,-144 857.5,-150 857.5,-156 857.5,-156 857.5,-168 857.5,-168 857.5,-174 851.5,-180 845.5,-180"/>
<text text-anchor="middle" x="814.5" y="-165" font-family="sans" font-size="10.00">ABySS</text>
<text text-anchor="middle" x="814.5" y="-154" font-family="sans" font-size="10.00">kmer: optimal</text>
</g>
<!-- 22&#45;&gt;1 -->
<g id="edge22" class="edge">
<title>22&#45;&gt;1</title>
<path fill="none" stroke="grey" stroke-width="2" d="M857.71,-146.07C860.67,-145.3 863.62,-144.59 866.5,-144 1068.76,-102.27 1317.39,-93.39 1410.22,-91.51"/>
<polygon fill="grey" stroke="grey" stroke-width="2" points="1410.32,-95.01 1420.25,-91.32 1410.19,-88.01 1410.32,-95.01"/>
</g>
<!-- 23 -->
<g id="node24" class="node">
<title>23</title>
<path fill="none" stroke="#56c9d8" stroke-width="2" d="M1231,-180C1231,-180 1180,-180 1180,-180 1174,-180 1168,-174 1168,-168 1168,-168 1168,-156 1168,-156 1168,-150 1174,-144 1180,-144 1180,-144 1231,-144 1231,-144 1237,-144 1243,-150 1243,-156 1243,-156 1243,-168 1243,-168 1243,-174 1237,-180 1231,-180"/>
<text text-anchor="middle" x="1205.5" y="-165" font-family="sans" font-size="10.00">ABySS</text>
<text text-anchor="middle" x="1205.5" y="-154" font-family="sans" font-size="10.00">kmer: lower</text>
</g>
<!-- 23&#45;&gt;1 -->
<g id="edge23" class="edge">
<title>23&#45;&gt;1</title>
<path fill="none" stroke="grey" stroke-width="2" d="M1243.12,-147.09C1246.28,-146.01 1249.44,-144.97 1252.5,-144 1307,-126.77 1371.12,-110 1410.54,-100.09"/>
<polygon fill="grey" stroke="grey" stroke-width="2" points="1411.63,-103.42 1420.49,-97.6 1409.94,-96.63 1411.63,-103.42"/>
</g>
<!-- 24 -->
<g id="node25" class="node">
<title>24</title>
<path fill="none" stroke="#56c9d8" stroke-width="2" d="M1325.5,-180C1325.5,-180 1273.5,-180 1273.5,-180 1267.5,-180 1261.5,-174 1261.5,-168 1261.5,-168 1261.5,-156 1261.5,-156 1261.5,-150 1267.5,-144 1273.5,-144 1273.5,-144 1325.5,-144 1325.5,-144 1331.5,-144 1337.5,-150 1337.5,-156 1337.5,-156 1337.5,-168 1337.5,-168 1337.5,-174 1331.5,-180 1325.5,-180"/>
<text text-anchor="middle" x="1299.5" y="-165" font-family="sans" font-size="10.00">ABySS</text>
<text text-anchor="middle" x="1299.5" y="-154" font-family="sans" font-size="10.00">kmer: upper</text>
</g>
<!-- 24&#45;&gt;1 -->
<g id="edge24" class="edge">
<title>24&#45;&gt;1</title>
<path fill="none" stroke="grey" stroke-width="2" d="M1335.7,-143.88C1358.72,-132.99 1388.4,-118.95 1411.4,-108.07"/>
<polygon fill="grey" stroke="grey" stroke-width="2" points="1412.94,-111.22 1420.49,-103.78 1409.95,-104.89 1412.94,-111.22"/>
</g>
<!-- 25 -->
<g id="node26" class="node">
<title>25</title>
<path fill="none" stroke="#56c9d8" stroke-width="2" d="M1429.5,-180C1429.5,-180 1367.5,-180 1367.5,-180 1361.5,-180 1355.5,-174 1355.5,-168 1355.5,-168 1355.5,-156 1355.5,-156 1355.5,-150 1361.5,-144 1367.5,-144 1367.5,-144 1429.5,-144 1429.5,-144 1435.5,-144 1441.5,-150 1441.5,-156 1441.5,-156 1441.5,-168 1441.5,-168 1441.5,-174 1435.5,-180 1429.5,-180"/>
<text text-anchor="middle" x="1398.5" y="-165" font-family="sans" font-size="10.00">ABySS</text>
<text text-anchor="middle" x="1398.5" y="-154" font-family="sans" font-size="10.00">kmer: optimal</text>
</g>
<!-- 25&#45;&gt;1 -->
<g id="edge25" class="edge">
<title>25&#45;&gt;1</title>
<path fill="none" stroke="grey" stroke-width="2" d="M1410.61,-143.7C1416.37,-135.47 1423.36,-125.48 1429.71,-116.42"/>
<polygon fill="grey" stroke="grey" stroke-width="2" points="1432.66,-118.3 1435.53,-108.1 1426.92,-114.29 1432.66,-118.3"/>
</g>
<!-- 26 -->
<g id="node27" class="node">
<title>26</title>
<path fill="none" stroke="#56c9d8" stroke-width="2" d="M1815,-180C1815,-180 1764,-180 1764,-180 1758,-180 1752,-174 1752,-168 1752,-168 1752,-156 1752,-156 1752,-150 1758,-144 1764,-144 1764,-144 1815,-144 1815,-144 1821,-144 1827,-150 1827,-156 1827,-156 1827,-168 1827,-168 1827,-174 1821,-180 1815,-180"/>
<text text-anchor="middle" x="1789.5" y="-165" font-family="sans" font-size="10.00">ABySS</text>
<text text-anchor="middle" x="1789.5" y="-154" font-family="sans" font-size="10.00">kmer: lower</text>
</g>
<!-- 26&#45;&gt;1 -->
<g id="edge26" class="edge">
<title>26&#45;&gt;1</title>
<path fill="none" stroke="grey" stroke-width="2" d="M1751.97,-146.79C1748.79,-145.78 1745.6,-144.83 1742.5,-144 1651.38,-119.53 1541.35,-103.13 1484.91,-95.65"/>
<polygon fill="grey" stroke="grey" stroke-width="2" points="1485.05,-92.14 1474.68,-94.32 1484.15,-99.08 1485.05,-92.14"/>
</g>
<!-- 27 -->
<g id="node28" class="node">
<title>27</title>
<path fill="none" stroke="#56c9d8" stroke-width="2" d="M1909.5,-180C1909.5,-180 1857.5,-180 1857.5,-180 1851.5,-180 1845.5,-174 1845.5,-168 1845.5,-168 1845.5,-156 1845.5,-156 1845.5,-150 1851.5,-144 1857.5,-144 1857.5,-144 1909.5,-144 1909.5,-144 1915.5,-144 1921.5,-150 1921.5,-156 1921.5,-156 1921.5,-168 1921.5,-168 1921.5,-174 1915.5,-180 1909.5,-180"/>
<text text-anchor="middle" x="1883.5" y="-165" font-family="sans" font-size="10.00">ABySS</text>
<text text-anchor="middle" x="1883.5" y="-154" font-family="sans" font-size="10.00">kmer: upper</text>
</g>
<!-- 27&#45;&gt;1 -->
<g id="edge27" class="edge">
<title>27&#45;&gt;1</title>
<path fill="none" stroke="grey" stroke-width="2" d="M1845.46,-146.74C1842.12,-145.72 1838.76,-144.79 1835.5,-144 1708.87,-113.27 1554.37,-98.85 1484.71,-93.54"/>
<polygon fill="grey" stroke="grey" stroke-width="2" points="1484.9,-90.04 1474.67,-92.79 1484.38,-97.02 1484.9,-90.04"/>
</g>
<!-- 28 -->
<g id="node29" class="node">
<title>28</title>
<path fill="none" stroke="#56c9d8" stroke-width="2" d="M2013.5,-180C2013.5,-180 1951.5,-180 1951.5,-180 1945.5,-180 1939.5,-174 1939.5,-168 1939.5,-168 1939.5,-156 1939.5,-156 1939.5,-150 1945.5,-144 1951.5,-144 1951.5,-144 2013.5,-144 2013.5,-144 2019.5,-144 2025.5,-150 2025.5,-156 2025.5,-156 2025.5,-168 2025.5,-168 2025.5,-174 2019.5,-180 2013.5,-180"/>
<text text-anchor="middle" x="1982.5" y="-165" font-family="sans" font-size="10.00">ABySS</text>
<text text-anchor="middle" x="1982.5" y="-154" font-family="sans" font-size="10.00">kmer: optimal</text>
</g>
<!-- 28&#45;&gt;1 -->
<g id="edge28" class="edge">
<title>28&#45;&gt;1</title>
<path fill="none" stroke="grey" stroke-width="2" d="M1939.27,-146.13C1936.32,-145.34 1933.38,-144.62 1930.5,-144 1766.75,-108.65 1566.41,-96.25 1484.78,-92.47"/>
<polygon fill="grey" stroke="grey" stroke-width="2" points="1484.66,-88.96 1474.52,-92.01 1484.35,-95.95 1484.66,-88.96"/>
</g>
<!-- 29 -->
<g id="node30" class="node">
<title>29</title>
<path fill="none" stroke="#56c9d8" stroke-width="2" d="M2399,-180C2399,-180 2348,-180 2348,-180 2342,-180 2336,-174 2336,-168 2336,-168 2336,-156 2336,-156 2336,-150 2342,-144 2348,-144 2348,-144 2399,-144 2399,-144 2405,-144 2411,-150 2411,-156 2411,-156 2411,-168 2411,-168 2411,-174 2405,-180 2399,-180"/>
<text text-anchor="middle" x="2373.5" y="-165" font-family="sans" font-size="10.00">ABySS</text>
<text text-anchor="middle" x="2373.5" y="-154" font-family="sans" font-size="10.00">kmer: lower</text>
</g>
<!-- 29&#45;&gt;1 -->
<g id="edge29" class="edge">
<title>29&#45;&gt;1</title>
<path fill="none" stroke="grey" stroke-width="2" d="M2335.8,-146.31C2332.69,-145.42 2329.56,-144.63 2326.5,-144 2161.81,-109.99 1631.04,-95.29 1485,-91.83"/>
<polygon fill="grey" stroke="grey" stroke-width="2" points="1484.85,-88.33 1474.77,-91.59 1484.68,-95.33 1484.85,-88.33"/>
</g>
<!-- 30 -->
<g id="node31" class="node">
<title>30</title>
<path fill="none" stroke="#56c9d8" stroke-width="2" d="M2493.5,-180C2493.5,-180 2441.5,-180 2441.5,-180 2435.5,-180 2429.5,-174 2429.5,-168 2429.5,-168 2429.5,-156 2429.5,-156 2429.5,-150 2435.5,-144 2441.5,-144 2441.5,-144 2493.5,-144 2493.5,-144 2499.5,-144 2505.5,-150 2505.5,-156 2505.5,-156 2505.5,-168 2505.5,-168 2505.5,-174 2499.5,-180 2493.5,-180"/>
<text text-anchor="middle" x="2467.5" y="-165" font-family="sans" font-size="10.00">ABySS</text>
<text text-anchor="middle" x="2467.5" y="-154" font-family="sans" font-size="10.00">kmer: upper</text>
</g>
<!-- 30&#45;&gt;1 -->
<g id="edge30" class="edge">
<title>30&#45;&gt;1</title>
<path fill="none" stroke="grey" stroke-width="2" d="M2429.26,-146.37C2425.99,-145.45 2422.71,-144.64 2419.5,-144 2235.64,-107.22 1640.21,-94.38 1484.85,-91.61"/>
<polygon fill="grey" stroke="grey" stroke-width="2" points="1484.91,-88.11 1474.85,-91.44 1484.79,-95.11 1484.91,-88.11"/>
</g>
<!-- 31 -->
<g id="node32" class="node">
<title>31</title>
<path fill="none" stroke="#56c9d8" stroke-width="2" d="M2597.5,-180C2597.5,-180 2535.5,-180 2535.5,-180 2529.5,-180 2523.5,-174 2523.5,-168 2523.5,-168 2523.5,-156 2523.5,-156 2523.5,-150 2529.5,-144 2535.5,-144 2535.5,-144 2597.5,-144 2597.5,-144 2603.5,-144 2609.5,-150 2609.5,-156 2609.5,-156 2609.5,-168 2609.5,-168 2609.5,-174 2603.5,-180 2597.5,-180"/>
<text text-anchor="middle" x="2566.5" y="-165" font-family="sans" font-size="10.00">ABySS</text>
<text text-anchor="middle" x="2566.5" y="-154" font-family="sans" font-size="10.00">kmer: optimal</text>
</g>
<!-- 31&#45;&gt;1 -->
<g id="edge31" class="edge">
<title>31&#45;&gt;1</title>
<path fill="none" stroke="grey" stroke-width="2" d="M2523.31,-145.93C2520.35,-145.19 2517.4,-144.54 2514.5,-144 2310.61,-106.31 1648.93,-94.03 1484.67,-91.52"/>
<polygon fill="grey" stroke="grey" stroke-width="2" points="1484.63,-88.02 1474.58,-91.37 1484.53,-95.02 1484.63,-88.02"/>
</g>
<!-- 32 -->
<g id="node33" class="node">
<title>32</title>
<path fill="none" stroke="#56d8a2" stroke-width="2" d="M350.5,-252C350.5,-252 226.5,-252 226.5,-252 220.5,-252 214.5,-246 214.5,-240 214.5,-240 214.5,-228 214.5,-228 214.5,-222 220.5,-216 226.5,-216 226.5,-216 350.5,-216 350.5,-216 356.5,-216 362.5,-222 362.5,-228 362.5,-228 362.5,-240 362.5,-240 362.5,-246 356.5,-252 350.5,-252"/>
<text text-anchor="middle" x="288.5" y="-231.5" font-family="sans" font-size="10.00">KmerInputLowerUpperBest</text>
</g>
<!-- 32&#45;&gt;2 -->
<g id="edge32" class="edge">
<title>32&#45;&gt;2</title>
<path fill="none" stroke="grey" stroke-width="2" d="M298.63,-215.7C303.35,-207.64 309.06,-197.89 314.28,-188.98"/>
<polygon fill="grey" stroke="grey" stroke-width="2" points="317.45,-190.5 319.48,-180.1 311.41,-186.96 317.45,-190.5"/>
</g>
<!-- 32&#45;&gt;3 -->
<g id="edge34" class="edge">
<title>32&#45;&gt;3</title>
<path fill="none" stroke="grey" stroke-width="2" d="M321.52,-215.88C339.58,-206.51 362.15,-194.81 381.45,-184.8"/>
<polygon fill="grey" stroke="grey" stroke-width="2" points="383.08,-187.9 390.35,-180.19 379.86,-181.69 383.08,-187.9"/>
</g>
<!-- 32&#45;&gt;4 -->
<g id="edge36" class="edge">
<title>32&#45;&gt;4</title>
<path fill="none" stroke="grey" stroke-width="2" d="M348.9,-215.95C382.04,-206.46 424.07,-194.24 469.63,-180.23"/>
<polygon fill="grey" stroke="grey" stroke-width="2" points="470.88,-183.5 479.4,-177.21 468.82,-176.81 470.88,-183.5"/>
</g>
<!-- 32&#45;&gt;17 -->
<g id="edge62" class="edge">
<title>32&#45;&gt;17</title>
<path fill="none" stroke="grey" stroke-width="2" d="M216.29,-215.97C179.51,-206.9 133.95,-195.03 84.95,-180"/>
<polygon fill="grey" stroke="grey" stroke-width="2" points="85.69,-176.56 75.11,-176.95 83.62,-183.25 85.69,-176.56"/>
</g>
<!-- 32&#45;&gt;18 -->
<g id="edge64" class="edge">
<title>32&#45;&gt;18</title>
<path fill="none" stroke="grey" stroke-width="2" d="M250.09,-215.88C228.55,-206.27 201.5,-194.21 178.68,-184.03"/>
<polygon fill="grey" stroke="grey" stroke-width="2" points="180.07,-180.82 169.51,-179.95 177.22,-187.22 180.07,-180.82"/>
</g>
<!-- 32&#45;&gt;19 -->
<g id="edge66" class="edge">
<title>32&#45;&gt;19</title>
<path fill="none" stroke="grey" stroke-width="2" d="M274.16,-215.7C267.21,-207.3 258.73,-197.07 251.1,-187.86"/>
<polygon fill="grey" stroke="grey" stroke-width="2" points="253.75,-185.57 244.67,-180.1 248.36,-190.04 253.75,-185.57"/>
</g>
<!-- 33 -->
<g id="node34" class="node">
<title>33</title>
<path fill="none" stroke="#d8c356" stroke-width="2" stroke-dasharray="5,2" d="M445.5,-252C445.5,-252 395.5,-252 395.5,-252 389.5,-252 383.5,-246 383.5,-240 383.5,-240 383.5,-228 383.5,-228 383.5,-222 389.5,-216 395.5,-216 395.5,-216 445.5,-216 445.5,-216 451.5,-216 457.5,-222 457.5,-228 457.5,-228 457.5,-240 457.5,-240 457.5,-246 451.5,-252 445.5,-252"/>
<text text-anchor="middle" x="420.5" y="-231.5" font-family="sans" font-size="10.00">soap_config</text>
</g>
<!-- 33&#45;&gt;2 -->
<g id="edge33" class="edge">
<title>33&#45;&gt;2</title>
<path fill="none" stroke="grey" stroke-width="2" d="M398.01,-215.7C386.54,-206.88 372.44,-196.03 360.02,-186.47"/>
<polygon fill="grey" stroke="grey" stroke-width="2" points="361.8,-183.43 351.74,-180.1 357.53,-188.98 361.8,-183.43"/>
</g>
<!-- 33&#45;&gt;3 -->
<g id="edge35" class="edge">
<title>33&#45;&gt;3</title>
<path fill="none" stroke="grey" stroke-width="2" d="M421.24,-215.7C421.57,-207.98 421.97,-198.71 422.34,-190.11"/>
<polygon fill="grey" stroke="grey" stroke-width="2" points="425.84,-190.25 422.77,-180.1 418.84,-189.95 425.84,-190.25"/>
</g>
<!-- 33&#45;&gt;4 -->
<g id="edge37" class="edge">
<title>33&#45;&gt;4</title>
<path fill="none" stroke="grey" stroke-width="2" d="M445.45,-215.88C458.54,-206.89 474.76,-195.76 488.94,-186.03"/>
<polygon fill="grey" stroke="grey" stroke-width="2" points="491.19,-188.73 497.45,-180.19 487.23,-182.96 491.19,-188.73"/>
</g>
<!-- 34 -->
<g id="node35" class="node">
<title>34</title>
<path fill="none" stroke="#56d8a2" stroke-width="2" d="M931.5,-252C931.5,-252 807.5,-252 807.5,-252 801.5,-252 795.5,-246 795.5,-240 795.5,-240 795.5,-228 795.5,-228 795.5,-222 801.5,-216 807.5,-216 807.5,-216 931.5,-216 931.5,-216 937.5,-216 943.5,-222 943.5,-228 943.5,-228 943.5,-240 943.5,-240 943.5,-246 937.5,-252 931.5,-252"/>
<text text-anchor="middle" x="869.5" y="-231.5" font-family="sans" font-size="10.00">KmerInputLowerUpperBest</text>
</g>
<!-- 34&#45;&gt;5 -->
<g id="edge38" class="edge">
<title>34&#45;&gt;5</title>
<path fill="none" stroke="grey" stroke-width="2" d="M880.38,-215.7C885.49,-207.56 891.7,-197.69 897.34,-188.7"/>
<polygon fill="grey" stroke="grey" stroke-width="2" points="900.39,-190.43 902.75,-180.1 894.46,-186.71 900.39,-190.43"/>
</g>
<!-- 34&#45;&gt;6 -->
<g id="edge40" class="edge">
<title>34&#45;&gt;6</title>
<path fill="none" stroke="grey" stroke-width="2" d="M903.26,-215.88C921.72,-206.51 944.78,-194.81 964.52,-184.8"/>
<polygon fill="grey" stroke="grey" stroke-width="2" points="966.28,-187.83 973.61,-180.19 963.11,-181.59 966.28,-187.83"/>
</g>
<!-- 34&#45;&gt;7 -->
<g id="edge42" class="edge">
<title>34&#45;&gt;7</title>
<path fill="none" stroke="grey" stroke-width="2" d="M931.34,-215.9C965.04,-206.44 1007.69,-194.23 1053.83,-180.16"/>
<polygon fill="grey" stroke="grey" stroke-width="2" points="1054.87,-183.5 1063.41,-177.22 1052.82,-176.81 1054.87,-183.5"/>
</g>
<!-- 34&#45;&gt;20 -->
<g id="edge68" class="edge">
<title>34&#45;&gt;20</title>
<path fill="none" stroke="grey" stroke-width="2" d="M798.36,-215.89C762.13,-206.79 717.24,-194.92 668.84,-179.97"/>
<polygon fill="grey" stroke="grey" stroke-width="2" points="669.7,-176.57 659.11,-176.94 667.62,-183.26 669.7,-176.57"/>
</g>
<!-- 34&#45;&gt;21 -->
<g id="edge70" class="edge">
<title>34&#45;&gt;21</title>
<path fill="none" stroke="grey" stroke-width="2" d="M831.83,-215.88C810.87,-206.35 784.6,-194.41 762.32,-184.28"/>
<polygon fill="grey" stroke="grey" stroke-width="2" points="763.6,-181.02 753.05,-180.07 760.71,-187.39 763.6,-181.02"/>
</g>
<!-- 34&#45;&gt;22 -->
<g id="edge72" class="edge">
<title>34&#45;&gt;22</title>
<path fill="none" stroke="grey" stroke-width="2" d="M855.9,-215.7C849.38,-207.39 841.43,-197.28 834.25,-188.14"/>
<polygon fill="grey" stroke="grey" stroke-width="2" points="836.87,-185.81 827.94,-180.1 831.37,-190.13 836.87,-185.81"/>
</g>
<!-- 35 -->
<g id="node36" class="node">
<title>35</title>
<path fill="none" stroke="#d8c356" stroke-width="2" stroke-dasharray="5,2" d="M1029.5,-252C1029.5,-252 979.5,-252 979.5,-252 973.5,-252 967.5,-246 967.5,-240 967.5,-240 967.5,-228 967.5,-228 967.5,-222 973.5,-216 979.5,-216 979.5,-216 1029.5,-216 1029.5,-216 1035.5,-216 1041.5,-222 1041.5,-228 1041.5,-228 1041.5,-240 1041.5,-240 1041.5,-246 1035.5,-252 1029.5,-252"/>
<text text-anchor="middle" x="1004.5" y="-231.5" font-family="sans" font-size="10.00">soap_config</text>
</g>
<!-- 35&#45;&gt;5 -->
<g id="edge39" class="edge">
<title>35&#45;&gt;5</title>
<path fill="none" stroke="grey" stroke-width="2" d="M982.01,-215.7C970.54,-206.88 956.44,-196.03 944.02,-186.47"/>
<polygon fill="grey" stroke="grey" stroke-width="2" points="945.8,-183.43 935.74,-180.1 941.53,-188.98 945.8,-183.43"/>
</g>
<!-- 35&#45;&gt;6 -->
<g id="edge41" class="edge">
<title>35&#45;&gt;6</title>
<path fill="none" stroke="grey" stroke-width="2" d="M1005.24,-215.7C1005.57,-207.98 1005.97,-198.71 1006.34,-190.11"/>
<polygon fill="grey" stroke="grey" stroke-width="2" points="1009.84,-190.25 1006.77,-180.1 1002.84,-189.95 1009.84,-190.25"/>
</g>
<!-- 35&#45;&gt;7 -->
<g id="edge43" class="edge">
<title>35&#45;&gt;7</title>
<path fill="none" stroke="grey" stroke-width="2" d="M1029.45,-215.88C1042.54,-206.89 1058.76,-195.76 1072.94,-186.03"/>
<polygon fill="grey" stroke="grey" stroke-width="2" points="1075.19,-188.73 1081.45,-180.19 1071.23,-182.96 1075.19,-188.73"/>
</g>
<!-- 36 -->
<g id="node37" class="node">
<title>36</title>
<path fill="none" stroke="#56d8a2" stroke-width="2" d="M1510.5,-252C1510.5,-252 1386.5,-252 1386.5,-252 1380.5,-252 1374.5,-246 1374.5,-240 1374.5,-240 1374.5,-228 1374.5,-228 1374.5,-222 1380.5,-216 1386.5,-216 1386.5,-216 1510.5,-216 1510.5,-216 1516.5,-216 1522.5,-222 1522.5,-228 1522.5,-228 1522.5,-240 1522.5,-240 1522.5,-246 1516.5,-252 1510.5,-252"/>
<text text-anchor="middle" x="1448.5" y="-231.5" font-family="sans" font-size="10.00">KmerInputLowerUpperBest</text>
</g>
<!-- 36&#45;&gt;8 -->
<g id="edge44" class="edge">
<title>36&#45;&gt;8</title>
<path fill="none" stroke="grey" stroke-width="2" d="M1460.61,-215.7C1466.37,-207.47 1473.36,-197.48 1479.71,-188.42"/>
<polygon fill="grey" stroke="grey" stroke-width="2" points="1482.66,-190.3 1485.53,-180.1 1476.92,-186.29 1482.66,-190.3"/>
</g>
<!-- 36&#45;&gt;9 -->
<g id="edge46" class="edge">
<title>36&#45;&gt;9</title>
<path fill="none" stroke="grey" stroke-width="2" d="M1483.48,-215.88C1502.7,-206.47 1526.73,-194.71 1547.24,-184.67"/>
<polygon fill="grey" stroke="grey" stroke-width="2" points="1548.94,-187.73 1556.38,-180.19 1545.86,-181.44 1548.94,-187.73"/>
</g>
<!-- 36&#45;&gt;10 -->
<g id="edge48" class="edge">
<title>36&#45;&gt;10</title>
<path fill="none" stroke="grey" stroke-width="2" d="M1512.47,-215.91C1547.04,-206.5 1590.66,-194.34 1637.66,-180.2"/>
<polygon fill="grey" stroke="grey" stroke-width="2" points="1638.86,-183.49 1647.42,-177.25 1636.83,-176.79 1638.86,-183.49"/>
</g>
<!-- 36&#45;&gt;23 -->
<g id="edge74" class="edge">
<title>36&#45;&gt;23</title>
<path fill="none" stroke="grey" stroke-width="2" d="M1380.07,-215.98C1344.6,-206.81 1300.45,-194.86 1252.71,-179.94"/>
<polygon fill="grey" stroke="grey" stroke-width="2" points="1253.71,-176.58 1243.12,-176.92 1251.6,-183.26 1253.71,-176.58"/>
</g>
<!-- 36&#45;&gt;24 -->
<g id="edge76" class="edge">
<title>36&#45;&gt;24</title>
<path fill="none" stroke="grey" stroke-width="2" d="M1412.05,-215.88C1391.86,-206.39 1366.58,-194.51 1345.09,-184.42"/>
<polygon fill="grey" stroke="grey" stroke-width="2" points="1346.37,-181.15 1335.83,-180.07 1343.39,-187.49 1346.37,-181.15"/>
</g>
<!-- 36&#45;&gt;25 -->
<g id="edge78" class="edge">
<title>36&#45;&gt;25</title>
<path fill="none" stroke="grey" stroke-width="2" d="M1436.14,-215.7C1430.27,-207.47 1423.13,-197.48 1416.66,-188.42"/>
<polygon fill="grey" stroke="grey" stroke-width="2" points="1419.38,-186.21 1410.72,-180.1 1413.68,-190.28 1419.38,-186.21"/>
</g>
<!-- 37 -->
<g id="node38" class="node">
<title>37</title>
<path fill="none" stroke="#d8c356" stroke-width="2" stroke-dasharray="5,2" d="M1613.5,-252C1613.5,-252 1563.5,-252 1563.5,-252 1557.5,-252 1551.5,-246 1551.5,-240 1551.5,-240 1551.5,-228 1551.5,-228 1551.5,-222 1557.5,-216 1563.5,-216 1563.5,-216 1613.5,-216 1613.5,-216 1619.5,-216 1625.5,-222 1625.5,-228 1625.5,-228 1625.5,-240 1625.5,-240 1625.5,-246 1619.5,-252 1613.5,-252"/>
<text text-anchor="middle" x="1588.5" y="-231.5" font-family="sans" font-size="10.00">soap_config</text>
</g>
<!-- 37&#45;&gt;8 -->
<g id="edge45" class="edge">
<title>37&#45;&gt;8</title>
<path fill="none" stroke="grey" stroke-width="2" d="M1566.01,-215.7C1554.54,-206.88 1540.44,-196.03 1528.02,-186.47"/>
<polygon fill="grey" stroke="grey" stroke-width="2" points="1529.8,-183.43 1519.74,-180.1 1525.53,-188.98 1529.8,-183.43"/>
</g>
<!-- 37&#45;&gt;9 -->
<g id="edge47" class="edge">
<title>37&#45;&gt;9</title>
<path fill="none" stroke="grey" stroke-width="2" d="M1589.24,-215.7C1589.57,-207.98 1589.97,-198.71 1590.34,-190.11"/>
<polygon fill="grey" stroke="grey" stroke-width="2" points="1593.84,-190.25 1590.77,-180.1 1586.84,-189.95 1593.84,-190.25"/>
</g>
<!-- 37&#45;&gt;10 -->
<g id="edge49" class="edge">
<title>37&#45;&gt;10</title>
<path fill="none" stroke="grey" stroke-width="2" d="M1613.45,-215.88C1626.54,-206.89 1642.76,-195.76 1656.94,-186.03"/>
<polygon fill="grey" stroke="grey" stroke-width="2" points="1659.19,-188.73 1665.45,-180.19 1655.23,-182.96 1659.19,-188.73"/>
</g>
<!-- 38 -->
<g id="node39" class="node">
<title>38</title>
<path fill="none" stroke="#56d8a2" stroke-width="2" d="M2099.5,-252C2099.5,-252 1975.5,-252 1975.5,-252 1969.5,-252 1963.5,-246 1963.5,-240 1963.5,-240 1963.5,-228 1963.5,-228 1963.5,-222 1969.5,-216 1975.5,-216 1975.5,-216 2099.5,-216 2099.5,-216 2105.5,-216 2111.5,-222 2111.5,-228 2111.5,-228 2111.5,-240 2111.5,-240 2111.5,-246 2105.5,-252 2099.5,-252"/>
<text text-anchor="middle" x="2037.5" y="-231.5" font-family="sans" font-size="10.00">KmerInputLowerUpperBest</text>
</g>
<!-- 38&#45;&gt;11 -->
<g id="edge50" class="edge">
<title>38&#45;&gt;11</title>
<path fill="none" stroke="grey" stroke-width="2" d="M2048.38,-215.7C2053.49,-207.56 2059.7,-197.69 2065.34,-188.7"/>
<polygon fill="grey" stroke="grey" stroke-width="2" points="2068.39,-190.43 2070.75,-180.1 2062.46,-186.71 2068.39,-190.43"/>
</g>
<!-- 38&#45;&gt;12 -->
<g id="edge52" class="edge">
<title>38&#45;&gt;12</title>
<path fill="none" stroke="grey" stroke-width="2" d="M2071.26,-215.88C2089.72,-206.51 2112.78,-194.81 2132.52,-184.8"/>
<polygon fill="grey" stroke="grey" stroke-width="2" points="2134.28,-187.83 2141.61,-180.19 2131.11,-181.59 2134.28,-187.83"/>
</g>
<!-- 38&#45;&gt;13 -->
<g id="edge54" class="edge">
<title>38&#45;&gt;13</title>
<path fill="none" stroke="grey" stroke-width="2" d="M2099.34,-215.9C2133.04,-206.44 2175.69,-194.23 2221.83,-180.16"/>
<polygon fill="grey" stroke="grey" stroke-width="2" points="2222.87,-183.5 2231.41,-177.22 2220.82,-176.81 2222.87,-183.5"/>
</g>
<!-- 38&#45;&gt;26 -->
<g id="edge80" class="edge">
<title>38&#45;&gt;26</title>
<path fill="none" stroke="grey" stroke-width="2" d="M1966.36,-215.89C1930.13,-206.79 1885.24,-194.92 1836.84,-179.97"/>
<polygon fill="grey" stroke="grey" stroke-width="2" points="1837.7,-176.57 1827.11,-176.94 1835.62,-183.26 1837.7,-176.57"/>
</g>
<!-- 38&#45;&gt;27 -->
<g id="edge82" class="edge">
<title>38&#45;&gt;27</title>
<path fill="none" stroke="grey" stroke-width="2" d="M1999.83,-215.88C1978.87,-206.35 1952.6,-194.41 1930.32,-184.28"/>
<polygon fill="grey" stroke="grey" stroke-width="2" points="1931.6,-181.02 1921.05,-180.07 1928.71,-187.39 1931.6,-181.02"/>
</g>
<!-- 38&#45;&gt;28 -->
<g id="edge84" class="edge">
<title>38&#45;&gt;28</title>
<path fill="none" stroke="grey" stroke-width="2" d="M2023.9,-215.7C2017.38,-207.39 2009.43,-197.28 2002.25,-188.14"/>
<polygon fill="grey" stroke="grey" stroke-width="2" points="2004.87,-185.81 1995.94,-180.1 1999.37,-190.13 2004.87,-185.81"/>
</g>
<!-- 39 -->
<g id="node40" class="node">
<title>39</title>
<path fill="none" stroke="#d8c356" stroke-width="2" stroke-dasharray="5,2" d="M2197.5,-252C2197.5,-252 2147.5,-252 2147.5,-252 2141.5,-252 2135.5,-246 2135.5,-240 2135.5,-240 2135.5,-228 2135.5,-228 2135.5,-222 2141.5,-216 2147.5,-216 2147.5,-216 2197.5,-216 2197.5,-216 2203.5,-216 2209.5,-222 2209.5,-228 2209.5,-228 2209.5,-240 2209.5,-240 2209.5,-246 2203.5,-252 2197.5,-252"/>
<text text-anchor="middle" x="2172.5" y="-231.5" font-family="sans" font-size="10.00">soap_config</text>
</g>
<!-- 39&#45;&gt;11 -->
<g id="edge51" class="edge">
<title>39&#45;&gt;11</title>
<path fill="none" stroke="grey" stroke-width="2" d="M2150.01,-215.7C2138.54,-206.88 2124.44,-196.03 2112.02,-186.47"/>
<polygon fill="grey" stroke="grey" stroke-width="2" points="2113.8,-183.43 2103.74,-180.1 2109.53,-188.98 2113.8,-183.43"/>
</g>
<!-- 39&#45;&gt;12 -->
<g id="edge53" class="edge">
<title>39&#45;&gt;12</title>
<path fill="none" stroke="grey" stroke-width="2" d="M2173.24,-215.7C2173.57,-207.98 2173.97,-198.71 2174.34,-190.11"/>
<polygon fill="grey" stroke="grey" stroke-width="2" points="2177.84,-190.25 2174.77,-180.1 2170.84,-189.95 2177.84,-190.25"/>
</g>
<!-- 39&#45;&gt;13 -->
<g id="edge55" class="edge">
<title>39&#45;&gt;13</title>
<path fill="none" stroke="grey" stroke-width="2" d="M2197.45,-215.88C2210.54,-206.89 2226.76,-195.76 2240.94,-186.03"/>
<polygon fill="grey" stroke="grey" stroke-width="2" points="2243.19,-188.73 2249.45,-180.19 2239.23,-182.96 2243.19,-188.73"/>
</g>
<!-- 40 -->
<g id="node41" class="node">
<title>40</title>
<path fill="none" stroke="#56d8a2" stroke-width="2" d="M2683.5,-252C2683.5,-252 2559.5,-252 2559.5,-252 2553.5,-252 2547.5,-246 2547.5,-240 2547.5,-240 2547.5,-228 2547.5,-228 2547.5,-222 2553.5,-216 2559.5,-216 2559.5,-216 2683.5,-216 2683.5,-216 2689.5,-216 2695.5,-222 2695.5,-228 2695.5,-228 2695.5,-240 2695.5,-240 2695.5,-246 2689.5,-252 2683.5,-252"/>
<text text-anchor="middle" x="2621.5" y="-231.5" font-family="sans" font-size="10.00">KmerInputLowerUpperBest</text>
</g>
<!-- 40&#45;&gt;14 -->
<g id="edge56" class="edge">
<title>40&#45;&gt;14</title>
<path fill="none" stroke="grey" stroke-width="2" d="M2632.38,-215.7C2637.49,-207.56 2643.7,-197.69 2649.34,-188.7"/>
<polygon fill="grey" stroke="grey" stroke-width="2" points="2652.39,-190.43 2654.75,-180.1 2646.46,-186.71 2652.39,-190.43"/>
</g>
<!-- 40&#45;&gt;15 -->
<g id="edge58" class="edge">
<title>40&#45;&gt;15</title>
<path fill="none" stroke="grey" stroke-width="2" d="M2655.26,-215.88C2673.72,-206.51 2696.78,-194.81 2716.52,-184.8"/>
<polygon fill="grey" stroke="grey" stroke-width="2" points="2718.28,-187.83 2725.61,-180.19 2715.11,-181.59 2718.28,-187.83"/>
</g>
<!-- 40&#45;&gt;16 -->
<g id="edge60" class="edge">
<title>40&#45;&gt;16</title>
<path fill="none" stroke="grey" stroke-width="2" d="M2683.34,-215.9C2717.04,-206.44 2759.69,-194.23 2805.83,-180.16"/>
<polygon fill="grey" stroke="grey" stroke-width="2" points="2806.87,-183.5 2815.41,-177.22 2804.82,-176.81 2806.87,-183.5"/>
</g>
<!-- 40&#45;&gt;29 -->
<g id="edge86" class="edge">
<title>40&#45;&gt;29</title>
<path fill="none" stroke="grey" stroke-width="2" d="M2550.36,-215.89C2514.13,-206.79 2469.24,-194.92 2420.84,-179.97"/>
<polygon fill="grey" stroke="grey" stroke-width="2" points="2421.7,-176.57 2411.11,-176.94 2419.62,-183.26 2421.7,-176.57"/>
</g>
<!-- 40&#45;&gt;30 -->
<g id="edge88" class="edge">
<title>40&#45;&gt;30</title>
<path fill="none" stroke="grey" stroke-width="2" d="M2583.83,-215.88C2562.87,-206.35 2536.6,-194.41 2514.32,-184.28"/>
<polygon fill="grey" stroke="grey" stroke-width="2" points="2515.6,-181.02 2505.05,-180.07 2512.71,-187.39 2515.6,-181.02"/>
</g>
<!-- 40&#45;&gt;31 -->
<g id="edge90" class="edge">
<title>40&#45;&gt;31</title>
<path fill="none" stroke="grey" stroke-width="2" d="M2607.9,-215.7C2601.38,-207.39 2593.43,-197.28 2586.25,-188.14"/>
<polygon fill="grey" stroke="grey" stroke-width="2" points="2588.87,-185.81 2579.94,-180.1 2583.37,-190.13 2588.87,-185.81"/>
</g>
<!-- 41 -->
<g id="node42" class="node">
<title>41</title>
<path fill="none" stroke="#d8c356" stroke-width="2" stroke-dasharray="5,2" d="M2781.5,-252C2781.5,-252 2731.5,-252 2731.5,-252 2725.5,-252 2719.5,-246 2719.5,-240 2719.5,-240 2719.5,-228 2719.5,-228 2719.5,-222 2725.5,-216 2731.5,-216 2731.5,-216 2781.5,-216 2781.5,-216 2787.5,-216 2793.5,-222 2793.5,-228 2793.5,-228 2793.5,-240 2793.5,-240 2793.5,-246 2787.5,-252 2781.5,-252"/>
<text text-anchor="middle" x="2756.5" y="-231.5" font-family="sans" font-size="10.00">soap_config</text>
</g>
<!-- 41&#45;&gt;14 -->
<g id="edge57" class="edge">
<title>41&#45;&gt;14</title>
<path fill="none" stroke="grey" stroke-width="2" d="M2734.01,-215.7C2722.54,-206.88 2708.44,-196.03 2696.02,-186.47"/>
<polygon fill="grey" stroke="grey" stroke-width="2" points="2697.8,-183.43 2687.74,-180.1 2693.53,-188.98 2697.8,-183.43"/>
</g>
<!-- 41&#45;&gt;15 -->
<g id="edge59" class="edge">
<title>41&#45;&gt;15</title>
<path fill="none" stroke="grey" stroke-width="2" d="M2757.24,-215.7C2757.57,-207.98 2757.97,-198.71 2758.34,-190.11"/>
<polygon fill="grey" stroke="grey" stroke-width="2" points="2761.84,-190.25 2758.77,-180.1 2754.84,-189.95 2761.84,-190.25"/>
</g>
<!-- 41&#45;&gt;16 -->
<g id="edge61" class="edge">
<title>41&#45;&gt;16</title>
<path fill="none" stroke="grey" stroke-width="2" d="M2781.45,-215.88C2794.54,-206.89 2810.76,-195.76 2824.94,-186.03"/>
<polygon fill="grey" stroke="grey" stroke-width="2" points="2827.19,-188.73 2833.45,-180.19 2823.23,-182.96 2827.19,-188.73"/>
</g>
<!-- 42 -->
<g id="node43" class="node">
<title>42</title>
<path fill="none" stroke="#56d87b" stroke-width="2" stroke-dasharray="5,2" d="M268.5,-468C268.5,-468 104.5,-468 104.5,-468 98.5,-468 92.5,-462 92.5,-456 92.5,-456 92.5,-444 92.5,-444 92.5,-438 98.5,-432 104.5,-432 104.5,-432 268.5,-432 268.5,-432 274.5,-432 280.5,-438 280.5,-444 280.5,-444 280.5,-456 280.5,-456 280.5,-462 274.5,-468 268.5,-468"/>
<text text-anchor="middle" x="186.5" y="-453" font-family="sans" font-size="10.00">trimmomatic</text>
<text text-anchor="middle" x="186.5" y="-442" font-family="sans" font-size="10.00">id: Gwilldenowi_4616STDY8352651</text>
</g>
<!-- 42&#45;&gt;17 -->
<g id="edge63" class="edge">
<title>42&#45;&gt;17</title>
<path fill="none" stroke="grey" stroke-width="2" d="M177.63,-431.97C152.58,-383.89 81.23,-246.93 51.14,-189.19"/>
<polygon fill="grey" stroke="grey" stroke-width="2" points="54.24,-187.56 46.52,-180.31 48.03,-190.79 54.24,-187.56"/>
</g>
<!-- 42&#45;&gt;18 -->
<g id="edge65" class="edge">
<title>42&#45;&gt;18</title>
<path fill="none" stroke="grey" stroke-width="2" d="M183.22,-431.97C174.04,-384.19 147.97,-248.62 136.74,-190.27"/>
<polygon fill="grey" stroke="grey" stroke-width="2" points="140.15,-189.47 134.83,-180.31 133.28,-190.79 140.15,-189.47"/>
</g>
<!-- 42&#45;&gt;19 -->
<g id="edge67" class="edge">
<title>42&#45;&gt;19</title>
<path fill="none" stroke="grey" stroke-width="2" d="M185.83,-431.98C184.74,-393.01 184.5,-294.62 205.5,-216 207.94,-206.86 211.91,-197.37 215.97,-188.98"/>
<polygon fill="grey" stroke="grey" stroke-width="2" points="219.09,-190.56 220.52,-180.06 212.86,-187.38 219.09,-190.56"/>
</g>
<!-- 42&#45;&gt;33 -->
<g id="edge93" class="edge">
<title>42&#45;&gt;33</title>
<path fill="none" stroke="grey" stroke-width="2" d="M266.14,-431.92C289.75,-423.95 314.38,-412.46 333.5,-396 375.8,-359.59 401.01,-297.34 412.67,-261.86"/>
<polygon fill="grey" stroke="grey" stroke-width="2" points="416.05,-262.77 415.73,-252.18 409.38,-260.66 416.05,-262.77"/>
</g>
<!-- 52 -->
<g id="node53" class="node">
<title>52</title>
<path fill="none" stroke="#56a2d8" stroke-width="2" stroke-dasharray="5,2" d="M312.5,-396C312.5,-396 238.5,-396 238.5,-396 232.5,-396 226.5,-390 226.5,-384 226.5,-384 226.5,-372 226.5,-372 226.5,-366 232.5,-360 238.5,-360 238.5,-360 312.5,-360 312.5,-360 318.5,-360 324.5,-366 324.5,-372 324.5,-372 324.5,-384 324.5,-384 324.5,-390 318.5,-396 312.5,-396"/>
<text text-anchor="middle" x="275.5" y="-375.5" font-family="sans" font-size="10.00">KmerGenie_prep</text>
</g>
<!-- 42&#45;&gt;52 -->
<g id="edge107" class="edge">
<title>42&#45;&gt;52</title>
<path fill="none" stroke="grey" stroke-width="2" d="M208.5,-431.7C219.71,-422.88 233.5,-412.03 245.65,-402.47"/>
<polygon fill="grey" stroke="grey" stroke-width="2" points="248.06,-405.04 253.75,-396.1 243.73,-399.54 248.06,-405.04"/>
</g>
<!-- 43 -->
<g id="node44" class="node">
<title>43</title>
<path fill="none" stroke="#56d87b" stroke-width="2" stroke-dasharray="5,2" d="M846,-468C846,-468 689,-468 689,-468 683,-468 677,-462 677,-456 677,-456 677,-444 677,-444 677,-438 683,-432 689,-432 689,-432 846,-432 846,-432 852,-432 858,-438 858,-444 858,-444 858,-456 858,-456 858,-462 852,-468 846,-468"/>
<text text-anchor="middle" x="767.5" y="-453" font-family="sans" font-size="10.00">trimmomatic</text>
<text text-anchor="middle" x="767.5" y="-442" font-family="sans" font-size="10.00">id: Gorientalis_4616STDY8352652</text>
</g>
<!-- 43&#45;&gt;20 -->
<g id="edge69" class="edge">
<title>43&#45;&gt;20</title>
<path fill="none" stroke="grey" stroke-width="2" d="M758.8,-431.97C734.31,-383.99 664.63,-247.5 635.05,-189.54"/>
<polygon fill="grey" stroke="grey" stroke-width="2" points="638,-187.62 630.33,-180.31 631.76,-190.8 638,-187.62"/>
</g>
<!-- 43&#45;&gt;21 -->
<g id="edge71" class="edge">
<title>43&#45;&gt;21</title>
<path fill="none" stroke="grey" stroke-width="2" d="M764.4,-431.97C755.72,-384.19 731.07,-248.62 720.46,-190.27"/>
<polygon fill="grey" stroke="grey" stroke-width="2" points="723.88,-189.52 718.65,-180.31 716.99,-190.77 723.88,-189.52"/>
</g>
<!-- 43&#45;&gt;22 -->
<g id="edge73" class="edge">
<title>43&#45;&gt;22</title>
<path fill="none" stroke="grey" stroke-width="2" d="M766.58,-431.91C764.97,-392.8 763.72,-294.12 786.5,-216 789.17,-206.85 793.51,-197.47 797.98,-189.19"/>
<polygon fill="grey" stroke="grey" stroke-width="2" points="801.09,-190.8 803.01,-180.38 795.01,-187.33 801.09,-190.8"/>
</g>
<!-- 43&#45;&gt;35 -->
<g id="edge95" class="edge">
<title>43&#45;&gt;35</title>
<path fill="none" stroke="grey" stroke-width="2" d="M841.51,-431.91C865.07,-423.85 890.04,-412.31 909.5,-396 953.2,-359.38 981.66,-297.21 995.21,-261.8"/>
<polygon fill="grey" stroke="grey" stroke-width="2" points="998.6,-262.74 998.79,-252.14 992.04,-260.3 998.6,-262.74"/>
</g>
<!-- 53 -->
<g id="node54" class="node">
<title>53</title>
<path fill="none" stroke="#56a2d8" stroke-width="2" stroke-dasharray="5,2" d="M888.5,-396C888.5,-396 814.5,-396 814.5,-396 808.5,-396 802.5,-390 802.5,-384 802.5,-384 802.5,-372 802.5,-372 802.5,-366 808.5,-360 814.5,-360 814.5,-360 888.5,-360 888.5,-360 894.5,-360 900.5,-366 900.5,-372 900.5,-372 900.5,-384 900.5,-384 900.5,-390 894.5,-396 888.5,-396"/>
<text text-anchor="middle" x="851.5" y="-375.5" font-family="sans" font-size="10.00">KmerGenie_prep</text>
</g>
<!-- 43&#45;&gt;53 -->
<g id="edge108" class="edge">
<title>43&#45;&gt;53</title>
<path fill="none" stroke="grey" stroke-width="2" d="M788.26,-431.7C798.74,-422.97 811.61,-412.24 823,-402.75"/>
<polygon fill="grey" stroke="grey" stroke-width="2" points="825.53,-405.19 830.97,-396.1 821.05,-399.82 825.53,-405.19"/>
</g>
<!-- 44 -->
<g id="node45" class="node">
<title>44</title>
<path fill="none" stroke="#56d87b" stroke-width="2" stroke-dasharray="5,2" d="M1427,-468C1427,-468 1266,-468 1266,-468 1260,-468 1254,-462 1254,-456 1254,-456 1254,-444 1254,-444 1254,-438 1260,-432 1266,-432 1266,-432 1427,-432 1427,-432 1433,-432 1439,-438 1439,-444 1439,-444 1439,-456 1439,-456 1439,-462 1433,-468 1427,-468"/>
<text text-anchor="middle" x="1346.5" y="-453" font-family="sans" font-size="10.00">trimmomatic</text>
<text text-anchor="middle" x="1346.5" y="-442" font-family="sans" font-size="10.00">id: Ghofrichteri_4616STDY8352653</text>
</g>
<!-- 44&#45;&gt;23 -->
<g id="edge75" class="edge">
<title>44&#45;&gt;23</title>
<path fill="none" stroke="grey" stroke-width="2" d="M1338.1,-431.97C1314.45,-383.99 1247.16,-247.5 1218.59,-189.54"/>
<polygon fill="grey" stroke="grey" stroke-width="2" points="1221.59,-187.73 1214.03,-180.31 1215.31,-190.82 1221.59,-187.73"/>
</g>
<!-- 44&#45;&gt;24 -->
<g id="edge77" class="edge">
<title>44&#45;&gt;24</title>
<path fill="none" stroke="grey" stroke-width="2" d="M1341.45,-431.93C1338.52,-421.6 1334.95,-408.13 1332.5,-396 1317.57,-322.17 1307.03,-233.83 1302.3,-190.17"/>
<polygon fill="grey" stroke="grey" stroke-width="2" points="1305.76,-189.65 1301.22,-180.07 1298.8,-190.39 1305.76,-189.65"/>
</g>
<!-- 44&#45;&gt;25 -->
<g id="edge79" class="edge">
<title>44&#45;&gt;25</title>
<path fill="none" stroke="grey" stroke-width="2" d="M1345.19,-431.79C1342.78,-392.43 1339.97,-293.27 1365.5,-216 1368.65,-206.48 1373.83,-196.91 1379.17,-188.58"/>
<polygon fill="grey" stroke="grey" stroke-width="2" points="1382.21,-190.33 1384.93,-180.09 1376.42,-186.4 1382.21,-190.33"/>
</g>
<!-- 44&#45;&gt;37 -->
<g id="edge97" class="edge">
<title>44&#45;&gt;37</title>
<path fill="none" stroke="grey" stroke-width="2" d="M1423.3,-431.97C1447.29,-423.95 1472.65,-412.41 1492.5,-396 1536.56,-359.58 1565.36,-297.34 1579.09,-261.86"/>
<polygon fill="grey" stroke="grey" stroke-width="2" points="1582.48,-262.78 1582.72,-252.18 1575.93,-260.32 1582.48,-262.78"/>
</g>
<!-- 54 -->
<g id="node55" class="node">
<title>54</title>
<path fill="none" stroke="#56a2d8" stroke-width="2" stroke-dasharray="5,2" d="M1471.5,-396C1471.5,-396 1397.5,-396 1397.5,-396 1391.5,-396 1385.5,-390 1385.5,-384 1385.5,-384 1385.5,-372 1385.5,-372 1385.5,-366 1391.5,-360 1397.5,-360 1397.5,-360 1471.5,-360 1471.5,-360 1477.5,-360 1483.5,-366 1483.5,-372 1483.5,-372 1483.5,-384 1483.5,-384 1483.5,-390 1477.5,-396 1471.5,-396"/>
<text text-anchor="middle" x="1434.5" y="-375.5" font-family="sans" font-size="10.00">KmerGenie_prep</text>
</g>
<!-- 44&#45;&gt;54 -->
<g id="edge109" class="edge">
<title>44&#45;&gt;54</title>
<path fill="none" stroke="grey" stroke-width="2" d="M1368.25,-431.7C1379.34,-422.88 1392.97,-412.03 1404.99,-402.47"/>
<polygon fill="grey" stroke="grey" stroke-width="2" points="1407.35,-405.07 1413,-396.1 1402.99,-399.59 1407.35,-405.07"/>
</g>
<!-- 45 -->
<g id="node46" class="node">
<title>45</title>
<path fill="none" stroke="#56d87b" stroke-width="2" stroke-dasharray="5,2" d="M2003.5,-468C2003.5,-468 1867.5,-468 1867.5,-468 1861.5,-468 1855.5,-462 1855.5,-456 1855.5,-456 1855.5,-444 1855.5,-444 1855.5,-438 1861.5,-432 1867.5,-432 1867.5,-432 2003.5,-432 2003.5,-432 2009.5,-432 2015.5,-438 2015.5,-444 2015.5,-444 2015.5,-456 2015.5,-456 2015.5,-462 2009.5,-468 2003.5,-468"/>
<text text-anchor="middle" x="1935.5" y="-453" font-family="sans" font-size="10.00">trimmomatic</text>
<text text-anchor="middle" x="1935.5" y="-442" font-family="sans" font-size="10.00">id: Gpigra_4616STDY8352654</text>
</g>
<!-- 45&#45;&gt;26 -->
<g id="edge81" class="edge">
<title>45&#45;&gt;26</title>
<path fill="none" stroke="grey" stroke-width="2" d="M1926.8,-431.97C1902.31,-383.99 1832.63,-247.5 1803.05,-189.54"/>
<polygon fill="grey" stroke="grey" stroke-width="2" points="1806,-187.62 1798.33,-180.31 1799.76,-190.8 1806,-187.62"/>
</g>
<!-- 45&#45;&gt;27 -->
<g id="edge83" class="edge">
<title>45&#45;&gt;27</title>
<path fill="none" stroke="grey" stroke-width="2" d="M1932.4,-431.97C1923.72,-384.19 1899.07,-248.62 1888.46,-190.27"/>
<polygon fill="grey" stroke="grey" stroke-width="2" points="1891.88,-189.52 1886.65,-180.31 1884.99,-190.77 1891.88,-189.52"/>
</g>
<!-- 45&#45;&gt;28 -->
<g id="edge85" class="edge">
<title>45&#45;&gt;28</title>
<path fill="none" stroke="grey" stroke-width="2" d="M1934.58,-431.91C1932.97,-392.8 1931.72,-294.12 1954.5,-216 1957.17,-206.85 1961.51,-197.47 1965.98,-189.19"/>
<polygon fill="grey" stroke="grey" stroke-width="2" points="1969.09,-190.8 1971.01,-180.38 1963.01,-187.33 1969.09,-190.8"/>
</g>
<!-- 45&#45;&gt;39 -->
<g id="edge99" class="edge">
<title>45&#45;&gt;39</title>
<path fill="none" stroke="grey" stroke-width="2" d="M2013.28,-431.99C2037.06,-423.99 2062.05,-412.46 2081.5,-396 2124.55,-359.57 2151.37,-297.33 2163.96,-261.85"/>
<polygon fill="grey" stroke="grey" stroke-width="2" points="2167.34,-262.77 2167.27,-252.18 2160.72,-260.51 2167.34,-262.77"/>
</g>
<!-- 55 -->
<g id="node56" class="node">
<title>55</title>
<path fill="none" stroke="#56a2d8" stroke-width="2" stroke-dasharray="5,2" d="M2060.5,-396C2060.5,-396 1986.5,-396 1986.5,-396 1980.5,-396 1974.5,-390 1974.5,-384 1974.5,-384 1974.5,-372 1974.5,-372 1974.5,-366 1980.5,-360 1986.5,-360 1986.5,-360 2060.5,-360 2060.5,-360 2066.5,-360 2072.5,-366 2072.5,-372 2072.5,-372 2072.5,-384 2072.5,-384 2072.5,-390 2066.5,-396 2060.5,-396"/>
<text text-anchor="middle" x="2023.5" y="-375.5" font-family="sans" font-size="10.00">KmerGenie_prep</text>
</g>
<!-- 45&#45;&gt;55 -->
<g id="edge110" class="edge">
<title>45&#45;&gt;55</title>
<path fill="none" stroke="grey" stroke-width="2" d="M1957.25,-431.7C1968.34,-422.88 1981.97,-412.03 1993.99,-402.47"/>
<polygon fill="grey" stroke="grey" stroke-width="2" points="1996.35,-405.07 2002,-396.1 1991.99,-399.59 1996.35,-405.07"/>
</g>
<!-- 46 -->
<g id="node47" class="node">
<title>46</title>
<path fill="none" stroke="#56d87b" stroke-width="2" stroke-dasharray="5,2" d="M2570,-468C2570,-468 2469,-468 2469,-468 2463,-468 2457,-462 2457,-456 2457,-456 2457,-444 2457,-444 2457,-438 2463,-432 2469,-432 2469,-432 2570,-432 2570,-432 2576,-432 2582,-438 2582,-444 2582,-444 2582,-456 2582,-456 2582,-462 2576,-468 2570,-468"/>
<text text-anchor="middle" x="2519.5" y="-453" font-family="sans" font-size="10.00">trimmomatic</text>
<text text-anchor="middle" x="2519.5" y="-442" font-family="sans" font-size="10.00">id: Llepadogaster_D86</text>
</g>
<!-- 46&#45;&gt;29 -->
<g id="edge87" class="edge">
<title>46&#45;&gt;29</title>
<path fill="none" stroke="grey" stroke-width="2" d="M2510.8,-431.97C2486.31,-383.99 2416.63,-247.5 2387.05,-189.54"/>
<polygon fill="grey" stroke="grey" stroke-width="2" points="2390,-187.62 2382.33,-180.31 2383.76,-190.8 2390,-187.62"/>
</g>
<!-- 46&#45;&gt;30 -->
<g id="edge89" class="edge">
<title>46&#45;&gt;30</title>
<path fill="none" stroke="grey" stroke-width="2" d="M2516.4,-431.97C2507.72,-384.19 2483.07,-248.62 2472.46,-190.27"/>
<polygon fill="grey" stroke="grey" stroke-width="2" points="2475.88,-189.52 2470.65,-180.31 2468.99,-190.77 2475.88,-189.52"/>
</g>
<!-- 46&#45;&gt;31 -->
<g id="edge91" class="edge">
<title>46&#45;&gt;31</title>
<path fill="none" stroke="grey" stroke-width="2" d="M2518.58,-431.91C2516.97,-392.8 2515.72,-294.12 2538.5,-216 2541.17,-206.85 2545.51,-197.47 2549.98,-189.19"/>
<polygon fill="grey" stroke="grey" stroke-width="2" points="2553.09,-190.8 2555.01,-180.38 2547.01,-187.33 2553.09,-190.8"/>
</g>
<!-- 46&#45;&gt;41 -->
<g id="edge101" class="edge">
<title>46&#45;&gt;41</title>
<path fill="none" stroke="grey" stroke-width="2" d="M2582.17,-435.28C2608.5,-427.17 2638.13,-414.7 2660.5,-396 2704.36,-359.33 2733.23,-297.18 2747.03,-261.78"/>
<polygon fill="grey" stroke="grey" stroke-width="2" points="2750.41,-262.72 2750.67,-252.13 2743.87,-260.25 2750.41,-262.72"/>
</g>
<!-- 56 -->
<g id="node57" class="node">
<title>56</title>
<path fill="none" stroke="#56a2d8" stroke-width="2" stroke-dasharray="5,2" d="M2639.5,-396C2639.5,-396 2565.5,-396 2565.5,-396 2559.5,-396 2553.5,-390 2553.5,-384 2553.5,-384 2553.5,-372 2553.5,-372 2553.5,-366 2559.5,-360 2565.5,-360 2565.5,-360 2639.5,-360 2639.5,-360 2645.5,-360 2651.5,-366 2651.5,-372 2651.5,-372 2651.5,-384 2651.5,-384 2651.5,-390 2645.5,-396 2639.5,-396"/>
<text text-anchor="middle" x="2602.5" y="-375.5" font-family="sans" font-size="10.00">KmerGenie_prep</text>
</g>
<!-- 46&#45;&gt;56 -->
<g id="edge111" class="edge">
<title>46&#45;&gt;56</title>
<path fill="none" stroke="grey" stroke-width="2" d="M2540.02,-431.7C2550.37,-422.97 2563.09,-412.24 2574.34,-402.75"/>
<polygon fill="grey" stroke="grey" stroke-width="2" points="2576.83,-405.23 2582.22,-396.1 2572.32,-399.88 2576.83,-405.23"/>
</g>
<!-- 47 -->
<g id="node48" class="node">
<title>47</title>
<path fill="none" stroke="#567bd8" stroke-width="2" d="M305,-324C305,-324 258,-324 258,-324 252,-324 246,-318 246,-312 246,-312 246,-300 246,-300 246,-294 252,-288 258,-288 258,-288 305,-288 305,-288 311,-288 317,-294 317,-300 317,-300 317,-312 317,-312 317,-318 311,-324 305,-324"/>
<text text-anchor="middle" x="281.5" y="-303.5" font-family="sans" font-size="10.00">KmerGenie</text>
</g>
<!-- 47&#45;&gt;32 -->
<g id="edge92" class="edge">
<title>47&#45;&gt;32</title>
<path fill="none" stroke="grey" stroke-width="2" d="M283.23,-287.7C284,-279.98 284.93,-270.71 285.79,-262.11"/>
<polygon fill="grey" stroke="grey" stroke-width="2" points="289.28,-262.4 286.79,-252.1 282.31,-261.71 289.28,-262.4"/>
</g>
<!-- 48 -->
<g id="node49" class="node">
<title>48</title>
<path fill="none" stroke="#567bd8" stroke-width="2" d="M881,-324C881,-324 834,-324 834,-324 828,-324 822,-318 822,-312 822,-312 822,-300 822,-300 822,-294 828,-288 834,-288 834,-288 881,-288 881,-288 887,-288 893,-294 893,-300 893,-300 893,-312 893,-312 893,-318 887,-324 881,-324"/>
<text text-anchor="middle" x="857.5" y="-303.5" font-family="sans" font-size="10.00">KmerGenie</text>
</g>
<!-- 48&#45;&gt;34 -->
<g id="edge94" class="edge">
<title>48&#45;&gt;34</title>
<path fill="none" stroke="grey" stroke-width="2" d="M860.47,-287.7C861.79,-279.98 863.38,-270.71 864.85,-262.11"/>
<polygon fill="grey" stroke="grey" stroke-width="2" points="868.33,-262.55 866.57,-252.1 861.43,-261.37 868.33,-262.55"/>
</g>
<!-- 49 -->
<g id="node50" class="node">
<title>49</title>
<path fill="none" stroke="#567bd8" stroke-width="2" d="M1466,-324C1466,-324 1419,-324 1419,-324 1413,-324 1407,-318 1407,-312 1407,-312 1407,-300 1407,-300 1407,-294 1413,-288 1419,-288 1419,-288 1466,-288 1466,-288 1472,-288 1478,-294 1478,-300 1478,-300 1478,-312 1478,-312 1478,-318 1472,-324 1466,-324"/>
<text text-anchor="middle" x="1442.5" y="-303.5" font-family="sans" font-size="10.00">KmerGenie</text>
</g>
<!-- 49&#45;&gt;36 -->
<g id="edge96" class="edge">
<title>49&#45;&gt;36</title>
<path fill="none" stroke="grey" stroke-width="2" d="M1443.98,-287.7C1444.64,-279.98 1445.44,-270.71 1446.18,-262.11"/>
<polygon fill="grey" stroke="grey" stroke-width="2" points="1449.67,-262.37 1447.03,-252.1 1442.69,-261.77 1449.67,-262.37"/>
</g>
<!-- 50 -->
<g id="node51" class="node">
<title>50</title>
<path fill="none" stroke="#567bd8" stroke-width="2" d="M2055,-324C2055,-324 2008,-324 2008,-324 2002,-324 1996,-318 1996,-312 1996,-312 1996,-300 1996,-300 1996,-294 2002,-288 2008,-288 2008,-288 2055,-288 2055,-288 2061,-288 2067,-294 2067,-300 2067,-300 2067,-312 2067,-312 2067,-318 2061,-324 2055,-324"/>
<text text-anchor="middle" x="2031.5" y="-303.5" font-family="sans" font-size="10.00">KmerGenie</text>
</g>
<!-- 50&#45;&gt;38 -->
<g id="edge98" class="edge">
<title>50&#45;&gt;38</title>
<path fill="none" stroke="grey" stroke-width="2" d="M2032.98,-287.7C2033.64,-279.98 2034.44,-270.71 2035.18,-262.11"/>
<polygon fill="grey" stroke="grey" stroke-width="2" points="2038.67,-262.37 2036.03,-252.1 2031.69,-261.77 2038.67,-262.37"/>
</g>
<!-- 51 -->
<g id="node52" class="node">
<title>51</title>
<path fill="none" stroke="#567bd8" stroke-width="2" d="M2634,-324C2634,-324 2587,-324 2587,-324 2581,-324 2575,-318 2575,-312 2575,-312 2575,-300 2575,-300 2575,-294 2581,-288 2587,-288 2587,-288 2634,-288 2634,-288 2640,-288 2646,-294 2646,-300 2646,-300 2646,-312 2646,-312 2646,-318 2640,-324 2634,-324"/>
<text text-anchor="middle" x="2610.5" y="-303.5" font-family="sans" font-size="10.00">KmerGenie</text>
</g>
<!-- 51&#45;&gt;40 -->
<g id="edge100" class="edge">
<title>51&#45;&gt;40</title>
<path fill="none" stroke="grey" stroke-width="2" d="M2613.22,-287.7C2614.43,-279.98 2615.89,-270.71 2617.24,-262.11"/>
<polygon fill="grey" stroke="grey" stroke-width="2" points="2620.72,-262.53 2618.81,-252.1 2613.8,-261.44 2620.72,-262.53"/>
</g>
<!-- 52&#45;&gt;47 -->
<g id="edge102" class="edge">
<title>52&#45;&gt;47</title>
<path fill="none" stroke="grey" stroke-width="2" d="M276.98,-359.7C277.64,-351.98 278.44,-342.71 279.18,-334.11"/>
<polygon fill="grey" stroke="grey" stroke-width="2" points="282.67,-334.37 280.03,-324.1 275.69,-333.77 282.67,-334.37"/>
</g>
<!-- 53&#45;&gt;48 -->
<g id="edge103" class="edge">
<title>53&#45;&gt;48</title>
<path fill="none" stroke="grey" stroke-width="2" d="M852.98,-359.7C853.64,-351.98 854.44,-342.71 855.18,-334.11"/>
<polygon fill="grey" stroke="grey" stroke-width="2" points="858.67,-334.37 856.03,-324.1 851.69,-333.77 858.67,-334.37"/>
</g>
<!-- 54&#45;&gt;49 -->
<g id="edge104" class="edge">
<title>54&#45;&gt;49</title>
<path fill="none" stroke="grey" stroke-width="2" d="M1436.48,-359.7C1437.36,-351.98 1438.42,-342.71 1439.4,-334.11"/>
<polygon fill="grey" stroke="grey" stroke-width="2" points="1442.89,-334.44 1440.55,-324.1 1435.93,-333.64 1442.89,-334.44"/>
</g>
<!-- 55&#45;&gt;50 -->
<g id="edge105" class="edge">
<title>55&#45;&gt;50</title>
<path fill="none" stroke="grey" stroke-width="2" d="M2025.48,-359.7C2026.36,-351.98 2027.42,-342.71 2028.4,-334.11"/>
<polygon fill="grey" stroke="grey" stroke-width="2" points="2031.89,-334.44 2029.55,-324.1 2024.93,-333.64 2031.89,-334.44"/>
</g>
<!-- 56&#45;&gt;51 -->
<g id="edge106" class="edge">
<title>56&#45;&gt;51</title>
<path fill="none" stroke="grey" stroke-width="2" d="M2604.48,-359.7C2605.36,-351.98 2606.42,-342.71 2607.4,-334.11"/>
<polygon fill="grey" stroke="grey" stroke-width="2" points="2610.89,-334.44 2608.55,-324.1 2603.93,-333.64 2610.89,-334.44"/>
</g>
</g>
</svg>
