<?xml version="1.0" encoding="UTF-8" standalone="no"?>
<svg
   xmlns:dc="http://purl.org/dc/elements/1.1/"
   xmlns:cc="http://creativecommons.org/ns#"
   xmlns:rdf="http://www.w3.org/1999/02/22-rdf-syntax-ns#"
   xmlns:svg="http://www.w3.org/2000/svg"
   xmlns="http://www.w3.org/2000/svg"
   viewBox="0 0 1152 576"
   height="576"
   width="1152"
   xml:space="preserve"
   id="svg833"
   version="1.1"><metadata
     id="metadata839"><rdf:RDF><cc:Work
         rdf:about=""><dc:format>image/svg+xml</dc:format><dc:type
           rdf:resource="http://purl.org/dc/dcmitype/StillImage" /><dc:title></dc:title></cc:Work></rdf:RDF></metadata><defs
     id="defs837"><clipPath
       id="clipPath853"
       clipPathUnits="userSpaceOnUse"><path
         id="path851"
         d="M 41.87,235.51 H 796.84 V 402.24 H 41.87 Z" /></clipPath><clipPath
       id="clipPath863"
       clipPathUnits="userSpaceOnUse"><path
         id="path861"
         d="M 41.87,235.51 H 796.84 V 402.24 H 41.87 Z" /></clipPath><clipPath
       id="clipPath873"
       clipPathUnits="userSpaceOnUse"><path
         id="path871"
         d="M 41.87,235.51 H 796.84 V 402.24 H 41.87 Z" /></clipPath><clipPath
       id="clipPath883"
       clipPathUnits="userSpaceOnUse"><path
         id="path881"
         d="M 41.87,235.51 H 796.84 V 402.24 H 41.87 Z" /></clipPath><clipPath
       id="clipPath893"
       clipPathUnits="userSpaceOnUse"><path
         id="path891"
         d="M 41.87,235.51 H 796.84 V 402.24 H 41.87 Z" /></clipPath><clipPath
       id="clipPath903"
       clipPathUnits="userSpaceOnUse"><path
         id="path901"
         d="M 41.87,235.51 H 796.84 V 402.24 H 41.87 Z" /></clipPath><clipPath
       id="clipPath913"
       clipPathUnits="userSpaceOnUse"><path
         id="path911"
         d="M 41.87,235.51 H 796.84 V 402.24 H 41.87 Z" /></clipPath><clipPath
       id="clipPath923"
       clipPathUnits="userSpaceOnUse"><path
         id="path921"
         d="M 41.87,235.51 H 796.84 V 402.24 H 41.87 Z" /></clipPath><clipPath
       id="clipPath933"
       clipPathUnits="userSpaceOnUse"><path
         id="path931"
         d="M 41.87,235.51 H 796.84 V 402.24 H 41.87 Z" /></clipPath><clipPath
       id="clipPath943"
       clipPathUnits="userSpaceOnUse"><path
         id="path941"
         d="M 41.87,235.51 H 796.84 V 402.24 H 41.87 Z" /></clipPath><clipPath
       id="clipPath953"
       clipPathUnits="userSpaceOnUse"><path
         id="path951"
         d="M 41.87,235.51 H 796.84 V 402.24 H 41.87 Z" /></clipPath><clipPath
       id="clipPath963"
       clipPathUnits="userSpaceOnUse"><path
         id="path961"
         d="M 41.87,235.51 H 796.84 V 402.24 H 41.87 Z" /></clipPath><clipPath
       id="clipPath973"
       clipPathUnits="userSpaceOnUse"><path
         id="path971"
         d="M 41.87,235.51 H 796.84 V 402.24 H 41.87 Z" /></clipPath><clipPath
       id="clipPath983"
       clipPathUnits="userSpaceOnUse"><path
         id="path981"
         d="M 41.87,235.51 H 796.84 V 402.24 H 41.87 Z" /></clipPath><clipPath
       id="clipPath993"
       clipPathUnits="userSpaceOnUse"><path
         id="path991"
         d="M 41.87,235.51 H 796.84 V 402.24 H 41.87 Z" /></clipPath><clipPath
       id="clipPath1147"
       clipPathUnits="userSpaceOnUse"><path
         id="path1145"
         d="M 41.87,235.51 H 796.84 V 402.24 H 41.87 Z" /></clipPath><clipPath
       id="clipPath1157"
       clipPathUnits="userSpaceOnUse"><path
         id="path1155"
         d="M 41.87,235.51 H 796.84 V 402.24 H 41.87 Z" /></clipPath><clipPath
       id="clipPath1167"
       clipPathUnits="userSpaceOnUse"><path
         id="path1165"
         d="M 41.87,235.51 H 796.84 V 402.24 H 41.87 Z" /></clipPath><clipPath
       id="clipPath1177"
       clipPathUnits="userSpaceOnUse"><path
         id="path1175"
         d="M 41.87,235.51 H 796.84 V 402.24 H 41.87 Z" /></clipPath><clipPath
       id="clipPath1187"
       clipPathUnits="userSpaceOnUse"><path
         id="path1185"
         d="M 41.87,235.51 H 796.84 V 402.24 H 41.87 Z" /></clipPath><clipPath
       id="clipPath1197"
       clipPathUnits="userSpaceOnUse"><path
         id="path1195"
         d="M 41.87,235.51 H 796.84 V 402.24 H 41.87 Z" /></clipPath><clipPath
       id="clipPath1207"
       clipPathUnits="userSpaceOnUse"><path
         id="path1205"
         d="M 41.87,235.51 H 796.84 V 402.24 H 41.87 Z" /></clipPath><clipPath
       id="clipPath1217"
       clipPathUnits="userSpaceOnUse"><path
         id="path1215"
         d="M 41.87,235.51 H 796.84 V 402.24 H 41.87 Z" /></clipPath><clipPath
       id="clipPath1227"
       clipPathUnits="userSpaceOnUse"><path
         id="path1225"
         d="M 41.87,235.51 H 796.84 V 402.24 H 41.87 Z" /></clipPath><clipPath
       id="clipPath1237"
       clipPathUnits="userSpaceOnUse"><path
         id="path1235"
         d="M 41.87,235.51 H 796.84 V 402.24 H 41.87 Z" /></clipPath><clipPath
       id="clipPath1247"
       clipPathUnits="userSpaceOnUse"><path
         id="path1245"
         d="M 41.87,235.51 H 796.84 V 402.24 H 41.87 Z" /></clipPath><clipPath
       id="clipPath1257"
       clipPathUnits="userSpaceOnUse"><path
         id="path1255"
         d="M 41.87,235.51 H 796.84 V 402.24 H 41.87 Z" /></clipPath><clipPath
       id="clipPath1267"
       clipPathUnits="userSpaceOnUse"><path
         id="path1265"
         d="M 41.87,235.51 H 796.84 V 402.24 H 41.87 Z" /></clipPath><clipPath
       id="clipPath1277"
       clipPathUnits="userSpaceOnUse"><path
         id="path1275"
         d="M 41.87,235.51 H 796.84 V 402.24 H 41.87 Z" /></clipPath><clipPath
       id="clipPath1287"
       clipPathUnits="userSpaceOnUse"><path
         id="path1285"
         d="M 41.87,235.51 H 796.84 V 402.24 H 41.87 Z" /></clipPath></defs><g
     transform="matrix(1.3333333,0,0,-1.3333333,0,576)"
     id="g841"><path
       id="path843"
       style="fill:#ffffff;fill-opacity:1;fill-rule:nonzero;stroke:none"
       d="M 0,0 H 864 V 432 H 0 Z" /><path
       id="path845"
       style="fill:#ffffff;fill-opacity:1;fill-rule:nonzero;stroke:none"
       d="M 41.87,235.51 H 796.84 V 402.24 H 41.87 Z" /><g
       id="g847"><g
         clip-path="url(#clipPath853)"
         id="g849"><path
           id="path855"
           style="fill:#ffa500;fill-opacity:1;fill-rule:nonzero;stroke:none"
           d="M 61.228205,235.51 H 80.58641 v 96.88732 H 61.228205 Z" /></g></g><g
       id="g857"><g
         clip-path="url(#clipPath863)"
         id="g859"><path
           id="path865"
           style="fill:#ffa500;fill-opacity:1;fill-rule:nonzero;stroke:none"
           d="m 109.62372,235.51 h 19.3582 v 97.92091 h -19.3582 z" /></g></g><g
       id="g867"><g
         clip-path="url(#clipPath873)"
         id="g869"><path
           id="path875"
           style="fill:#ffa500;fill-opacity:1;fill-rule:nonzero;stroke:none"
           d="m 158.01923,235.51 h 19.35821 v 80.28236 h -19.35821 z" /></g></g><g
       id="g877"><g
         clip-path="url(#clipPath883)"
         id="g879"><path
           id="path885"
           style="fill:#ffa500;fill-opacity:1;fill-rule:nonzero;stroke:none"
           d="m 206.41474,235.51 h 19.35821 v 110.27453 h -19.35821 z" /></g></g><g
       id="g887"><g
         clip-path="url(#clipPath893)"
         id="g889"><path
           id="path895"
           style="fill:#ffa500;fill-opacity:1;fill-rule:nonzero;stroke:none"
           d="m 254.81026,235.51 h 19.3582 v 104.77534 h -19.3582 z" /></g></g><g
       id="g897"><g
         clip-path="url(#clipPath903)"
         id="g899"><path
           id="path905"
           style="fill:#ffa500;fill-opacity:1;fill-rule:nonzero;stroke:none"
           d="m 303.20577,235.51 h 19.3582 v 158.79048 h -19.3582 z" /></g></g><g
       id="g907"><g
         clip-path="url(#clipPath913)"
         id="g909"><path
           id="path915"
           style="fill:#ffa500;fill-opacity:1;fill-rule:nonzero;stroke:none"
           d="m 351.60128,235.51 h 19.35821 v 105.1652 h -19.35821 z" /></g></g><g
       id="g917"><g
         clip-path="url(#clipPath923)"
         id="g919"><path
           id="path925"
           style="fill:#ffa500;fill-opacity:1;fill-rule:nonzero;stroke:none"
           d="M 399.99679,235.51 H 419.355 v 92.32542 h -19.35821 z" /></g></g><g
       id="g927"><g
         clip-path="url(#clipPath933)"
         id="g929"><path
           id="path935"
           style="fill:#ffa500;fill-opacity:1;fill-rule:nonzero;stroke:none"
           d="m 448.39231,235.51 h 19.3582 v 120.28326 h -19.3582 z" /></g></g><g
       id="g937"><g
         clip-path="url(#clipPath943)"
         id="g939"><path
           id="path945"
           style="fill:#ffa500;fill-opacity:1;fill-rule:nonzero;stroke:none"
           d="m 496.78782,235.51 h 19.35821 v 96.35458 h -19.35821 z" /></g></g><g
       id="g947"><g
         clip-path="url(#clipPath953)"
         id="g949"><path
           id="path955"
           style="fill:#ffa500;fill-opacity:1;fill-rule:nonzero;stroke:none"
           d="m 545.18333,235.51 h 19.35821 v 97.7226 h -19.35821 z" /></g></g><g
       id="g957"><g
         clip-path="url(#clipPath963)"
         id="g959"><path
           id="path965"
           style="fill:#ffa500;fill-opacity:1;fill-rule:nonzero;stroke:none"
           d="m 593.57885,235.51 h 19.3582 v 81.06914 h -19.3582 z" /></g></g><g
       id="g967"><g
         clip-path="url(#clipPath973)"
         id="g969"><path
           id="path975"
           style="fill:#ffa500;fill-opacity:1;fill-rule:nonzero;stroke:none"
           d="m 641.97436,235.51 h 19.3582 v 78.21612 h -19.3582 z" /></g></g><g
       id="g977"><g
         clip-path="url(#clipPath983)"
         id="g979"><path
           id="path985"
           style="fill:#ffa500;fill-opacity:1;fill-rule:nonzero;stroke:none"
           d="m 690.36987,235.51 h 19.35821 v 76.37099 h -19.35821 z" /></g></g><g
       id="g987"><g
         clip-path="url(#clipPath993)"
         id="g989"><path
           id="path995"
           style="fill:#ffa500;fill-opacity:1;fill-rule:nonzero;stroke:none"
           d="m 738.76539,235.51 h 19.3582 v 0.004 h -19.3582 z" /></g></g><g
       id="g997"><path
         id="path999"
         style="fill:#000000;fill-opacity:1;fill-rule:nonzero;stroke:#000000;stroke-width:0.8;stroke-linecap:butt;stroke-linejoin:round;stroke-miterlimit:10;stroke-dasharray:none;stroke-opacity:1"
         d="m 80.58641,235.51 v -3.5" /><text
         id="text1003"
         style="font-variant:normal;font-weight:normal;font-size:10px;font-family:DejaVuSans;-inkscape-font-specification:DejaVuSans;writing-mode:lr-tb;fill:#000000;fill-opacity:1;fill-rule:nonzero;stroke:none"
         transform="matrix(0,1,1,0,83.203598,35.60375)"><tspan
           id="tspan1001"
           y="0"
           x="0 6.3499999 14.22 21.059999 27.09 32.09 39.84 48.02 50.799999 53.580002 56.360001 62.709999 68.860001 75.199997 81.32 89.5 92.279999 97.279999 103.64 110 116.36 122.72 129.07001 135.17999 142.88 148.99001 155.35001 161.71001 168.07001 174.42999 180.78999 187.14999">SOAP_Gwilldenowi_4616STDY8352651</tspan></text><path
         id="path1005"
         style="fill:#000000;fill-opacity:1;fill-rule:nonzero;stroke:#000000;stroke-width:0.8;stroke-linecap:butt;stroke-linejoin:round;stroke-miterlimit:10;stroke-dasharray:none;stroke-opacity:1"
         d="m 128.98192,235.51 v -3.5" /><text
         id="text1009"
         style="font-variant:normal;font-weight:normal;font-size:10px;font-family:DejaVuSans;-inkscape-font-specification:DejaVuSans;writing-mode:lr-tb;fill:#000000;fill-opacity:1;fill-rule:nonzero;stroke:none"
         transform="matrix(0,1,1,0,131.59911,30.5725)"><tspan
           id="tspan1007"
           y="0"
           x="0 6.8400002 13.7 19.809999 26.16 32.509998 37.509998 45.259998 53.439999 56.220001 59 61.779999 68.129997 74.279999 80.620003 86.739998 94.919998 97.699997 102.7 109.06 115.42 121.78 128.14 134.49001 140.60001 148.3 154.41 160.77 167.13 173.49001 179.85001 186.21001 192.57001">ABYSS_Gwilldenowi_4616STDY8352651</tspan></text><path
         id="path1011"
         style="fill:#000000;fill-opacity:1;fill-rule:nonzero;stroke:#000000;stroke-width:0.8;stroke-linecap:butt;stroke-linejoin:round;stroke-miterlimit:10;stroke-dasharray:none;stroke-opacity:1"
         d="m 177.37744,235.51 v -3.5" /><text
         id="text1015"
         style="font-variant:normal;font-weight:normal;font-size:10px;font-family:DejaVuSans;-inkscape-font-specification:DejaVuSans;writing-mode:lr-tb;fill:#000000;fill-opacity:1;fill-rule:nonzero;stroke:none"
         transform="matrix(0,1,1,0,179.99462,10.8225)"><tspan
           id="tspan1013"
           y="0"
           x="0 7.6999998 10.65 17 23.98 31.85 38.689999 45.529999 52.48 57.48 65.230003 73.410004 76.190002 78.970001 81.75 88.099998 94.25 100.59 106.71 114.89 117.67 122.67 129.03 135.39 141.75 148.11 154.46001 160.57001 168.27 174.38 180.74001 187.10001 193.46001 199.82001 206.17999 212.53999">DISCOVAR_Gwilldenowi_4616STDY8352651</tspan></text><path
         id="path1017"
         style="fill:#000000;fill-opacity:1;fill-rule:nonzero;stroke:#000000;stroke-width:0.8;stroke-linecap:butt;stroke-linejoin:round;stroke-miterlimit:10;stroke-dasharray:none;stroke-opacity:1"
         d="m 225.77295,235.51 v -3.5" /><text
         id="text1021"
         style="font-variant:normal;font-weight:normal;font-size:10px;font-family:DejaVuSans;-inkscape-font-specification:DejaVuSans;writing-mode:lr-tb;fill:#000000;fill-opacity:1;fill-rule:nonzero;stroke:none"
         transform="matrix(0,1,1,0,228.39014,41.72875)"><tspan
           id="tspan1019"
           y="0"
           x="0 6.3499999 14.22 21.059999 27.09 32.09 39.84 45.959999 50.07 52.849998 59 65.339996 69.260002 75.389999 78.169998 80.949997 86.160004 91.160004 97.519997 103.88 110.24 116.6 122.95 129.06 136.75999 142.87 149.23 155.59 161.95 168.31 174.67 181.03">SOAP_Gorientalis_4616STDY8352652</tspan></text><path
         id="path1023"
         style="fill:#000000;fill-opacity:1;fill-rule:nonzero;stroke:#000000;stroke-width:0.8;stroke-linecap:butt;stroke-linejoin:round;stroke-miterlimit:10;stroke-dasharray:none;stroke-opacity:1"
         d="m 274.16846,235.51 v -3.5" /><text
         id="text1027"
         style="font-variant:normal;font-weight:normal;font-size:10px;font-family:DejaVuSans;-inkscape-font-specification:DejaVuSans;writing-mode:lr-tb;fill:#000000;fill-opacity:1;fill-rule:nonzero;stroke:none"
         transform="matrix(0,1,1,0,276.78565,36.6975)"><tspan
           id="tspan1025"
           y="0"
           x="0 6.8400002 13.7 19.809999 26.16 32.509998 37.509998 45.259998 51.380001 55.490002 58.27 64.419998 70.760002 74.68 80.809998 83.589996 86.370003 91.580002 96.580002 102.94 109.3 115.66 122.02 128.37 134.48 142.17999 148.28999 154.64999 161.00999 167.37 173.73 180.09 186.45">ABYSS_Gorientalis_4616STDY8352652</tspan></text><path
         id="path1029"
         style="fill:#000000;fill-opacity:1;fill-rule:nonzero;stroke:#000000;stroke-width:0.8;stroke-linecap:butt;stroke-linejoin:round;stroke-miterlimit:10;stroke-dasharray:none;stroke-opacity:1"
         d="m 322.56397,235.51 v -3.5" /><text
         id="text1033"
         style="font-variant:normal;font-weight:normal;font-size:10px;font-family:DejaVuSans;-inkscape-font-specification:DejaVuSans;writing-mode:lr-tb;fill:#000000;fill-opacity:1;fill-rule:nonzero;stroke:none"
         transform="matrix(0,1,1,0,325.18116,16.9475)"><tspan
           id="tspan1031"
           y="0"
           x="0 7.6999998 10.65 17 23.98 31.85 38.689999 45.529999 52.48 57.48 65.230003 71.349998 75.459999 78.239998 84.389999 90.730003 94.650002 100.78 103.56 106.34 111.55 116.55 122.91 129.27 135.63 141.99001 148.34 154.45 162.14999 168.25999 174.62 180.98 187.34 193.7 200.06 206.42">DISCOVAR_Gorientalis_4616STDY8352652</tspan></text><path
         id="path1035"
         style="fill:#000000;fill-opacity:1;fill-rule:nonzero;stroke:#000000;stroke-width:0.8;stroke-linecap:butt;stroke-linejoin:round;stroke-miterlimit:10;stroke-dasharray:none;stroke-opacity:1"
         d="m 370.95949,235.51 v -3.5" /><text
         id="text1039"
         style="font-variant:normal;font-weight:normal;font-size:10px;font-family:DejaVuSans;-inkscape-font-specification:DejaVuSans;writing-mode:lr-tb;fill:#000000;fill-opacity:1;fill-rule:nonzero;stroke:none"
         transform="matrix(0,1,1,0,373.57667,36.385)"><tspan
           id="tspan1037"
           y="0"
           x="0 6.3499999 14.22 21.059999 27.09 32.09 39.84 46.18 52.299999 55.82 59.93 62.709999 68.209999 74.550003 78.470001 84.620003 88.730003 91.510002 96.510002 102.87 109.23 115.59 121.95 128.3 134.41 142.11 148.22 154.58 160.94 167.3 173.66 180.02 186.38">SOAP_Ghofrichteri_4616STDY8352653</tspan></text><path
         id="path1041"
         style="fill:#000000;fill-opacity:1;fill-rule:nonzero;stroke:#000000;stroke-width:0.8;stroke-linecap:butt;stroke-linejoin:round;stroke-miterlimit:10;stroke-dasharray:none;stroke-opacity:1"
         d="m 419.355,235.51 v -3.5" /><text
         id="text1045"
         style="font-variant:normal;font-weight:normal;font-size:10px;font-family:DejaVuSans;-inkscape-font-specification:DejaVuSans;writing-mode:lr-tb;fill:#000000;fill-opacity:1;fill-rule:nonzero;stroke:none"
         transform="matrix(0,1,1,0,421.97219,31.35375)"><tspan
           id="tspan1043"
           y="0"
           x="0 6.8400002 13.7 19.809999 26.16 32.509998 37.509998 45.259998 51.599998 57.720001 61.240002 65.349998 68.129997 73.629997 79.970001 83.889999 90.040001 94.150002 96.93 101.93 108.29 114.65 121.01 127.37 133.72 139.83 147.53 153.64 160 166.36 172.72 179.08 185.44 191.8">ABYSS_Ghofrichteri_4616STDY8352653</tspan></text><path
         id="path1047"
         style="fill:#000000;fill-opacity:1;fill-rule:nonzero;stroke:#000000;stroke-width:0.8;stroke-linecap:butt;stroke-linejoin:round;stroke-miterlimit:10;stroke-dasharray:none;stroke-opacity:1"
         d="m 467.75051,235.51 v -3.5" /><text
         id="text1051"
         style="font-variant:normal;font-weight:normal;font-size:10px;font-family:DejaVuSans;-inkscape-font-specification:DejaVuSans;writing-mode:lr-tb;fill:#000000;fill-opacity:1;fill-rule:nonzero;stroke:none"
         transform="matrix(0,1,1,0,470.3677,11.60375)"><tspan
           id="tspan1049"
           y="0"
           x="0 7.6999998 10.65 17 23.98 31.85 38.689999 45.529999 52.48 57.48 65.230003 71.57 77.690002 81.209999 85.32 88.099998 93.599998 99.940002 103.86 110.01 114.12 116.9 121.9 128.25999 134.62 140.98 147.34 153.69 159.8 167.5 173.61 179.97 186.33 192.69 199.05 205.41 211.77">DISCOVAR_Ghofrichteri_4616STDY8352653</tspan></text><path
         id="path1053"
         style="fill:#000000;fill-opacity:1;fill-rule:nonzero;stroke:#000000;stroke-width:0.8;stroke-linecap:butt;stroke-linejoin:round;stroke-miterlimit:10;stroke-dasharray:none;stroke-opacity:1"
         d="m 516.14603,235.51 v -3.5" /><text
         id="text1057"
         style="font-variant:normal;font-weight:normal;font-size:10px;font-family:DejaVuSans;-inkscape-font-specification:DejaVuSans;writing-mode:lr-tb;fill:#000000;fill-opacity:1;fill-rule:nonzero;stroke:none"
         transform="matrix(0,1,1,0,518.76321,62.369375)"><tspan
           id="tspan1055"
           y="0"
           x="0 6.3499999 14.22 21.059999 27.09 32.09 39.84 46.189999 48.970001 55.32 59.43 65.559998 70.559998 76.919998 83.279999 89.639999 96 102.35 108.46 116.16 122.27 128.63 134.99001 141.35001 147.71001 154.07001 160.42999">SOAP_Gpigra_4616STDY8352654</tspan></text><path
         id="path1059"
         style="fill:#000000;fill-opacity:1;fill-rule:nonzero;stroke:#000000;stroke-width:0.8;stroke-linecap:butt;stroke-linejoin:round;stroke-miterlimit:10;stroke-dasharray:none;stroke-opacity:1"
         d="m 564.54154,235.51 v -3.5" /><text
         id="text1063"
         style="font-variant:normal;font-weight:normal;font-size:10px;font-family:DejaVuSans;-inkscape-font-specification:DejaVuSans;writing-mode:lr-tb;fill:#000000;fill-opacity:1;fill-rule:nonzero;stroke:none"
         transform="matrix(0,1,1,0,567.15873,57.338125)"><tspan
           id="tspan1061"
           y="0"
           x="0 6.8400002 13.7 19.809999 26.16 32.509998 37.509998 45.259998 51.610001 54.389999 60.740002 64.849998 70.980003 75.980003 82.339996 88.699997 95.059998 101.42 107.77 113.88 121.58 127.69 134.05 140.41 146.77 153.13 159.49001 165.85001">ABYSS_Gpigra_4616STDY8352654</tspan></text><path
         id="path1065"
         style="fill:#000000;fill-opacity:1;fill-rule:nonzero;stroke:#000000;stroke-width:0.8;stroke-linecap:butt;stroke-linejoin:round;stroke-miterlimit:10;stroke-dasharray:none;stroke-opacity:1"
         d="m 612.93705,235.51 v -3.5" /><text
         id="text1069"
         style="font-variant:normal;font-weight:normal;font-size:10px;font-family:DejaVuSans;-inkscape-font-specification:DejaVuSans;writing-mode:lr-tb;fill:#000000;fill-opacity:1;fill-rule:nonzero;stroke:none"
         transform="matrix(0,1,1,0,615.55424,37.588125)"><tspan
           id="tspan1067"
           y="0"
           x="0 7.6999998 10.65 17 23.98 31.85 38.689999 45.529999 52.48 57.48 65.230003 71.580002 74.360001 80.709999 84.82 90.949997 95.949997 102.31 108.67 115.03 121.39 127.74 133.85001 141.55 147.66 154.02 160.38 166.74001 173.10001 179.46001 185.82001">DISCOVAR_Gpigra_4616STDY8352654</tspan></text><path
         id="path1071"
         style="fill:#000000;fill-opacity:1;fill-rule:nonzero;stroke:#000000;stroke-width:0.8;stroke-linecap:butt;stroke-linejoin:round;stroke-miterlimit:10;stroke-dasharray:none;stroke-opacity:1"
         d="m 661.33256,235.51 v -3.5" /><text
         id="text1075"
         style="font-variant:normal;font-weight:normal;font-size:10px;font-family:DejaVuSans;-inkscape-font-specification:DejaVuSans;writing-mode:lr-tb;fill:#000000;fill-opacity:1;fill-rule:nonzero;stroke:none"
         transform="matrix(0,1,1,0,663.94975,99.79125)"><tspan
           id="tspan1073"
           y="0"
           x="0 6.3499999 14.22 21.059999 27.09 32.09 37.66 40.439999 46.59 52.939999 59.07 65.419998 71.540001 77.889999 84.019997 89.230003 93.150002 99.300003 103.41 108.41 116.11 122.47">SOAP_Llepadogaster_D86</tspan></text><path
         id="path1077"
         style="fill:#000000;fill-opacity:1;fill-rule:nonzero;stroke:#000000;stroke-width:0.8;stroke-linecap:butt;stroke-linejoin:round;stroke-miterlimit:10;stroke-dasharray:none;stroke-opacity:1"
         d="m 709.72808,235.51 v -3.5" /><text
         id="text1081"
         style="font-variant:normal;font-weight:normal;font-size:10px;font-family:DejaVuSans;-inkscape-font-specification:DejaVuSans;writing-mode:lr-tb;fill:#000000;fill-opacity:1;fill-rule:nonzero;stroke:none"
         transform="matrix(0,1,1,0,712.34526,94.76)"><tspan
           id="tspan1079"
           y="0"
           x="0 6.8400002 13.7 19.809999 26.16 32.509998 37.509998 43.080002 45.860001 52.009998 58.360001 64.489998 70.839996 76.959999 83.309998 89.440002 94.650002 98.57 104.72 108.83 113.83 121.53 127.89">ABYSS_Llepadogaster_D86</tspan></text><path
         id="path1083"
         style="fill:#000000;fill-opacity:1;fill-rule:nonzero;stroke:#000000;stroke-width:0.8;stroke-linecap:butt;stroke-linejoin:round;stroke-miterlimit:10;stroke-dasharray:none;stroke-opacity:1"
         d="m 758.12359,235.51 v -3.5" /><text
         id="text1087"
         style="font-variant:normal;font-weight:normal;font-size:10px;font-family:DejaVuSans;-inkscape-font-specification:DejaVuSans;writing-mode:lr-tb;fill:#000000;fill-opacity:1;fill-rule:nonzero;stroke:none"
         transform="matrix(0,1,1,0,760.74078,75.01)"><tspan
           id="tspan1085"
           y="0"
           x="0 7.6999998 10.65 17 23.98 31.85 38.689999 45.529999 52.48 57.48 63.049999 65.830002 71.980003 78.330002 84.459999 90.809998 96.93 103.28 109.41 114.62 118.54 124.69 128.8 133.8 141.5 147.86">DISCOVAR_Llepadogaster_D86</tspan></text><path
         id="path1089"
         style="fill:#ffa500;fill-opacity:1;fill-rule:nonzero;stroke:#ffa500;stroke-width:0.8;stroke-linecap:butt;stroke-linejoin:round;stroke-miterlimit:10;stroke-dasharray:none;stroke-opacity:1"
         d="m 41.87,235.51 h -3.5" /><text
         id="text1093"
         style="font-variant:normal;font-weight:normal;font-size:10px;font-family:DejaVuSans;-inkscape-font-specification:DejaVuSans;writing-mode:lr-tb;fill:#ffa500;fill-opacity:1;fill-rule:nonzero;stroke:none"
         transform="matrix(1,0,0,-1,28.510625,231.71312)"><tspan
           id="tspan1091"
           y="0"
           x="0">0</tspan></text><path
         id="path1095"
         style="fill:#ffa500;fill-opacity:1;fill-rule:nonzero;stroke:#ffa500;stroke-width:0.8;stroke-linecap:butt;stroke-linejoin:round;stroke-miterlimit:10;stroke-dasharray:none;stroke-opacity:1"
         d="m 41.87,264.14363 h -3.5" /><text
         id="text1099"
         style="font-variant:normal;font-weight:normal;font-size:10px;font-family:DejaVuSans;-inkscape-font-specification:DejaVuSans;writing-mode:lr-tb;fill:#ffa500;fill-opacity:1;fill-rule:nonzero;stroke:none"
         transform="matrix(1,0,0,-1,28.510625,260.34676)"><tspan
           id="tspan1097"
           y="0"
           x="0">1</tspan></text><path
         id="path1101"
         style="fill:#ffa500;fill-opacity:1;fill-rule:nonzero;stroke:#ffa500;stroke-width:0.8;stroke-linecap:butt;stroke-linejoin:round;stroke-miterlimit:10;stroke-dasharray:none;stroke-opacity:1"
         d="m 41.87,292.77727 h -3.5" /><text
         id="text1105"
         style="font-variant:normal;font-weight:normal;font-size:10px;font-family:DejaVuSans;-inkscape-font-specification:DejaVuSans;writing-mode:lr-tb;fill:#ffa500;fill-opacity:1;fill-rule:nonzero;stroke:none"
         transform="matrix(1,0,0,-1,28.510625,288.98039)"><tspan
           id="tspan1103"
           y="0"
           x="0">2</tspan></text><path
         id="path1107"
         style="fill:#ffa500;fill-opacity:1;fill-rule:nonzero;stroke:#ffa500;stroke-width:0.8;stroke-linecap:butt;stroke-linejoin:round;stroke-miterlimit:10;stroke-dasharray:none;stroke-opacity:1"
         d="m 41.87,321.4109 h -3.5" /><text
         id="text1111"
         style="font-variant:normal;font-weight:normal;font-size:10px;font-family:DejaVuSans;-inkscape-font-specification:DejaVuSans;writing-mode:lr-tb;fill:#ffa500;fill-opacity:1;fill-rule:nonzero;stroke:none"
         transform="matrix(1,0,0,-1,28.510625,317.61402)"><tspan
           id="tspan1109"
           y="0"
           x="0">3</tspan></text><path
         id="path1113"
         style="fill:#ffa500;fill-opacity:1;fill-rule:nonzero;stroke:#ffa500;stroke-width:0.8;stroke-linecap:butt;stroke-linejoin:round;stroke-miterlimit:10;stroke-dasharray:none;stroke-opacity:1"
         d="m 41.87,350.04453 h -3.5" /><text
         id="text1117"
         style="font-variant:normal;font-weight:normal;font-size:10px;font-family:DejaVuSans;-inkscape-font-specification:DejaVuSans;writing-mode:lr-tb;fill:#ffa500;fill-opacity:1;fill-rule:nonzero;stroke:none"
         transform="matrix(1,0,0,-1,28.510625,346.24766)"><tspan
           id="tspan1115"
           y="0"
           x="0">4</tspan></text><path
         id="path1119"
         style="fill:#ffa500;fill-opacity:1;fill-rule:nonzero;stroke:#ffa500;stroke-width:0.8;stroke-linecap:butt;stroke-linejoin:round;stroke-miterlimit:10;stroke-dasharray:none;stroke-opacity:1"
         d="m 41.87,378.67817 h -3.5" /><text
         id="text1123"
         style="font-variant:normal;font-weight:normal;font-size:10px;font-family:DejaVuSans;-inkscape-font-specification:DejaVuSans;writing-mode:lr-tb;fill:#ffa500;fill-opacity:1;fill-rule:nonzero;stroke:none"
         transform="matrix(1,0,0,-1,28.510625,374.88129)"><tspan
           id="tspan1121"
           y="0"
           x="0">5</tspan></text><text
         id="text1127"
         style="font-variant:normal;font-weight:normal;font-size:14px;font-family:DejaVuSans;-inkscape-font-specification:DejaVuSans;writing-mode:lr-tb;fill:#ffa500;fill-opacity:1;fill-rule:nonzero;stroke:none"
         transform="matrix(0,1,1,0,21.604375,304.73437)"><tspan
           id="tspan1125"
           y="0"
           x="0 10.472 19.375999">N50</tspan></text><text
         id="text1131"
         style="font-variant:normal;font-weight:normal;font-size:10px;font-family:DejaVuSans;-inkscape-font-specification:DejaVuSans;writing-mode:lr-tb;fill:#ffa500;fill-opacity:1;fill-rule:nonzero;stroke:none"
         transform="matrix(1,0,0,-1,41.87,405.24)"><tspan
           id="tspan1129"
           y="0"
           x="0 6.3600001 12.51">1e7</tspan></text><path
         id="path1133"
         style="fill:none;stroke:#000000;stroke-width:0.8;stroke-linecap:square;stroke-linejoin:miter;stroke-miterlimit:10;stroke-dasharray:none;stroke-opacity:1"
         d="M 41.87,235.51 V 402.24" /><path
         id="path1135"
         style="fill:none;stroke:#000000;stroke-width:0.8;stroke-linecap:square;stroke-linejoin:miter;stroke-miterlimit:10;stroke-dasharray:none;stroke-opacity:1"
         d="M 796.84,235.51 V 402.24" /><path
         id="path1137"
         style="fill:none;stroke:#000000;stroke-width:0.8;stroke-linecap:square;stroke-linejoin:miter;stroke-miterlimit:10;stroke-dasharray:none;stroke-opacity:1"
         d="M 41.87,235.51 H 796.84" /><path
         id="path1139"
         style="fill:none;stroke:#000000;stroke-width:0.8;stroke-linecap:square;stroke-linejoin:miter;stroke-miterlimit:10;stroke-dasharray:none;stroke-opacity:1"
         d="M 41.87,402.24 H 796.84" /></g><g
       id="g1141"><g
         clip-path="url(#clipPath1147)"
         id="g1143"><path
           id="path1149"
           style="fill:#17becf;fill-opacity:1;fill-rule:nonzero;stroke:none"
           d="M 80.58641,235.51 H 99.944615 V 348.77399 H 80.58641 Z" /></g></g><g
       id="g1151"><g
         clip-path="url(#clipPath1157)"
         id="g1153"><path
           id="path1159"
           style="fill:#17becf;fill-opacity:1;fill-rule:nonzero;stroke:none"
           d="m 128.98192,235.51 h 19.35821 v 12.76563 h -19.35821 z" /></g></g><g
       id="g1161"><g
         clip-path="url(#clipPath1167)"
         id="g1163"><path
           id="path1169"
           style="fill:#17becf;fill-opacity:1;fill-rule:nonzero;stroke:none"
           d="m 177.37744,235.51 h 19.3582 v 31.94934 h -19.3582 z" /></g></g><g
       id="g1171"><g
         clip-path="url(#clipPath1177)"
         id="g1173"><path
           id="path1179"
           style="fill:#17becf;fill-opacity:1;fill-rule:nonzero;stroke:none"
           d="m 225.77295,235.51 h 19.3582 v 155.52968 h -19.3582 z" /></g></g><g
       id="g1181"><g
         clip-path="url(#clipPath1187)"
         id="g1183"><path
           id="path1189"
           style="fill:#17becf;fill-opacity:1;fill-rule:nonzero;stroke:none"
           d="m 274.16846,235.51 h 19.35821 v 36.10642 h -19.35821 z" /></g></g><g
       id="g1191"><g
         clip-path="url(#clipPath1197)"
         id="g1193"><path
           id="path1199"
           style="fill:#17becf;fill-opacity:1;fill-rule:nonzero;stroke:none"
           d="m 322.56397,235.51 h 19.35821 v 76.59412 h -19.35821 z" /></g></g><g
       id="g1201"><g
         clip-path="url(#clipPath1207)"
         id="g1203"><path
           id="path1209"
           style="fill:#17becf;fill-opacity:1;fill-rule:nonzero;stroke:none"
           d="m 370.95949,235.51 h 19.3582 v 135.95968 h -19.3582 z" /></g></g><g
       id="g1211"><g
         clip-path="url(#clipPath1217)"
         id="g1213"><path
           id="path1219"
           style="fill:#17becf;fill-opacity:1;fill-rule:nonzero;stroke:none"
           d="m 419.355,235.51 h 19.3582 v 39.21877 H 419.355 Z" /></g></g><g
       id="g1221"><g
         clip-path="url(#clipPath1227)"
         id="g1223"><path
           id="path1229"
           style="fill:#17becf;fill-opacity:1;fill-rule:nonzero;stroke:none"
           d="m 467.75051,235.51 h 19.35821 v 64.81898 h -19.35821 z" /></g></g><g
       id="g1231"><g
         clip-path="url(#clipPath1237)"
         id="g1233"><path
           id="path1239"
           style="fill:#17becf;fill-opacity:1;fill-rule:nonzero;stroke:none"
           d="m 516.14603,235.51 h 19.3582 v 97.98077 h -19.3582 z" /></g></g><g
       id="g1241"><g
         clip-path="url(#clipPath1247)"
         id="g1243"><path
           id="path1249"
           style="fill:#17becf;fill-opacity:1;fill-rule:nonzero;stroke:none"
           d="m 564.54154,235.51 h 19.3582 v 13.22368 h -19.3582 z" /></g></g><g
       id="g1251"><g
         clip-path="url(#clipPath1257)"
         id="g1253"><path
           id="path1259"
           style="fill:#17becf;fill-opacity:1;fill-rule:nonzero;stroke:none"
           d="m 612.93705,235.51 h 19.35821 v 31.88442 h -19.35821 z" /></g></g><g
       id="g1261"><g
         clip-path="url(#clipPath1267)"
         id="g1263"><path
           id="path1269"
           style="fill:#17becf;fill-opacity:1;fill-rule:nonzero;stroke:none"
           d="m 661.33256,235.51 h 19.35821 v 158.79048 h -19.35821 z" /></g></g><g
       id="g1271"><g
         clip-path="url(#clipPath1277)"
         id="g1273"><path
           id="path1279"
           style="fill:#17becf;fill-opacity:1;fill-rule:nonzero;stroke:none"
           d="m 709.72808,235.51 h 19.3582 v 15.5983 h -19.3582 z" /></g></g><g
       id="g1281"><g
         clip-path="url(#clipPath1287)"
         id="g1283"><path
           id="path1289"
           style="fill:#17becf;fill-opacity:1;fill-rule:nonzero;stroke:none"
           d="m 758.12359,235.51 h 19.35821 v 31.09309 h -19.35821 z" /></g></g><g
       id="g1291"><path
         id="path1293"
         style="fill:#17becf;fill-opacity:1;fill-rule:nonzero;stroke:#17becf;stroke-width:0.8;stroke-linecap:butt;stroke-linejoin:round;stroke-miterlimit:10;stroke-dasharray:none;stroke-opacity:1"
         d="m 796.84,235.51 h 3.5" /><text
         id="text1297"
         style="font-variant:normal;font-weight:normal;font-size:10px;font-family:DejaVuSans;-inkscape-font-specification:DejaVuSans;writing-mode:lr-tb;fill:#17becf;fill-opacity:1;fill-rule:nonzero;stroke:none"
         transform="matrix(1,0,0,-1,803.84,231.71312)"><tspan
           id="tspan1295"
           y="0"
           x="0">0</tspan></text><path
         id="path1299"
         style="fill:#17becf;fill-opacity:1;fill-rule:nonzero;stroke:#17becf;stroke-width:0.8;stroke-linecap:butt;stroke-linejoin:round;stroke-miterlimit:10;stroke-dasharray:none;stroke-opacity:1"
         d="m 796.84,271.57761 h 3.5" /><text
         id="text1303"
         style="font-variant:normal;font-weight:normal;font-size:10px;font-family:DejaVuSans;-inkscape-font-specification:DejaVuSans;writing-mode:lr-tb;fill:#17becf;fill-opacity:1;fill-rule:nonzero;stroke:none"
         transform="matrix(1,0,0,-1,803.84,267.78074)"><tspan
           id="tspan1301"
           y="0"
           x="0 6.3600001 12.72 19.08">5000</tspan></text><path
         id="path1305"
         style="fill:#17becf;fill-opacity:1;fill-rule:nonzero;stroke:#17becf;stroke-width:0.8;stroke-linecap:butt;stroke-linejoin:round;stroke-miterlimit:10;stroke-dasharray:none;stroke-opacity:1"
         d="m 796.84,307.64522 h 3.5" /><text
         id="text1309"
         style="font-variant:normal;font-weight:normal;font-size:10px;font-family:DejaVuSans;-inkscape-font-specification:DejaVuSans;writing-mode:lr-tb;fill:#17becf;fill-opacity:1;fill-rule:nonzero;stroke:none"
         transform="matrix(1,0,0,-1,803.84,303.84835)"><tspan
           id="tspan1307"
           y="0"
           x="0 6.3600001 12.72 19.08 25.440001">10000</tspan></text><path
         id="path1311"
         style="fill:#17becf;fill-opacity:1;fill-rule:nonzero;stroke:#17becf;stroke-width:0.8;stroke-linecap:butt;stroke-linejoin:round;stroke-miterlimit:10;stroke-dasharray:none;stroke-opacity:1"
         d="m 796.84,343.71284 h 3.5" /><text
         id="text1315"
         style="font-variant:normal;font-weight:normal;font-size:10px;font-family:DejaVuSans;-inkscape-font-specification:DejaVuSans;writing-mode:lr-tb;fill:#17becf;fill-opacity:1;fill-rule:nonzero;stroke:none"
         transform="matrix(1,0,0,-1,803.84,339.91596)"><tspan
           id="tspan1313"
           y="0"
           x="0 6.3600001 12.72 19.08 25.440001">15000</tspan></text><path
         id="path1317"
         style="fill:#17becf;fill-opacity:1;fill-rule:nonzero;stroke:#17becf;stroke-width:0.8;stroke-linecap:butt;stroke-linejoin:round;stroke-miterlimit:10;stroke-dasharray:none;stroke-opacity:1"
         d="m 796.84,379.78045 h 3.5" /><text
         id="text1321"
         style="font-variant:normal;font-weight:normal;font-size:10px;font-family:DejaVuSans;-inkscape-font-specification:DejaVuSans;writing-mode:lr-tb;fill:#17becf;fill-opacity:1;fill-rule:nonzero;stroke:none"
         transform="matrix(1,0,0,-1,803.84,375.98357)"><tspan
           id="tspan1319"
           y="0"
           x="0 6.3600001 12.72 19.08 25.440001">20000</tspan></text><text
         id="text1325"
         style="font-variant:normal;font-weight:normal;font-size:14px;font-family:DejaVuSans;-inkscape-font-specification:DejaVuSans;writing-mode:lr-tb;fill:#17becf;fill-opacity:1;fill-rule:nonzero;stroke:none"
         transform="matrix(0,1,1,0,850.2775,255.36719)"><tspan
           id="tspan1323"
           y="0"
           x="0 11.732 16.184 26.656 30.506001 37.799999 42.251999 51.141998 59.751999 65.505997 69.958 78.862 87.765999 96.669998 101.122 109.228 118.118"># N's per 100 kbp</tspan></text><path
         id="path1327"
         style="fill:none;stroke:#000000;stroke-width:0.8;stroke-linecap:square;stroke-linejoin:miter;stroke-miterlimit:10;stroke-dasharray:none;stroke-opacity:1"
         d="M 41.87,235.51 V 402.24" /><path
         id="path1329"
         style="fill:none;stroke:#000000;stroke-width:0.8;stroke-linecap:square;stroke-linejoin:miter;stroke-miterlimit:10;stroke-dasharray:none;stroke-opacity:1"
         d="M 796.84,235.51 V 402.24" /><path
         id="path1331"
         style="fill:none;stroke:#000000;stroke-width:0.8;stroke-linecap:square;stroke-linejoin:miter;stroke-miterlimit:10;stroke-dasharray:none;stroke-opacity:1"
         d="M 41.87,235.51 H 796.84" /><path
         id="path1333"
         style="fill:none;stroke:#000000;stroke-width:0.8;stroke-linecap:square;stroke-linejoin:miter;stroke-miterlimit:10;stroke-dasharray:none;stroke-opacity:1"
         d="M 41.87,402.24 H 796.84" /><text
         id="text1337"
         style="font-variant:normal;font-weight:normal;font-size:16px;font-family:DejaVuSans;-inkscape-font-specification:DejaVuSans;writing-mode:lr-tb;fill:#000000;fill-opacity:1;fill-rule:nonzero;stroke:none"
         transform="matrix(1,0,0,-1,281.83156,408.24)"><tspan
           id="tspan1335"
           y="0"
           x="0 10.16 20.304001 35.888 51.472 61.279999 67.856003 77.328003 82.416 88.192001 93.279999 105.248 115.424 125.6 130.688 143.168 148.256 160.224 164.62399 172.96001 178.048 188.20799 198.048 204.62399 209.71201 219.888 230.064 240.24001 245.328 254.592 264.75201">Summary - N50 &amp; N's per 100 kbp</tspan></text></g></g></svg>
