<?xml version="1.0" encoding="UTF-8" standalone="no"?>
<!DOCTYPE svg PUBLIC "-//W3C//DTD SVG 1.1//EN"
 "http://www.w3.org/Graphics/SVG/1.1/DTD/svg11.dtd">
<!-- Generated by graphviz version 2.42.3 (20191010.1750)
 -->
<!-- Title: snakemake_dag Pages: 1 -->
<svg width="903pt" height="846pt"
 viewBox="0.00 0.00 903.41 846.00" xmlns="http://www.w3.org/2000/svg" xmlns:xlink="http://www.w3.org/1999/xlink">
<g id="graph0" class="graph" transform="scale(1 1) rotate(0) translate(4 842)">
<title>snakemake_dag</title>
<polygon fill="white" stroke="transparent" points="-4,4 -4,-842 899.41,-842 899.41,4 -4,4"/>
<!-- 0 -->
<g id="node1" class="node">
<title>0</title>
<path fill="none" stroke="#56d8d0" stroke-width="2" d="M339.5,-36C339.5,-36 309.5,-36 309.5,-36 303.5,-36 297.5,-30 297.5,-24 297.5,-24 297.5,-12 297.5,-12 297.5,-6 303.5,0 309.5,0 309.5,0 339.5,0 339.5,0 345.5,0 351.5,-6 351.5,-12 351.5,-12 351.5,-24 351.5,-24 351.5,-30 345.5,-36 339.5,-36"/>
<text text-anchor="middle" x="324.5" y="-15.5" font-family="sans" font-size="10.00">all</text>
</g>
<!-- 1 -->
<g id="node2" class="node">
<title>1</title>
<path fill="none" stroke="#56b1d8" stroke-width="2" d="M156,-108C156,-108 103,-108 103,-108 97,-108 91,-102 91,-96 91,-96 91,-84 91,-84 91,-78 97,-72 103,-72 103,-72 156,-72 156,-72 162,-72 168,-78 168,-84 168,-84 168,-96 168,-96 168,-102 162,-108 156,-108"/>
<text text-anchor="middle" x="129.5" y="-87.5" font-family="sans" font-size="10.00">multiqc_raw</text>
</g>
<!-- 1&#45;&gt;0 -->
<g id="edge1" class="edge">
<title>1&#45;&gt;0</title>
<path fill="none" stroke="grey" stroke-width="2" d="M168.03,-75.17C202.78,-62.7 253.54,-44.47 287.74,-32.2"/>
<polygon fill="grey" stroke="grey" stroke-width="2" points="289.12,-35.42 297.35,-28.75 286.75,-28.83 289.12,-35.42"/>
</g>
<!-- 2 -->
<g id="node3" class="node">
<title>2</title>
<path fill="none" stroke="#56d892" stroke-width="2" d="M321,-694C321,-694 266,-694 266,-694 260,-694 254,-688 254,-682 254,-682 254,-670 254,-670 254,-664 260,-658 266,-658 266,-658 321,-658 321,-658 327,-658 333,-664 333,-670 333,-670 333,-682 333,-682 333,-688 327,-694 321,-694"/>
<text text-anchor="middle" x="293.5" y="-673.5" font-family="sans" font-size="10.00">multiqc_trim</text>
</g>
<!-- 2&#45;&gt;0 -->
<g id="edge2" class="edge">
<title>2&#45;&gt;0</title>
<path fill="none" stroke="grey" stroke-width="2" d="M271.49,-657.88C242.87,-633.5 196.5,-585.84 196.5,-533 196.5,-533 196.5,-533 196.5,-163.5 196.5,-107.65 250.74,-63.28 288.6,-39.11"/>
<polygon fill="grey" stroke="grey" stroke-width="2" points="290.69,-41.93 297.35,-33.69 287.01,-35.98 290.69,-41.93"/>
</g>
<!-- 3 -->
<g id="node4" class="node">
<title>3</title>
<path fill="none" stroke="#a7d856" stroke-width="2" d="M610.5,-478C610.5,-478 498.5,-478 498.5,-478 492.5,-478 486.5,-472 486.5,-466 486.5,-466 486.5,-454 486.5,-454 486.5,-448 492.5,-442 498.5,-442 498.5,-442 610.5,-442 610.5,-442 616.5,-442 622.5,-448 622.5,-454 622.5,-454 622.5,-466 622.5,-466 622.5,-472 616.5,-478 610.5,-478"/>
<text text-anchor="middle" x="554.5" y="-457.5" font-family="sans" font-size="10.00">quast_contigs_summary</text>
</g>
<!-- 3&#45;&gt;0 -->
<g id="edge3" class="edge">
<title>3&#45;&gt;0</title>
<path fill="none" stroke="grey" stroke-width="2" d="M622.7,-456.52C705.55,-452.04 838.62,-439.69 873.5,-406 904.16,-376.39 892.5,-354.62 892.5,-312 892.5,-312 892.5,-312 892.5,-163.5 892.5,-53.63 488.3,-26.3 361.85,-20.44"/>
<polygon fill="grey" stroke="grey" stroke-width="2" points="361.66,-16.92 351.51,-19.98 361.35,-23.92 361.66,-16.92"/>
</g>
<!-- 30 -->
<g id="node31" class="node">
<title>30</title>
<path fill="none" stroke="#d6d856" stroke-width="2" d="M852,-406C852,-406 675,-406 675,-406 669,-406 663,-400 663,-394 663,-394 663,-377 663,-377 663,-371 669,-365 675,-365 675,-365 852,-365 852,-365 858,-365 864,-371 864,-377 864,-377 864,-394 864,-394 864,-400 858,-406 852,-406"/>
<text text-anchor="middle" x="763.5" y="-394" font-family="sans" font-size="10.00">extract_best_N50_contigs_for_BUSCO</text>
<text text-anchor="middle" x="763.5" y="-383" font-family="sans" font-size="10.00">assembler: SOAP</text>
<text text-anchor="middle" x="763.5" y="-372" font-family="sans" font-size="10.00">id: TESTFILE</text>
</g>
<!-- 3&#45;&gt;30 -->
<g id="edge50" class="edge">
<title>3&#45;&gt;30</title>
<path fill="none" stroke="grey" stroke-width="2" d="M603.77,-441.91C631.75,-432.2 667.16,-419.92 697.52,-409.39"/>
<polygon fill="grey" stroke="grey" stroke-width="2" points="698.88,-412.62 707.18,-406.04 696.59,-406.01 698.88,-412.62"/>
</g>
<!-- 31 -->
<g id="node32" class="node">
<title>31</title>
<path fill="none" stroke="#d6d856" stroke-width="2" d="M414,-406C414,-406 237,-406 237,-406 231,-406 225,-400 225,-394 225,-394 225,-377 225,-377 225,-371 231,-365 237,-365 237,-365 414,-365 414,-365 420,-365 426,-371 426,-377 426,-377 426,-394 426,-394 426,-400 420,-406 414,-406"/>
<text text-anchor="middle" x="325.5" y="-394" font-family="sans" font-size="10.00">extract_best_N50_contigs_for_BUSCO</text>
<text text-anchor="middle" x="325.5" y="-383" font-family="sans" font-size="10.00">assembler: ABYSS</text>
<text text-anchor="middle" x="325.5" y="-372" font-family="sans" font-size="10.00">id: TESTFILE</text>
</g>
<!-- 3&#45;&gt;31 -->
<g id="edge51" class="edge">
<title>3&#45;&gt;31</title>
<path fill="none" stroke="grey" stroke-width="2" d="M500.52,-441.91C469.59,-432.12 430.39,-419.71 396.93,-409.12"/>
<polygon fill="grey" stroke="grey" stroke-width="2" points="397.8,-405.72 387.21,-406.04 395.69,-412.39 397.8,-405.72"/>
</g>
<!-- 32 -->
<g id="node33" class="node">
<title>32</title>
<path fill="none" stroke="#d6d856" stroke-width="2" d="M633,-406C633,-406 456,-406 456,-406 450,-406 444,-400 444,-394 444,-394 444,-377 444,-377 444,-371 450,-365 456,-365 456,-365 633,-365 633,-365 639,-365 645,-371 645,-377 645,-377 645,-394 645,-394 645,-400 639,-406 633,-406"/>
<text text-anchor="middle" x="544.5" y="-394" font-family="sans" font-size="10.00">extract_best_N50_contigs_for_BUSCO</text>
<text text-anchor="middle" x="544.5" y="-383" font-family="sans" font-size="10.00">assembler: DISCOVAR</text>
<text text-anchor="middle" x="544.5" y="-372" font-family="sans" font-size="10.00">id: TESTFILE</text>
</g>
<!-- 3&#45;&gt;32 -->
<g id="edge52" class="edge">
<title>3&#45;&gt;32</title>
<path fill="none" stroke="grey" stroke-width="2" d="M552.13,-441.82C551.07,-434.11 549.78,-424.8 548.57,-416.03"/>
<polygon fill="grey" stroke="grey" stroke-width="2" points="552.04,-415.55 547.21,-406.12 545.11,-416.5 552.04,-415.55"/>
</g>
<!-- 4 -->
<g id="node5" class="node">
<title>4</title>
<path fill="none" stroke="#56c9d8" stroke-width="2" d="M490,-108C490,-108 445,-108 445,-108 439,-108 433,-102 433,-96 433,-96 433,-84 433,-84 433,-78 439,-72 445,-72 445,-72 490,-72 490,-72 496,-72 502,-78 502,-84 502,-84 502,-96 502,-96 502,-102 496,-108 490,-108"/>
<text text-anchor="middle" x="467.5" y="-87.5" font-family="sans" font-size="10.00">finalReport</text>
</g>
<!-- 4&#45;&gt;0 -->
<g id="edge4" class="edge">
<title>4&#45;&gt;0</title>
<path fill="none" stroke="grey" stroke-width="2" d="M432.88,-72.05C411.04,-61.36 382.87,-47.57 360.73,-36.73"/>
<polygon fill="grey" stroke="grey" stroke-width="2" points="362.16,-33.54 351.64,-32.29 359.09,-39.83 362.16,-33.54"/>
</g>
<!-- 5 -->
<g id="node6" class="node">
<title>5</title>
<path fill="none" stroke="#5682d8" stroke-width="2" d="M63,-185C63,-185 12,-185 12,-185 6,-185 0,-179 0,-173 0,-173 0,-156 0,-156 0,-150 6,-144 12,-144 12,-144 63,-144 63,-144 69,-144 75,-150 75,-156 75,-156 75,-173 75,-173 75,-179 69,-185 63,-185"/>
<text text-anchor="middle" x="37.5" y="-173" font-family="sans" font-size="10.00">fastqc_raw</text>
<text text-anchor="middle" x="37.5" y="-162" font-family="sans" font-size="10.00">id: TESTFILE</text>
<text text-anchor="middle" x="37.5" y="-151" font-family="sans" font-size="10.00">read: 1P</text>
</g>
<!-- 5&#45;&gt;1 -->
<g id="edge5" class="edge">
<title>5&#45;&gt;1</title>
<path fill="none" stroke="grey" stroke-width="2" d="M62.64,-143.69C74.14,-134.63 87.84,-123.83 99.84,-114.37"/>
<polygon fill="grey" stroke="grey" stroke-width="2" points="102.14,-117.02 107.83,-108.08 97.81,-111.52 102.14,-117.02"/>
</g>
<!-- 6 -->
<g id="node7" class="node">
<title>6</title>
<path fill="none" stroke="#5682d8" stroke-width="2" d="M156,-185C156,-185 105,-185 105,-185 99,-185 93,-179 93,-173 93,-173 93,-156 93,-156 93,-150 99,-144 105,-144 105,-144 156,-144 156,-144 162,-144 168,-150 168,-156 168,-156 168,-173 168,-173 168,-179 162,-185 156,-185"/>
<text text-anchor="middle" x="130.5" y="-173" font-family="sans" font-size="10.00">fastqc_raw</text>
<text text-anchor="middle" x="130.5" y="-162" font-family="sans" font-size="10.00">id: TESTFILE</text>
<text text-anchor="middle" x="130.5" y="-151" font-family="sans" font-size="10.00">read: 2P</text>
</g>
<!-- 6&#45;&gt;1 -->
<g id="edge6" class="edge">
<title>6&#45;&gt;1</title>
<path fill="none" stroke="grey" stroke-width="2" d="M130.23,-143.69C130.12,-135.91 129.99,-126.84 129.88,-118.45"/>
<polygon fill="grey" stroke="grey" stroke-width="2" points="133.38,-118.27 129.74,-108.32 126.38,-118.37 133.38,-118.27"/>
</g>
<!-- 7 -->
<g id="node8" class="node">
<title>7</title>
<path fill="none" stroke="#d8c356" stroke-width="2" d="M317.5,-766C317.5,-766 269.5,-766 269.5,-766 263.5,-766 257.5,-760 257.5,-754 257.5,-754 257.5,-742 257.5,-742 257.5,-736 263.5,-730 269.5,-730 269.5,-730 317.5,-730 317.5,-730 323.5,-730 329.5,-736 329.5,-742 329.5,-742 329.5,-754 329.5,-754 329.5,-760 323.5,-766 317.5,-766"/>
<text text-anchor="middle" x="293.5" y="-751" font-family="sans" font-size="10.00">fastqc_trim</text>
<text text-anchor="middle" x="293.5" y="-740" font-family="sans" font-size="10.00">read: 1P</text>
</g>
<!-- 7&#45;&gt;2 -->
<g id="edge7" class="edge">
<title>7&#45;&gt;2</title>
<path fill="none" stroke="grey" stroke-width="2" d="M293.5,-729.7C293.5,-721.98 293.5,-712.71 293.5,-704.11"/>
<polygon fill="grey" stroke="grey" stroke-width="2" points="297,-704.1 293.5,-694.1 290,-704.1 297,-704.1"/>
</g>
<!-- 8 -->
<g id="node9" class="node">
<title>8</title>
<path fill="none" stroke="#d8c356" stroke-width="2" d="M407.5,-766C407.5,-766 359.5,-766 359.5,-766 353.5,-766 347.5,-760 347.5,-754 347.5,-754 347.5,-742 347.5,-742 347.5,-736 353.5,-730 359.5,-730 359.5,-730 407.5,-730 407.5,-730 413.5,-730 419.5,-736 419.5,-742 419.5,-742 419.5,-754 419.5,-754 419.5,-760 413.5,-766 407.5,-766"/>
<text text-anchor="middle" x="383.5" y="-751" font-family="sans" font-size="10.00">fastqc_trim</text>
<text text-anchor="middle" x="383.5" y="-740" font-family="sans" font-size="10.00">read: 2P</text>
</g>
<!-- 8&#45;&gt;2 -->
<g id="edge8" class="edge">
<title>8&#45;&gt;2</title>
<path fill="none" stroke="grey" stroke-width="2" d="M361.25,-729.7C349.92,-720.88 335.97,-710.03 323.68,-700.47"/>
<polygon fill="grey" stroke="grey" stroke-width="2" points="325.53,-697.48 315.49,-694.1 321.24,-703.01 325.53,-697.48"/>
</g>
<!-- 9 -->
<g id="node10" class="node">
<title>9</title>
<path fill="none" stroke="#8fd856" stroke-width="2" d="M288.5,-550C288.5,-550 236.5,-550 236.5,-550 230.5,-550 224.5,-544 224.5,-538 224.5,-538 224.5,-526 224.5,-526 224.5,-520 230.5,-514 236.5,-514 236.5,-514 288.5,-514 288.5,-514 294.5,-514 300.5,-520 300.5,-526 300.5,-526 300.5,-538 300.5,-538 300.5,-544 294.5,-550 288.5,-550"/>
<text text-anchor="middle" x="262.5" y="-535" font-family="sans" font-size="10.00">soapdenovo</text>
<text text-anchor="middle" x="262.5" y="-524" font-family="sans" font-size="10.00">kmer: lower</text>
</g>
<!-- 9&#45;&gt;3 -->
<g id="edge9" class="edge">
<title>9&#45;&gt;3</title>
<path fill="none" stroke="grey" stroke-width="2" d="M300.58,-516.74C303.58,-515.77 306.58,-514.84 309.5,-514 364.55,-498.17 427.77,-484.6 476.2,-475.16"/>
<polygon fill="grey" stroke="grey" stroke-width="2" points="477.14,-478.54 486.3,-473.21 475.82,-471.67 477.14,-478.54"/>
</g>
<!-- 10 -->
<g id="node11" class="node">
<title>10</title>
<path fill="none" stroke="#8fd856" stroke-width="2" d="M382.5,-550C382.5,-550 330.5,-550 330.5,-550 324.5,-550 318.5,-544 318.5,-538 318.5,-538 318.5,-526 318.5,-526 318.5,-520 324.5,-514 330.5,-514 330.5,-514 382.5,-514 382.5,-514 388.5,-514 394.5,-520 394.5,-526 394.5,-526 394.5,-538 394.5,-538 394.5,-544 388.5,-550 382.5,-550"/>
<text text-anchor="middle" x="356.5" y="-535" font-family="sans" font-size="10.00">soapdenovo</text>
<text text-anchor="middle" x="356.5" y="-524" font-family="sans" font-size="10.00">kmer: upper</text>
</g>
<!-- 10&#45;&gt;3 -->
<g id="edge10" class="edge">
<title>10&#45;&gt;3</title>
<path fill="none" stroke="grey" stroke-width="2" d="M394.71,-517.15C397.68,-516.08 400.64,-515.02 403.5,-514 433.93,-503.16 467.88,-491.23 495.86,-481.44"/>
<polygon fill="grey" stroke="grey" stroke-width="2" points="497.21,-484.67 505.5,-478.07 494.9,-478.06 497.21,-484.67"/>
</g>
<!-- 11 -->
<g id="node12" class="node">
<title>11</title>
<path fill="none" stroke="#8fd856" stroke-width="2" d="M486.5,-550C486.5,-550 424.5,-550 424.5,-550 418.5,-550 412.5,-544 412.5,-538 412.5,-538 412.5,-526 412.5,-526 412.5,-520 418.5,-514 424.5,-514 424.5,-514 486.5,-514 486.5,-514 492.5,-514 498.5,-520 498.5,-526 498.5,-526 498.5,-538 498.5,-538 498.5,-544 492.5,-550 486.5,-550"/>
<text text-anchor="middle" x="455.5" y="-535" font-family="sans" font-size="10.00">soapdenovo</text>
<text text-anchor="middle" x="455.5" y="-524" font-family="sans" font-size="10.00">kmer: optimal</text>
</g>
<!-- 11&#45;&gt;3 -->
<g id="edge11" class="edge">
<title>11&#45;&gt;3</title>
<path fill="none" stroke="grey" stroke-width="2" d="M479.72,-513.88C492.42,-504.89 508.16,-493.76 521.92,-484.03"/>
<polygon fill="grey" stroke="grey" stroke-width="2" points="524.04,-486.82 530.19,-478.19 520,-481.11 524.04,-486.82"/>
</g>
<!-- 12 -->
<g id="node13" class="node">
<title>12</title>
<path fill="none" stroke="#56d8a2" stroke-width="2" d="M580,-550C580,-550 529,-550 529,-550 523,-550 517,-544 517,-538 517,-538 517,-526 517,-526 517,-520 523,-514 529,-514 529,-514 580,-514 580,-514 586,-514 592,-520 592,-526 592,-526 592,-538 592,-538 592,-544 586,-550 580,-550"/>
<text text-anchor="middle" x="554.5" y="-535" font-family="sans" font-size="10.00">ABySS</text>
<text text-anchor="middle" x="554.5" y="-524" font-family="sans" font-size="10.00">kmer: lower</text>
</g>
<!-- 12&#45;&gt;3 -->
<g id="edge12" class="edge">
<title>12&#45;&gt;3</title>
<path fill="none" stroke="grey" stroke-width="2" d="M554.5,-513.7C554.5,-505.98 554.5,-496.71 554.5,-488.11"/>
<polygon fill="grey" stroke="grey" stroke-width="2" points="558,-488.1 554.5,-478.1 551,-488.1 558,-488.1"/>
</g>
<!-- 13 -->
<g id="node14" class="node">
<title>13</title>
<path fill="none" stroke="#56d8a2" stroke-width="2" d="M674.5,-550C674.5,-550 622.5,-550 622.5,-550 616.5,-550 610.5,-544 610.5,-538 610.5,-538 610.5,-526 610.5,-526 610.5,-520 616.5,-514 622.5,-514 622.5,-514 674.5,-514 674.5,-514 680.5,-514 686.5,-520 686.5,-526 686.5,-526 686.5,-538 686.5,-538 686.5,-544 680.5,-550 674.5,-550"/>
<text text-anchor="middle" x="648.5" y="-535" font-family="sans" font-size="10.00">ABySS</text>
<text text-anchor="middle" x="648.5" y="-524" font-family="sans" font-size="10.00">kmer: upper</text>
</g>
<!-- 13&#45;&gt;3 -->
<g id="edge13" class="edge">
<title>13&#45;&gt;3</title>
<path fill="none" stroke="grey" stroke-width="2" d="M625.26,-513.7C613.31,-504.8 598.58,-493.82 585.65,-484.2"/>
<polygon fill="grey" stroke="grey" stroke-width="2" points="587.58,-481.27 577.47,-478.1 583.4,-486.88 587.58,-481.27"/>
</g>
<!-- 14 -->
<g id="node15" class="node">
<title>14</title>
<path fill="none" stroke="#56d8a2" stroke-width="2" d="M778.5,-550C778.5,-550 716.5,-550 716.5,-550 710.5,-550 704.5,-544 704.5,-538 704.5,-538 704.5,-526 704.5,-526 704.5,-520 710.5,-514 716.5,-514 716.5,-514 778.5,-514 778.5,-514 784.5,-514 790.5,-520 790.5,-526 790.5,-526 790.5,-538 790.5,-538 790.5,-544 784.5,-550 778.5,-550"/>
<text text-anchor="middle" x="747.5" y="-535" font-family="sans" font-size="10.00">ABySS</text>
<text text-anchor="middle" x="747.5" y="-524" font-family="sans" font-size="10.00">kmer: optimal</text>
</g>
<!-- 14&#45;&gt;3 -->
<g id="edge14" class="edge">
<title>14&#45;&gt;3</title>
<path fill="none" stroke="grey" stroke-width="2" d="M704.19,-515.29C676.61,-505.29 640.6,-492.23 610.81,-481.43"/>
<polygon fill="grey" stroke="grey" stroke-width="2" points="611.97,-478.12 601.38,-478 609.59,-484.7 611.97,-478.12"/>
</g>
<!-- 15 -->
<g id="node16" class="node">
<title>15</title>
<path fill="none" stroke="#78d856" stroke-width="2" d="M842,-622C842,-622 769,-622 769,-622 763,-622 757,-616 757,-610 757,-610 757,-598 757,-598 757,-592 763,-586 769,-586 769,-586 842,-586 842,-586 848,-586 854,-592 854,-598 854,-598 854,-610 854,-610 854,-616 848,-622 842,-622"/>
<text text-anchor="middle" x="805.5" y="-601.5" font-family="sans" font-size="10.00">renameDiscovar</text>
</g>
<!-- 15&#45;&gt;3 -->
<g id="edge15" class="edge">
<title>15&#45;&gt;3</title>
<path fill="none" stroke="grey" stroke-width="2" d="M809.89,-585.66C813.78,-565.86 816.51,-533.69 799.5,-514 777.93,-489.03 695.95,-475.05 632.7,-467.79"/>
<polygon fill="grey" stroke="grey" stroke-width="2" points="633.04,-464.31 622.72,-466.69 632.27,-471.27 633.04,-464.31"/>
</g>
<!-- 16 -->
<g id="node17" class="node">
<title>16</title>
<path fill="none" stroke="#d89c56" stroke-width="2" d="M501,-182.5C501,-182.5 434,-182.5 434,-182.5 428,-182.5 422,-176.5 422,-170.5 422,-170.5 422,-158.5 422,-158.5 422,-152.5 428,-146.5 434,-146.5 434,-146.5 501,-146.5 501,-146.5 507,-146.5 513,-152.5 513,-158.5 513,-158.5 513,-170.5 513,-170.5 513,-176.5 507,-182.5 501,-182.5"/>
<text text-anchor="middle" x="467.5" y="-162" font-family="sans" font-size="10.00">finalReportPrep</text>
</g>
<!-- 16&#45;&gt;4 -->
<g id="edge16" class="edge">
<title>16&#45;&gt;4</title>
<path fill="none" stroke="grey" stroke-width="2" d="M467.5,-146.32C467.5,-137.92 467.5,-127.62 467.5,-118.19"/>
<polygon fill="grey" stroke="grey" stroke-width="2" points="471,-118.06 467.5,-108.06 464,-118.06 471,-118.06"/>
</g>
<!-- 17 -->
<g id="node18" class="node">
<title>17</title>
<path fill="none" stroke="#56d87b" stroke-width="2" d="M627.5,-257C627.5,-257 567.5,-257 567.5,-257 561.5,-257 555.5,-251 555.5,-245 555.5,-245 555.5,-233 555.5,-233 555.5,-227 561.5,-221 567.5,-221 567.5,-221 627.5,-221 627.5,-221 633.5,-221 639.5,-227 639.5,-233 639.5,-233 639.5,-245 639.5,-245 639.5,-251 633.5,-257 627.5,-257"/>
<text text-anchor="middle" x="597.5" y="-236.5" font-family="sans" font-size="10.00">quast_RagTag</text>
</g>
<!-- 17&#45;&gt;4 -->
<g id="edge17" class="edge">
<title>17&#45;&gt;4</title>
<path fill="none" stroke="grey" stroke-width="2" d="M584.61,-220.88C569.92,-201.66 544.92,-169.79 521.5,-144 512.67,-134.28 502.5,-124.06 493.38,-115.22"/>
<polygon fill="grey" stroke="grey" stroke-width="2" points="495.66,-112.56 486.02,-108.16 490.81,-117.61 495.66,-112.56"/>
</g>
<!-- 18 -->
<g id="node19" class="node">
<title>18</title>
<path fill="none" stroke="#bed856" stroke-width="2" d="M590.5,-838C590.5,-838 534.5,-838 534.5,-838 528.5,-838 522.5,-832 522.5,-826 522.5,-826 522.5,-814 522.5,-814 522.5,-808 528.5,-802 534.5,-802 534.5,-802 590.5,-802 590.5,-802 596.5,-802 602.5,-808 602.5,-814 602.5,-814 602.5,-826 602.5,-826 602.5,-832 596.5,-838 590.5,-838"/>
<text text-anchor="middle" x="562.5" y="-823" font-family="sans" font-size="10.00">trimmomatic</text>
<text text-anchor="middle" x="562.5" y="-812" font-family="sans" font-size="10.00">id: TESTFILE</text>
</g>
<!-- 18&#45;&gt;7 -->
<g id="edge18" class="edge">
<title>18&#45;&gt;7</title>
<path fill="none" stroke="grey" stroke-width="2" d="M522.43,-811.15C479.32,-802.34 408.65,-786.87 339.46,-766.1"/>
<polygon fill="grey" stroke="grey" stroke-width="2" points="340.3,-762.7 329.71,-763.14 338.26,-769.4 340.3,-762.7"/>
</g>
<!-- 18&#45;&gt;8 -->
<g id="edge19" class="edge">
<title>18&#45;&gt;8</title>
<path fill="none" stroke="grey" stroke-width="2" d="M522.33,-803.29C494.64,-792.46 457.79,-778.05 429.01,-766.8"/>
<polygon fill="grey" stroke="grey" stroke-width="2" points="430.18,-763.5 419.59,-763.11 427.63,-770.01 430.18,-763.5"/>
</g>
<!-- 18&#45;&gt;12 -->
<g id="edge27" class="edge">
<title>18&#45;&gt;12</title>
<path fill="none" stroke="grey" stroke-width="2" d="M570.81,-801.79C575.24,-791.63 580.24,-778.38 582.5,-766 596.86,-687.3 601.75,-663.65 582.5,-586 580.21,-576.75 575.97,-567.34 571.48,-559.07"/>
<polygon fill="grey" stroke="grey" stroke-width="2" points="574.43,-557.17 566.39,-550.28 568.37,-560.68 574.43,-557.17"/>
</g>
<!-- 18&#45;&gt;13 -->
<g id="edge29" class="edge">
<title>18&#45;&gt;13</title>
<path fill="none" stroke="grey" stroke-width="2" d="M577.52,-801.99C585.48,-792.11 594.78,-779.07 600.5,-766 631.25,-695.74 642.65,-604.82 646.59,-560.17"/>
<polygon fill="grey" stroke="grey" stroke-width="2" points="650.08,-560.37 647.41,-550.11 643.11,-559.79 650.08,-560.37"/>
</g>
<!-- 18&#45;&gt;14 -->
<g id="edge31" class="edge">
<title>18&#45;&gt;14</title>
<path fill="none" stroke="grey" stroke-width="2" d="M584.95,-801.95C596.76,-792.26 610.93,-779.41 621.5,-766 674.82,-698.33 717.57,-604.93 736.67,-559.69"/>
<polygon fill="grey" stroke="grey" stroke-width="2" points="739.98,-560.86 740.6,-550.29 733.52,-558.17 739.98,-560.86"/>
</g>
<!-- 20 -->
<g id="node21" class="node">
<title>20</title>
<path fill="none" stroke="#566bd8" stroke-width="2" d="M384.5,-622C384.5,-622 334.5,-622 334.5,-622 328.5,-622 322.5,-616 322.5,-610 322.5,-610 322.5,-598 322.5,-598 322.5,-592 328.5,-586 334.5,-586 334.5,-586 384.5,-586 384.5,-586 390.5,-586 396.5,-592 396.5,-598 396.5,-598 396.5,-610 396.5,-610 396.5,-616 390.5,-622 384.5,-622"/>
<text text-anchor="middle" x="359.5" y="-601.5" font-family="sans" font-size="10.00">soap_config</text>
</g>
<!-- 18&#45;&gt;20 -->
<g id="edge40" class="edge">
<title>18&#45;&gt;20</title>
<path fill="none" stroke="grey" stroke-width="2" d="M522.34,-802.21C503.98,-793.25 482.74,-780.96 466.5,-766 423.47,-726.37 389.44,-666.07 372.09,-631.62"/>
<polygon fill="grey" stroke="grey" stroke-width="2" points="375.02,-629.64 367.45,-622.22 368.74,-632.74 375.02,-629.64"/>
</g>
<!-- 29 -->
<g id="node30" class="node">
<title>29</title>
<path fill="none" stroke="#61d856" stroke-width="2" d="M808,-766C808,-766 751,-766 751,-766 745,-766 739,-760 739,-754 739,-754 739,-742 739,-742 739,-736 745,-730 751,-730 751,-730 808,-730 808,-730 814,-730 820,-736 820,-742 820,-742 820,-754 820,-754 820,-760 814,-766 808,-766"/>
<text text-anchor="middle" x="779.5" y="-745.5" font-family="sans" font-size="10.00">DiscoVarPrep</text>
</g>
<!-- 18&#45;&gt;29 -->
<g id="edge49" class="edge">
<title>18&#45;&gt;29</title>
<path fill="none" stroke="grey" stroke-width="2" d="M602.55,-806.08C638.19,-794.58 690.48,-777.72 728.98,-765.3"/>
<polygon fill="grey" stroke="grey" stroke-width="2" points="730.5,-768.48 738.94,-762.08 728.35,-761.82 730.5,-768.48"/>
</g>
<!-- 33 -->
<g id="node34" class="node">
<title>33</title>
<path fill="none" stroke="#d8b456" stroke-width="2" d="M561.5,-766C561.5,-766 487.5,-766 487.5,-766 481.5,-766 475.5,-760 475.5,-754 475.5,-754 475.5,-742 475.5,-742 475.5,-736 481.5,-730 487.5,-730 487.5,-730 561.5,-730 561.5,-730 567.5,-730 573.5,-736 573.5,-742 573.5,-742 573.5,-754 573.5,-754 573.5,-760 567.5,-766 561.5,-766"/>
<text text-anchor="middle" x="524.5" y="-745.5" font-family="sans" font-size="10.00">KmerGenie_prep</text>
</g>
<!-- 18&#45;&gt;33 -->
<g id="edge53" class="edge">
<title>18&#45;&gt;33</title>
<path fill="none" stroke="grey" stroke-width="2" d="M553.11,-801.7C548.74,-793.64 543.44,-783.89 538.6,-774.98"/>
<polygon fill="grey" stroke="grey" stroke-width="2" points="541.63,-773.22 533.79,-766.1 535.48,-776.56 541.63,-773.22"/>
</g>
<!-- 19 -->
<g id="node20" class="node">
<title>19</title>
<path fill="none" stroke="#d85656" stroke-width="2" d="M561.5,-622C561.5,-622 437.5,-622 437.5,-622 431.5,-622 425.5,-616 425.5,-610 425.5,-610 425.5,-598 425.5,-598 425.5,-592 431.5,-586 437.5,-586 437.5,-586 561.5,-586 561.5,-586 567.5,-586 573.5,-592 573.5,-598 573.5,-598 573.5,-610 573.5,-610 573.5,-616 567.5,-622 561.5,-622"/>
<text text-anchor="middle" x="499.5" y="-601.5" font-family="sans" font-size="10.00">KmerInputLowerUpperBest</text>
</g>
<!-- 19&#45;&gt;9 -->
<g id="edge20" class="edge">
<title>19&#45;&gt;9</title>
<path fill="none" stroke="grey" stroke-width="2" d="M433.63,-585.93C399.27,-576.72 356.38,-564.75 310.22,-550.13"/>
<polygon fill="grey" stroke="grey" stroke-width="2" points="311.23,-546.77 300.64,-547.07 309.1,-553.44 311.23,-546.77"/>
</g>
<!-- 19&#45;&gt;10 -->
<g id="edge22" class="edge">
<title>19&#45;&gt;10</title>
<path fill="none" stroke="grey" stroke-width="2" d="M464.52,-585.88C445.3,-576.47 421.27,-564.71 400.76,-554.67"/>
<polygon fill="grey" stroke="grey" stroke-width="2" points="402.14,-551.44 391.62,-550.19 399.06,-557.73 402.14,-551.44"/>
</g>
<!-- 19&#45;&gt;11 -->
<g id="edge24" class="edge">
<title>19&#45;&gt;11</title>
<path fill="none" stroke="grey" stroke-width="2" d="M488.62,-585.7C483.51,-577.56 477.3,-567.69 471.66,-558.7"/>
<polygon fill="grey" stroke="grey" stroke-width="2" points="474.54,-556.71 466.25,-550.1 468.61,-560.43 474.54,-556.71"/>
</g>
<!-- 19&#45;&gt;12 -->
<g id="edge26" class="edge">
<title>19&#45;&gt;12</title>
<path fill="none" stroke="grey" stroke-width="2" d="M513.1,-585.7C519.62,-577.39 527.57,-567.28 534.75,-558.14"/>
<polygon fill="grey" stroke="grey" stroke-width="2" points="537.63,-560.13 541.06,-550.1 532.13,-555.81 537.63,-560.13"/>
</g>
<!-- 19&#45;&gt;13 -->
<g id="edge28" class="edge">
<title>19&#45;&gt;13</title>
<path fill="none" stroke="grey" stroke-width="2" d="M535.95,-585.88C556.14,-576.39 581.42,-564.51 602.91,-554.42"/>
<polygon fill="grey" stroke="grey" stroke-width="2" points="604.61,-557.49 612.17,-550.07 601.63,-551.15 604.61,-557.49"/>
</g>
<!-- 19&#45;&gt;14 -->
<g id="edge30" class="edge">
<title>19&#45;&gt;14</title>
<path fill="none" stroke="grey" stroke-width="2" d="M565.97,-585.94C601.65,-576.57 646.57,-564.43 694.75,-550.16"/>
<polygon fill="grey" stroke="grey" stroke-width="2" points="695.84,-553.48 704.42,-547.27 693.84,-546.77 695.84,-553.48"/>
</g>
<!-- 20&#45;&gt;9 -->
<g id="edge21" class="edge">
<title>20&#45;&gt;9</title>
<path fill="none" stroke="grey" stroke-width="2" d="M335.52,-585.7C323.19,-576.8 307.98,-565.82 294.65,-556.2"/>
<polygon fill="grey" stroke="grey" stroke-width="2" points="296.36,-553.12 286.2,-550.1 292.26,-558.79 296.36,-553.12"/>
</g>
<!-- 20&#45;&gt;10 -->
<g id="edge23" class="edge">
<title>20&#45;&gt;10</title>
<path fill="none" stroke="grey" stroke-width="2" d="M358.76,-585.7C358.43,-577.98 358.03,-568.71 357.66,-560.11"/>
<polygon fill="grey" stroke="grey" stroke-width="2" points="361.16,-559.95 357.23,-550.1 354.16,-560.25 361.16,-559.95"/>
</g>
<!-- 20&#45;&gt;11 -->
<g id="edge25" class="edge">
<title>20&#45;&gt;11</title>
<path fill="none" stroke="grey" stroke-width="2" d="M383.23,-585.7C395.44,-576.8 410.49,-565.82 423.68,-556.2"/>
<polygon fill="grey" stroke="grey" stroke-width="2" points="426.02,-558.82 432.04,-550.1 421.9,-553.17 426.02,-558.82"/>
</g>
<!-- 21 -->
<g id="node22" class="node">
<title>21</title>
<path fill="none" stroke="#569ad8" stroke-width="2" d="M827,-694C827,-694 754,-694 754,-694 748,-694 742,-688 742,-682 742,-682 742,-670 742,-670 742,-664 748,-658 754,-658 754,-658 827,-658 827,-658 833,-658 839,-664 839,-670 839,-670 839,-682 839,-682 839,-688 833,-694 827,-694"/>
<text text-anchor="middle" x="790.5" y="-673.5" font-family="sans" font-size="10.00">DiscovarDenovo</text>
</g>
<!-- 21&#45;&gt;15 -->
<g id="edge32" class="edge">
<title>21&#45;&gt;15</title>
<path fill="none" stroke="grey" stroke-width="2" d="M794.21,-657.7C795.86,-649.98 797.85,-640.71 799.69,-632.11"/>
<polygon fill="grey" stroke="grey" stroke-width="2" points="803.16,-632.62 801.83,-622.1 796.32,-631.15 803.16,-632.62"/>
</g>
<!-- 22 -->
<g id="node23" class="node">
<title>22</title>
<path fill="none" stroke="#d88556" stroke-width="2" d="M785.5,-257C785.5,-257 669.5,-257 669.5,-257 663.5,-257 657.5,-251 657.5,-245 657.5,-245 657.5,-233 657.5,-233 657.5,-227 663.5,-221 669.5,-221 669.5,-221 785.5,-221 785.5,-221 791.5,-221 797.5,-227 797.5,-233 797.5,-233 797.5,-245 797.5,-245 797.5,-251 791.5,-257 785.5,-257"/>
<text text-anchor="middle" x="727.5" y="-236.5" font-family="sans" font-size="10.00">BUSCO_RagTag_scaffolds</text>
</g>
<!-- 22&#45;&gt;16 -->
<g id="edge33" class="edge">
<title>22&#45;&gt;16</title>
<path fill="none" stroke="grey" stroke-width="2" d="M666.21,-220.91C622.85,-208.82 565.17,-192.73 523.13,-181.01"/>
<polygon fill="grey" stroke="grey" stroke-width="2" points="523.91,-177.6 513.33,-178.28 522.03,-184.34 523.91,-177.6"/>
</g>
<!-- 23 -->
<g id="node24" class="node">
<title>23</title>
<path fill="none" stroke="#d88556" stroke-width="2" d="M367.5,-257C367.5,-257 251.5,-257 251.5,-257 245.5,-257 239.5,-251 239.5,-245 239.5,-245 239.5,-233 239.5,-233 239.5,-227 245.5,-221 251.5,-221 251.5,-221 367.5,-221 367.5,-221 373.5,-221 379.5,-227 379.5,-233 379.5,-233 379.5,-245 379.5,-245 379.5,-251 373.5,-257 367.5,-257"/>
<text text-anchor="middle" x="309.5" y="-236.5" font-family="sans" font-size="10.00">BUSCO_RagTag_scaffolds</text>
</g>
<!-- 23&#45;&gt;16 -->
<g id="edge34" class="edge">
<title>23&#45;&gt;16</title>
<path fill="none" stroke="grey" stroke-width="2" d="M346.94,-220.82C369.18,-210.62 397.55,-197.6 421.19,-186.75"/>
<polygon fill="grey" stroke="grey" stroke-width="2" points="422.7,-189.91 430.32,-182.56 419.78,-183.55 422.7,-189.91"/>
</g>
<!-- 24 -->
<g id="node25" class="node">
<title>24</title>
<path fill="none" stroke="#d88556" stroke-width="2" d="M525.5,-257C525.5,-257 409.5,-257 409.5,-257 403.5,-257 397.5,-251 397.5,-245 397.5,-245 397.5,-233 397.5,-233 397.5,-227 403.5,-221 409.5,-221 409.5,-221 525.5,-221 525.5,-221 531.5,-221 537.5,-227 537.5,-233 537.5,-233 537.5,-245 537.5,-245 537.5,-251 531.5,-257 525.5,-257"/>
<text text-anchor="middle" x="467.5" y="-236.5" font-family="sans" font-size="10.00">BUSCO_RagTag_scaffolds</text>
</g>
<!-- 24&#45;&gt;16 -->
<g id="edge35" class="edge">
<title>24&#45;&gt;16</title>
<path fill="none" stroke="grey" stroke-width="2" d="M467.5,-220.82C467.5,-212.42 467.5,-202.12 467.5,-192.69"/>
<polygon fill="grey" stroke="grey" stroke-width="2" points="471,-192.56 467.5,-182.56 464,-192.56 471,-192.56"/>
</g>
<!-- 25 -->
<g id="node26" class="node">
<title>25</title>
<path fill="none" stroke="#d86e56" stroke-width="2" d="M742.5,-329C742.5,-329 712.5,-329 712.5,-329 706.5,-329 700.5,-323 700.5,-317 700.5,-317 700.5,-305 700.5,-305 700.5,-299 706.5,-293 712.5,-293 712.5,-293 742.5,-293 742.5,-293 748.5,-293 754.5,-299 754.5,-305 754.5,-305 754.5,-317 754.5,-317 754.5,-323 748.5,-329 742.5,-329"/>
<text text-anchor="middle" x="727.5" y="-308.5" font-family="sans" font-size="10.00">RagTag</text>
</g>
<!-- 25&#45;&gt;17 -->
<g id="edge36" class="edge">
<title>25&#45;&gt;17</title>
<path fill="none" stroke="grey" stroke-width="2" d="M700.25,-295.33C682.3,-285.66 658.47,-272.83 638.28,-261.96"/>
<polygon fill="grey" stroke="grey" stroke-width="2" points="639.76,-258.78 629.3,-257.12 636.44,-264.94 639.76,-258.78"/>
</g>
<!-- 25&#45;&gt;22 -->
<g id="edge42" class="edge">
<title>25&#45;&gt;22</title>
<path fill="none" stroke="grey" stroke-width="2" d="M727.5,-292.7C727.5,-284.98 727.5,-275.71 727.5,-267.11"/>
<polygon fill="grey" stroke="grey" stroke-width="2" points="731,-267.1 727.5,-257.1 724,-267.1 731,-267.1"/>
</g>
<!-- 26 -->
<g id="node27" class="node">
<title>26</title>
<path fill="none" stroke="#d86e56" stroke-width="2" d="M340.5,-329C340.5,-329 310.5,-329 310.5,-329 304.5,-329 298.5,-323 298.5,-317 298.5,-317 298.5,-305 298.5,-305 298.5,-299 304.5,-293 310.5,-293 310.5,-293 340.5,-293 340.5,-293 346.5,-293 352.5,-299 352.5,-305 352.5,-305 352.5,-317 352.5,-317 352.5,-323 346.5,-329 340.5,-329"/>
<text text-anchor="middle" x="325.5" y="-308.5" font-family="sans" font-size="10.00">RagTag</text>
</g>
<!-- 26&#45;&gt;17 -->
<g id="edge37" class="edge">
<title>26&#45;&gt;17</title>
<path fill="none" stroke="grey" stroke-width="2" d="M352.57,-304.3C392.71,-295.67 470.54,-278.3 545.67,-257.12"/>
<polygon fill="grey" stroke="grey" stroke-width="2" points="546.63,-260.49 555.29,-254.38 544.71,-253.75 546.63,-260.49"/>
</g>
<!-- 26&#45;&gt;23 -->
<g id="edge43" class="edge">
<title>26&#45;&gt;23</title>
<path fill="none" stroke="grey" stroke-width="2" d="M321.54,-292.7C319.78,-284.98 317.66,-275.71 315.7,-267.11"/>
<polygon fill="grey" stroke="grey" stroke-width="2" points="319.05,-266.07 313.41,-257.1 312.23,-267.63 319.05,-266.07"/>
</g>
<!-- 27 -->
<g id="node28" class="node">
<title>27</title>
<path fill="none" stroke="#d86e56" stroke-width="2" d="M559.5,-329C559.5,-329 529.5,-329 529.5,-329 523.5,-329 517.5,-323 517.5,-317 517.5,-317 517.5,-305 517.5,-305 517.5,-299 523.5,-293 529.5,-293 529.5,-293 559.5,-293 559.5,-293 565.5,-293 571.5,-299 571.5,-305 571.5,-305 571.5,-317 571.5,-317 571.5,-323 565.5,-329 559.5,-329"/>
<text text-anchor="middle" x="544.5" y="-308.5" font-family="sans" font-size="10.00">RagTag</text>
</g>
<!-- 27&#45;&gt;17 -->
<g id="edge38" class="edge">
<title>27&#45;&gt;17</title>
<path fill="none" stroke="grey" stroke-width="2" d="M557.6,-292.7C563.89,-284.39 571.55,-274.28 578.46,-265.14"/>
<polygon fill="grey" stroke="grey" stroke-width="2" points="581.3,-267.19 584.55,-257.1 575.72,-262.96 581.3,-267.19"/>
</g>
<!-- 27&#45;&gt;24 -->
<g id="edge44" class="edge">
<title>27&#45;&gt;24</title>
<path fill="none" stroke="grey" stroke-width="2" d="M525.47,-292.7C515.96,-284.05 504.29,-273.45 493.93,-264.03"/>
<polygon fill="grey" stroke="grey" stroke-width="2" points="496.07,-261.24 486.31,-257.1 491.36,-266.42 496.07,-261.24"/>
</g>
<!-- 28 -->
<g id="node29" class="node">
<title>28</title>
<path fill="none" stroke="#56d863" stroke-width="2" d="M542,-694C542,-694 495,-694 495,-694 489,-694 483,-688 483,-682 483,-682 483,-670 483,-670 483,-664 489,-658 495,-658 495,-658 542,-658 542,-658 548,-658 554,-664 554,-670 554,-670 554,-682 554,-682 554,-688 548,-694 542,-694"/>
<text text-anchor="middle" x="518.5" y="-673.5" font-family="sans" font-size="10.00">KmerGenie</text>
</g>
<!-- 28&#45;&gt;19 -->
<g id="edge39" class="edge">
<title>28&#45;&gt;19</title>
<path fill="none" stroke="grey" stroke-width="2" d="M513.8,-657.7C511.69,-649.9 509.14,-640.51 506.78,-631.83"/>
<polygon fill="grey" stroke="grey" stroke-width="2" points="510.14,-630.84 504.14,-622.1 503.38,-632.67 510.14,-630.84"/>
</g>
<!-- 29&#45;&gt;21 -->
<g id="edge41" class="edge">
<title>29&#45;&gt;21</title>
<path fill="none" stroke="grey" stroke-width="2" d="M782.22,-729.7C783.43,-721.98 784.89,-712.71 786.24,-704.11"/>
<polygon fill="grey" stroke="grey" stroke-width="2" points="789.72,-704.53 787.81,-694.1 782.8,-703.44 789.72,-704.53"/>
</g>
<!-- 30&#45;&gt;25 -->
<g id="edge45" class="edge">
<title>30&#45;&gt;25</title>
<path fill="none" stroke="grey" stroke-width="2" d="M753.66,-364.69C749.63,-356.56 744.9,-347.03 740.58,-338.33"/>
<polygon fill="grey" stroke="grey" stroke-width="2" points="743.68,-336.72 736.1,-329.32 737.41,-339.83 743.68,-336.72"/>
</g>
<!-- 31&#45;&gt;26 -->
<g id="edge46" class="edge">
<title>31&#45;&gt;26</title>
<path fill="none" stroke="grey" stroke-width="2" d="M325.5,-364.69C325.5,-356.91 325.5,-347.84 325.5,-339.45"/>
<polygon fill="grey" stroke="grey" stroke-width="2" points="329,-339.32 325.5,-329.32 322,-339.32 329,-339.32"/>
</g>
<!-- 32&#45;&gt;27 -->
<g id="edge47" class="edge">
<title>32&#45;&gt;27</title>
<path fill="none" stroke="grey" stroke-width="2" d="M544.5,-364.69C544.5,-356.91 544.5,-347.84 544.5,-339.45"/>
<polygon fill="grey" stroke="grey" stroke-width="2" points="548,-339.32 544.5,-329.32 541,-339.32 548,-339.32"/>
</g>
<!-- 33&#45;&gt;28 -->
<g id="edge48" class="edge">
<title>33&#45;&gt;28</title>
<path fill="none" stroke="grey" stroke-width="2" d="M523.02,-729.7C522.36,-721.98 521.56,-712.71 520.82,-704.11"/>
<polygon fill="grey" stroke="grey" stroke-width="2" points="524.31,-703.77 519.97,-694.1 517.33,-704.37 524.31,-703.77"/>
</g>
</g>
</svg>
