<?xml version="1.0" encoding="UTF-8" standalone="no"?>
<!DOCTYPE svg PUBLIC "-//W3C//DTD SVG 1.1//EN"
 "http://www.w3.org/Graphics/SVG/1.1/DTD/svg11.dtd">
<!-- Generated by graphviz version 2.42.3 (20191010.1750)
 -->
<!-- Title: snakemake_dag Pages: 1 -->
<svg width="1176pt" height="990pt"
 viewBox="0.00 0.00 1176.00 990.00" xmlns="http://www.w3.org/2000/svg" xmlns:xlink="http://www.w3.org/1999/xlink">
<g id="graph0" class="graph" transform="scale(1 1) rotate(0) translate(4 986)">
<title>snakemake_dag</title>
<polygon fill="white" stroke="transparent" points="-4,4 -4,-986 1172,-986 1172,4 -4,4"/>
<!-- 0 -->
<g id="node1" class="node">
<title>0</title>
<path fill="none" stroke="#56d86b" stroke-width="2" d="M358.5,-36C358.5,-36 328.5,-36 328.5,-36 322.5,-36 316.5,-30 316.5,-24 316.5,-24 316.5,-12 316.5,-12 316.5,-6 322.5,0 328.5,0 328.5,0 358.5,0 358.5,0 364.5,0 370.5,-6 370.5,-12 370.5,-12 370.5,-24 370.5,-24 370.5,-30 364.5,-36 358.5,-36"/>
<text text-anchor="middle" x="343.5" y="-15.5" font-family="sans" font-size="10.00">all</text>
</g>
<!-- 1 -->
<g id="node2" class="node">
<title>1</title>
<path fill="none" stroke="#d8bc56" stroke-width="2" d="M156,-108C156,-108 103,-108 103,-108 97,-108 91,-102 91,-96 91,-96 91,-84 91,-84 91,-78 97,-72 103,-72 103,-72 156,-72 156,-72 162,-72 168,-78 168,-84 168,-84 168,-96 168,-96 168,-102 162,-108 156,-108"/>
<text text-anchor="middle" x="129.5" y="-87.5" font-family="sans" font-size="10.00">multiqc_raw</text>
</g>
<!-- 1&#45;&gt;0 -->
<g id="edge1" class="edge">
<title>1&#45;&gt;0</title>
<path fill="none" stroke="grey" stroke-width="2" d="M168.25,-76.32C207.5,-63.48 267.78,-43.77 306.42,-31.13"/>
<polygon fill="grey" stroke="grey" stroke-width="2" points="307.82,-34.35 316.23,-27.92 305.64,-27.7 307.82,-34.35"/>
</g>
<!-- 2 -->
<g id="node3" class="node">
<title>2</title>
<path fill="none" stroke="#5692d8" stroke-width="2" d="M519,-838C519,-838 464,-838 464,-838 458,-838 452,-832 452,-826 452,-826 452,-814 452,-814 452,-808 458,-802 464,-802 464,-802 519,-802 519,-802 525,-802 531,-808 531,-814 531,-814 531,-826 531,-826 531,-832 525,-838 519,-838"/>
<text text-anchor="middle" x="491.5" y="-817.5" font-family="sans" font-size="10.00">multiqc_trim</text>
</g>
<!-- 2&#45;&gt;0 -->
<g id="edge2" class="edge">
<title>2&#45;&gt;0</title>
<path fill="none" stroke="grey" stroke-width="2" d="M451.71,-817.69C371.19,-812.7 196.5,-788.97 196.5,-677 196.5,-677 196.5,-677 196.5,-163.5 196.5,-101.65 263.49,-57.46 307.03,-35.27"/>
<polygon fill="grey" stroke="grey" stroke-width="2" points="308.78,-38.3 316.19,-30.74 305.68,-32.03 308.78,-38.3"/>
</g>
<!-- 3 -->
<g id="node4" class="node">
<title>3</title>
<path fill="none" stroke="#56d8d0" stroke-width="2" d="M834.5,-550C834.5,-550 722.5,-550 722.5,-550 716.5,-550 710.5,-544 710.5,-538 710.5,-538 710.5,-526 710.5,-526 710.5,-520 716.5,-514 722.5,-514 722.5,-514 834.5,-514 834.5,-514 840.5,-514 846.5,-520 846.5,-526 846.5,-526 846.5,-538 846.5,-538 846.5,-544 840.5,-550 834.5,-550"/>
<text text-anchor="middle" x="778.5" y="-529.5" font-family="sans" font-size="10.00">quast_contigs_summary</text>
</g>
<!-- 3&#45;&gt;0 -->
<g id="edge3" class="edge">
<title>3&#45;&gt;0</title>
<path fill="none" stroke="grey" stroke-width="2" d="M846.63,-515.71C867.96,-507.76 889.75,-495.83 904.5,-478 931.73,-445.09 924.5,-426.71 924.5,-384 924.5,-384 924.5,-384 924.5,-163.5 924.5,-51.03 509.28,-25.45 380.88,-20.23"/>
<polygon fill="grey" stroke="grey" stroke-width="2" points="380.87,-16.73 370.74,-19.84 380.6,-23.72 380.87,-16.73"/>
</g>
<!-- 28 -->
<g id="node29" class="node">
<title>28</title>
<path fill="none" stroke="#d86e56" stroke-width="2" d="M433,-478C433,-478 256,-478 256,-478 250,-478 244,-472 244,-466 244,-466 244,-449 244,-449 244,-443 250,-437 256,-437 256,-437 433,-437 433,-437 439,-437 445,-443 445,-449 445,-449 445,-466 445,-466 445,-472 439,-478 433,-478"/>
<text text-anchor="middle" x="344.5" y="-466" font-family="sans" font-size="10.00">extract_best_N50_contigs_for_BUSCO</text>
<text text-anchor="middle" x="344.5" y="-455" font-family="sans" font-size="10.00">assembler: SOAP</text>
<text text-anchor="middle" x="344.5" y="-444" font-family="sans" font-size="10.00">id: TESTFILE</text>
</g>
<!-- 3&#45;&gt;28 -->
<g id="edge47" class="edge">
<title>3&#45;&gt;28</title>
<path fill="none" stroke="grey" stroke-width="2" d="M710.21,-519.59C641.88,-508.18 535.64,-490.43 455.24,-477"/>
<polygon fill="grey" stroke="grey" stroke-width="2" points="455.51,-473.5 445.07,-475.3 454.35,-480.4 455.51,-473.5"/>
</g>
<!-- 29 -->
<g id="node30" class="node">
<title>29</title>
<path fill="none" stroke="#d86e56" stroke-width="2" d="M665,-478C665,-478 488,-478 488,-478 482,-478 476,-472 476,-466 476,-466 476,-449 476,-449 476,-443 482,-437 488,-437 488,-437 665,-437 665,-437 671,-437 677,-443 677,-449 677,-449 677,-466 677,-466 677,-472 671,-478 665,-478"/>
<text text-anchor="middle" x="576.5" y="-466" font-family="sans" font-size="10.00">extract_best_N50_contigs_for_BUSCO</text>
<text text-anchor="middle" x="576.5" y="-455" font-family="sans" font-size="10.00">assembler: ABYSS</text>
<text text-anchor="middle" x="576.5" y="-444" font-family="sans" font-size="10.00">id: TESTFILE</text>
</g>
<!-- 3&#45;&gt;29 -->
<g id="edge48" class="edge">
<title>3&#45;&gt;29</title>
<path fill="none" stroke="grey" stroke-width="2" d="M730.88,-513.91C703.95,-504.24 669.91,-492.03 640.65,-481.53"/>
<polygon fill="grey" stroke="grey" stroke-width="2" points="641.53,-478.12 630.93,-478.04 639.16,-484.71 641.53,-478.12"/>
</g>
<!-- 30 -->
<g id="node31" class="node">
<title>30</title>
<path fill="none" stroke="#d86e56" stroke-width="2" d="M884,-478C884,-478 707,-478 707,-478 701,-478 695,-472 695,-466 695,-466 695,-449 695,-449 695,-443 701,-437 707,-437 707,-437 884,-437 884,-437 890,-437 896,-443 896,-449 896,-449 896,-466 896,-466 896,-472 890,-478 884,-478"/>
<text text-anchor="middle" x="795.5" y="-466" font-family="sans" font-size="10.00">extract_best_N50_contigs_for_BUSCO</text>
<text text-anchor="middle" x="795.5" y="-455" font-family="sans" font-size="10.00">assembler: DISCOVAR</text>
<text text-anchor="middle" x="795.5" y="-444" font-family="sans" font-size="10.00">id: TESTFILE</text>
</g>
<!-- 3&#45;&gt;30 -->
<g id="edge49" class="edge">
<title>3&#45;&gt;30</title>
<path fill="none" stroke="grey" stroke-width="2" d="M782.53,-513.82C784.34,-506.11 786.52,-496.8 788.57,-488.03"/>
<polygon fill="grey" stroke="grey" stroke-width="2" points="792.02,-488.65 790.9,-478.12 785.21,-487.06 792.02,-488.65"/>
</g>
<!-- 4 -->
<g id="node5" class="node">
<title>4</title>
<path fill="none" stroke="#d87d56" stroke-width="2" d="M548.5,-108C548.5,-108 516.5,-108 516.5,-108 510.5,-108 504.5,-102 504.5,-96 504.5,-96 504.5,-84 504.5,-84 504.5,-78 510.5,-72 516.5,-72 516.5,-72 548.5,-72 548.5,-72 554.5,-72 560.5,-78 560.5,-84 560.5,-84 560.5,-96 560.5,-96 560.5,-102 554.5,-108 548.5,-108"/>
<text text-anchor="middle" x="532.5" y="-87.5" font-family="sans" font-size="10.00">cleanUp</text>
</g>
<!-- 4&#45;&gt;0 -->
<g id="edge4" class="edge">
<title>4&#45;&gt;0</title>
<path fill="none" stroke="grey" stroke-width="2" d="M504.2,-78.52C471.26,-66.32 416.74,-46.13 380.47,-32.69"/>
<polygon fill="grey" stroke="grey" stroke-width="2" points="381.35,-29.29 370.76,-29.1 378.92,-35.85 381.35,-29.29"/>
</g>
<!-- 5 -->
<g id="node6" class="node">
<title>5</title>
<path fill="none" stroke="#8fd856" stroke-width="2" d="M63,-185C63,-185 12,-185 12,-185 6,-185 0,-179 0,-173 0,-173 0,-156 0,-156 0,-150 6,-144 12,-144 12,-144 63,-144 63,-144 69,-144 75,-150 75,-156 75,-156 75,-173 75,-173 75,-179 69,-185 63,-185"/>
<text text-anchor="middle" x="37.5" y="-173" font-family="sans" font-size="10.00">fastqc_raw</text>
<text text-anchor="middle" x="37.5" y="-162" font-family="sans" font-size="10.00">id: TESTFILE</text>
<text text-anchor="middle" x="37.5" y="-151" font-family="sans" font-size="10.00">read: 1P</text>
</g>
<!-- 5&#45;&gt;1 -->
<g id="edge5" class="edge">
<title>5&#45;&gt;1</title>
<path fill="none" stroke="grey" stroke-width="2" d="M62.64,-143.69C74.14,-134.63 87.84,-123.83 99.84,-114.37"/>
<polygon fill="grey" stroke="grey" stroke-width="2" points="102.14,-117.02 107.83,-108.08 97.81,-111.52 102.14,-117.02"/>
</g>
<!-- 6 -->
<g id="node7" class="node">
<title>6</title>
<path fill="none" stroke="#8fd856" stroke-width="2" d="M156,-185C156,-185 105,-185 105,-185 99,-185 93,-179 93,-173 93,-173 93,-156 93,-156 93,-150 99,-144 105,-144 105,-144 156,-144 156,-144 162,-144 168,-150 168,-156 168,-156 168,-173 168,-173 168,-179 162,-185 156,-185"/>
<text text-anchor="middle" x="130.5" y="-173" font-family="sans" font-size="10.00">fastqc_raw</text>
<text text-anchor="middle" x="130.5" y="-162" font-family="sans" font-size="10.00">id: TESTFILE</text>
<text text-anchor="middle" x="130.5" y="-151" font-family="sans" font-size="10.00">read: 2P</text>
</g>
<!-- 6&#45;&gt;1 -->
<g id="edge6" class="edge">
<title>6&#45;&gt;1</title>
<path fill="none" stroke="grey" stroke-width="2" d="M130.23,-143.69C130.12,-135.91 129.99,-126.84 129.88,-118.45"/>
<polygon fill="grey" stroke="grey" stroke-width="2" points="133.38,-118.27 129.74,-108.32 126.38,-118.37 133.38,-118.27"/>
</g>
<!-- 7 -->
<g id="node8" class="node">
<title>7</title>
<path fill="none" stroke="#567bd8" stroke-width="2" d="M515.5,-910C515.5,-910 467.5,-910 467.5,-910 461.5,-910 455.5,-904 455.5,-898 455.5,-898 455.5,-886 455.5,-886 455.5,-880 461.5,-874 467.5,-874 467.5,-874 515.5,-874 515.5,-874 521.5,-874 527.5,-880 527.5,-886 527.5,-886 527.5,-898 527.5,-898 527.5,-904 521.5,-910 515.5,-910"/>
<text text-anchor="middle" x="491.5" y="-895" font-family="sans" font-size="10.00">fastqc_trim</text>
<text text-anchor="middle" x="491.5" y="-884" font-family="sans" font-size="10.00">read: 1P</text>
</g>
<!-- 7&#45;&gt;2 -->
<g id="edge7" class="edge">
<title>7&#45;&gt;2</title>
<path fill="none" stroke="grey" stroke-width="2" d="M491.5,-873.7C491.5,-865.98 491.5,-856.71 491.5,-848.11"/>
<polygon fill="grey" stroke="grey" stroke-width="2" points="495,-848.1 491.5,-838.1 488,-848.1 495,-848.1"/>
</g>
<!-- 8 -->
<g id="node9" class="node">
<title>8</title>
<path fill="none" stroke="#567bd8" stroke-width="2" d="M605.5,-910C605.5,-910 557.5,-910 557.5,-910 551.5,-910 545.5,-904 545.5,-898 545.5,-898 545.5,-886 545.5,-886 545.5,-880 551.5,-874 557.5,-874 557.5,-874 605.5,-874 605.5,-874 611.5,-874 617.5,-880 617.5,-886 617.5,-886 617.5,-898 617.5,-898 617.5,-904 611.5,-910 605.5,-910"/>
<text text-anchor="middle" x="581.5" y="-895" font-family="sans" font-size="10.00">fastqc_trim</text>
<text text-anchor="middle" x="581.5" y="-884" font-family="sans" font-size="10.00">read: 2P</text>
</g>
<!-- 8&#45;&gt;2 -->
<g id="edge8" class="edge">
<title>8&#45;&gt;2</title>
<path fill="none" stroke="grey" stroke-width="2" d="M559.25,-873.7C547.92,-864.88 533.97,-854.03 521.68,-844.47"/>
<polygon fill="grey" stroke="grey" stroke-width="2" points="523.53,-841.48 513.49,-838.1 519.24,-847.01 523.53,-841.48"/>
</g>
<!-- 9 -->
<g id="node10" class="node">
<title>9</title>
<path fill="none" stroke="#566bd8" stroke-width="2" d="M360,-622C360,-622 237,-622 237,-622 231,-622 225,-616 225,-610 225,-610 225,-598 225,-598 225,-592 231,-586 237,-586 237,-586 360,-586 360,-586 366,-586 372,-592 372,-598 372,-598 372,-610 372,-610 372,-616 366,-622 360,-622"/>
<text text-anchor="middle" x="298.5" y="-601.5" font-family="sans" font-size="10.00">rename_copy_soapdenovo</text>
</g>
<!-- 9&#45;&gt;3 -->
<g id="edge9" class="edge">
<title>9&#45;&gt;3</title>
<path fill="none" stroke="grey" stroke-width="2" d="M372.21,-587.46C375.01,-586.95 377.78,-586.46 380.5,-586 491.05,-567.2 619.83,-551.1 700.27,-541.73"/>
<polygon fill="grey" stroke="grey" stroke-width="2" points="700.79,-545.19 710.32,-540.57 699.98,-538.24 700.79,-545.19"/>
</g>
<!-- 10 -->
<g id="node11" class="node">
<title>10</title>
<path fill="none" stroke="#566bd8" stroke-width="2" d="M525,-622C525,-622 402,-622 402,-622 396,-622 390,-616 390,-610 390,-610 390,-598 390,-598 390,-592 396,-586 402,-586 402,-586 525,-586 525,-586 531,-586 537,-592 537,-598 537,-598 537,-610 537,-610 537,-616 531,-622 525,-622"/>
<text text-anchor="middle" x="463.5" y="-601.5" font-family="sans" font-size="10.00">rename_copy_soapdenovo</text>
</g>
<!-- 10&#45;&gt;3 -->
<g id="edge10" class="edge">
<title>10&#45;&gt;3</title>
<path fill="none" stroke="grey" stroke-width="2" d="M537.35,-586.59C586.45,-575.68 650.83,-561.37 700.71,-550.29"/>
<polygon fill="grey" stroke="grey" stroke-width="2" points="701.49,-553.7 710.49,-548.11 699.97,-546.87 701.49,-553.7"/>
</g>
<!-- 11 -->
<g id="node12" class="node">
<title>11</title>
<path fill="none" stroke="#566bd8" stroke-width="2" d="M690,-622C690,-622 567,-622 567,-622 561,-622 555,-616 555,-610 555,-610 555,-598 555,-598 555,-592 561,-586 567,-586 567,-586 690,-586 690,-586 696,-586 702,-592 702,-598 702,-598 702,-610 702,-610 702,-616 696,-622 690,-622"/>
<text text-anchor="middle" x="628.5" y="-601.5" font-family="sans" font-size="10.00">rename_copy_soapdenovo</text>
</g>
<!-- 11&#45;&gt;3 -->
<g id="edge11" class="edge">
<title>11&#45;&gt;3</title>
<path fill="none" stroke="grey" stroke-width="2" d="M665.19,-585.88C685.52,-576.39 710.97,-564.51 732.6,-554.42"/>
<polygon fill="grey" stroke="grey" stroke-width="2" points="734.34,-557.47 741.93,-550.07 731.38,-551.13 734.34,-557.47"/>
</g>
<!-- 12 -->
<g id="node13" class="node">
<title>12</title>
<path fill="none" stroke="#56d0d8" stroke-width="2" d="M825,-622C825,-622 732,-622 732,-622 726,-622 720,-616 720,-610 720,-610 720,-598 720,-598 720,-592 726,-586 732,-586 732,-586 825,-586 825,-586 831,-586 837,-592 837,-598 837,-598 837,-610 837,-610 837,-616 831,-622 825,-622"/>
<text text-anchor="middle" x="778.5" y="-601.5" font-family="sans" font-size="10.00">rename_copy_Abyss</text>
</g>
<!-- 12&#45;&gt;3 -->
<g id="edge12" class="edge">
<title>12&#45;&gt;3</title>
<path fill="none" stroke="grey" stroke-width="2" d="M778.5,-585.7C778.5,-577.98 778.5,-568.71 778.5,-560.11"/>
<polygon fill="grey" stroke="grey" stroke-width="2" points="782,-560.1 778.5,-550.1 775,-560.1 782,-560.1"/>
</g>
<!-- 13 -->
<g id="node14" class="node">
<title>13</title>
<path fill="none" stroke="#56d0d8" stroke-width="2" d="M960,-622C960,-622 867,-622 867,-622 861,-622 855,-616 855,-610 855,-610 855,-598 855,-598 855,-592 861,-586 867,-586 867,-586 960,-586 960,-586 966,-586 972,-592 972,-598 972,-598 972,-610 972,-610 972,-616 966,-622 960,-622"/>
<text text-anchor="middle" x="913.5" y="-601.5" font-family="sans" font-size="10.00">rename_copy_Abyss</text>
</g>
<!-- 13&#45;&gt;3 -->
<g id="edge13" class="edge">
<title>13&#45;&gt;3</title>
<path fill="none" stroke="grey" stroke-width="2" d="M880.48,-585.88C862.42,-576.51 839.85,-564.81 820.55,-554.8"/>
<polygon fill="grey" stroke="grey" stroke-width="2" points="822.14,-551.69 811.65,-550.19 818.92,-557.9 822.14,-551.69"/>
</g>
<!-- 14 -->
<g id="node15" class="node">
<title>14</title>
<path fill="none" stroke="#56d0d8" stroke-width="2" d="M1095,-622C1095,-622 1002,-622 1002,-622 996,-622 990,-616 990,-610 990,-610 990,-598 990,-598 990,-592 996,-586 1002,-586 1002,-586 1095,-586 1095,-586 1101,-586 1107,-592 1107,-598 1107,-598 1107,-610 1107,-610 1107,-616 1101,-622 1095,-622"/>
<text text-anchor="middle" x="1048.5" y="-601.5" font-family="sans" font-size="10.00">rename_copy_Abyss</text>
</g>
<!-- 14&#45;&gt;3 -->
<g id="edge14" class="edge">
<title>14&#45;&gt;3</title>
<path fill="none" stroke="grey" stroke-width="2" d="M989.91,-587.81C950.06,-577.48 896.95,-563.71 853.93,-552.56"/>
<polygon fill="grey" stroke="grey" stroke-width="2" points="854.64,-549.12 844.08,-550 852.88,-555.9 854.64,-549.12"/>
</g>
<!-- 15 -->
<g id="node16" class="node">
<title>15</title>
<path fill="none" stroke="#d8cb56" stroke-width="2" d="M1156,-766C1156,-766 1049,-766 1049,-766 1043,-766 1037,-760 1037,-754 1037,-754 1037,-742 1037,-742 1037,-736 1043,-730 1049,-730 1049,-730 1156,-730 1156,-730 1162,-730 1168,-736 1168,-742 1168,-742 1168,-754 1168,-754 1168,-760 1162,-766 1156,-766"/>
<text text-anchor="middle" x="1102.5" y="-745.5" font-family="sans" font-size="10.00">rename_copy_Discovar</text>
</g>
<!-- 15&#45;&gt;3 -->
<g id="edge15" class="edge">
<title>15&#45;&gt;3</title>
<path fill="none" stroke="grey" stroke-width="2" d="M1111.25,-729.52C1126.13,-697.03 1151.52,-626.94 1116.5,-586 1083.74,-547.7 945.87,-536.89 856.65,-533.95"/>
<polygon fill="grey" stroke="grey" stroke-width="2" points="856.66,-530.45 846.56,-533.65 856.45,-537.45 856.66,-530.45"/>
</g>
<!-- 16 -->
<g id="node17" class="node">
<title>16</title>
<path fill="none" stroke="#56d892" stroke-width="2" d="M368.5,-257C368.5,-257 300.5,-257 300.5,-257 294.5,-257 288.5,-251 288.5,-245 288.5,-245 288.5,-233 288.5,-233 288.5,-227 294.5,-221 300.5,-221 300.5,-221 368.5,-221 368.5,-221 374.5,-221 380.5,-227 380.5,-233 380.5,-233 380.5,-245 380.5,-245 380.5,-251 374.5,-257 368.5,-257"/>
<text text-anchor="middle" x="334.5" y="-236.5" font-family="sans" font-size="10.00">BUSCO_contigs</text>
</g>
<!-- 16&#45;&gt;4 -->
<g id="edge16" class="edge">
<title>16&#45;&gt;4</title>
<path fill="none" stroke="grey" stroke-width="2" d="M357.6,-220.85C393.22,-194.41 461.6,-143.64 501.49,-114.02"/>
<polygon fill="grey" stroke="grey" stroke-width="2" points="503.6,-116.81 509.55,-108.04 499.43,-111.19 503.6,-116.81"/>
</g>
<!-- 17 -->
<g id="node18" class="node">
<title>17</title>
<path fill="none" stroke="#56d892" stroke-width="2" d="M719.5,-257C719.5,-257 651.5,-257 651.5,-257 645.5,-257 639.5,-251 639.5,-245 639.5,-245 639.5,-233 639.5,-233 639.5,-227 645.5,-221 651.5,-221 651.5,-221 719.5,-221 719.5,-221 725.5,-221 731.5,-227 731.5,-233 731.5,-233 731.5,-245 731.5,-245 731.5,-251 725.5,-257 719.5,-257"/>
<text text-anchor="middle" x="685.5" y="-236.5" font-family="sans" font-size="10.00">BUSCO_contigs</text>
</g>
<!-- 17&#45;&gt;4 -->
<g id="edge17" class="edge">
<title>17&#45;&gt;4</title>
<path fill="none" stroke="grey" stroke-width="2" d="M667.65,-220.85C640.47,-194.74 588.61,-144.91 557.63,-115.15"/>
<polygon fill="grey" stroke="grey" stroke-width="2" points="559.87,-112.45 550.24,-108.04 555.02,-117.49 559.87,-112.45"/>
</g>
<!-- 18 -->
<g id="node19" class="node">
<title>18</title>
<path fill="none" stroke="#56d892" stroke-width="2" d="M866.5,-257C866.5,-257 798.5,-257 798.5,-257 792.5,-257 786.5,-251 786.5,-245 786.5,-245 786.5,-233 786.5,-233 786.5,-227 792.5,-221 798.5,-221 798.5,-221 866.5,-221 866.5,-221 872.5,-221 878.5,-227 878.5,-233 878.5,-233 878.5,-245 878.5,-245 878.5,-251 872.5,-257 866.5,-257"/>
<text text-anchor="middle" x="832.5" y="-236.5" font-family="sans" font-size="10.00">BUSCO_contigs</text>
</g>
<!-- 18&#45;&gt;4 -->
<g id="edge18" class="edge">
<title>18&#45;&gt;4</title>
<path fill="none" stroke="grey" stroke-width="2" d="M797.79,-220.99C740.96,-193.14 628.52,-138.05 569.95,-109.35"/>
<polygon fill="grey" stroke="grey" stroke-width="2" points="571.21,-106.07 560.69,-104.81 568.13,-112.36 571.21,-106.07"/>
</g>
<!-- 19 -->
<g id="node20" class="node">
<title>19</title>
<path fill="none" stroke="#56d8b9" stroke-width="2" d="M555,-182.5C555,-182.5 510,-182.5 510,-182.5 504,-182.5 498,-176.5 498,-170.5 498,-170.5 498,-158.5 498,-158.5 498,-152.5 504,-146.5 510,-146.5 510,-146.5 555,-146.5 555,-146.5 561,-146.5 567,-152.5 567,-158.5 567,-158.5 567,-170.5 567,-170.5 567,-176.5 561,-182.5 555,-182.5"/>
<text text-anchor="middle" x="532.5" y="-162" font-family="sans" font-size="10.00">finalReport</text>
</g>
<!-- 19&#45;&gt;4 -->
<g id="edge19" class="edge">
<title>19&#45;&gt;4</title>
<path fill="none" stroke="grey" stroke-width="2" d="M532.5,-146.32C532.5,-137.92 532.5,-127.62 532.5,-118.19"/>
<polygon fill="grey" stroke="grey" stroke-width="2" points="536,-118.06 532.5,-108.06 529,-118.06 536,-118.06"/>
</g>
<!-- 20 -->
<g id="node21" class="node">
<title>20</title>
<path fill="none" stroke="#a7d856" stroke-width="2" d="M788.5,-982C788.5,-982 732.5,-982 732.5,-982 726.5,-982 720.5,-976 720.5,-970 720.5,-970 720.5,-958 720.5,-958 720.5,-952 726.5,-946 732.5,-946 732.5,-946 788.5,-946 788.5,-946 794.5,-946 800.5,-952 800.5,-958 800.5,-958 800.5,-970 800.5,-970 800.5,-976 794.5,-982 788.5,-982"/>
<text text-anchor="middle" x="760.5" y="-967" font-family="sans" font-size="10.00">trimmomatic</text>
<text text-anchor="middle" x="760.5" y="-956" font-family="sans" font-size="10.00">id: TESTFILE</text>
</g>
<!-- 20&#45;&gt;7 -->
<g id="edge20" class="edge">
<title>20&#45;&gt;7</title>
<path fill="none" stroke="grey" stroke-width="2" d="M720.43,-955.15C677.32,-946.34 606.65,-930.87 537.46,-910.1"/>
<polygon fill="grey" stroke="grey" stroke-width="2" points="538.3,-906.7 527.71,-907.14 536.26,-913.4 538.3,-906.7"/>
</g>
<!-- 20&#45;&gt;8 -->
<g id="edge21" class="edge">
<title>20&#45;&gt;8</title>
<path fill="none" stroke="grey" stroke-width="2" d="M720.33,-947.29C692.64,-936.46 655.79,-922.05 627.01,-910.8"/>
<polygon fill="grey" stroke="grey" stroke-width="2" points="628.18,-907.5 617.59,-907.11 625.63,-914.01 628.18,-907.5"/>
</g>
<!-- 24 -->
<g id="node25" class="node">
<title>24</title>
<path fill="none" stroke="#56d87b" stroke-width="2" d="M778,-694C778,-694 727,-694 727,-694 721,-694 715,-688 715,-682 715,-682 715,-670 715,-670 715,-664 721,-658 727,-658 727,-658 778,-658 778,-658 784,-658 790,-664 790,-670 790,-670 790,-682 790,-682 790,-688 784,-694 778,-694"/>
<text text-anchor="middle" x="752.5" y="-679" font-family="sans" font-size="10.00">ABySS</text>
<text text-anchor="middle" x="752.5" y="-668" font-family="sans" font-size="10.00">kmer: lower</text>
</g>
<!-- 20&#45;&gt;24 -->
<g id="edge41" class="edge">
<title>20&#45;&gt;24</title>
<path fill="none" stroke="grey" stroke-width="2" d="M768.81,-945.79C773.24,-935.63 778.24,-922.38 780.5,-910 794.86,-831.3 799.75,-807.65 780.5,-730 778.21,-720.75 773.97,-711.34 769.48,-703.07"/>
<polygon fill="grey" stroke="grey" stroke-width="2" points="772.43,-701.17 764.39,-694.28 766.37,-704.68 772.43,-701.17"/>
</g>
<!-- 25 -->
<g id="node26" class="node">
<title>25</title>
<path fill="none" stroke="#56d87b" stroke-width="2" d="M872.5,-694C872.5,-694 820.5,-694 820.5,-694 814.5,-694 808.5,-688 808.5,-682 808.5,-682 808.5,-670 808.5,-670 808.5,-664 814.5,-658 820.5,-658 820.5,-658 872.5,-658 872.5,-658 878.5,-658 884.5,-664 884.5,-670 884.5,-670 884.5,-682 884.5,-682 884.5,-688 878.5,-694 872.5,-694"/>
<text text-anchor="middle" x="846.5" y="-679" font-family="sans" font-size="10.00">ABySS</text>
<text text-anchor="middle" x="846.5" y="-668" font-family="sans" font-size="10.00">kmer: upper</text>
</g>
<!-- 20&#45;&gt;25 -->
<g id="edge43" class="edge">
<title>20&#45;&gt;25</title>
<path fill="none" stroke="grey" stroke-width="2" d="M775.52,-945.99C783.48,-936.11 792.78,-923.07 798.5,-910 829.25,-839.74 840.65,-748.82 844.59,-704.17"/>
<polygon fill="grey" stroke="grey" stroke-width="2" points="848.08,-704.37 845.41,-694.11 841.11,-703.79 848.08,-704.37"/>
</g>
<!-- 26 -->
<g id="node27" class="node">
<title>26</title>
<path fill="none" stroke="#56d87b" stroke-width="2" d="M976.5,-694C976.5,-694 914.5,-694 914.5,-694 908.5,-694 902.5,-688 902.5,-682 902.5,-682 902.5,-670 902.5,-670 902.5,-664 908.5,-658 914.5,-658 914.5,-658 976.5,-658 976.5,-658 982.5,-658 988.5,-664 988.5,-670 988.5,-670 988.5,-682 988.5,-682 988.5,-688 982.5,-694 976.5,-694"/>
<text text-anchor="middle" x="945.5" y="-679" font-family="sans" font-size="10.00">ABySS</text>
<text text-anchor="middle" x="945.5" y="-668" font-family="sans" font-size="10.00">kmer: optimal</text>
</g>
<!-- 20&#45;&gt;26 -->
<g id="edge45" class="edge">
<title>20&#45;&gt;26</title>
<path fill="none" stroke="grey" stroke-width="2" d="M782.95,-945.95C794.76,-936.26 808.93,-923.41 819.5,-910 872.82,-842.33 915.57,-748.93 934.67,-703.69"/>
<polygon fill="grey" stroke="grey" stroke-width="2" points="937.98,-704.86 938.6,-694.29 931.52,-702.17 937.98,-704.86"/>
</g>
<!-- 34 -->
<g id="node35" class="node">
<title>34</title>
<path fill="none" stroke="#59d856" stroke-width="2" d="M582.5,-766C582.5,-766 532.5,-766 532.5,-766 526.5,-766 520.5,-760 520.5,-754 520.5,-754 520.5,-742 520.5,-742 520.5,-736 526.5,-730 532.5,-730 532.5,-730 582.5,-730 582.5,-730 588.5,-730 594.5,-736 594.5,-742 594.5,-742 594.5,-754 594.5,-754 594.5,-760 588.5,-766 582.5,-766"/>
<text text-anchor="middle" x="557.5" y="-745.5" font-family="sans" font-size="10.00">soap_config</text>
</g>
<!-- 20&#45;&gt;34 -->
<g id="edge57" class="edge">
<title>20&#45;&gt;34</title>
<path fill="none" stroke="grey" stroke-width="2" d="M720.34,-946.21C701.98,-937.25 680.74,-924.96 664.5,-910 621.47,-870.37 587.44,-810.07 570.09,-775.62"/>
<polygon fill="grey" stroke="grey" stroke-width="2" points="573.02,-773.64 565.45,-766.22 566.74,-776.74 573.02,-773.64"/>
</g>
<!-- 35 -->
<g id="node36" class="node">
<title>35</title>
<path fill="none" stroke="#d89556" stroke-width="2" d="M1044,-910C1044,-910 987,-910 987,-910 981,-910 975,-904 975,-898 975,-898 975,-886 975,-886 975,-880 981,-874 987,-874 987,-874 1044,-874 1044,-874 1050,-874 1056,-880 1056,-886 1056,-886 1056,-898 1056,-898 1056,-904 1050,-910 1044,-910"/>
<text text-anchor="middle" x="1015.5" y="-889.5" font-family="sans" font-size="10.00">DiscoVarPrep</text>
</g>
<!-- 20&#45;&gt;35 -->
<g id="edge58" class="edge">
<title>20&#45;&gt;35</title>
<path fill="none" stroke="grey" stroke-width="2" d="M800.62,-951.99C845.01,-939.8 916.63,-920.14 964.85,-906.9"/>
<polygon fill="grey" stroke="grey" stroke-width="2" points="966.05,-910.2 974.77,-904.18 964.2,-903.45 966.05,-910.2"/>
</g>
<!-- 43 -->
<g id="node44" class="node">
<title>43</title>
<path fill="none" stroke="#ced856" stroke-width="2" d="M759.5,-910C759.5,-910 685.5,-910 685.5,-910 679.5,-910 673.5,-904 673.5,-898 673.5,-898 673.5,-886 673.5,-886 673.5,-880 679.5,-874 685.5,-874 685.5,-874 759.5,-874 759.5,-874 765.5,-874 771.5,-880 771.5,-886 771.5,-886 771.5,-898 771.5,-898 771.5,-904 765.5,-910 759.5,-910"/>
<text text-anchor="middle" x="722.5" y="-889.5" font-family="sans" font-size="10.00">KmerGenie_prep</text>
</g>
<!-- 20&#45;&gt;43 -->
<g id="edge66" class="edge">
<title>20&#45;&gt;43</title>
<path fill="none" stroke="grey" stroke-width="2" d="M751.11,-945.7C746.74,-937.64 741.44,-927.89 736.6,-918.98"/>
<polygon fill="grey" stroke="grey" stroke-width="2" points="739.63,-917.22 731.79,-910.1 733.48,-920.56 739.63,-917.22"/>
</g>
<!-- 21 -->
<g id="node22" class="node">
<title>21</title>
<path fill="none" stroke="#56d8a9" stroke-width="2" d="M486.5,-694C486.5,-694 434.5,-694 434.5,-694 428.5,-694 422.5,-688 422.5,-682 422.5,-682 422.5,-670 422.5,-670 422.5,-664 428.5,-658 434.5,-658 434.5,-658 486.5,-658 486.5,-658 492.5,-658 498.5,-664 498.5,-670 498.5,-670 498.5,-682 498.5,-682 498.5,-688 492.5,-694 486.5,-694"/>
<text text-anchor="middle" x="460.5" y="-679" font-family="sans" font-size="10.00">soapdenovo</text>
<text text-anchor="middle" x="460.5" y="-668" font-family="sans" font-size="10.00">kmer: lower</text>
</g>
<!-- 21&#45;&gt;9 -->
<g id="edge22" class="edge">
<title>21&#45;&gt;9</title>
<path fill="none" stroke="grey" stroke-width="2" d="M422.11,-658.41C399.72,-648.74 371.27,-636.44 347.31,-626.09"/>
<polygon fill="grey" stroke="grey" stroke-width="2" points="348.59,-622.83 338.02,-622.08 345.82,-629.26 348.59,-622.83"/>
</g>
<!-- 22 -->
<g id="node23" class="node">
<title>22</title>
<path fill="none" stroke="#56d8a9" stroke-width="2" d="M580.5,-694C580.5,-694 528.5,-694 528.5,-694 522.5,-694 516.5,-688 516.5,-682 516.5,-682 516.5,-670 516.5,-670 516.5,-664 522.5,-658 528.5,-658 528.5,-658 580.5,-658 580.5,-658 586.5,-658 592.5,-664 592.5,-670 592.5,-670 592.5,-682 592.5,-682 592.5,-688 586.5,-694 580.5,-694"/>
<text text-anchor="middle" x="554.5" y="-679" font-family="sans" font-size="10.00">soapdenovo</text>
<text text-anchor="middle" x="554.5" y="-668" font-family="sans" font-size="10.00">kmer: upper</text>
</g>
<!-- 22&#45;&gt;10 -->
<g id="edge23" class="edge">
<title>22&#45;&gt;10</title>
<path fill="none" stroke="grey" stroke-width="2" d="M532.01,-657.7C520.54,-648.88 506.44,-638.03 494.02,-628.47"/>
<polygon fill="grey" stroke="grey" stroke-width="2" points="495.8,-625.43 485.74,-622.1 491.53,-630.98 495.8,-625.43"/>
</g>
<!-- 23 -->
<g id="node24" class="node">
<title>23</title>
<path fill="none" stroke="#56d8a9" stroke-width="2" d="M684.5,-694C684.5,-694 622.5,-694 622.5,-694 616.5,-694 610.5,-688 610.5,-682 610.5,-682 610.5,-670 610.5,-670 610.5,-664 616.5,-658 622.5,-658 622.5,-658 684.5,-658 684.5,-658 690.5,-658 696.5,-664 696.5,-670 696.5,-670 696.5,-682 696.5,-682 696.5,-688 690.5,-694 684.5,-694"/>
<text text-anchor="middle" x="653.5" y="-679" font-family="sans" font-size="10.00">soapdenovo</text>
<text text-anchor="middle" x="653.5" y="-668" font-family="sans" font-size="10.00">kmer: optimal</text>
</g>
<!-- 23&#45;&gt;11 -->
<g id="edge24" class="edge">
<title>23&#45;&gt;11</title>
<path fill="none" stroke="grey" stroke-width="2" d="M647.32,-657.7C644.5,-649.81 641.11,-640.3 637.98,-631.55"/>
<polygon fill="grey" stroke="grey" stroke-width="2" points="641.27,-630.34 634.61,-622.1 634.68,-632.7 641.27,-630.34"/>
</g>
<!-- 24&#45;&gt;12 -->
<g id="edge25" class="edge">
<title>24&#45;&gt;12</title>
<path fill="none" stroke="grey" stroke-width="2" d="M758.93,-657.7C761.86,-649.81 765.39,-640.3 768.64,-631.55"/>
<polygon fill="grey" stroke="grey" stroke-width="2" points="771.95,-632.7 772.15,-622.1 765.38,-630.26 771.95,-632.7"/>
</g>
<!-- 25&#45;&gt;13 -->
<g id="edge26" class="edge">
<title>25&#45;&gt;13</title>
<path fill="none" stroke="grey" stroke-width="2" d="M863.06,-657.7C871.18,-649.22 881.09,-638.86 889.97,-629.58"/>
<polygon fill="grey" stroke="grey" stroke-width="2" points="892.74,-631.75 897.13,-622.1 887.69,-626.91 892.74,-631.75"/>
</g>
<!-- 26&#45;&gt;14 -->
<g id="edge27" class="edge">
<title>26&#45;&gt;14</title>
<path fill="none" stroke="grey" stroke-width="2" d="M970.7,-657.88C983.91,-648.89 1000.29,-637.76 1014.61,-628.03"/>
<polygon fill="grey" stroke="grey" stroke-width="2" points="1016.9,-630.71 1023.21,-622.19 1012.97,-624.92 1016.9,-630.71"/>
</g>
<!-- 27 -->
<g id="node28" class="node">
<title>27</title>
<path fill="none" stroke="#b6d856" stroke-width="2" d="M1083,-838C1083,-838 1010,-838 1010,-838 1004,-838 998,-832 998,-826 998,-826 998,-814 998,-814 998,-808 1004,-802 1010,-802 1010,-802 1083,-802 1083,-802 1089,-802 1095,-808 1095,-814 1095,-814 1095,-826 1095,-826 1095,-832 1089,-838 1083,-838"/>
<text text-anchor="middle" x="1046.5" y="-817.5" font-family="sans" font-size="10.00">DiscovarDenovo</text>
</g>
<!-- 27&#45;&gt;15 -->
<g id="edge28" class="edge">
<title>27&#45;&gt;15</title>
<path fill="none" stroke="grey" stroke-width="2" d="M1060.34,-801.7C1066.99,-793.39 1075.08,-783.28 1082.39,-774.14"/>
<polygon fill="grey" stroke="grey" stroke-width="2" points="1085.3,-776.1 1088.82,-766.1 1079.84,-771.73 1085.3,-776.1"/>
</g>
<!-- 28&#45;&gt;16 -->
<g id="edge29" class="edge">
<title>28&#45;&gt;16</title>
<path fill="none" stroke="grey" stroke-width="2" d="M324.17,-436.67C301.86,-413.33 267.35,-372.25 253.5,-329 248.62,-313.76 245.89,-307.07 253.5,-293 260.32,-280.39 271.59,-270.3 283.58,-262.45"/>
<polygon fill="grey" stroke="grey" stroke-width="2" points="285.64,-265.29 292.39,-257.13 282.02,-259.3 285.64,-265.29"/>
</g>
<!-- 39 -->
<g id="node40" class="node">
<title>39</title>
<path fill="none" stroke="#68d856" stroke-width="2" d="M359.5,-401C359.5,-401 329.5,-401 329.5,-401 323.5,-401 317.5,-395 317.5,-389 317.5,-389 317.5,-377 317.5,-377 317.5,-371 323.5,-365 329.5,-365 329.5,-365 359.5,-365 359.5,-365 365.5,-365 371.5,-371 371.5,-377 371.5,-377 371.5,-389 371.5,-389 371.5,-395 365.5,-401 359.5,-401"/>
<text text-anchor="middle" x="344.5" y="-380.5" font-family="sans" font-size="10.00">RagTag</text>
</g>
<!-- 28&#45;&gt;39 -->
<g id="edge62" class="edge">
<title>28&#45;&gt;39</title>
<path fill="none" stroke="grey" stroke-width="2" d="M344.5,-436.69C344.5,-428.91 344.5,-419.84 344.5,-411.45"/>
<polygon fill="grey" stroke="grey" stroke-width="2" points="348,-411.32 344.5,-401.32 341,-411.32 348,-411.32"/>
</g>
<!-- 29&#45;&gt;17 -->
<g id="edge30" class="edge">
<title>29&#45;&gt;17</title>
<path fill="none" stroke="grey" stroke-width="2" d="M677.16,-437.42C721.94,-427.44 768.58,-414.5 786.5,-401 816.28,-378.58 819.59,-364.93 829.5,-329 833.76,-313.58 838.65,-306.12 829.5,-293 818.91,-277.82 777.4,-263.51 741.65,-253.59"/>
<polygon fill="grey" stroke="grey" stroke-width="2" points="742.32,-250.14 731.75,-250.91 740.49,-256.9 742.32,-250.14"/>
</g>
<!-- 40 -->
<g id="node41" class="node">
<title>40</title>
<path fill="none" stroke="#68d856" stroke-width="2" d="M591.5,-401C591.5,-401 561.5,-401 561.5,-401 555.5,-401 549.5,-395 549.5,-389 549.5,-389 549.5,-377 549.5,-377 549.5,-371 555.5,-365 561.5,-365 561.5,-365 591.5,-365 591.5,-365 597.5,-365 603.5,-371 603.5,-377 603.5,-377 603.5,-389 603.5,-389 603.5,-395 597.5,-401 591.5,-401"/>
<text text-anchor="middle" x="576.5" y="-380.5" font-family="sans" font-size="10.00">RagTag</text>
</g>
<!-- 29&#45;&gt;40 -->
<g id="edge63" class="edge">
<title>29&#45;&gt;40</title>
<path fill="none" stroke="grey" stroke-width="2" d="M576.5,-436.69C576.5,-428.91 576.5,-419.84 576.5,-411.45"/>
<polygon fill="grey" stroke="grey" stroke-width="2" points="580,-411.32 576.5,-401.32 573,-411.32 580,-411.32"/>
</g>
<!-- 30&#45;&gt;18 -->
<g id="edge31" class="edge">
<title>30&#45;&gt;18</title>
<path fill="none" stroke="grey" stroke-width="2" d="M830.18,-436.85C842.79,-427.72 855.62,-415.63 862.5,-401 882.92,-357.56 874.73,-339.42 862.5,-293 860.01,-283.54 855.4,-273.99 850.53,-265.66"/>
<polygon fill="grey" stroke="grey" stroke-width="2" points="853.49,-263.79 845.23,-257.15 847.55,-267.49 853.49,-263.79"/>
</g>
<!-- 41 -->
<g id="node42" class="node">
<title>41</title>
<path fill="none" stroke="#68d856" stroke-width="2" d="M765.5,-401C765.5,-401 735.5,-401 735.5,-401 729.5,-401 723.5,-395 723.5,-389 723.5,-389 723.5,-377 723.5,-377 723.5,-371 729.5,-365 735.5,-365 735.5,-365 765.5,-365 765.5,-365 771.5,-365 777.5,-371 777.5,-377 777.5,-377 777.5,-389 777.5,-389 777.5,-395 771.5,-401 765.5,-401"/>
<text text-anchor="middle" x="750.5" y="-380.5" font-family="sans" font-size="10.00">RagTag</text>
</g>
<!-- 30&#45;&gt;41 -->
<g id="edge64" class="edge">
<title>30&#45;&gt;41</title>
<path fill="none" stroke="grey" stroke-width="2" d="M783.2,-436.69C778.1,-428.47 772.12,-418.83 766.67,-410.05"/>
<polygon fill="grey" stroke="grey" stroke-width="2" points="769.5,-407.97 761.25,-401.32 763.55,-411.66 769.5,-407.97"/>
</g>
<!-- 31 -->
<g id="node32" class="node">
<title>31</title>
<path fill="none" stroke="#80d856" stroke-width="2" d="M533,-257C533,-257 466,-257 466,-257 460,-257 454,-251 454,-245 454,-245 454,-233 454,-233 454,-227 460,-221 466,-221 466,-221 533,-221 533,-221 539,-221 545,-227 545,-233 545,-233 545,-245 545,-245 545,-251 539,-257 533,-257"/>
<text text-anchor="middle" x="499.5" y="-236.5" font-family="sans" font-size="10.00">finalReportPrep</text>
</g>
<!-- 31&#45;&gt;19 -->
<g id="edge32" class="edge">
<title>31&#45;&gt;19</title>
<path fill="none" stroke="grey" stroke-width="2" d="M507.32,-220.82C511.27,-212.15 516.14,-201.45 520.54,-191.78"/>
<polygon fill="grey" stroke="grey" stroke-width="2" points="523.78,-193.11 524.74,-182.56 517.41,-190.21 523.78,-193.11"/>
</g>
<!-- 32 -->
<g id="node33" class="node">
<title>32</title>
<path fill="none" stroke="#d85656" stroke-width="2" d="M650.5,-329C650.5,-329 590.5,-329 590.5,-329 584.5,-329 578.5,-323 578.5,-317 578.5,-317 578.5,-305 578.5,-305 578.5,-299 584.5,-293 590.5,-293 590.5,-293 650.5,-293 650.5,-293 656.5,-293 662.5,-299 662.5,-305 662.5,-305 662.5,-317 662.5,-317 662.5,-323 656.5,-329 650.5,-329"/>
<text text-anchor="middle" x="620.5" y="-308.5" font-family="sans" font-size="10.00">quast_RagTag</text>
</g>
<!-- 32&#45;&gt;19 -->
<g id="edge33" class="edge">
<title>32&#45;&gt;19</title>
<path fill="none" stroke="grey" stroke-width="2" d="M610.06,-292.86C594.78,-267.76 566.2,-220.83 548.32,-191.48"/>
<polygon fill="grey" stroke="grey" stroke-width="2" points="551.12,-189.34 542.93,-182.62 545.14,-192.98 551.12,-189.34"/>
</g>
<!-- 33 -->
<g id="node34" class="node">
<title>33</title>
<path fill="none" stroke="#d8a456" stroke-width="2" d="M759.5,-766C759.5,-766 635.5,-766 635.5,-766 629.5,-766 623.5,-760 623.5,-754 623.5,-754 623.5,-742 623.5,-742 623.5,-736 629.5,-730 635.5,-730 635.5,-730 759.5,-730 759.5,-730 765.5,-730 771.5,-736 771.5,-742 771.5,-742 771.5,-754 771.5,-754 771.5,-760 765.5,-766 759.5,-766"/>
<text text-anchor="middle" x="697.5" y="-745.5" font-family="sans" font-size="10.00">KmerInputLowerUpperBest</text>
</g>
<!-- 33&#45;&gt;21 -->
<g id="edge34" class="edge">
<title>33&#45;&gt;21</title>
<path fill="none" stroke="grey" stroke-width="2" d="M631.63,-729.93C597.27,-720.72 554.38,-708.75 508.22,-694.13"/>
<polygon fill="grey" stroke="grey" stroke-width="2" points="509.23,-690.77 498.64,-691.07 507.1,-697.44 509.23,-690.77"/>
</g>
<!-- 33&#45;&gt;22 -->
<g id="edge36" class="edge">
<title>33&#45;&gt;22</title>
<path fill="none" stroke="grey" stroke-width="2" d="M662.52,-729.88C643.3,-720.47 619.27,-708.71 598.76,-698.67"/>
<polygon fill="grey" stroke="grey" stroke-width="2" points="600.14,-695.44 589.62,-694.19 597.06,-701.73 600.14,-695.44"/>
</g>
<!-- 33&#45;&gt;23 -->
<g id="edge38" class="edge">
<title>33&#45;&gt;23</title>
<path fill="none" stroke="grey" stroke-width="2" d="M686.62,-729.7C681.51,-721.56 675.3,-711.69 669.66,-702.7"/>
<polygon fill="grey" stroke="grey" stroke-width="2" points="672.54,-700.71 664.25,-694.1 666.61,-704.43 672.54,-700.71"/>
</g>
<!-- 33&#45;&gt;24 -->
<g id="edge40" class="edge">
<title>33&#45;&gt;24</title>
<path fill="none" stroke="grey" stroke-width="2" d="M711.1,-729.7C717.62,-721.39 725.57,-711.28 732.75,-702.14"/>
<polygon fill="grey" stroke="grey" stroke-width="2" points="735.63,-704.13 739.06,-694.1 730.13,-699.81 735.63,-704.13"/>
</g>
<!-- 33&#45;&gt;25 -->
<g id="edge42" class="edge">
<title>33&#45;&gt;25</title>
<path fill="none" stroke="grey" stroke-width="2" d="M733.95,-729.88C754.14,-720.39 779.42,-708.51 800.91,-698.42"/>
<polygon fill="grey" stroke="grey" stroke-width="2" points="802.61,-701.49 810.17,-694.07 799.63,-695.15 802.61,-701.49"/>
</g>
<!-- 33&#45;&gt;26 -->
<g id="edge44" class="edge">
<title>33&#45;&gt;26</title>
<path fill="none" stroke="grey" stroke-width="2" d="M763.97,-729.94C799.65,-720.57 844.57,-708.43 892.75,-694.16"/>
<polygon fill="grey" stroke="grey" stroke-width="2" points="893.84,-697.48 902.42,-691.27 891.84,-690.77 893.84,-697.48"/>
</g>
<!-- 34&#45;&gt;21 -->
<g id="edge35" class="edge">
<title>34&#45;&gt;21</title>
<path fill="none" stroke="grey" stroke-width="2" d="M533.52,-729.7C521.19,-720.8 505.98,-709.82 492.65,-700.2"/>
<polygon fill="grey" stroke="grey" stroke-width="2" points="494.36,-697.12 484.2,-694.1 490.26,-702.79 494.36,-697.12"/>
</g>
<!-- 34&#45;&gt;22 -->
<g id="edge37" class="edge">
<title>34&#45;&gt;22</title>
<path fill="none" stroke="grey" stroke-width="2" d="M556.76,-729.7C556.43,-721.98 556.03,-712.71 555.66,-704.11"/>
<polygon fill="grey" stroke="grey" stroke-width="2" points="559.16,-703.95 555.23,-694.1 552.16,-704.25 559.16,-703.95"/>
</g>
<!-- 34&#45;&gt;23 -->
<g id="edge39" class="edge">
<title>34&#45;&gt;23</title>
<path fill="none" stroke="grey" stroke-width="2" d="M581.23,-729.7C593.44,-720.8 608.49,-709.82 621.68,-700.2"/>
<polygon fill="grey" stroke="grey" stroke-width="2" points="624.02,-702.82 630.04,-694.1 619.9,-697.17 624.02,-702.82"/>
</g>
<!-- 35&#45;&gt;27 -->
<g id="edge46" class="edge">
<title>35&#45;&gt;27</title>
<path fill="none" stroke="grey" stroke-width="2" d="M1023.16,-873.7C1026.69,-865.73 1030.96,-856.1 1034.87,-847.26"/>
<polygon fill="grey" stroke="grey" stroke-width="2" points="1038.08,-848.67 1038.93,-838.1 1031.68,-845.83 1038.08,-848.67"/>
</g>
<!-- 36 -->
<g id="node37" class="node">
<title>36</title>
<path fill="none" stroke="#56b9d8" stroke-width="2" d="M390.5,-329C390.5,-329 274.5,-329 274.5,-329 268.5,-329 262.5,-323 262.5,-317 262.5,-317 262.5,-305 262.5,-305 262.5,-299 268.5,-293 274.5,-293 274.5,-293 390.5,-293 390.5,-293 396.5,-293 402.5,-299 402.5,-305 402.5,-305 402.5,-317 402.5,-317 402.5,-323 396.5,-329 390.5,-329"/>
<text text-anchor="middle" x="332.5" y="-308.5" font-family="sans" font-size="10.00">BUSCO_RagTag_scaffolds</text>
</g>
<!-- 36&#45;&gt;31 -->
<g id="edge50" class="edge">
<title>36&#45;&gt;31</title>
<path fill="none" stroke="grey" stroke-width="2" d="M373.35,-292.88C396.28,-283.26 425.08,-271.19 449.37,-261.01"/>
<polygon fill="grey" stroke="grey" stroke-width="2" points="450.91,-264.16 458.78,-257.07 448.2,-257.71 450.91,-264.16"/>
</g>
<!-- 37 -->
<g id="node38" class="node">
<title>37</title>
<path fill="none" stroke="#56b9d8" stroke-width="2" d="M548.5,-329C548.5,-329 432.5,-329 432.5,-329 426.5,-329 420.5,-323 420.5,-317 420.5,-317 420.5,-305 420.5,-305 420.5,-299 426.5,-293 432.5,-293 432.5,-293 548.5,-293 548.5,-293 554.5,-293 560.5,-299 560.5,-305 560.5,-305 560.5,-317 560.5,-317 560.5,-323 554.5,-329 548.5,-329"/>
<text text-anchor="middle" x="490.5" y="-308.5" font-family="sans" font-size="10.00">BUSCO_RagTag_scaffolds</text>
</g>
<!-- 37&#45;&gt;31 -->
<g id="edge51" class="edge">
<title>37&#45;&gt;31</title>
<path fill="none" stroke="grey" stroke-width="2" d="M492.72,-292.7C493.72,-284.98 494.91,-275.71 496.01,-267.11"/>
<polygon fill="grey" stroke="grey" stroke-width="2" points="499.5,-267.47 497.3,-257.1 492.55,-266.58 499.5,-267.47"/>
</g>
<!-- 38 -->
<g id="node39" class="node">
<title>38</title>
<path fill="none" stroke="#56b9d8" stroke-width="2" d="M808.5,-329C808.5,-329 692.5,-329 692.5,-329 686.5,-329 680.5,-323 680.5,-317 680.5,-317 680.5,-305 680.5,-305 680.5,-299 686.5,-293 692.5,-293 692.5,-293 808.5,-293 808.5,-293 814.5,-293 820.5,-299 820.5,-305 820.5,-305 820.5,-317 820.5,-317 820.5,-323 814.5,-329 808.5,-329"/>
<text text-anchor="middle" x="750.5" y="-308.5" font-family="sans" font-size="10.00">BUSCO_RagTag_scaffolds</text>
</g>
<!-- 38&#45;&gt;31 -->
<g id="edge52" class="edge">
<title>38&#45;&gt;31</title>
<path fill="none" stroke="grey" stroke-width="2" d="M689.42,-292.97C648.35,-281.51 594.66,-266.54 554.84,-255.43"/>
<polygon fill="grey" stroke="grey" stroke-width="2" points="555.61,-252.01 545.03,-252.7 553.73,-258.76 555.61,-252.01"/>
</g>
<!-- 39&#45;&gt;32 -->
<g id="edge53" class="edge">
<title>39&#45;&gt;32</title>
<path fill="none" stroke="grey" stroke-width="2" d="M371.72,-376.42C412.49,-367.88 491.98,-350.55 568.49,-329.16"/>
<polygon fill="grey" stroke="grey" stroke-width="2" points="569.62,-332.48 578.29,-326.4 567.72,-325.75 569.62,-332.48"/>
</g>
<!-- 39&#45;&gt;36 -->
<g id="edge59" class="edge">
<title>39&#45;&gt;36</title>
<path fill="none" stroke="grey" stroke-width="2" d="M341.53,-364.7C340.21,-356.98 338.62,-347.71 337.15,-339.11"/>
<polygon fill="grey" stroke="grey" stroke-width="2" points="340.57,-338.37 335.43,-329.1 333.67,-339.55 340.57,-338.37"/>
</g>
<!-- 40&#45;&gt;32 -->
<g id="edge54" class="edge">
<title>40&#45;&gt;32</title>
<path fill="none" stroke="grey" stroke-width="2" d="M587.38,-364.7C592.49,-356.56 598.7,-346.69 604.34,-337.7"/>
<polygon fill="grey" stroke="grey" stroke-width="2" points="607.39,-339.43 609.75,-329.1 601.46,-335.71 607.39,-339.43"/>
</g>
<!-- 40&#45;&gt;37 -->
<g id="edge60" class="edge">
<title>40&#45;&gt;37</title>
<path fill="none" stroke="grey" stroke-width="2" d="M555.24,-364.7C544.41,-355.88 531.08,-345.03 519.34,-335.47"/>
<polygon fill="grey" stroke="grey" stroke-width="2" points="521.48,-332.7 511.51,-329.1 517.06,-338.13 521.48,-332.7"/>
</g>
<!-- 41&#45;&gt;32 -->
<g id="edge55" class="edge">
<title>41&#45;&gt;32</title>
<path fill="none" stroke="grey" stroke-width="2" d="M723.25,-367.33C705.3,-357.66 681.47,-344.83 661.28,-333.96"/>
<polygon fill="grey" stroke="grey" stroke-width="2" points="662.76,-330.78 652.3,-329.12 659.44,-336.94 662.76,-330.78"/>
</g>
<!-- 41&#45;&gt;38 -->
<g id="edge61" class="edge">
<title>41&#45;&gt;38</title>
<path fill="none" stroke="grey" stroke-width="2" d="M750.5,-364.7C750.5,-356.98 750.5,-347.71 750.5,-339.11"/>
<polygon fill="grey" stroke="grey" stroke-width="2" points="754,-339.1 750.5,-329.1 747,-339.1 754,-339.1"/>
</g>
<!-- 42 -->
<g id="node43" class="node">
<title>42</title>
<path fill="none" stroke="#56a9d8" stroke-width="2" d="M740,-838C740,-838 693,-838 693,-838 687,-838 681,-832 681,-826 681,-826 681,-814 681,-814 681,-808 687,-802 693,-802 693,-802 740,-802 740,-802 746,-802 752,-808 752,-814 752,-814 752,-826 752,-826 752,-832 746,-838 740,-838"/>
<text text-anchor="middle" x="716.5" y="-817.5" font-family="sans" font-size="10.00">KmerGenie</text>
</g>
<!-- 42&#45;&gt;33 -->
<g id="edge56" class="edge">
<title>42&#45;&gt;33</title>
<path fill="none" stroke="grey" stroke-width="2" d="M711.8,-801.7C709.69,-793.9 707.14,-784.51 704.78,-775.83"/>
<polygon fill="grey" stroke="grey" stroke-width="2" points="708.14,-774.84 702.14,-766.1 701.38,-776.67 708.14,-774.84"/>
</g>
<!-- 43&#45;&gt;42 -->
<g id="edge65" class="edge">
<title>43&#45;&gt;42</title>
<path fill="none" stroke="grey" stroke-width="2" d="M721.02,-873.7C720.36,-865.98 719.56,-856.71 718.82,-848.11"/>
<polygon fill="grey" stroke="grey" stroke-width="2" points="722.31,-847.77 717.97,-838.1 715.33,-848.37 722.31,-847.77"/>
</g>
</g>
</svg>
