<?xml version="1.0" encoding="UTF-8" standalone="no"?>
<!DOCTYPE svg PUBLIC "-//W3C//DTD SVG 1.1//EN"
 "http://www.w3.org/Graphics/SVG/1.1/DTD/svg11.dtd">
<!-- Generated by graphviz version 2.42.3 (20191010.1750)
 -->
<!-- Title: snakemake_dag Pages: 1 -->
<svg width="969pt" height="846pt"
 viewBox="0.00 0.00 968.51 846.00" xmlns="http://www.w3.org/2000/svg" xmlns:xlink="http://www.w3.org/1999/xlink">
<g id="graph0" class="graph" transform="scale(1 1) rotate(0) translate(4 842)">
<title>snakemake_dag</title>
<polygon fill="white" stroke="transparent" points="-4,4 -4,-842 964.51,-842 964.51,4 -4,4"/>
<!-- 0 -->
<g id="node1" class="node">
<title>0</title>
<path fill="none" stroke="#56b1d8" stroke-width="2" d="M543.5,-36C543.5,-36 513.5,-36 513.5,-36 507.5,-36 501.5,-30 501.5,-24 501.5,-24 501.5,-12 501.5,-12 501.5,-6 507.5,0 513.5,0 513.5,0 543.5,0 543.5,0 549.5,0 555.5,-6 555.5,-12 555.5,-12 555.5,-24 555.5,-24 555.5,-30 549.5,-36 543.5,-36"/>
<text text-anchor="middle" x="528.5" y="-15.5" font-family="sans" font-size="10.00">all</text>
</g>
<!-- 1 -->
<g id="node2" class="node">
<title>1</title>
<path fill="none" stroke="#8fd856" stroke-width="2" d="M156,-108C156,-108 103,-108 103,-108 97,-108 91,-102 91,-96 91,-96 91,-84 91,-84 91,-78 97,-72 103,-72 103,-72 156,-72 156,-72 162,-72 168,-78 168,-84 168,-84 168,-96 168,-96 168,-102 162,-108 156,-108"/>
<text text-anchor="middle" x="129.5" y="-87.5" font-family="sans" font-size="10.00">multiqc_raw</text>
</g>
<!-- 1&#45;&gt;0 -->
<g id="edge1" class="edge">
<title>1&#45;&gt;0</title>
<path fill="none" stroke="grey" stroke-width="2" d="M168.09,-75.84C172.91,-74.43 177.8,-73.11 182.5,-72 293.45,-45.88 427.55,-29.59 491.32,-22.74"/>
<polygon fill="grey" stroke="grey" stroke-width="2" points="491.73,-26.22 501.3,-21.68 490.99,-19.25 491.73,-26.22"/>
</g>
<!-- 2 -->
<g id="node3" class="node">
<title>2</title>
<path fill="none" stroke="#566bd8" stroke-width="2" d="M350,-694C350,-694 295,-694 295,-694 289,-694 283,-688 283,-682 283,-682 283,-670 283,-670 283,-664 289,-658 295,-658 295,-658 350,-658 350,-658 356,-658 362,-664 362,-670 362,-670 362,-682 362,-682 362,-688 356,-694 350,-694"/>
<text text-anchor="middle" x="322.5" y="-673.5" font-family="sans" font-size="10.00">multiqc_trim</text>
</g>
<!-- 2&#45;&gt;0 -->
<g id="edge2" class="edge">
<title>2&#45;&gt;0</title>
<path fill="none" stroke="grey" stroke-width="2" d="M291.35,-657.88C254.04,-634.82 196.5,-590.02 196.5,-533 196.5,-533 196.5,-533 196.5,-163.5 196.5,-36.17 404.34,-19.87 491.13,-18.62"/>
<polygon fill="grey" stroke="grey" stroke-width="2" points="491.36,-22.11 501.33,-18.53 491.3,-15.11 491.36,-22.11"/>
</g>
<!-- 3 -->
<g id="node4" class="node">
<title>3</title>
<path fill="none" stroke="#d85656" stroke-width="2" d="M653.5,-478C653.5,-478 541.5,-478 541.5,-478 535.5,-478 529.5,-472 529.5,-466 529.5,-466 529.5,-454 529.5,-454 529.5,-448 535.5,-442 541.5,-442 541.5,-442 653.5,-442 653.5,-442 659.5,-442 665.5,-448 665.5,-454 665.5,-454 665.5,-466 665.5,-466 665.5,-472 659.5,-478 653.5,-478"/>
<text text-anchor="middle" x="597.5" y="-457.5" font-family="sans" font-size="10.00">quast_contigs_summary</text>
</g>
<!-- 3&#45;&gt;0 -->
<g id="edge3" class="edge">
<title>3&#45;&gt;0</title>
<path fill="none" stroke="grey" stroke-width="2" d="M665.57,-456.03C750.07,-451.02 887.79,-438.06 926.5,-406 960.71,-377.66 960.5,-356.43 960.5,-312 960.5,-312 960.5,-312 960.5,-163.5 960.5,-80.54 670.37,-36.51 565.64,-23.32"/>
<polygon fill="grey" stroke="grey" stroke-width="2" points="565.88,-19.82 555.52,-22.06 565.02,-26.77 565.88,-19.82"/>
</g>
<!-- 19 -->
<g id="node20" class="node">
<title>19</title>
<path fill="none" stroke="#d6d856" stroke-width="2" d="M686,-406C686,-406 509,-406 509,-406 503,-406 497,-400 497,-394 497,-394 497,-377 497,-377 497,-371 503,-365 509,-365 509,-365 686,-365 686,-365 692,-365 698,-371 698,-377 698,-377 698,-394 698,-394 698,-400 692,-406 686,-406"/>
<text text-anchor="middle" x="597.5" y="-394" font-family="sans" font-size="10.00">extract_best_N50_contigs_for_BUSCO</text>
<text text-anchor="middle" x="597.5" y="-383" font-family="sans" font-size="10.00">assembler: SOAP</text>
<text text-anchor="middle" x="597.5" y="-372" font-family="sans" font-size="10.00">id: TESTFILE</text>
</g>
<!-- 3&#45;&gt;19 -->
<g id="edge39" class="edge">
<title>3&#45;&gt;19</title>
<path fill="none" stroke="grey" stroke-width="2" d="M597.5,-441.82C597.5,-434.2 597.5,-425 597.5,-416.32"/>
<polygon fill="grey" stroke="grey" stroke-width="2" points="601,-416.12 597.5,-406.12 594,-416.12 601,-416.12"/>
</g>
<!-- 20 -->
<g id="node21" class="node">
<title>20</title>
<path fill="none" stroke="#d6d856" stroke-width="2" d="M905,-406C905,-406 728,-406 728,-406 722,-406 716,-400 716,-394 716,-394 716,-377 716,-377 716,-371 722,-365 728,-365 728,-365 905,-365 905,-365 911,-365 917,-371 917,-377 917,-377 917,-394 917,-394 917,-400 911,-406 905,-406"/>
<text text-anchor="middle" x="816.5" y="-394" font-family="sans" font-size="10.00">extract_best_N50_contigs_for_BUSCO</text>
<text text-anchor="middle" x="816.5" y="-383" font-family="sans" font-size="10.00">assembler: ABYSS</text>
<text text-anchor="middle" x="816.5" y="-372" font-family="sans" font-size="10.00">id: TESTFILE</text>
</g>
<!-- 3&#45;&gt;20 -->
<g id="edge40" class="edge">
<title>3&#45;&gt;20</title>
<path fill="none" stroke="grey" stroke-width="2" d="M649.12,-441.91C678.58,-432.16 715.87,-419.81 747.77,-409.25"/>
<polygon fill="grey" stroke="grey" stroke-width="2" points="749.09,-412.5 757.49,-406.04 746.89,-405.86 749.09,-412.5"/>
</g>
<!-- 21 -->
<g id="node22" class="node">
<title>21</title>
<path fill="none" stroke="#d6d856" stroke-width="2" d="M444,-406C444,-406 267,-406 267,-406 261,-406 255,-400 255,-394 255,-394 255,-377 255,-377 255,-371 261,-365 267,-365 267,-365 444,-365 444,-365 450,-365 456,-371 456,-377 456,-377 456,-394 456,-394 456,-400 450,-406 444,-406"/>
<text text-anchor="middle" x="355.5" y="-394" font-family="sans" font-size="10.00">extract_best_N50_contigs_for_BUSCO</text>
<text text-anchor="middle" x="355.5" y="-383" font-family="sans" font-size="10.00">assembler: DISCOVAR</text>
<text text-anchor="middle" x="355.5" y="-372" font-family="sans" font-size="10.00">id: TESTFILE</text>
</g>
<!-- 3&#45;&gt;21 -->
<g id="edge41" class="edge">
<title>3&#45;&gt;21</title>
<path fill="none" stroke="grey" stroke-width="2" d="M540.46,-441.91C507.63,-432.08 465.99,-419.6 430.54,-408.98"/>
<polygon fill="grey" stroke="grey" stroke-width="2" points="431.3,-405.55 420.71,-406.04 429.29,-412.26 431.3,-405.55"/>
</g>
<!-- 4 -->
<g id="node5" class="node">
<title>4</title>
<path fill="none" stroke="#56c9d8" stroke-width="2" d="M700.5,-108C700.5,-108 632.5,-108 632.5,-108 626.5,-108 620.5,-102 620.5,-96 620.5,-96 620.5,-84 620.5,-84 620.5,-78 626.5,-72 632.5,-72 632.5,-72 700.5,-72 700.5,-72 706.5,-72 712.5,-78 712.5,-84 712.5,-84 712.5,-96 712.5,-96 712.5,-102 706.5,-108 700.5,-108"/>
<text text-anchor="middle" x="666.5" y="-87.5" font-family="sans" font-size="10.00">BUSCO_contigs</text>
</g>
<!-- 4&#45;&gt;0 -->
<g id="edge4" class="edge">
<title>4&#45;&gt;0</title>
<path fill="none" stroke="grey" stroke-width="2" d="M632.74,-71.88C612.17,-61.44 585.88,-48.1 564.85,-37.44"/>
<polygon fill="grey" stroke="grey" stroke-width="2" points="566.39,-34.3 555.89,-32.9 563.23,-40.54 566.39,-34.3"/>
</g>
<!-- 5 -->
<g id="node6" class="node">
<title>5</title>
<path fill="none" stroke="#56c9d8" stroke-width="2" d="M920.5,-182.5C920.5,-182.5 852.5,-182.5 852.5,-182.5 846.5,-182.5 840.5,-176.5 840.5,-170.5 840.5,-170.5 840.5,-158.5 840.5,-158.5 840.5,-152.5 846.5,-146.5 852.5,-146.5 852.5,-146.5 920.5,-146.5 920.5,-146.5 926.5,-146.5 932.5,-152.5 932.5,-158.5 932.5,-158.5 932.5,-170.5 932.5,-170.5 932.5,-176.5 926.5,-182.5 920.5,-182.5"/>
<text text-anchor="middle" x="886.5" y="-162" font-family="sans" font-size="10.00">BUSCO_contigs</text>
</g>
<!-- 5&#45;&gt;0 -->
<g id="edge5" class="edge">
<title>5&#45;&gt;0</title>
<path fill="none" stroke="grey" stroke-width="2" d="M860.33,-146.4C828.58,-126.28 772.91,-92.96 721.5,-72 669.07,-50.62 605.2,-34.99 565.69,-26.44"/>
<polygon fill="grey" stroke="grey" stroke-width="2" points="566.21,-22.98 555.7,-24.33 564.76,-29.83 566.21,-22.98"/>
</g>
<!-- 6 -->
<g id="node7" class="node">
<title>6</title>
<path fill="none" stroke="#56c9d8" stroke-width="2" d="M389.5,-108C389.5,-108 321.5,-108 321.5,-108 315.5,-108 309.5,-102 309.5,-96 309.5,-96 309.5,-84 309.5,-84 309.5,-78 315.5,-72 321.5,-72 321.5,-72 389.5,-72 389.5,-72 395.5,-72 401.5,-78 401.5,-84 401.5,-84 401.5,-96 401.5,-96 401.5,-102 395.5,-108 389.5,-108"/>
<text text-anchor="middle" x="355.5" y="-87.5" font-family="sans" font-size="10.00">BUSCO_contigs</text>
</g>
<!-- 6&#45;&gt;0 -->
<g id="edge6" class="edge">
<title>6&#45;&gt;0</title>
<path fill="none" stroke="grey" stroke-width="2" d="M397.82,-71.88C426.72,-60.18 464.62,-44.85 492.16,-33.7"/>
<polygon fill="grey" stroke="grey" stroke-width="2" points="493.48,-36.95 501.43,-29.95 490.85,-30.46 493.48,-36.95"/>
</g>
<!-- 7 -->
<g id="node8" class="node">
<title>7</title>
<path fill="none" stroke="#5682d8" stroke-width="2" d="M551,-108C551,-108 506,-108 506,-108 500,-108 494,-102 494,-96 494,-96 494,-84 494,-84 494,-78 500,-72 506,-72 506,-72 551,-72 551,-72 557,-72 563,-78 563,-84 563,-84 563,-96 563,-96 563,-102 557,-108 551,-108"/>
<text text-anchor="middle" x="528.5" y="-87.5" font-family="sans" font-size="10.00">finalReport</text>
</g>
<!-- 7&#45;&gt;0 -->
<g id="edge7" class="edge">
<title>7&#45;&gt;0</title>
<path fill="none" stroke="grey" stroke-width="2" d="M528.5,-71.7C528.5,-63.98 528.5,-54.71 528.5,-46.11"/>
<polygon fill="grey" stroke="grey" stroke-width="2" points="532,-46.1 528.5,-36.1 525,-46.1 532,-46.1"/>
</g>
<!-- 8 -->
<g id="node9" class="node">
<title>8</title>
<path fill="none" stroke="#d88556" stroke-width="2" d="M156,-185C156,-185 105,-185 105,-185 99,-185 93,-179 93,-173 93,-173 93,-156 93,-156 93,-150 99,-144 105,-144 105,-144 156,-144 156,-144 162,-144 168,-150 168,-156 168,-156 168,-173 168,-173 168,-179 162,-185 156,-185"/>
<text text-anchor="middle" x="130.5" y="-173" font-family="sans" font-size="10.00">fastqc_raw</text>
<text text-anchor="middle" x="130.5" y="-162" font-family="sans" font-size="10.00">id: TESTFILE</text>
<text text-anchor="middle" x="130.5" y="-151" font-family="sans" font-size="10.00">read: 1P</text>
</g>
<!-- 8&#45;&gt;1 -->
<g id="edge8" class="edge">
<title>8&#45;&gt;1</title>
<path fill="none" stroke="grey" stroke-width="2" d="M130.23,-143.69C130.12,-135.91 129.99,-126.84 129.88,-118.45"/>
<polygon fill="grey" stroke="grey" stroke-width="2" points="133.38,-118.27 129.74,-108.32 126.38,-118.37 133.38,-118.27"/>
</g>
<!-- 9 -->
<g id="node10" class="node">
<title>9</title>
<path fill="none" stroke="#d88556" stroke-width="2" d="M63,-185C63,-185 12,-185 12,-185 6,-185 0,-179 0,-173 0,-173 0,-156 0,-156 0,-150 6,-144 12,-144 12,-144 63,-144 63,-144 69,-144 75,-150 75,-156 75,-156 75,-173 75,-173 75,-179 69,-185 63,-185"/>
<text text-anchor="middle" x="37.5" y="-173" font-family="sans" font-size="10.00">fastqc_raw</text>
<text text-anchor="middle" x="37.5" y="-162" font-family="sans" font-size="10.00">id: TESTFILE</text>
<text text-anchor="middle" x="37.5" y="-151" font-family="sans" font-size="10.00">read: 2P</text>
</g>
<!-- 9&#45;&gt;1 -->
<g id="edge9" class="edge">
<title>9&#45;&gt;1</title>
<path fill="none" stroke="grey" stroke-width="2" d="M62.64,-143.69C74.14,-134.63 87.84,-123.83 99.84,-114.37"/>
<polygon fill="grey" stroke="grey" stroke-width="2" points="102.14,-117.02 107.83,-108.08 97.81,-111.52 102.14,-117.02"/>
</g>
<!-- 10 -->
<g id="node11" class="node">
<title>10</title>
<path fill="none" stroke="#d8c356" stroke-width="2" d="M346.5,-766C346.5,-766 298.5,-766 298.5,-766 292.5,-766 286.5,-760 286.5,-754 286.5,-754 286.5,-742 286.5,-742 286.5,-736 292.5,-730 298.5,-730 298.5,-730 346.5,-730 346.5,-730 352.5,-730 358.5,-736 358.5,-742 358.5,-742 358.5,-754 358.5,-754 358.5,-760 352.5,-766 346.5,-766"/>
<text text-anchor="middle" x="322.5" y="-751" font-family="sans" font-size="10.00">fastqc_trim</text>
<text text-anchor="middle" x="322.5" y="-740" font-family="sans" font-size="10.00">read: 1P</text>
</g>
<!-- 10&#45;&gt;2 -->
<g id="edge10" class="edge">
<title>10&#45;&gt;2</title>
<path fill="none" stroke="grey" stroke-width="2" d="M322.5,-729.7C322.5,-721.98 322.5,-712.71 322.5,-704.11"/>
<polygon fill="grey" stroke="grey" stroke-width="2" points="326,-704.1 322.5,-694.1 319,-704.1 326,-704.1"/>
</g>
<!-- 11 -->
<g id="node12" class="node">
<title>11</title>
<path fill="none" stroke="#d8c356" stroke-width="2" d="M436.5,-766C436.5,-766 388.5,-766 388.5,-766 382.5,-766 376.5,-760 376.5,-754 376.5,-754 376.5,-742 376.5,-742 376.5,-736 382.5,-730 388.5,-730 388.5,-730 436.5,-730 436.5,-730 442.5,-730 448.5,-736 448.5,-742 448.5,-742 448.5,-754 448.5,-754 448.5,-760 442.5,-766 436.5,-766"/>
<text text-anchor="middle" x="412.5" y="-751" font-family="sans" font-size="10.00">fastqc_trim</text>
<text text-anchor="middle" x="412.5" y="-740" font-family="sans" font-size="10.00">read: 2P</text>
</g>
<!-- 11&#45;&gt;2 -->
<g id="edge11" class="edge">
<title>11&#45;&gt;2</title>
<path fill="none" stroke="grey" stroke-width="2" d="M390.25,-729.7C378.92,-720.88 364.97,-710.03 352.68,-700.47"/>
<polygon fill="grey" stroke="grey" stroke-width="2" points="354.53,-697.48 344.49,-694.1 350.24,-703.01 354.53,-697.48"/>
</g>
<!-- 12 -->
<g id="node13" class="node">
<title>12</title>
<path fill="none" stroke="#56d8a2" stroke-width="2" d="M317.5,-550C317.5,-550 265.5,-550 265.5,-550 259.5,-550 253.5,-544 253.5,-538 253.5,-538 253.5,-526 253.5,-526 253.5,-520 259.5,-514 265.5,-514 265.5,-514 317.5,-514 317.5,-514 323.5,-514 329.5,-520 329.5,-526 329.5,-526 329.5,-538 329.5,-538 329.5,-544 323.5,-550 317.5,-550"/>
<text text-anchor="middle" x="291.5" y="-535" font-family="sans" font-size="10.00">soapdenovo</text>
<text text-anchor="middle" x="291.5" y="-524" font-family="sans" font-size="10.00">kmer: lower</text>
</g>
<!-- 12&#45;&gt;3 -->
<g id="edge12" class="edge">
<title>12&#45;&gt;3</title>
<path fill="none" stroke="grey" stroke-width="2" d="M329.57,-516.71C332.57,-515.74 335.58,-514.82 338.5,-514 398.35,-497.15 467.38,-483.29 519.12,-473.98"/>
<polygon fill="grey" stroke="grey" stroke-width="2" points="520,-477.38 529.23,-472.18 518.77,-470.48 520,-477.38"/>
</g>
<!-- 13 -->
<g id="node14" class="node">
<title>13</title>
<path fill="none" stroke="#56d8a2" stroke-width="2" d="M411.5,-550C411.5,-550 359.5,-550 359.5,-550 353.5,-550 347.5,-544 347.5,-538 347.5,-538 347.5,-526 347.5,-526 347.5,-520 353.5,-514 359.5,-514 359.5,-514 411.5,-514 411.5,-514 417.5,-514 423.5,-520 423.5,-526 423.5,-526 423.5,-538 423.5,-538 423.5,-544 417.5,-550 411.5,-550"/>
<text text-anchor="middle" x="385.5" y="-535" font-family="sans" font-size="10.00">soapdenovo</text>
<text text-anchor="middle" x="385.5" y="-524" font-family="sans" font-size="10.00">kmer: upper</text>
</g>
<!-- 13&#45;&gt;3 -->
<g id="edge13" class="edge">
<title>13&#45;&gt;3</title>
<path fill="none" stroke="grey" stroke-width="2" d="M423.68,-517.06C426.66,-516.01 429.63,-514.98 432.5,-514 465.52,-502.73 502.47,-490.8 533.03,-481.11"/>
<polygon fill="grey" stroke="grey" stroke-width="2" points="534.23,-484.4 542.71,-478.05 532.12,-477.73 534.23,-484.4"/>
</g>
<!-- 14 -->
<g id="node15" class="node">
<title>14</title>
<path fill="none" stroke="#56d8a2" stroke-width="2" d="M515.5,-550C515.5,-550 453.5,-550 453.5,-550 447.5,-550 441.5,-544 441.5,-538 441.5,-538 441.5,-526 441.5,-526 441.5,-520 447.5,-514 453.5,-514 453.5,-514 515.5,-514 515.5,-514 521.5,-514 527.5,-520 527.5,-526 527.5,-526 527.5,-538 527.5,-538 527.5,-544 521.5,-550 515.5,-550"/>
<text text-anchor="middle" x="484.5" y="-535" font-family="sans" font-size="10.00">soapdenovo</text>
<text text-anchor="middle" x="484.5" y="-524" font-family="sans" font-size="10.00">kmer: optimal</text>
</g>
<!-- 14&#45;&gt;3 -->
<g id="edge14" class="edge">
<title>14&#45;&gt;3</title>
<path fill="none" stroke="grey" stroke-width="2" d="M512.14,-513.88C526.92,-504.72 545.29,-493.34 561.2,-483.48"/>
<polygon fill="grey" stroke="grey" stroke-width="2" points="563.09,-486.43 569.75,-478.19 559.41,-480.48 563.09,-486.43"/>
</g>
<!-- 15 -->
<g id="node16" class="node">
<title>15</title>
<path fill="none" stroke="#61d856" stroke-width="2" d="M609,-550C609,-550 558,-550 558,-550 552,-550 546,-544 546,-538 546,-538 546,-526 546,-526 546,-520 552,-514 558,-514 558,-514 609,-514 609,-514 615,-514 621,-520 621,-526 621,-526 621,-538 621,-538 621,-544 615,-550 609,-550"/>
<text text-anchor="middle" x="583.5" y="-535" font-family="sans" font-size="10.00">ABySS</text>
<text text-anchor="middle" x="583.5" y="-524" font-family="sans" font-size="10.00">kmer: lower</text>
</g>
<!-- 15&#45;&gt;3 -->
<g id="edge15" class="edge">
<title>15&#45;&gt;3</title>
<path fill="none" stroke="grey" stroke-width="2" d="M586.96,-513.7C588.5,-505.98 590.36,-496.71 592.08,-488.11"/>
<polygon fill="grey" stroke="grey" stroke-width="2" points="595.55,-488.6 594.08,-478.1 588.69,-487.22 595.55,-488.6"/>
</g>
<!-- 16 -->
<g id="node17" class="node">
<title>16</title>
<path fill="none" stroke="#61d856" stroke-width="2" d="M703.5,-550C703.5,-550 651.5,-550 651.5,-550 645.5,-550 639.5,-544 639.5,-538 639.5,-538 639.5,-526 639.5,-526 639.5,-520 645.5,-514 651.5,-514 651.5,-514 703.5,-514 703.5,-514 709.5,-514 715.5,-520 715.5,-526 715.5,-526 715.5,-538 715.5,-538 715.5,-544 709.5,-550 703.5,-550"/>
<text text-anchor="middle" x="677.5" y="-535" font-family="sans" font-size="10.00">ABySS</text>
<text text-anchor="middle" x="677.5" y="-524" font-family="sans" font-size="10.00">kmer: upper</text>
</g>
<!-- 16&#45;&gt;3 -->
<g id="edge16" class="edge">
<title>16&#45;&gt;3</title>
<path fill="none" stroke="grey" stroke-width="2" d="M657.72,-513.7C647.75,-504.97 635.49,-494.24 624.64,-484.75"/>
<polygon fill="grey" stroke="grey" stroke-width="2" points="626.88,-482.06 617.05,-478.1 622.27,-487.32 626.88,-482.06"/>
</g>
<!-- 17 -->
<g id="node18" class="node">
<title>17</title>
<path fill="none" stroke="#61d856" stroke-width="2" d="M807.5,-550C807.5,-550 745.5,-550 745.5,-550 739.5,-550 733.5,-544 733.5,-538 733.5,-538 733.5,-526 733.5,-526 733.5,-520 739.5,-514 745.5,-514 745.5,-514 807.5,-514 807.5,-514 813.5,-514 819.5,-520 819.5,-526 819.5,-526 819.5,-538 819.5,-538 819.5,-544 813.5,-550 807.5,-550"/>
<text text-anchor="middle" x="776.5" y="-535" font-family="sans" font-size="10.00">ABySS</text>
<text text-anchor="middle" x="776.5" y="-524" font-family="sans" font-size="10.00">kmer: optimal</text>
</g>
<!-- 17&#45;&gt;3 -->
<g id="edge17" class="edge">
<title>17&#45;&gt;3</title>
<path fill="none" stroke="grey" stroke-width="2" d="M733.17,-514.05C708.29,-504.33 676.85,-492.03 650.51,-481.73"/>
<polygon fill="grey" stroke="grey" stroke-width="2" points="651.64,-478.41 641.05,-478.03 649.09,-484.93 651.64,-478.41"/>
</g>
<!-- 18 -->
<g id="node19" class="node">
<title>18</title>
<path fill="none" stroke="#56d8d0" stroke-width="2" d="M871,-622C871,-622 798,-622 798,-622 792,-622 786,-616 786,-610 786,-610 786,-598 786,-598 786,-592 792,-586 798,-586 798,-586 871,-586 871,-586 877,-586 883,-592 883,-598 883,-598 883,-610 883,-610 883,-616 877,-622 871,-622"/>
<text text-anchor="middle" x="834.5" y="-601.5" font-family="sans" font-size="10.00">renameDiscovar</text>
</g>
<!-- 18&#45;&gt;3 -->
<g id="edge18" class="edge">
<title>18&#45;&gt;3</title>
<path fill="none" stroke="grey" stroke-width="2" d="M838.85,-585.7C842.69,-565.94 845.39,-533.79 828.5,-514 808.75,-490.84 734.68,-476.75 675.67,-468.98"/>
<polygon fill="grey" stroke="grey" stroke-width="2" points="675.95,-465.49 665.59,-467.69 675.07,-472.43 675.95,-465.49"/>
</g>
<!-- 19&#45;&gt;4 -->
<g id="edge19" class="edge">
<title>19&#45;&gt;4</title>
<path fill="none" stroke="grey" stroke-width="2" d="M686.35,-364.98C727.2,-354.71 770.18,-341.64 786.5,-329 815.97,-306.18 819.59,-292.93 829.5,-257 847.68,-191.12 770.61,-139.8 716.27,-112.58"/>
<polygon fill="grey" stroke="grey" stroke-width="2" points="717.61,-109.34 707.09,-108.1 714.54,-115.64 717.61,-109.34"/>
</g>
<!-- 31 -->
<g id="node32" class="node">
<title>31</title>
<path fill="none" stroke="#56d87b" stroke-width="2" d="M612.5,-329C612.5,-329 582.5,-329 582.5,-329 576.5,-329 570.5,-323 570.5,-317 570.5,-317 570.5,-305 570.5,-305 570.5,-299 576.5,-293 582.5,-293 582.5,-293 612.5,-293 612.5,-293 618.5,-293 624.5,-299 624.5,-305 624.5,-305 624.5,-317 624.5,-317 624.5,-323 618.5,-329 612.5,-329"/>
<text text-anchor="middle" x="597.5" y="-308.5" font-family="sans" font-size="10.00">RagTag</text>
</g>
<!-- 19&#45;&gt;31 -->
<g id="edge54" class="edge">
<title>19&#45;&gt;31</title>
<path fill="none" stroke="grey" stroke-width="2" d="M597.5,-364.69C597.5,-356.91 597.5,-347.84 597.5,-339.45"/>
<polygon fill="grey" stroke="grey" stroke-width="2" points="601,-339.32 597.5,-329.32 594,-339.32 601,-339.32"/>
</g>
<!-- 20&#45;&gt;5 -->
<g id="edge20" class="edge">
<title>20&#45;&gt;5</title>
<path fill="none" stroke="grey" stroke-width="2" d="M837.43,-364.76C846.6,-354.9 856.59,-342.26 862.5,-329 882.42,-284.26 886.45,-226.49 886.92,-192.96"/>
<polygon fill="grey" stroke="grey" stroke-width="2" points="890.42,-192.58 886.96,-182.57 883.42,-192.56 890.42,-192.58"/>
</g>
<!-- 32 -->
<g id="node33" class="node">
<title>32</title>
<path fill="none" stroke="#56d87b" stroke-width="2" d="M765.5,-329C765.5,-329 735.5,-329 735.5,-329 729.5,-329 723.5,-323 723.5,-317 723.5,-317 723.5,-305 723.5,-305 723.5,-299 729.5,-293 735.5,-293 735.5,-293 765.5,-293 765.5,-293 771.5,-293 777.5,-299 777.5,-305 777.5,-305 777.5,-317 777.5,-317 777.5,-323 771.5,-329 765.5,-329"/>
<text text-anchor="middle" x="750.5" y="-308.5" font-family="sans" font-size="10.00">RagTag</text>
</g>
<!-- 20&#45;&gt;32 -->
<g id="edge55" class="edge">
<title>20&#45;&gt;32</title>
<path fill="none" stroke="grey" stroke-width="2" d="M798.47,-364.69C790.67,-356.13 781.47,-346.02 773.21,-336.95"/>
<polygon fill="grey" stroke="grey" stroke-width="2" points="775.59,-334.36 766.27,-329.32 770.41,-339.07 775.59,-334.36"/>
</g>
<!-- 21&#45;&gt;6 -->
<g id="edge21" class="edge">
<title>21&#45;&gt;6</title>
<path fill="none" stroke="grey" stroke-width="2" d="M328.67,-364.88C292.25,-335.63 233.84,-277.92 253.5,-221 268.19,-178.49 303.14,-139.29 328.03,-115.29"/>
<polygon fill="grey" stroke="grey" stroke-width="2" points="330.52,-117.75 335.4,-108.34 325.72,-112.66 330.52,-117.75"/>
</g>
<!-- 33 -->
<g id="node34" class="node">
<title>33</title>
<path fill="none" stroke="#56d87b" stroke-width="2" d="M370.5,-329C370.5,-329 340.5,-329 340.5,-329 334.5,-329 328.5,-323 328.5,-317 328.5,-317 328.5,-305 328.5,-305 328.5,-299 334.5,-293 340.5,-293 340.5,-293 370.5,-293 370.5,-293 376.5,-293 382.5,-299 382.5,-305 382.5,-305 382.5,-317 382.5,-317 382.5,-323 376.5,-329 370.5,-329"/>
<text text-anchor="middle" x="355.5" y="-308.5" font-family="sans" font-size="10.00">RagTag</text>
</g>
<!-- 21&#45;&gt;33 -->
<g id="edge56" class="edge">
<title>21&#45;&gt;33</title>
<path fill="none" stroke="grey" stroke-width="2" d="M355.5,-364.69C355.5,-356.91 355.5,-347.84 355.5,-339.45"/>
<polygon fill="grey" stroke="grey" stroke-width="2" points="359,-339.32 355.5,-329.32 352,-339.32 359,-339.32"/>
</g>
<!-- 22 -->
<g id="node23" class="node">
<title>22</title>
<path fill="none" stroke="#bed856" stroke-width="2" d="M538,-182.5C538,-182.5 471,-182.5 471,-182.5 465,-182.5 459,-176.5 459,-170.5 459,-170.5 459,-158.5 459,-158.5 459,-152.5 465,-146.5 471,-146.5 471,-146.5 538,-146.5 538,-146.5 544,-146.5 550,-152.5 550,-158.5 550,-158.5 550,-170.5 550,-170.5 550,-176.5 544,-182.5 538,-182.5"/>
<text text-anchor="middle" x="504.5" y="-162" font-family="sans" font-size="10.00">finalReportPrep</text>
</g>
<!-- 22&#45;&gt;7 -->
<g id="edge22" class="edge">
<title>22&#45;&gt;7</title>
<path fill="none" stroke="grey" stroke-width="2" d="M510.19,-146.32C513.03,-137.74 516.53,-127.17 519.7,-117.58"/>
<polygon fill="grey" stroke="grey" stroke-width="2" points="523.03,-118.65 522.85,-108.06 516.39,-116.45 523.03,-118.65"/>
</g>
<!-- 23 -->
<g id="node24" class="node">
<title>23</title>
<path fill="none" stroke="#569ad8" stroke-width="2" d="M650.5,-257C650.5,-257 590.5,-257 590.5,-257 584.5,-257 578.5,-251 578.5,-245 578.5,-245 578.5,-233 578.5,-233 578.5,-227 584.5,-221 590.5,-221 590.5,-221 650.5,-221 650.5,-221 656.5,-221 662.5,-227 662.5,-233 662.5,-233 662.5,-245 662.5,-245 662.5,-251 656.5,-257 650.5,-257"/>
<text text-anchor="middle" x="620.5" y="-236.5" font-family="sans" font-size="10.00">quast_RagTag</text>
</g>
<!-- 23&#45;&gt;7 -->
<g id="edge23" class="edge">
<title>23&#45;&gt;7</title>
<path fill="none" stroke="grey" stroke-width="2" d="M609.77,-220.85C593.7,-195.18 563.29,-146.59 544.57,-116.68"/>
<polygon fill="grey" stroke="grey" stroke-width="2" points="547.44,-114.66 539.17,-108.04 541.5,-118.37 547.44,-114.66"/>
</g>
<!-- 24 -->
<g id="node25" class="node">
<title>24</title>
<path fill="none" stroke="#56d892" stroke-width="2" d="M619.5,-838C619.5,-838 563.5,-838 563.5,-838 557.5,-838 551.5,-832 551.5,-826 551.5,-826 551.5,-814 551.5,-814 551.5,-808 557.5,-802 563.5,-802 563.5,-802 619.5,-802 619.5,-802 625.5,-802 631.5,-808 631.5,-814 631.5,-814 631.5,-826 631.5,-826 631.5,-832 625.5,-838 619.5,-838"/>
<text text-anchor="middle" x="591.5" y="-823" font-family="sans" font-size="10.00">trimmomatic</text>
<text text-anchor="middle" x="591.5" y="-812" font-family="sans" font-size="10.00">id: TESTFILE</text>
</g>
<!-- 24&#45;&gt;10 -->
<g id="edge24" class="edge">
<title>24&#45;&gt;10</title>
<path fill="none" stroke="grey" stroke-width="2" d="M551.43,-811.15C508.32,-802.34 437.65,-786.87 368.46,-766.1"/>
<polygon fill="grey" stroke="grey" stroke-width="2" points="369.3,-762.7 358.71,-763.14 367.26,-769.4 369.3,-762.7"/>
</g>
<!-- 24&#45;&gt;11 -->
<g id="edge25" class="edge">
<title>24&#45;&gt;11</title>
<path fill="none" stroke="grey" stroke-width="2" d="M551.33,-803.29C523.64,-792.46 486.79,-778.05 458.01,-766.8"/>
<polygon fill="grey" stroke="grey" stroke-width="2" points="459.18,-763.5 448.59,-763.11 456.63,-770.01 459.18,-763.5"/>
</g>
<!-- 24&#45;&gt;15 -->
<g id="edge33" class="edge">
<title>24&#45;&gt;15</title>
<path fill="none" stroke="grey" stroke-width="2" d="M599.81,-801.79C604.24,-791.63 609.24,-778.38 611.5,-766 625.86,-687.3 630.75,-663.65 611.5,-586 609.21,-576.75 604.97,-567.34 600.48,-559.07"/>
<polygon fill="grey" stroke="grey" stroke-width="2" points="603.43,-557.17 595.39,-550.28 597.37,-560.68 603.43,-557.17"/>
</g>
<!-- 24&#45;&gt;16 -->
<g id="edge35" class="edge">
<title>24&#45;&gt;16</title>
<path fill="none" stroke="grey" stroke-width="2" d="M606.52,-801.99C614.48,-792.11 623.78,-779.07 629.5,-766 660.25,-695.74 671.65,-604.82 675.59,-560.17"/>
<polygon fill="grey" stroke="grey" stroke-width="2" points="679.08,-560.37 676.41,-550.11 672.11,-559.79 679.08,-560.37"/>
</g>
<!-- 24&#45;&gt;17 -->
<g id="edge37" class="edge">
<title>24&#45;&gt;17</title>
<path fill="none" stroke="grey" stroke-width="2" d="M613.95,-801.95C625.76,-792.26 639.93,-779.41 650.5,-766 703.82,-698.33 746.57,-604.93 765.67,-559.69"/>
<polygon fill="grey" stroke="grey" stroke-width="2" points="768.98,-560.86 769.6,-550.29 762.52,-558.17 768.98,-560.86"/>
</g>
<!-- 26 -->
<g id="node27" class="node">
<title>26</title>
<path fill="none" stroke="#d8b456" stroke-width="2" d="M413.5,-622C413.5,-622 363.5,-622 363.5,-622 357.5,-622 351.5,-616 351.5,-610 351.5,-610 351.5,-598 351.5,-598 351.5,-592 357.5,-586 363.5,-586 363.5,-586 413.5,-586 413.5,-586 419.5,-586 425.5,-592 425.5,-598 425.5,-598 425.5,-610 425.5,-610 425.5,-616 419.5,-622 413.5,-622"/>
<text text-anchor="middle" x="388.5" y="-601.5" font-family="sans" font-size="10.00">soap_config</text>
</g>
<!-- 24&#45;&gt;26 -->
<g id="edge49" class="edge">
<title>24&#45;&gt;26</title>
<path fill="none" stroke="grey" stroke-width="2" d="M551.34,-802.21C532.98,-793.25 511.74,-780.96 495.5,-766 452.47,-726.37 418.44,-666.07 401.09,-631.62"/>
<polygon fill="grey" stroke="grey" stroke-width="2" points="404.02,-629.64 396.45,-622.22 397.74,-632.74 404.02,-629.64"/>
</g>
<!-- 35 -->
<g id="node36" class="node">
<title>35</title>
<path fill="none" stroke="#56d8b9" stroke-width="2" d="M837,-766C837,-766 780,-766 780,-766 774,-766 768,-760 768,-754 768,-754 768,-742 768,-742 768,-736 774,-730 780,-730 780,-730 837,-730 837,-730 843,-730 849,-736 849,-742 849,-742 849,-754 849,-754 849,-760 843,-766 837,-766"/>
<text text-anchor="middle" x="808.5" y="-745.5" font-family="sans" font-size="10.00">DiscoVarPrep</text>
</g>
<!-- 24&#45;&gt;35 -->
<g id="edge58" class="edge">
<title>24&#45;&gt;35</title>
<path fill="none" stroke="grey" stroke-width="2" d="M631.55,-806.08C667.19,-794.58 719.48,-777.72 757.98,-765.3"/>
<polygon fill="grey" stroke="grey" stroke-width="2" points="759.5,-768.48 767.94,-762.08 757.35,-761.82 759.5,-768.48"/>
</g>
<!-- 36 -->
<g id="node37" class="node">
<title>36</title>
<path fill="none" stroke="#d89c56" stroke-width="2" d="M590.5,-766C590.5,-766 516.5,-766 516.5,-766 510.5,-766 504.5,-760 504.5,-754 504.5,-754 504.5,-742 504.5,-742 504.5,-736 510.5,-730 516.5,-730 516.5,-730 590.5,-730 590.5,-730 596.5,-730 602.5,-736 602.5,-742 602.5,-742 602.5,-754 602.5,-754 602.5,-760 596.5,-766 590.5,-766"/>
<text text-anchor="middle" x="553.5" y="-745.5" font-family="sans" font-size="10.00">KmerGenie_prep</text>
</g>
<!-- 24&#45;&gt;36 -->
<g id="edge59" class="edge">
<title>24&#45;&gt;36</title>
<path fill="none" stroke="grey" stroke-width="2" d="M582.11,-801.7C577.74,-793.64 572.44,-783.89 567.6,-774.98"/>
<polygon fill="grey" stroke="grey" stroke-width="2" points="570.63,-773.22 562.79,-766.1 564.48,-776.56 570.63,-773.22"/>
</g>
<!-- 25 -->
<g id="node26" class="node">
<title>25</title>
<path fill="none" stroke="#d86e56" stroke-width="2" d="M590.5,-622C590.5,-622 466.5,-622 466.5,-622 460.5,-622 454.5,-616 454.5,-610 454.5,-610 454.5,-598 454.5,-598 454.5,-592 460.5,-586 466.5,-586 466.5,-586 590.5,-586 590.5,-586 596.5,-586 602.5,-592 602.5,-598 602.5,-598 602.5,-610 602.5,-610 602.5,-616 596.5,-622 590.5,-622"/>
<text text-anchor="middle" x="528.5" y="-601.5" font-family="sans" font-size="10.00">KmerInputLowerUpperBest</text>
</g>
<!-- 25&#45;&gt;12 -->
<g id="edge26" class="edge">
<title>25&#45;&gt;12</title>
<path fill="none" stroke="grey" stroke-width="2" d="M462.63,-585.93C428.27,-576.72 385.38,-564.75 339.22,-550.13"/>
<polygon fill="grey" stroke="grey" stroke-width="2" points="340.23,-546.77 329.64,-547.07 338.1,-553.44 340.23,-546.77"/>
</g>
<!-- 25&#45;&gt;13 -->
<g id="edge28" class="edge">
<title>25&#45;&gt;13</title>
<path fill="none" stroke="grey" stroke-width="2" d="M493.52,-585.88C474.3,-576.47 450.27,-564.71 429.76,-554.67"/>
<polygon fill="grey" stroke="grey" stroke-width="2" points="431.14,-551.44 420.62,-550.19 428.06,-557.73 431.14,-551.44"/>
</g>
<!-- 25&#45;&gt;14 -->
<g id="edge30" class="edge">
<title>25&#45;&gt;14</title>
<path fill="none" stroke="grey" stroke-width="2" d="M517.62,-585.7C512.51,-577.56 506.3,-567.69 500.66,-558.7"/>
<polygon fill="grey" stroke="grey" stroke-width="2" points="503.54,-556.71 495.25,-550.1 497.61,-560.43 503.54,-556.71"/>
</g>
<!-- 25&#45;&gt;15 -->
<g id="edge32" class="edge">
<title>25&#45;&gt;15</title>
<path fill="none" stroke="grey" stroke-width="2" d="M542.1,-585.7C548.62,-577.39 556.57,-567.28 563.75,-558.14"/>
<polygon fill="grey" stroke="grey" stroke-width="2" points="566.63,-560.13 570.06,-550.1 561.13,-555.81 566.63,-560.13"/>
</g>
<!-- 25&#45;&gt;16 -->
<g id="edge34" class="edge">
<title>25&#45;&gt;16</title>
<path fill="none" stroke="grey" stroke-width="2" d="M564.95,-585.88C585.14,-576.39 610.42,-564.51 631.91,-554.42"/>
<polygon fill="grey" stroke="grey" stroke-width="2" points="633.61,-557.49 641.17,-550.07 630.63,-551.15 633.61,-557.49"/>
</g>
<!-- 25&#45;&gt;17 -->
<g id="edge36" class="edge">
<title>25&#45;&gt;17</title>
<path fill="none" stroke="grey" stroke-width="2" d="M594.97,-585.94C630.65,-576.57 675.57,-564.43 723.75,-550.16"/>
<polygon fill="grey" stroke="grey" stroke-width="2" points="724.84,-553.48 733.42,-547.27 722.84,-546.77 724.84,-553.48"/>
</g>
<!-- 26&#45;&gt;12 -->
<g id="edge27" class="edge">
<title>26&#45;&gt;12</title>
<path fill="none" stroke="grey" stroke-width="2" d="M364.52,-585.7C352.19,-576.8 336.98,-565.82 323.65,-556.2"/>
<polygon fill="grey" stroke="grey" stroke-width="2" points="325.36,-553.12 315.2,-550.1 321.26,-558.79 325.36,-553.12"/>
</g>
<!-- 26&#45;&gt;13 -->
<g id="edge29" class="edge">
<title>26&#45;&gt;13</title>
<path fill="none" stroke="grey" stroke-width="2" d="M387.76,-585.7C387.43,-577.98 387.03,-568.71 386.66,-560.11"/>
<polygon fill="grey" stroke="grey" stroke-width="2" points="390.16,-559.95 386.23,-550.1 383.16,-560.25 390.16,-559.95"/>
</g>
<!-- 26&#45;&gt;14 -->
<g id="edge31" class="edge">
<title>26&#45;&gt;14</title>
<path fill="none" stroke="grey" stroke-width="2" d="M412.23,-585.7C424.44,-576.8 439.49,-565.82 452.68,-556.2"/>
<polygon fill="grey" stroke="grey" stroke-width="2" points="455.02,-558.82 461.04,-550.1 450.9,-553.17 455.02,-558.82"/>
</g>
<!-- 27 -->
<g id="node28" class="node">
<title>27</title>
<path fill="none" stroke="#56d863" stroke-width="2" d="M856,-694C856,-694 783,-694 783,-694 777,-694 771,-688 771,-682 771,-682 771,-670 771,-670 771,-664 777,-658 783,-658 783,-658 856,-658 856,-658 862,-658 868,-664 868,-670 868,-670 868,-682 868,-682 868,-688 862,-694 856,-694"/>
<text text-anchor="middle" x="819.5" y="-673.5" font-family="sans" font-size="10.00">DiscovarDenovo</text>
</g>
<!-- 27&#45;&gt;18 -->
<g id="edge38" class="edge">
<title>27&#45;&gt;18</title>
<path fill="none" stroke="grey" stroke-width="2" d="M823.21,-657.7C824.86,-649.98 826.85,-640.71 828.69,-632.11"/>
<polygon fill="grey" stroke="grey" stroke-width="2" points="832.16,-632.62 830.83,-622.1 825.32,-631.15 832.16,-632.62"/>
</g>
<!-- 28 -->
<g id="node29" class="node">
<title>28</title>
<path fill="none" stroke="#78d856" stroke-width="2" d="M548.5,-257C548.5,-257 432.5,-257 432.5,-257 426.5,-257 420.5,-251 420.5,-245 420.5,-245 420.5,-233 420.5,-233 420.5,-227 426.5,-221 432.5,-221 432.5,-221 548.5,-221 548.5,-221 554.5,-221 560.5,-227 560.5,-233 560.5,-233 560.5,-245 560.5,-245 560.5,-251 554.5,-257 548.5,-257"/>
<text text-anchor="middle" x="490.5" y="-236.5" font-family="sans" font-size="10.00">BUSCO_RagTag_scaffolds</text>
</g>
<!-- 28&#45;&gt;22 -->
<g id="edge42" class="edge">
<title>28&#45;&gt;22</title>
<path fill="none" stroke="grey" stroke-width="2" d="M493.82,-220.82C495.46,-212.33 497.47,-201.89 499.31,-192.38"/>
<polygon fill="grey" stroke="grey" stroke-width="2" points="502.75,-193.04 501.21,-182.56 495.87,-191.71 502.75,-193.04"/>
</g>
<!-- 29 -->
<g id="node30" class="node">
<title>29</title>
<path fill="none" stroke="#78d856" stroke-width="2" d="M808.5,-257C808.5,-257 692.5,-257 692.5,-257 686.5,-257 680.5,-251 680.5,-245 680.5,-245 680.5,-233 680.5,-233 680.5,-227 686.5,-221 692.5,-221 692.5,-221 808.5,-221 808.5,-221 814.5,-221 820.5,-227 820.5,-233 820.5,-233 820.5,-245 820.5,-245 820.5,-251 814.5,-257 808.5,-257"/>
<text text-anchor="middle" x="750.5" y="-236.5" font-family="sans" font-size="10.00">BUSCO_RagTag_scaffolds</text>
</g>
<!-- 29&#45;&gt;22 -->
<g id="edge43" class="edge">
<title>29&#45;&gt;22</title>
<path fill="none" stroke="grey" stroke-width="2" d="M692.51,-220.91C652.44,-209.1 599.45,-193.48 559.94,-181.84"/>
<polygon fill="grey" stroke="grey" stroke-width="2" points="560.79,-178.44 550.21,-178.97 558.81,-185.15 560.79,-178.44"/>
</g>
<!-- 30 -->
<g id="node31" class="node">
<title>30</title>
<path fill="none" stroke="#78d856" stroke-width="2" d="M390.5,-257C390.5,-257 274.5,-257 274.5,-257 268.5,-257 262.5,-251 262.5,-245 262.5,-245 262.5,-233 262.5,-233 262.5,-227 268.5,-221 274.5,-221 274.5,-221 390.5,-221 390.5,-221 396.5,-221 402.5,-227 402.5,-233 402.5,-233 402.5,-245 402.5,-245 402.5,-251 396.5,-257 390.5,-257"/>
<text text-anchor="middle" x="332.5" y="-236.5" font-family="sans" font-size="10.00">BUSCO_RagTag_scaffolds</text>
</g>
<!-- 30&#45;&gt;22 -->
<g id="edge44" class="edge">
<title>30&#45;&gt;22</title>
<path fill="none" stroke="grey" stroke-width="2" d="M373.26,-220.82C397.68,-210.53 428.9,-197.37 454.77,-186.46"/>
<polygon fill="grey" stroke="grey" stroke-width="2" points="456.18,-189.67 464.03,-182.56 453.46,-183.22 456.18,-189.67"/>
</g>
<!-- 31&#45;&gt;23 -->
<g id="edge45" class="edge">
<title>31&#45;&gt;23</title>
<path fill="none" stroke="grey" stroke-width="2" d="M603.19,-292.7C605.75,-284.9 608.83,-275.51 611.68,-266.83"/>
<polygon fill="grey" stroke="grey" stroke-width="2" points="615.08,-267.7 614.88,-257.1 608.43,-265.51 615.08,-267.7"/>
</g>
<!-- 31&#45;&gt;28 -->
<g id="edge51" class="edge">
<title>31&#45;&gt;28</title>
<path fill="none" stroke="grey" stroke-width="2" d="M571.32,-292.88C557.46,-283.81 540.26,-272.55 525.29,-262.76"/>
<polygon fill="grey" stroke="grey" stroke-width="2" points="527.06,-259.74 516.78,-257.19 523.23,-265.59 527.06,-259.74"/>
</g>
<!-- 32&#45;&gt;23 -->
<g id="edge46" class="edge">
<title>32&#45;&gt;23</title>
<path fill="none" stroke="grey" stroke-width="2" d="M723.25,-295.33C705.3,-285.66 681.47,-272.83 661.28,-261.96"/>
<polygon fill="grey" stroke="grey" stroke-width="2" points="662.76,-258.78 652.3,-257.12 659.44,-264.94 662.76,-258.78"/>
</g>
<!-- 32&#45;&gt;29 -->
<g id="edge52" class="edge">
<title>32&#45;&gt;29</title>
<path fill="none" stroke="grey" stroke-width="2" d="M750.5,-292.7C750.5,-284.98 750.5,-275.71 750.5,-267.11"/>
<polygon fill="grey" stroke="grey" stroke-width="2" points="754,-267.1 750.5,-257.1 747,-267.1 754,-267.1"/>
</g>
<!-- 33&#45;&gt;23 -->
<g id="edge47" class="edge">
<title>33&#45;&gt;23</title>
<path fill="none" stroke="grey" stroke-width="2" d="M382.71,-303.99C421.78,-295.2 496.21,-277.87 568.55,-257.17"/>
<polygon fill="grey" stroke="grey" stroke-width="2" points="569.64,-260.5 578.28,-254.36 567.7,-253.77 569.64,-260.5"/>
</g>
<!-- 33&#45;&gt;30 -->
<g id="edge53" class="edge">
<title>33&#45;&gt;30</title>
<path fill="none" stroke="grey" stroke-width="2" d="M349.81,-292.7C347.25,-284.9 344.17,-275.51 341.32,-266.83"/>
<polygon fill="grey" stroke="grey" stroke-width="2" points="344.57,-265.51 338.12,-257.1 337.92,-267.7 344.57,-265.51"/>
</g>
<!-- 34 -->
<g id="node35" class="node">
<title>34</title>
<path fill="none" stroke="#a7d856" stroke-width="2" d="M571,-694C571,-694 524,-694 524,-694 518,-694 512,-688 512,-682 512,-682 512,-670 512,-670 512,-664 518,-658 524,-658 524,-658 571,-658 571,-658 577,-658 583,-664 583,-670 583,-670 583,-682 583,-682 583,-688 577,-694 571,-694"/>
<text text-anchor="middle" x="547.5" y="-673.5" font-family="sans" font-size="10.00">KmerGenie</text>
</g>
<!-- 34&#45;&gt;25 -->
<g id="edge48" class="edge">
<title>34&#45;&gt;25</title>
<path fill="none" stroke="grey" stroke-width="2" d="M542.8,-657.7C540.69,-649.9 538.14,-640.51 535.78,-631.83"/>
<polygon fill="grey" stroke="grey" stroke-width="2" points="539.14,-630.84 533.14,-622.1 532.38,-632.67 539.14,-630.84"/>
</g>
<!-- 35&#45;&gt;27 -->
<g id="edge50" class="edge">
<title>35&#45;&gt;27</title>
<path fill="none" stroke="grey" stroke-width="2" d="M811.22,-729.7C812.43,-721.98 813.89,-712.71 815.24,-704.11"/>
<polygon fill="grey" stroke="grey" stroke-width="2" points="818.72,-704.53 816.81,-694.1 811.8,-703.44 818.72,-704.53"/>
</g>
<!-- 36&#45;&gt;34 -->
<g id="edge57" class="edge">
<title>36&#45;&gt;34</title>
<path fill="none" stroke="grey" stroke-width="2" d="M552.02,-729.7C551.36,-721.98 550.56,-712.71 549.82,-704.11"/>
<polygon fill="grey" stroke="grey" stroke-width="2" points="553.31,-703.77 548.97,-694.1 546.33,-704.37 553.31,-703.77"/>
</g>
</g>
</svg>
