<?xml version="1.0" encoding="UTF-8" standalone="no"?>
<!DOCTYPE svg PUBLIC "-//W3C//DTD SVG 1.1//EN"
 "http://www.w3.org/Graphics/SVG/1.1/DTD/svg11.dtd">
<!-- Generated by graphviz version 2.42.3 (20191010.1750)
 -->
<!-- Title: snakemake_dag Pages: 1 -->
<svg width="1081pt" height="702pt"
 viewBox="0.00 0.00 1080.90 702.00" xmlns="http://www.w3.org/2000/svg" xmlns:xlink="http://www.w3.org/1999/xlink">
<g id="graph0" class="graph" transform="scale(1 1) rotate(0) translate(4 698)">
<title>snakemake_dag</title>
<polygon fill="white" stroke="transparent" points="-4,4 -4,-698 1076.9,-698 1076.9,4 -4,4"/>
<!-- 0 -->
<g id="node1" class="node">
<title>0</title>
<path fill="none" stroke="#5673d8" stroke-width="2" d="M542.5,-36C542.5,-36 512.5,-36 512.5,-36 506.5,-36 500.5,-30 500.5,-24 500.5,-24 500.5,-12 500.5,-12 500.5,-6 506.5,0 512.5,0 512.5,0 542.5,0 542.5,0 548.5,0 554.5,-6 554.5,-12 554.5,-12 554.5,-24 554.5,-24 554.5,-30 548.5,-36 542.5,-36"/>
<text text-anchor="middle" x="527.5" y="-15.5" font-family="sans" font-size="10.00">all</text>
</g>
<!-- 1 -->
<g id="node2" class="node">
<title>1</title>
<path fill="none" stroke="#56d863" stroke-width="2" d="M156,-108C156,-108 103,-108 103,-108 97,-108 91,-102 91,-96 91,-96 91,-84 91,-84 91,-78 97,-72 103,-72 103,-72 156,-72 156,-72 162,-72 168,-78 168,-84 168,-84 168,-96 168,-96 168,-102 162,-108 156,-108"/>
<text text-anchor="middle" x="129.5" y="-87.5" font-family="sans" font-size="10.00">multiqc_raw</text>
</g>
<!-- 1&#45;&gt;0 -->
<g id="edge1" class="edge">
<title>1&#45;&gt;0</title>
<path fill="none" stroke="grey" stroke-width="2" d="M168.09,-75.84C172.91,-74.43 177.8,-73.11 182.5,-72 293.13,-45.93 426.84,-29.61 490.43,-22.75"/>
<polygon fill="grey" stroke="grey" stroke-width="2" points="490.81,-26.23 500.38,-21.69 490.07,-19.27 490.81,-26.23"/>
</g>
<!-- 2 -->
<g id="node3" class="node">
<title>2</title>
<path fill="none" stroke="#78d856" stroke-width="2" d="M354,-550C354,-550 299,-550 299,-550 293,-550 287,-544 287,-538 287,-538 287,-526 287,-526 287,-520 293,-514 299,-514 299,-514 354,-514 354,-514 360,-514 366,-520 366,-526 366,-526 366,-538 366,-538 366,-544 360,-550 354,-550"/>
<text text-anchor="middle" x="326.5" y="-529.5" font-family="sans" font-size="10.00">multiqc_trim</text>
</g>
<!-- 2&#45;&gt;0 -->
<g id="edge2" class="edge">
<title>2&#45;&gt;0</title>
<path fill="none" stroke="grey" stroke-width="2" d="M294.03,-513.94C255.53,-491.09 196.5,-446.66 196.5,-389 196.5,-389 196.5,-389 196.5,-163.5 196.5,-117.78 206.84,-99.32 243.5,-72 282.06,-43.27 422.18,-27.84 490.09,-21.91"/>
<polygon fill="grey" stroke="grey" stroke-width="2" points="490.68,-25.37 500.34,-21.04 490.08,-18.4 490.68,-25.37"/>
</g>
<!-- 3 -->
<g id="node4" class="node">
<title>3</title>
<path fill="none" stroke="#56d892" stroke-width="2" d="M672.5,-334C672.5,-334 560.5,-334 560.5,-334 554.5,-334 548.5,-328 548.5,-322 548.5,-322 548.5,-310 548.5,-310 548.5,-304 554.5,-298 560.5,-298 560.5,-298 672.5,-298 672.5,-298 678.5,-298 684.5,-304 684.5,-310 684.5,-310 684.5,-322 684.5,-322 684.5,-328 678.5,-334 672.5,-334"/>
<text text-anchor="middle" x="616.5" y="-313.5" font-family="sans" font-size="10.00">quast_contigs_summary</text>
</g>
<!-- 3&#45;&gt;0 -->
<g id="edge3" class="edge">
<title>3&#45;&gt;0</title>
<path fill="none" stroke="grey" stroke-width="2" d="M684.85,-311.27C771.55,-305.39 915.04,-291.44 958.5,-262 1036.02,-209.49 1112.27,-141.47 1049.5,-72 1017.07,-36.11 679.12,-23.29 564.95,-19.97"/>
<polygon fill="grey" stroke="grey" stroke-width="2" points="564.71,-16.46 554.61,-19.67 564.51,-23.45 564.71,-16.46"/>
</g>
<!-- 25 -->
<g id="node26" class="node">
<title>25</title>
<path fill="none" stroke="#d86e56" stroke-width="2" d="M705,-262C705,-262 528,-262 528,-262 522,-262 516,-256 516,-250 516,-250 516,-233 516,-233 516,-227 522,-221 528,-221 528,-221 705,-221 705,-221 711,-221 717,-227 717,-233 717,-233 717,-250 717,-250 717,-256 711,-262 705,-262"/>
<text text-anchor="middle" x="616.5" y="-250" font-family="sans" font-size="10.00">extract_best_N50_contigs_for_BUSCO</text>
<text text-anchor="middle" x="616.5" y="-239" font-family="sans" font-size="10.00">assembler: SOAP</text>
<text text-anchor="middle" x="616.5" y="-228" font-family="sans" font-size="10.00">id: TESTFILE</text>
</g>
<!-- 3&#45;&gt;25 -->
<g id="edge49" class="edge">
<title>3&#45;&gt;25</title>
<path fill="none" stroke="grey" stroke-width="2" d="M616.5,-297.82C616.5,-290.2 616.5,-281 616.5,-272.32"/>
<polygon fill="grey" stroke="grey" stroke-width="2" points="620,-272.12 616.5,-262.12 613,-272.12 620,-272.12"/>
</g>
<!-- 26 -->
<g id="node27" class="node">
<title>26</title>
<path fill="none" stroke="#d86e56" stroke-width="2" d="M937,-262C937,-262 760,-262 760,-262 754,-262 748,-256 748,-250 748,-250 748,-233 748,-233 748,-227 754,-221 760,-221 760,-221 937,-221 937,-221 943,-221 949,-227 949,-233 949,-233 949,-250 949,-250 949,-256 943,-262 937,-262"/>
<text text-anchor="middle" x="848.5" y="-250" font-family="sans" font-size="10.00">extract_best_N50_contigs_for_BUSCO</text>
<text text-anchor="middle" x="848.5" y="-239" font-family="sans" font-size="10.00">assembler: ABYSS</text>
<text text-anchor="middle" x="848.5" y="-228" font-family="sans" font-size="10.00">id: TESTFILE</text>
</g>
<!-- 3&#45;&gt;26 -->
<g id="edge50" class="edge">
<title>3&#45;&gt;26</title>
<path fill="none" stroke="grey" stroke-width="2" d="M671.19,-297.91C702.52,-288.12 742.23,-275.71 776.13,-265.12"/>
<polygon fill="grey" stroke="grey" stroke-width="2" points="777.48,-268.36 785.98,-262.04 775.39,-261.68 777.48,-268.36"/>
</g>
<!-- 27 -->
<g id="node28" class="node">
<title>27</title>
<path fill="none" stroke="#d86e56" stroke-width="2" d="M483,-262C483,-262 306,-262 306,-262 300,-262 294,-256 294,-250 294,-250 294,-233 294,-233 294,-227 300,-221 306,-221 306,-221 483,-221 483,-221 489,-221 495,-227 495,-233 495,-233 495,-250 495,-250 495,-256 489,-262 483,-262"/>
<text text-anchor="middle" x="394.5" y="-250" font-family="sans" font-size="10.00">extract_best_N50_contigs_for_BUSCO</text>
<text text-anchor="middle" x="394.5" y="-239" font-family="sans" font-size="10.00">assembler: DISCOVAR</text>
<text text-anchor="middle" x="394.5" y="-228" font-family="sans" font-size="10.00">id: TESTFILE</text>
</g>
<!-- 3&#45;&gt;27 -->
<g id="edge51" class="edge">
<title>3&#45;&gt;27</title>
<path fill="none" stroke="grey" stroke-width="2" d="M564.17,-297.91C534.31,-288.16 496.51,-275.81 464.17,-265.25"/>
<polygon fill="grey" stroke="grey" stroke-width="2" points="464.91,-261.81 454.32,-262.04 462.74,-268.47 464.91,-261.81"/>
</g>
<!-- 4 -->
<g id="node5" class="node">
<title>4</title>
<path fill="none" stroke="#c6d856" stroke-width="2" d="M492.5,-108C492.5,-108 432.5,-108 432.5,-108 426.5,-108 420.5,-102 420.5,-96 420.5,-96 420.5,-84 420.5,-84 420.5,-78 426.5,-72 432.5,-72 432.5,-72 492.5,-72 492.5,-72 498.5,-72 504.5,-78 504.5,-84 504.5,-84 504.5,-96 504.5,-96 504.5,-102 498.5,-108 492.5,-108"/>
<text text-anchor="middle" x="462.5" y="-87.5" font-family="sans" font-size="10.00">quast_RagTag</text>
</g>
<!-- 4&#45;&gt;0 -->
<g id="edge4" class="edge">
<title>4&#45;&gt;0</title>
<path fill="none" stroke="grey" stroke-width="2" d="M478.57,-71.7C486.44,-63.22 496.06,-52.86 504.67,-43.58"/>
<polygon fill="grey" stroke="grey" stroke-width="2" points="507.38,-45.81 511.62,-36.1 502.25,-41.05 507.38,-45.81"/>
</g>
<!-- 5 -->
<g id="node6" class="node">
<title>5</title>
<path fill="none" stroke="#afd856" stroke-width="2" d="M760.5,-108C760.5,-108 692.5,-108 692.5,-108 686.5,-108 680.5,-102 680.5,-96 680.5,-96 680.5,-84 680.5,-84 680.5,-78 686.5,-72 692.5,-72 692.5,-72 760.5,-72 760.5,-72 766.5,-72 772.5,-78 772.5,-84 772.5,-84 772.5,-96 772.5,-96 772.5,-102 766.5,-108 760.5,-108"/>
<text text-anchor="middle" x="726.5" y="-87.5" font-family="sans" font-size="10.00">BUSCO_contigs</text>
</g>
<!-- 5&#45;&gt;0 -->
<g id="edge5" class="edge">
<title>5&#45;&gt;0</title>
<path fill="none" stroke="grey" stroke-width="2" d="M680.35,-72.76C645.07,-60.36 597.1,-43.48 564.36,-31.97"/>
<polygon fill="grey" stroke="grey" stroke-width="2" points="565.32,-28.59 554.73,-28.58 563,-35.2 565.32,-28.59"/>
</g>
<!-- 6 -->
<g id="node7" class="node">
<title>6</title>
<path fill="none" stroke="#afd856" stroke-width="2" d="M1028.5,-108C1028.5,-108 960.5,-108 960.5,-108 954.5,-108 948.5,-102 948.5,-96 948.5,-96 948.5,-84 948.5,-84 948.5,-78 954.5,-72 960.5,-72 960.5,-72 1028.5,-72 1028.5,-72 1034.5,-72 1040.5,-78 1040.5,-84 1040.5,-84 1040.5,-96 1040.5,-96 1040.5,-102 1034.5,-108 1028.5,-108"/>
<text text-anchor="middle" x="994.5" y="-87.5" font-family="sans" font-size="10.00">BUSCO_contigs</text>
</g>
<!-- 6&#45;&gt;0 -->
<g id="edge6" class="edge">
<title>6&#45;&gt;0</title>
<path fill="none" stroke="grey" stroke-width="2" d="M948.44,-74.13C945.43,-73.36 942.43,-72.64 939.5,-72 803.14,-42.39 637.56,-27.26 564.81,-21.64"/>
<polygon fill="grey" stroke="grey" stroke-width="2" points="565.01,-18.14 554.77,-20.88 564.48,-25.12 565.01,-18.14"/>
</g>
<!-- 7 -->
<g id="node8" class="node">
<title>7</title>
<path fill="none" stroke="#afd856" stroke-width="2" d="M331.5,-182.5C331.5,-182.5 263.5,-182.5 263.5,-182.5 257.5,-182.5 251.5,-176.5 251.5,-170.5 251.5,-170.5 251.5,-158.5 251.5,-158.5 251.5,-152.5 257.5,-146.5 263.5,-146.5 263.5,-146.5 331.5,-146.5 331.5,-146.5 337.5,-146.5 343.5,-152.5 343.5,-158.5 343.5,-158.5 343.5,-170.5 343.5,-170.5 343.5,-176.5 337.5,-182.5 331.5,-182.5"/>
<text text-anchor="middle" x="297.5" y="-162" font-family="sans" font-size="10.00">BUSCO_contigs</text>
</g>
<!-- 7&#45;&gt;0 -->
<g id="edge7" class="edge">
<title>7&#45;&gt;0</title>
<path fill="none" stroke="grey" stroke-width="2" d="M278.45,-146.24C259.2,-126.73 234.77,-94.71 253.5,-72 283.06,-36.17 422.05,-24.28 489.96,-20.57"/>
<polygon fill="grey" stroke="grey" stroke-width="2" points="490.42,-24.05 500.23,-20.04 490.06,-17.06 490.42,-24.05"/>
</g>
<!-- 8 -->
<g id="node9" class="node">
<title>8</title>
<path fill="none" stroke="#56a2d8" stroke-width="2" d="M650.5,-108C650.5,-108 534.5,-108 534.5,-108 528.5,-108 522.5,-102 522.5,-96 522.5,-96 522.5,-84 522.5,-84 522.5,-78 528.5,-72 534.5,-72 534.5,-72 650.5,-72 650.5,-72 656.5,-72 662.5,-78 662.5,-84 662.5,-84 662.5,-96 662.5,-96 662.5,-102 656.5,-108 650.5,-108"/>
<text text-anchor="middle" x="592.5" y="-87.5" font-family="sans" font-size="10.00">BUSCO_RagTag_scaffolds</text>
</g>
<!-- 8&#45;&gt;0 -->
<g id="edge8" class="edge">
<title>8&#45;&gt;0</title>
<path fill="none" stroke="grey" stroke-width="2" d="M576.43,-71.7C568.56,-63.22 558.94,-52.86 550.33,-43.58"/>
<polygon fill="grey" stroke="grey" stroke-width="2" points="552.75,-41.05 543.38,-36.1 547.62,-45.81 552.75,-41.05"/>
</g>
<!-- 9 -->
<g id="node10" class="node">
<title>9</title>
<path fill="none" stroke="#56a2d8" stroke-width="2" d="M918.5,-108C918.5,-108 802.5,-108 802.5,-108 796.5,-108 790.5,-102 790.5,-96 790.5,-96 790.5,-84 790.5,-84 790.5,-78 796.5,-72 802.5,-72 802.5,-72 918.5,-72 918.5,-72 924.5,-72 930.5,-78 930.5,-84 930.5,-84 930.5,-96 930.5,-96 930.5,-102 924.5,-108 918.5,-108"/>
<text text-anchor="middle" x="860.5" y="-87.5" font-family="sans" font-size="10.00">BUSCO_RagTag_scaffolds</text>
</g>
<!-- 9&#45;&gt;0 -->
<g id="edge9" class="edge">
<title>9&#45;&gt;0</title>
<path fill="none" stroke="grey" stroke-width="2" d="M790.29,-73.87C787.32,-73.24 784.38,-72.61 781.5,-72 704.36,-55.65 613.95,-36.88 564.49,-26.64"/>
<polygon fill="grey" stroke="grey" stroke-width="2" points="565.08,-23.19 554.58,-24.59 563.66,-30.05 565.08,-23.19"/>
</g>
<!-- 10 -->
<g id="node11" class="node">
<title>10</title>
<path fill="none" stroke="#56a2d8" stroke-width="2" d="M390.5,-108C390.5,-108 274.5,-108 274.5,-108 268.5,-108 262.5,-102 262.5,-96 262.5,-96 262.5,-84 262.5,-84 262.5,-78 268.5,-72 274.5,-72 274.5,-72 390.5,-72 390.5,-72 396.5,-72 402.5,-78 402.5,-84 402.5,-84 402.5,-96 402.5,-96 402.5,-102 396.5,-108 390.5,-108"/>
<text text-anchor="middle" x="332.5" y="-87.5" font-family="sans" font-size="10.00">BUSCO_RagTag_scaffolds</text>
</g>
<!-- 10&#45;&gt;0 -->
<g id="edge10" class="edge">
<title>10&#45;&gt;0</title>
<path fill="none" stroke="grey" stroke-width="2" d="M380.2,-71.88C414.29,-59.64 459.47,-43.42 490.76,-32.19"/>
<polygon fill="grey" stroke="grey" stroke-width="2" points="492.17,-35.4 500.4,-28.73 489.81,-28.81 492.17,-35.4"/>
</g>
<!-- 11 -->
<g id="node12" class="node">
<title>11</title>
<path fill="none" stroke="#56d8a9" stroke-width="2" d="M63,-185C63,-185 12,-185 12,-185 6,-185 0,-179 0,-173 0,-173 0,-156 0,-156 0,-150 6,-144 12,-144 12,-144 63,-144 63,-144 69,-144 75,-150 75,-156 75,-156 75,-173 75,-173 75,-179 69,-185 63,-185"/>
<text text-anchor="middle" x="37.5" y="-173" font-family="sans" font-size="10.00">fastqc_raw</text>
<text text-anchor="middle" x="37.5" y="-162" font-family="sans" font-size="10.00">id: TESTFILE</text>
<text text-anchor="middle" x="37.5" y="-151" font-family="sans" font-size="10.00">read: 1P</text>
</g>
<!-- 11&#45;&gt;1 -->
<g id="edge11" class="edge">
<title>11&#45;&gt;1</title>
<path fill="none" stroke="grey" stroke-width="2" d="M62.64,-143.69C74.14,-134.63 87.84,-123.83 99.84,-114.37"/>
<polygon fill="grey" stroke="grey" stroke-width="2" points="102.14,-117.02 107.83,-108.08 97.81,-111.52 102.14,-117.02"/>
</g>
<!-- 12 -->
<g id="node13" class="node">
<title>12</title>
<path fill="none" stroke="#56d8a9" stroke-width="2" d="M156,-185C156,-185 105,-185 105,-185 99,-185 93,-179 93,-173 93,-173 93,-156 93,-156 93,-150 99,-144 105,-144 105,-144 156,-144 156,-144 162,-144 168,-150 168,-156 168,-156 168,-173 168,-173 168,-179 162,-185 156,-185"/>
<text text-anchor="middle" x="130.5" y="-173" font-family="sans" font-size="10.00">fastqc_raw</text>
<text text-anchor="middle" x="130.5" y="-162" font-family="sans" font-size="10.00">id: TESTFILE</text>
<text text-anchor="middle" x="130.5" y="-151" font-family="sans" font-size="10.00">read: 2P</text>
</g>
<!-- 12&#45;&gt;1 -->
<g id="edge12" class="edge">
<title>12&#45;&gt;1</title>
<path fill="none" stroke="grey" stroke-width="2" d="M130.23,-143.69C130.12,-135.91 129.99,-126.84 129.88,-118.45"/>
<polygon fill="grey" stroke="grey" stroke-width="2" points="133.38,-118.27 129.74,-108.32 126.38,-118.37 133.38,-118.27"/>
</g>
<!-- 13 -->
<g id="node14" class="node">
<title>13</title>
<path fill="none" stroke="#61d856" stroke-width="2" d="M350.5,-622C350.5,-622 302.5,-622 302.5,-622 296.5,-622 290.5,-616 290.5,-610 290.5,-610 290.5,-598 290.5,-598 290.5,-592 296.5,-586 302.5,-586 302.5,-586 350.5,-586 350.5,-586 356.5,-586 362.5,-592 362.5,-598 362.5,-598 362.5,-610 362.5,-610 362.5,-616 356.5,-622 350.5,-622"/>
<text text-anchor="middle" x="326.5" y="-607" font-family="sans" font-size="10.00">fastqc_trim</text>
<text text-anchor="middle" x="326.5" y="-596" font-family="sans" font-size="10.00">read: 1P</text>
</g>
<!-- 13&#45;&gt;2 -->
<g id="edge13" class="edge">
<title>13&#45;&gt;2</title>
<path fill="none" stroke="grey" stroke-width="2" d="M326.5,-585.7C326.5,-577.98 326.5,-568.71 326.5,-560.11"/>
<polygon fill="grey" stroke="grey" stroke-width="2" points="330,-560.1 326.5,-550.1 323,-560.1 330,-560.1"/>
</g>
<!-- 14 -->
<g id="node15" class="node">
<title>14</title>
<path fill="none" stroke="#61d856" stroke-width="2" d="M440.5,-622C440.5,-622 392.5,-622 392.5,-622 386.5,-622 380.5,-616 380.5,-610 380.5,-610 380.5,-598 380.5,-598 380.5,-592 386.5,-586 392.5,-586 392.5,-586 440.5,-586 440.5,-586 446.5,-586 452.5,-592 452.5,-598 452.5,-598 452.5,-610 452.5,-610 452.5,-616 446.5,-622 440.5,-622"/>
<text text-anchor="middle" x="416.5" y="-607" font-family="sans" font-size="10.00">fastqc_trim</text>
<text text-anchor="middle" x="416.5" y="-596" font-family="sans" font-size="10.00">read: 2P</text>
</g>
<!-- 14&#45;&gt;2 -->
<g id="edge14" class="edge">
<title>14&#45;&gt;2</title>
<path fill="none" stroke="grey" stroke-width="2" d="M394.25,-585.7C382.92,-576.88 368.97,-566.03 356.68,-556.47"/>
<polygon fill="grey" stroke="grey" stroke-width="2" points="358.53,-553.48 348.49,-550.1 354.24,-559.01 358.53,-553.48"/>
</g>
<!-- 15 -->
<g id="node16" class="node">
<title>15</title>
<path fill="none" stroke="#d85656" stroke-width="2" d="M517.5,-406C517.5,-406 465.5,-406 465.5,-406 459.5,-406 453.5,-400 453.5,-394 453.5,-394 453.5,-382 453.5,-382 453.5,-376 459.5,-370 465.5,-370 465.5,-370 517.5,-370 517.5,-370 523.5,-370 529.5,-376 529.5,-382 529.5,-382 529.5,-394 529.5,-394 529.5,-400 523.5,-406 517.5,-406"/>
<text text-anchor="middle" x="491.5" y="-391" font-family="sans" font-size="10.00">soapdenovo</text>
<text text-anchor="middle" x="491.5" y="-380" font-family="sans" font-size="10.00">kmer: lower</text>
</g>
<!-- 15&#45;&gt;3 -->
<g id="edge15" class="edge">
<title>15&#45;&gt;3</title>
<path fill="none" stroke="grey" stroke-width="2" d="M522.08,-369.88C538.57,-360.64 559.12,-349.13 576.84,-339.21"/>
<polygon fill="grey" stroke="grey" stroke-width="2" points="578.79,-342.13 585.8,-334.19 575.37,-336.02 578.79,-342.13"/>
</g>
<!-- 16 -->
<g id="node17" class="node">
<title>16</title>
<path fill="none" stroke="#d85656" stroke-width="2" d="M319.5,-406C319.5,-406 267.5,-406 267.5,-406 261.5,-406 255.5,-400 255.5,-394 255.5,-394 255.5,-382 255.5,-382 255.5,-376 261.5,-370 267.5,-370 267.5,-370 319.5,-370 319.5,-370 325.5,-370 331.5,-376 331.5,-382 331.5,-382 331.5,-394 331.5,-394 331.5,-400 325.5,-406 319.5,-406"/>
<text text-anchor="middle" x="293.5" y="-391" font-family="sans" font-size="10.00">soapdenovo</text>
<text text-anchor="middle" x="293.5" y="-380" font-family="sans" font-size="10.00">kmer: upper</text>
</g>
<!-- 16&#45;&gt;3 -->
<g id="edge16" class="edge">
<title>16&#45;&gt;3</title>
<path fill="none" stroke="grey" stroke-width="2" d="M331.56,-372.67C334.57,-371.71 337.57,-370.81 340.5,-370 406.27,-351.91 482.51,-337.77 538.18,-328.67"/>
<polygon fill="grey" stroke="grey" stroke-width="2" points="539.01,-332.08 548.33,-327.02 537.9,-325.17 539.01,-332.08"/>
</g>
<!-- 17 -->
<g id="node18" class="node">
<title>17</title>
<path fill="none" stroke="#d85656" stroke-width="2" d="M423.5,-406C423.5,-406 361.5,-406 361.5,-406 355.5,-406 349.5,-400 349.5,-394 349.5,-394 349.5,-382 349.5,-382 349.5,-376 355.5,-370 361.5,-370 361.5,-370 423.5,-370 423.5,-370 429.5,-370 435.5,-376 435.5,-382 435.5,-382 435.5,-394 435.5,-394 435.5,-400 429.5,-406 423.5,-406"/>
<text text-anchor="middle" x="392.5" y="-391" font-family="sans" font-size="10.00">soapdenovo</text>
<text text-anchor="middle" x="392.5" y="-380" font-family="sans" font-size="10.00">kmer: optimal</text>
</g>
<!-- 17&#45;&gt;3 -->
<g id="edge17" class="edge">
<title>17&#45;&gt;3</title>
<path fill="none" stroke="grey" stroke-width="2" d="M435.61,-372.84C438.62,-371.88 441.6,-370.92 444.5,-370 479.45,-358.9 518.5,-346.84 550.55,-337.03"/>
<polygon fill="grey" stroke="grey" stroke-width="2" points="551.72,-340.34 560.26,-334.06 549.68,-333.64 551.72,-340.34"/>
</g>
<!-- 18 -->
<g id="node19" class="node">
<title>18</title>
<path fill="none" stroke="#56d0d8" stroke-width="2" d="M611,-406C611,-406 560,-406 560,-406 554,-406 548,-400 548,-394 548,-394 548,-382 548,-382 548,-376 554,-370 560,-370 560,-370 611,-370 611,-370 617,-370 623,-376 623,-382 623,-382 623,-394 623,-394 623,-400 617,-406 611,-406"/>
<text text-anchor="middle" x="585.5" y="-391" font-family="sans" font-size="10.00">ABySS</text>
<text text-anchor="middle" x="585.5" y="-380" font-family="sans" font-size="10.00">kmer: lower</text>
</g>
<!-- 18&#45;&gt;3 -->
<g id="edge18" class="edge">
<title>18&#45;&gt;3</title>
<path fill="none" stroke="grey" stroke-width="2" d="M593.16,-369.7C596.69,-361.73 600.96,-352.1 604.87,-343.26"/>
<polygon fill="grey" stroke="grey" stroke-width="2" points="608.08,-344.67 608.93,-334.1 601.68,-341.83 608.08,-344.67"/>
</g>
<!-- 19 -->
<g id="node20" class="node">
<title>19</title>
<path fill="none" stroke="#56d0d8" stroke-width="2" d="M705.5,-406C705.5,-406 653.5,-406 653.5,-406 647.5,-406 641.5,-400 641.5,-394 641.5,-394 641.5,-382 641.5,-382 641.5,-376 647.5,-370 653.5,-370 653.5,-370 705.5,-370 705.5,-370 711.5,-370 717.5,-376 717.5,-382 717.5,-382 717.5,-394 717.5,-394 717.5,-400 711.5,-406 705.5,-406"/>
<text text-anchor="middle" x="679.5" y="-391" font-family="sans" font-size="10.00">ABySS</text>
<text text-anchor="middle" x="679.5" y="-380" font-family="sans" font-size="10.00">kmer: upper</text>
</g>
<!-- 19&#45;&gt;3 -->
<g id="edge19" class="edge">
<title>19&#45;&gt;3</title>
<path fill="none" stroke="grey" stroke-width="2" d="M663.93,-369.7C656.3,-361.22 646.98,-350.86 638.62,-341.58"/>
<polygon fill="grey" stroke="grey" stroke-width="2" points="641.19,-339.2 631.89,-334.1 635.98,-343.88 641.19,-339.2"/>
</g>
<!-- 20 -->
<g id="node21" class="node">
<title>20</title>
<path fill="none" stroke="#56d0d8" stroke-width="2" d="M809.5,-406C809.5,-406 747.5,-406 747.5,-406 741.5,-406 735.5,-400 735.5,-394 735.5,-394 735.5,-382 735.5,-382 735.5,-376 741.5,-370 747.5,-370 747.5,-370 809.5,-370 809.5,-370 815.5,-370 821.5,-376 821.5,-382 821.5,-382 821.5,-394 821.5,-394 821.5,-400 815.5,-406 809.5,-406"/>
<text text-anchor="middle" x="778.5" y="-391" font-family="sans" font-size="10.00">ABySS</text>
<text text-anchor="middle" x="778.5" y="-380" font-family="sans" font-size="10.00">kmer: optimal</text>
</g>
<!-- 20&#45;&gt;3 -->
<g id="edge20" class="edge">
<title>20&#45;&gt;3</title>
<path fill="none" stroke="grey" stroke-width="2" d="M738.87,-369.88C716.72,-360.31 688.94,-348.3 665.44,-338.15"/>
<polygon fill="grey" stroke="grey" stroke-width="2" points="666.57,-334.82 656,-334.07 663.79,-341.25 666.57,-334.82"/>
</g>
<!-- 21 -->
<g id="node22" class="node">
<title>21</title>
<path fill="none" stroke="#d8a456" stroke-width="2" d="M873,-478C873,-478 800,-478 800,-478 794,-478 788,-472 788,-466 788,-466 788,-454 788,-454 788,-448 794,-442 800,-442 800,-442 873,-442 873,-442 879,-442 885,-448 885,-454 885,-454 885,-466 885,-466 885,-472 879,-478 873,-478"/>
<text text-anchor="middle" x="836.5" y="-457.5" font-family="sans" font-size="10.00">renameDiscovar</text>
</g>
<!-- 21&#45;&gt;3 -->
<g id="edge21" class="edge">
<title>21&#45;&gt;3</title>
<path fill="none" stroke="grey" stroke-width="2" d="M840.79,-441.75C844.58,-422.04 847.21,-389.94 830.5,-370 812.91,-349.01 748.12,-334.93 694.4,-326.59"/>
<polygon fill="grey" stroke="grey" stroke-width="2" points="694.92,-323.13 684.51,-325.1 693.87,-330.05 694.92,-323.13"/>
</g>
<!-- 22 -->
<g id="node23" class="node">
<title>22</title>
<path fill="none" stroke="#568ad8" stroke-width="2" d="M607.5,-182.5C607.5,-182.5 577.5,-182.5 577.5,-182.5 571.5,-182.5 565.5,-176.5 565.5,-170.5 565.5,-170.5 565.5,-158.5 565.5,-158.5 565.5,-152.5 571.5,-146.5 577.5,-146.5 577.5,-146.5 607.5,-146.5 607.5,-146.5 613.5,-146.5 619.5,-152.5 619.5,-158.5 619.5,-158.5 619.5,-170.5 619.5,-170.5 619.5,-176.5 613.5,-182.5 607.5,-182.5"/>
<text text-anchor="middle" x="592.5" y="-162" font-family="sans" font-size="10.00">RagTag</text>
</g>
<!-- 22&#45;&gt;4 -->
<g id="edge22" class="edge">
<title>22&#45;&gt;4</title>
<path fill="none" stroke="grey" stroke-width="2" d="M565.25,-148.3C546.96,-138.1 522.57,-124.5 502.14,-113.11"/>
<polygon fill="grey" stroke="grey" stroke-width="2" points="503.8,-110.03 493.36,-108.21 500.39,-116.14 503.8,-110.03"/>
</g>
<!-- 22&#45;&gt;8 -->
<g id="edge28" class="edge">
<title>22&#45;&gt;8</title>
<path fill="none" stroke="grey" stroke-width="2" d="M592.5,-146.32C592.5,-137.92 592.5,-127.62 592.5,-118.19"/>
<polygon fill="grey" stroke="grey" stroke-width="2" points="596,-118.06 592.5,-108.06 589,-118.06 596,-118.06"/>
</g>
<!-- 23 -->
<g id="node24" class="node">
<title>23</title>
<path fill="none" stroke="#568ad8" stroke-width="2" d="M863.5,-182.5C863.5,-182.5 833.5,-182.5 833.5,-182.5 827.5,-182.5 821.5,-176.5 821.5,-170.5 821.5,-170.5 821.5,-158.5 821.5,-158.5 821.5,-152.5 827.5,-146.5 833.5,-146.5 833.5,-146.5 863.5,-146.5 863.5,-146.5 869.5,-146.5 875.5,-152.5 875.5,-158.5 875.5,-158.5 875.5,-170.5 875.5,-170.5 875.5,-176.5 869.5,-182.5 863.5,-182.5"/>
<text text-anchor="middle" x="848.5" y="-162" font-family="sans" font-size="10.00">RagTag</text>
</g>
<!-- 23&#45;&gt;4 -->
<g id="edge23" class="edge">
<title>23&#45;&gt;4</title>
<path fill="none" stroke="grey" stroke-width="2" d="M821.28,-160.47C765.41,-153.93 633.69,-136.91 514.66,-108.08"/>
<polygon fill="grey" stroke="grey" stroke-width="2" points="515.2,-104.61 504.65,-105.62 513.53,-111.4 515.2,-104.61"/>
</g>
<!-- 23&#45;&gt;9 -->
<g id="edge29" class="edge">
<title>23&#45;&gt;9</title>
<path fill="none" stroke="grey" stroke-width="2" d="M851.34,-146.32C852.73,-137.92 854.44,-127.62 856,-118.19"/>
<polygon fill="grey" stroke="grey" stroke-width="2" points="859.5,-118.5 857.68,-108.06 852.59,-117.35 859.5,-118.5"/>
</g>
<!-- 24 -->
<g id="node25" class="node">
<title>24</title>
<path fill="none" stroke="#568ad8" stroke-width="2" d="M409.5,-182.5C409.5,-182.5 379.5,-182.5 379.5,-182.5 373.5,-182.5 367.5,-176.5 367.5,-170.5 367.5,-170.5 367.5,-158.5 367.5,-158.5 367.5,-152.5 373.5,-146.5 379.5,-146.5 379.5,-146.5 409.5,-146.5 409.5,-146.5 415.5,-146.5 421.5,-152.5 421.5,-158.5 421.5,-158.5 421.5,-170.5 421.5,-170.5 421.5,-176.5 415.5,-182.5 409.5,-182.5"/>
<text text-anchor="middle" x="394.5" y="-162" font-family="sans" font-size="10.00">RagTag</text>
</g>
<!-- 24&#45;&gt;4 -->
<g id="edge24" class="edge">
<title>24&#45;&gt;4</title>
<path fill="none" stroke="grey" stroke-width="2" d="M410.62,-146.32C419.25,-137.11 430.04,-125.6 439.54,-115.47"/>
<polygon fill="grey" stroke="grey" stroke-width="2" points="442.21,-117.75 446.5,-108.06 437.11,-112.96 442.21,-117.75"/>
</g>
<!-- 24&#45;&gt;10 -->
<g id="edge30" class="edge">
<title>24&#45;&gt;10</title>
<path fill="none" stroke="grey" stroke-width="2" d="M379.81,-146.32C372.01,-137.2 362.29,-125.83 353.69,-115.77"/>
<polygon fill="grey" stroke="grey" stroke-width="2" points="356.25,-113.38 347.09,-108.06 350.93,-117.93 356.25,-113.38"/>
</g>
<!-- 25&#45;&gt;5 -->
<g id="edge25" class="edge">
<title>25&#45;&gt;5</title>
<path fill="none" stroke="grey" stroke-width="2" d="M630.88,-220.96C650.6,-194.16 686.05,-145.97 707.81,-116.4"/>
<polygon fill="grey" stroke="grey" stroke-width="2" points="710.71,-118.36 713.82,-108.23 705.08,-114.21 710.71,-118.36"/>
</g>
<!-- 25&#45;&gt;22 -->
<g id="edge46" class="edge">
<title>25&#45;&gt;22</title>
<path fill="none" stroke="grey" stroke-width="2" d="M610.19,-220.79C607.42,-212.13 604.12,-201.8 601.12,-192.44"/>
<polygon fill="grey" stroke="grey" stroke-width="2" points="604.41,-191.23 598.03,-182.78 597.74,-193.37 604.41,-191.23"/>
</g>
<!-- 26&#45;&gt;6 -->
<g id="edge26" class="edge">
<title>26&#45;&gt;6</title>
<path fill="none" stroke="grey" stroke-width="2" d="M867.59,-220.96C893.98,-193.93 941.62,-145.14 970.43,-115.65"/>
<polygon fill="grey" stroke="grey" stroke-width="2" points="973.19,-117.83 977.67,-108.23 968.18,-112.94 973.19,-117.83"/>
</g>
<!-- 26&#45;&gt;23 -->
<g id="edge47" class="edge">
<title>26&#45;&gt;23</title>
<path fill="none" stroke="grey" stroke-width="2" d="M848.5,-220.79C848.5,-212.31 848.5,-202.24 848.5,-193.04"/>
<polygon fill="grey" stroke="grey" stroke-width="2" points="852,-192.78 848.5,-182.78 845,-192.78 852,-192.78"/>
</g>
<!-- 27&#45;&gt;7 -->
<g id="edge27" class="edge">
<title>27&#45;&gt;7</title>
<path fill="none" stroke="grey" stroke-width="2" d="M369.27,-220.99C356.53,-211.14 340.99,-199.12 327.63,-188.79"/>
<polygon fill="grey" stroke="grey" stroke-width="2" points="329.69,-185.96 319.64,-182.61 325.41,-191.5 329.69,-185.96"/>
</g>
<!-- 27&#45;&gt;24 -->
<g id="edge48" class="edge">
<title>27&#45;&gt;24</title>
<path fill="none" stroke="grey" stroke-width="2" d="M394.5,-220.79C394.5,-212.31 394.5,-202.24 394.5,-193.04"/>
<polygon fill="grey" stroke="grey" stroke-width="2" points="398,-192.78 394.5,-182.78 391,-192.78 398,-192.78"/>
</g>
<!-- 28 -->
<g id="node29" class="node">
<title>28</title>
<path fill="none" stroke="#d8d356" stroke-width="2" d="M623.5,-694C623.5,-694 567.5,-694 567.5,-694 561.5,-694 555.5,-688 555.5,-682 555.5,-682 555.5,-670 555.5,-670 555.5,-664 561.5,-658 567.5,-658 567.5,-658 623.5,-658 623.5,-658 629.5,-658 635.5,-664 635.5,-670 635.5,-670 635.5,-682 635.5,-682 635.5,-688 629.5,-694 623.5,-694"/>
<text text-anchor="middle" x="595.5" y="-679" font-family="sans" font-size="10.00">trimmomatic</text>
<text text-anchor="middle" x="595.5" y="-668" font-family="sans" font-size="10.00">id: TESTFILE</text>
</g>
<!-- 28&#45;&gt;13 -->
<g id="edge31" class="edge">
<title>28&#45;&gt;13</title>
<path fill="none" stroke="grey" stroke-width="2" d="M555.43,-667.15C512.32,-658.34 441.65,-642.87 372.46,-622.1"/>
<polygon fill="grey" stroke="grey" stroke-width="2" points="373.3,-618.7 362.71,-619.14 371.26,-625.4 373.3,-618.7"/>
</g>
<!-- 28&#45;&gt;14 -->
<g id="edge32" class="edge">
<title>28&#45;&gt;14</title>
<path fill="none" stroke="grey" stroke-width="2" d="M555.33,-659.29C527.64,-648.46 490.79,-634.05 462.01,-622.8"/>
<polygon fill="grey" stroke="grey" stroke-width="2" points="463.18,-619.5 452.59,-619.11 460.63,-626.01 463.18,-619.5"/>
</g>
<!-- 28&#45;&gt;18 -->
<g id="edge40" class="edge">
<title>28&#45;&gt;18</title>
<path fill="none" stroke="grey" stroke-width="2" d="M603.81,-657.79C608.24,-647.63 613.24,-634.38 615.5,-622 629.86,-543.3 635.88,-519.36 615.5,-442 613.01,-432.54 608.4,-422.99 603.53,-414.66"/>
<polygon fill="grey" stroke="grey" stroke-width="2" points="606.49,-412.79 598.23,-406.15 600.55,-416.49 606.49,-412.79"/>
</g>
<!-- 28&#45;&gt;19 -->
<g id="edge42" class="edge">
<title>28&#45;&gt;19</title>
<path fill="none" stroke="grey" stroke-width="2" d="M610.94,-657.53C618.83,-647.72 627.92,-634.88 633.5,-622 663.91,-551.74 674.41,-460.81 677.88,-416.17"/>
<polygon fill="grey" stroke="grey" stroke-width="2" points="681.38,-416.34 678.6,-406.11 674.39,-415.83 681.38,-416.34"/>
</g>
<!-- 28&#45;&gt;20 -->
<g id="edge44" class="edge">
<title>28&#45;&gt;20</title>
<path fill="none" stroke="grey" stroke-width="2" d="M617.99,-657.98C629.81,-648.3 643.98,-635.45 654.5,-622 707.4,-554.4 749.28,-460.97 767.94,-415.71"/>
<polygon fill="grey" stroke="grey" stroke-width="2" points="771.24,-416.88 771.77,-406.3 764.76,-414.24 771.24,-416.88"/>
</g>
<!-- 30 -->
<g id="node31" class="node">
<title>30</title>
<path fill="none" stroke="#56d8c9" stroke-width="2" d="M419.5,-478C419.5,-478 369.5,-478 369.5,-478 363.5,-478 357.5,-472 357.5,-466 357.5,-466 357.5,-454 357.5,-454 357.5,-448 363.5,-442 369.5,-442 369.5,-442 419.5,-442 419.5,-442 425.5,-442 431.5,-448 431.5,-454 431.5,-454 431.5,-466 431.5,-466 431.5,-472 425.5,-478 419.5,-478"/>
<text text-anchor="middle" x="394.5" y="-457.5" font-family="sans" font-size="10.00">soap_config</text>
</g>
<!-- 28&#45;&gt;30 -->
<g id="edge53" class="edge">
<title>28&#45;&gt;30</title>
<path fill="none" stroke="grey" stroke-width="2" d="M555.29,-658.27C536.91,-649.32 515.68,-637.03 499.5,-622 456.89,-582.41 423.63,-522.1 406.74,-487.63"/>
<polygon fill="grey" stroke="grey" stroke-width="2" points="409.71,-485.73 402.22,-478.23 403.4,-488.76 409.71,-485.73"/>
</g>
<!-- 33 -->
<g id="node34" class="node">
<title>33</title>
<path fill="none" stroke="#56b9d8" stroke-width="2" d="M839,-622C839,-622 782,-622 782,-622 776,-622 770,-616 770,-610 770,-610 770,-598 770,-598 770,-592 776,-586 782,-586 782,-586 839,-586 839,-586 845,-586 851,-592 851,-598 851,-598 851,-610 851,-610 851,-616 845,-622 839,-622"/>
<text text-anchor="middle" x="810.5" y="-601.5" font-family="sans" font-size="10.00">DiscoVarPrep</text>
</g>
<!-- 28&#45;&gt;33 -->
<g id="edge56" class="edge">
<title>28&#45;&gt;33</title>
<path fill="none" stroke="grey" stroke-width="2" d="M635.69,-661.92C670.83,-650.47 722.04,-633.8 759.95,-621.46"/>
<polygon fill="grey" stroke="grey" stroke-width="2" points="761.35,-624.68 769.78,-618.26 759.19,-618.03 761.35,-624.68"/>
</g>
<!-- 34 -->
<g id="node35" class="node">
<title>34</title>
<path fill="none" stroke="#d8bc56" stroke-width="2" d="M594.5,-622C594.5,-622 520.5,-622 520.5,-622 514.5,-622 508.5,-616 508.5,-610 508.5,-610 508.5,-598 508.5,-598 508.5,-592 514.5,-586 520.5,-586 520.5,-586 594.5,-586 594.5,-586 600.5,-586 606.5,-592 606.5,-598 606.5,-598 606.5,-610 606.5,-610 606.5,-616 600.5,-622 594.5,-622"/>
<text text-anchor="middle" x="557.5" y="-601.5" font-family="sans" font-size="10.00">KmerGenie_prep</text>
</g>
<!-- 28&#45;&gt;34 -->
<g id="edge57" class="edge">
<title>28&#45;&gt;34</title>
<path fill="none" stroke="grey" stroke-width="2" d="M586.11,-657.7C581.74,-649.64 576.44,-639.89 571.6,-630.98"/>
<polygon fill="grey" stroke="grey" stroke-width="2" points="574.63,-629.22 566.79,-622.1 568.48,-632.56 574.63,-629.22"/>
</g>
<!-- 29 -->
<g id="node30" class="node">
<title>29</title>
<path fill="none" stroke="#d88556" stroke-width="2" d="M594.5,-478C594.5,-478 470.5,-478 470.5,-478 464.5,-478 458.5,-472 458.5,-466 458.5,-466 458.5,-454 458.5,-454 458.5,-448 464.5,-442 470.5,-442 470.5,-442 594.5,-442 594.5,-442 600.5,-442 606.5,-448 606.5,-454 606.5,-454 606.5,-466 606.5,-466 606.5,-472 600.5,-478 594.5,-478"/>
<text text-anchor="middle" x="532.5" y="-457.5" font-family="sans" font-size="10.00">KmerInputLowerUpperBest</text>
</g>
<!-- 29&#45;&gt;15 -->
<g id="edge33" class="edge">
<title>29&#45;&gt;15</title>
<path fill="none" stroke="grey" stroke-width="2" d="M522.37,-441.7C517.65,-433.64 511.94,-423.89 506.72,-414.98"/>
<polygon fill="grey" stroke="grey" stroke-width="2" points="509.59,-412.96 501.52,-406.1 503.55,-416.5 509.59,-412.96"/>
</g>
<!-- 29&#45;&gt;16 -->
<g id="edge35" class="edge">
<title>29&#45;&gt;16</title>
<path fill="none" stroke="grey" stroke-width="2" d="M465.93,-441.99C431.2,-432.79 387.86,-420.83 341.3,-406.15"/>
<polygon fill="grey" stroke="grey" stroke-width="2" points="342.23,-402.77 331.63,-403.07 340.1,-409.44 342.23,-402.77"/>
</g>
<!-- 29&#45;&gt;17 -->
<g id="edge37" class="edge">
<title>29&#45;&gt;17</title>
<path fill="none" stroke="grey" stroke-width="2" d="M498.25,-441.88C479.44,-432.47 455.92,-420.71 435.83,-410.67"/>
<polygon fill="grey" stroke="grey" stroke-width="2" points="437.39,-407.53 426.88,-406.19 434.26,-413.79 437.39,-407.53"/>
</g>
<!-- 29&#45;&gt;18 -->
<g id="edge39" class="edge">
<title>29&#45;&gt;18</title>
<path fill="none" stroke="grey" stroke-width="2" d="M545.6,-441.7C551.89,-433.39 559.55,-423.28 566.46,-414.14"/>
<polygon fill="grey" stroke="grey" stroke-width="2" points="569.3,-416.19 572.55,-406.1 563.72,-411.96 569.3,-416.19"/>
</g>
<!-- 29&#45;&gt;19 -->
<g id="edge41" class="edge">
<title>29&#45;&gt;19</title>
<path fill="none" stroke="grey" stroke-width="2" d="M568.46,-441.88C588.38,-432.39 613.32,-420.51 634.52,-410.42"/>
<polygon fill="grey" stroke="grey" stroke-width="2" points="636.13,-413.53 643.66,-406.07 633.12,-407.21 636.13,-413.53"/>
</g>
<!-- 29&#45;&gt;20 -->
<g id="edge43" class="edge">
<title>29&#45;&gt;20</title>
<path fill="none" stroke="grey" stroke-width="2" d="M598.28,-441.89C633.6,-432.51 678.06,-420.37 725.83,-406.14"/>
<polygon fill="grey" stroke="grey" stroke-width="2" points="726.85,-409.49 735.42,-403.26 724.84,-402.78 726.85,-409.49"/>
</g>
<!-- 30&#45;&gt;15 -->
<g id="edge34" class="edge">
<title>30&#45;&gt;15</title>
<path fill="none" stroke="grey" stroke-width="2" d="M418.48,-441.7C430.81,-432.8 446.02,-421.82 459.35,-412.2"/>
<polygon fill="grey" stroke="grey" stroke-width="2" points="461.74,-414.79 467.8,-406.1 457.64,-409.12 461.74,-414.79"/>
</g>
<!-- 30&#45;&gt;16 -->
<g id="edge36" class="edge">
<title>30&#45;&gt;16</title>
<path fill="none" stroke="grey" stroke-width="2" d="M369.79,-441.88C356.83,-432.89 340.77,-421.76 326.73,-412.03"/>
<polygon fill="grey" stroke="grey" stroke-width="2" points="328.52,-409.01 318.3,-406.19 324.53,-414.76 328.52,-409.01"/>
</g>
<!-- 30&#45;&gt;17 -->
<g id="edge38" class="edge">
<title>30&#45;&gt;17</title>
<path fill="none" stroke="grey" stroke-width="2" d="M394.01,-441.7C393.79,-433.98 393.52,-424.71 393.27,-416.11"/>
<polygon fill="grey" stroke="grey" stroke-width="2" points="396.77,-416 392.99,-406.1 389.78,-416.2 396.77,-416"/>
</g>
<!-- 31 -->
<g id="node32" class="node">
<title>31</title>
<path fill="none" stroke="#56d87b" stroke-width="2" d="M858,-550C858,-550 785,-550 785,-550 779,-550 773,-544 773,-538 773,-538 773,-526 773,-526 773,-520 779,-514 785,-514 785,-514 858,-514 858,-514 864,-514 870,-520 870,-526 870,-526 870,-538 870,-538 870,-544 864,-550 858,-550"/>
<text text-anchor="middle" x="821.5" y="-529.5" font-family="sans" font-size="10.00">DiscovarDenovo</text>
</g>
<!-- 31&#45;&gt;21 -->
<g id="edge45" class="edge">
<title>31&#45;&gt;21</title>
<path fill="none" stroke="grey" stroke-width="2" d="M825.21,-513.7C826.86,-505.98 828.85,-496.71 830.69,-488.11"/>
<polygon fill="grey" stroke="grey" stroke-width="2" points="834.16,-488.62 832.83,-478.1 827.32,-487.15 834.16,-488.62"/>
</g>
<!-- 32 -->
<g id="node33" class="node">
<title>32</title>
<path fill="none" stroke="#97d856" stroke-width="2" d="M575,-550C575,-550 528,-550 528,-550 522,-550 516,-544 516,-538 516,-538 516,-526 516,-526 516,-520 522,-514 528,-514 528,-514 575,-514 575,-514 581,-514 587,-520 587,-526 587,-526 587,-538 587,-538 587,-544 581,-550 575,-550"/>
<text text-anchor="middle" x="551.5" y="-529.5" font-family="sans" font-size="10.00">KmerGenie</text>
</g>
<!-- 32&#45;&gt;29 -->
<g id="edge52" class="edge">
<title>32&#45;&gt;29</title>
<path fill="none" stroke="grey" stroke-width="2" d="M546.8,-513.7C544.69,-505.9 542.14,-496.51 539.78,-487.83"/>
<polygon fill="grey" stroke="grey" stroke-width="2" points="543.14,-486.84 537.14,-478.1 536.38,-488.67 543.14,-486.84"/>
</g>
<!-- 33&#45;&gt;31 -->
<g id="edge54" class="edge">
<title>33&#45;&gt;31</title>
<path fill="none" stroke="grey" stroke-width="2" d="M813.22,-585.7C814.43,-577.98 815.89,-568.71 817.24,-560.11"/>
<polygon fill="grey" stroke="grey" stroke-width="2" points="820.72,-560.53 818.81,-550.1 813.8,-559.44 820.72,-560.53"/>
</g>
<!-- 34&#45;&gt;32 -->
<g id="edge55" class="edge">
<title>34&#45;&gt;32</title>
<path fill="none" stroke="grey" stroke-width="2" d="M556.02,-585.7C555.36,-577.98 554.56,-568.71 553.82,-560.11"/>
<polygon fill="grey" stroke="grey" stroke-width="2" points="557.31,-559.77 552.97,-550.1 550.33,-560.37 557.31,-559.77"/>
</g>
</g>
</svg>
