<?xml version="1.0" encoding="UTF-8" standalone="no"?>
<!DOCTYPE svg PUBLIC "-//W3C//DTD SVG 1.1//EN"
 "http://www.w3.org/Graphics/SVG/1.1/DTD/svg11.dtd">
<!-- Generated by graphviz version 2.42.3 (20191010.1750)
 -->
<!-- Title: snakemake_dag Pages: 1 -->
<svg width="1138pt" height="990pt"
 viewBox="0.00 0.00 1137.74 990.00" xmlns="http://www.w3.org/2000/svg" xmlns:xlink="http://www.w3.org/1999/xlink">
<g id="graph0" class="graph" transform="scale(1 1) rotate(0) translate(4 986)">
<title>snakemake_dag</title>
<polygon fill="white" stroke="transparent" points="-4,4 -4,-986 1133.74,-986 1133.74,4 -4,4"/>
<!-- 0 -->
<g id="node1" class="node">
<title>0</title>
<path fill="none" stroke="#d8bc56" stroke-width="2" d="M545.5,-36C545.5,-36 515.5,-36 515.5,-36 509.5,-36 503.5,-30 503.5,-24 503.5,-24 503.5,-12 503.5,-12 503.5,-6 509.5,0 515.5,0 515.5,0 545.5,0 545.5,0 551.5,0 557.5,-6 557.5,-12 557.5,-12 557.5,-24 557.5,-24 557.5,-30 551.5,-36 545.5,-36"/>
<text text-anchor="middle" x="530.5" y="-15.5" font-family="sans" font-size="10.00">all</text>
</g>
<!-- 1 -->
<g id="node2" class="node">
<title>1</title>
<path fill="none" stroke="#567bd8" stroke-width="2" d="M156,-108C156,-108 103,-108 103,-108 97,-108 91,-102 91,-96 91,-96 91,-84 91,-84 91,-78 97,-72 103,-72 103,-72 156,-72 156,-72 162,-72 168,-78 168,-84 168,-84 168,-96 168,-96 168,-102 162,-108 156,-108"/>
<text text-anchor="middle" x="129.5" y="-87.5" font-family="sans" font-size="10.00">multiqc_raw</text>
</g>
<!-- 1&#45;&gt;0 -->
<g id="edge1" class="edge">
<title>1&#45;&gt;0</title>
<path fill="none" stroke="grey" stroke-width="2" d="M168.09,-75.84C172.91,-74.43 177.8,-73.11 182.5,-72 294.08,-45.78 428.96,-29.53 493.11,-22.72"/>
<polygon fill="grey" stroke="grey" stroke-width="2" points="493.56,-26.19 503.14,-21.67 492.83,-19.23 493.56,-26.19"/>
</g>
<!-- 2 -->
<g id="node3" class="node">
<title>2</title>
<path fill="none" stroke="#56d0d8" stroke-width="2" d="M520,-838C520,-838 465,-838 465,-838 459,-838 453,-832 453,-826 453,-826 453,-814 453,-814 453,-808 459,-802 465,-802 465,-802 520,-802 520,-802 526,-802 532,-808 532,-814 532,-814 532,-826 532,-826 532,-832 526,-838 520,-838"/>
<text text-anchor="middle" x="492.5" y="-817.5" font-family="sans" font-size="10.00">multiqc_trim</text>
</g>
<!-- 2&#45;&gt;0 -->
<g id="edge2" class="edge">
<title>2&#45;&gt;0</title>
<path fill="none" stroke="grey" stroke-width="2" d="M452.89,-817.76C372.23,-812.9 196.5,-789.43 196.5,-677 196.5,-677 196.5,-677 196.5,-163.5 196.5,-35.38 406.09,-19.56 493.21,-18.53"/>
<polygon fill="grey" stroke="grey" stroke-width="2" points="493.47,-22.03 503.45,-18.47 493.43,-15.03 493.47,-22.03"/>
</g>
<!-- 3 -->
<g id="node4" class="node">
<title>3</title>
<path fill="none" stroke="#56b9d8" stroke-width="2" d="M834.5,-550C834.5,-550 722.5,-550 722.5,-550 716.5,-550 710.5,-544 710.5,-538 710.5,-538 710.5,-526 710.5,-526 710.5,-520 716.5,-514 722.5,-514 722.5,-514 834.5,-514 834.5,-514 840.5,-514 846.5,-520 846.5,-526 846.5,-526 846.5,-538 846.5,-538 846.5,-544 840.5,-550 834.5,-550"/>
<text text-anchor="middle" x="778.5" y="-529.5" font-family="sans" font-size="10.00">quast_contigs_summary</text>
</g>
<!-- 3&#45;&gt;0 -->
<g id="edge3" class="edge">
<title>3&#45;&gt;0</title>
<path fill="none" stroke="grey" stroke-width="2" d="M846.63,-515.71C867.96,-507.76 889.75,-495.83 904.5,-478 931.73,-445.09 924.5,-426.71 924.5,-384 924.5,-384 924.5,-384 924.5,-163.5 924.5,-87.93 665.79,-39.95 567.65,-24.47"/>
<polygon fill="grey" stroke="grey" stroke-width="2" points="568,-20.98 557.58,-22.91 566.93,-27.9 568,-20.98"/>
</g>
<!-- 19 -->
<g id="node20" class="node">
<title>19</title>
<path fill="none" stroke="#8fd856" stroke-width="2" d="M665,-478C665,-478 488,-478 488,-478 482,-478 476,-472 476,-466 476,-466 476,-449 476,-449 476,-443 482,-437 488,-437 488,-437 665,-437 665,-437 671,-437 677,-443 677,-449 677,-449 677,-466 677,-466 677,-472 671,-478 665,-478"/>
<text text-anchor="middle" x="576.5" y="-466" font-family="sans" font-size="10.00">extract_best_N50_contigs_for_BUSCO</text>
<text text-anchor="middle" x="576.5" y="-455" font-family="sans" font-size="10.00">assembler: SOAP</text>
<text text-anchor="middle" x="576.5" y="-444" font-family="sans" font-size="10.00">id: TESTFILE</text>
</g>
<!-- 3&#45;&gt;19 -->
<g id="edge32" class="edge">
<title>3&#45;&gt;19</title>
<path fill="none" stroke="grey" stroke-width="2" d="M730.88,-513.91C703.95,-504.24 669.91,-492.03 640.65,-481.53"/>
<polygon fill="grey" stroke="grey" stroke-width="2" points="641.53,-478.12 630.93,-478.04 639.16,-484.71 641.53,-478.12"/>
</g>
<!-- 20 -->
<g id="node21" class="node">
<title>20</title>
<path fill="none" stroke="#8fd856" stroke-width="2" d="M884,-478C884,-478 707,-478 707,-478 701,-478 695,-472 695,-466 695,-466 695,-449 695,-449 695,-443 701,-437 707,-437 707,-437 884,-437 884,-437 890,-437 896,-443 896,-449 896,-449 896,-466 896,-466 896,-472 890,-478 884,-478"/>
<text text-anchor="middle" x="795.5" y="-466" font-family="sans" font-size="10.00">extract_best_N50_contigs_for_BUSCO</text>
<text text-anchor="middle" x="795.5" y="-455" font-family="sans" font-size="10.00">assembler: ABYSS</text>
<text text-anchor="middle" x="795.5" y="-444" font-family="sans" font-size="10.00">id: TESTFILE</text>
</g>
<!-- 3&#45;&gt;20 -->
<g id="edge33" class="edge">
<title>3&#45;&gt;20</title>
<path fill="none" stroke="grey" stroke-width="2" d="M782.53,-513.82C784.34,-506.11 786.52,-496.8 788.57,-488.03"/>
<polygon fill="grey" stroke="grey" stroke-width="2" points="792.02,-488.65 790.9,-478.12 785.21,-487.06 792.02,-488.65"/>
</g>
<!-- 21 -->
<g id="node22" class="node">
<title>21</title>
<path fill="none" stroke="#8fd856" stroke-width="2" d="M434,-478C434,-478 257,-478 257,-478 251,-478 245,-472 245,-466 245,-466 245,-449 245,-449 245,-443 251,-437 257,-437 257,-437 434,-437 434,-437 440,-437 446,-443 446,-449 446,-449 446,-466 446,-466 446,-472 440,-478 434,-478"/>
<text text-anchor="middle" x="345.5" y="-466" font-family="sans" font-size="10.00">extract_best_N50_contigs_for_BUSCO</text>
<text text-anchor="middle" x="345.5" y="-455" font-family="sans" font-size="10.00">assembler: DISCOVAR</text>
<text text-anchor="middle" x="345.5" y="-444" font-family="sans" font-size="10.00">id: TESTFILE</text>
</g>
<!-- 3&#45;&gt;21 -->
<g id="edge34" class="edge">
<title>3&#45;&gt;21</title>
<path fill="none" stroke="grey" stroke-width="2" d="M710.37,-519.59C642.31,-508.2 536.55,-490.49 456.39,-477.07"/>
<polygon fill="grey" stroke="grey" stroke-width="2" points="456.69,-473.57 446.24,-475.37 455.53,-480.47 456.69,-473.57"/>
</g>
<!-- 4 -->
<g id="node5" class="node">
<title>4</title>
<path fill="none" stroke="#d85656" stroke-width="2" d="M719.5,-257C719.5,-257 651.5,-257 651.5,-257 645.5,-257 639.5,-251 639.5,-245 639.5,-245 639.5,-233 639.5,-233 639.5,-227 645.5,-221 651.5,-221 651.5,-221 719.5,-221 719.5,-221 725.5,-221 731.5,-227 731.5,-233 731.5,-233 731.5,-245 731.5,-245 731.5,-251 725.5,-257 719.5,-257"/>
<text text-anchor="middle" x="685.5" y="-236.5" font-family="sans" font-size="10.00">BUSCO_contigs</text>
</g>
<!-- 4&#45;&gt;0 -->
<g id="edge4" class="edge">
<title>4&#45;&gt;0</title>
<path fill="none" stroke="grey" stroke-width="2" d="M673.34,-220.82C646.17,-182.44 580.46,-89.58 548.52,-44.46"/>
<polygon fill="grey" stroke="grey" stroke-width="2" points="551.24,-42.25 542.61,-36.1 545.53,-46.29 551.24,-42.25"/>
</g>
<!-- 5 -->
<g id="node6" class="node">
<title>5</title>
<path fill="none" stroke="#d85656" stroke-width="2" d="M866.5,-257C866.5,-257 798.5,-257 798.5,-257 792.5,-257 786.5,-251 786.5,-245 786.5,-245 786.5,-233 786.5,-233 786.5,-227 792.5,-221 798.5,-221 798.5,-221 866.5,-221 866.5,-221 872.5,-221 878.5,-227 878.5,-233 878.5,-233 878.5,-245 878.5,-245 878.5,-251 872.5,-257 866.5,-257"/>
<text text-anchor="middle" x="832.5" y="-236.5" font-family="sans" font-size="10.00">BUSCO_contigs</text>
</g>
<!-- 5&#45;&gt;0 -->
<g id="edge5" class="edge">
<title>5&#45;&gt;0</title>
<path fill="none" stroke="grey" stroke-width="2" d="M808.8,-220.82C754.88,-181.72 623.01,-86.08 562.18,-41.98"/>
<polygon fill="grey" stroke="grey" stroke-width="2" points="564.24,-39.14 554.09,-36.1 560.13,-44.81 564.24,-39.14"/>
</g>
<!-- 6 -->
<g id="node7" class="node">
<title>6</title>
<path fill="none" stroke="#d85656" stroke-width="2" d="M408.5,-108C408.5,-108 340.5,-108 340.5,-108 334.5,-108 328.5,-102 328.5,-96 328.5,-96 328.5,-84 328.5,-84 328.5,-78 334.5,-72 340.5,-72 340.5,-72 408.5,-72 408.5,-72 414.5,-72 420.5,-78 420.5,-84 420.5,-84 420.5,-96 420.5,-96 420.5,-102 414.5,-108 408.5,-108"/>
<text text-anchor="middle" x="374.5" y="-87.5" font-family="sans" font-size="10.00">BUSCO_contigs</text>
</g>
<!-- 6&#45;&gt;0 -->
<g id="edge6" class="edge">
<title>6&#45;&gt;0</title>
<path fill="none" stroke="grey" stroke-width="2" d="M412.66,-71.88C437.51,-60.73 469.72,-46.27 494.19,-35.29"/>
<polygon fill="grey" stroke="grey" stroke-width="2" points="495.8,-38.41 503.49,-31.12 492.93,-32.02 495.8,-38.41"/>
</g>
<!-- 7 -->
<g id="node8" class="node">
<title>7</title>
<path fill="none" stroke="#80d856" stroke-width="2" d="M546.5,-108C546.5,-108 514.5,-108 514.5,-108 508.5,-108 502.5,-102 502.5,-96 502.5,-96 502.5,-84 502.5,-84 502.5,-78 508.5,-72 514.5,-72 514.5,-72 546.5,-72 546.5,-72 552.5,-72 558.5,-78 558.5,-84 558.5,-84 558.5,-96 558.5,-96 558.5,-102 552.5,-108 546.5,-108"/>
<text text-anchor="middle" x="530.5" y="-87.5" font-family="sans" font-size="10.00">cleanUp</text>
</g>
<!-- 7&#45;&gt;0 -->
<g id="edge7" class="edge">
<title>7&#45;&gt;0</title>
<path fill="none" stroke="grey" stroke-width="2" d="M530.5,-71.7C530.5,-63.98 530.5,-54.71 530.5,-46.11"/>
<polygon fill="grey" stroke="grey" stroke-width="2" points="534,-46.1 530.5,-36.1 527,-46.1 534,-46.1"/>
</g>
<!-- 8 -->
<g id="node9" class="node">
<title>8</title>
<path fill="none" stroke="#d87d56" stroke-width="2" d="M63,-185C63,-185 12,-185 12,-185 6,-185 0,-179 0,-173 0,-173 0,-156 0,-156 0,-150 6,-144 12,-144 12,-144 63,-144 63,-144 69,-144 75,-150 75,-156 75,-156 75,-173 75,-173 75,-179 69,-185 63,-185"/>
<text text-anchor="middle" x="37.5" y="-173" font-family="sans" font-size="10.00">fastqc_raw</text>
<text text-anchor="middle" x="37.5" y="-162" font-family="sans" font-size="10.00">id: TESTFILE</text>
<text text-anchor="middle" x="37.5" y="-151" font-family="sans" font-size="10.00">read: 1P</text>
</g>
<!-- 8&#45;&gt;1 -->
<g id="edge8" class="edge">
<title>8&#45;&gt;1</title>
<path fill="none" stroke="grey" stroke-width="2" d="M62.64,-143.69C74.14,-134.63 87.84,-123.83 99.84,-114.37"/>
<polygon fill="grey" stroke="grey" stroke-width="2" points="102.14,-117.02 107.83,-108.08 97.81,-111.52 102.14,-117.02"/>
</g>
<!-- 9 -->
<g id="node10" class="node">
<title>9</title>
<path fill="none" stroke="#d87d56" stroke-width="2" d="M156,-185C156,-185 105,-185 105,-185 99,-185 93,-179 93,-173 93,-173 93,-156 93,-156 93,-150 99,-144 105,-144 105,-144 156,-144 156,-144 162,-144 168,-150 168,-156 168,-156 168,-173 168,-173 168,-179 162,-185 156,-185"/>
<text text-anchor="middle" x="130.5" y="-173" font-family="sans" font-size="10.00">fastqc_raw</text>
<text text-anchor="middle" x="130.5" y="-162" font-family="sans" font-size="10.00">id: TESTFILE</text>
<text text-anchor="middle" x="130.5" y="-151" font-family="sans" font-size="10.00">read: 2P</text>
</g>
<!-- 9&#45;&gt;1 -->
<g id="edge9" class="edge">
<title>9&#45;&gt;1</title>
<path fill="none" stroke="grey" stroke-width="2" d="M130.23,-143.69C130.12,-135.91 129.99,-126.84 129.88,-118.45"/>
<polygon fill="grey" stroke="grey" stroke-width="2" points="133.38,-118.27 129.74,-108.32 126.38,-118.37 133.38,-118.27"/>
</g>
<!-- 10 -->
<g id="node11" class="node">
<title>10</title>
<path fill="none" stroke="#a7d856" stroke-width="2" d="M516.5,-910C516.5,-910 468.5,-910 468.5,-910 462.5,-910 456.5,-904 456.5,-898 456.5,-898 456.5,-886 456.5,-886 456.5,-880 462.5,-874 468.5,-874 468.5,-874 516.5,-874 516.5,-874 522.5,-874 528.5,-880 528.5,-886 528.5,-886 528.5,-898 528.5,-898 528.5,-904 522.5,-910 516.5,-910"/>
<text text-anchor="middle" x="492.5" y="-895" font-family="sans" font-size="10.00">fastqc_trim</text>
<text text-anchor="middle" x="492.5" y="-884" font-family="sans" font-size="10.00">read: 1P</text>
</g>
<!-- 10&#45;&gt;2 -->
<g id="edge10" class="edge">
<title>10&#45;&gt;2</title>
<path fill="none" stroke="grey" stroke-width="2" d="M492.5,-873.7C492.5,-865.98 492.5,-856.71 492.5,-848.11"/>
<polygon fill="grey" stroke="grey" stroke-width="2" points="496,-848.1 492.5,-838.1 489,-848.1 496,-848.1"/>
</g>
<!-- 11 -->
<g id="node12" class="node">
<title>11</title>
<path fill="none" stroke="#a7d856" stroke-width="2" d="M606.5,-910C606.5,-910 558.5,-910 558.5,-910 552.5,-910 546.5,-904 546.5,-898 546.5,-898 546.5,-886 546.5,-886 546.5,-880 552.5,-874 558.5,-874 558.5,-874 606.5,-874 606.5,-874 612.5,-874 618.5,-880 618.5,-886 618.5,-886 618.5,-898 618.5,-898 618.5,-904 612.5,-910 606.5,-910"/>
<text text-anchor="middle" x="582.5" y="-895" font-family="sans" font-size="10.00">fastqc_trim</text>
<text text-anchor="middle" x="582.5" y="-884" font-family="sans" font-size="10.00">read: 2P</text>
</g>
<!-- 11&#45;&gt;2 -->
<g id="edge11" class="edge">
<title>11&#45;&gt;2</title>
<path fill="none" stroke="grey" stroke-width="2" d="M560.25,-873.7C548.92,-864.88 534.97,-854.03 522.68,-844.47"/>
<polygon fill="grey" stroke="grey" stroke-width="2" points="524.53,-841.48 514.49,-838.1 520.24,-847.01 524.53,-841.48"/>
</g>
<!-- 12 -->
<g id="node13" class="node">
<title>12</title>
<path fill="none" stroke="#d8cb56" stroke-width="2" d="M360,-622C360,-622 237,-622 237,-622 231,-622 225,-616 225,-610 225,-610 225,-598 225,-598 225,-592 231,-586 237,-586 237,-586 360,-586 360,-586 366,-586 372,-592 372,-598 372,-598 372,-610 372,-610 372,-616 366,-622 360,-622"/>
<text text-anchor="middle" x="298.5" y="-601.5" font-family="sans" font-size="10.00">rename_copy_soapdenovo</text>
</g>
<!-- 12&#45;&gt;3 -->
<g id="edge12" class="edge">
<title>12&#45;&gt;3</title>
<path fill="none" stroke="grey" stroke-width="2" d="M372.21,-587.46C375.01,-586.95 377.78,-586.46 380.5,-586 491.05,-567.2 619.83,-551.1 700.27,-541.73"/>
<polygon fill="grey" stroke="grey" stroke-width="2" points="700.79,-545.19 710.32,-540.57 699.98,-538.24 700.79,-545.19"/>
</g>
<!-- 13 -->
<g id="node14" class="node">
<title>13</title>
<path fill="none" stroke="#d8cb56" stroke-width="2" d="M525,-622C525,-622 402,-622 402,-622 396,-622 390,-616 390,-610 390,-610 390,-598 390,-598 390,-592 396,-586 402,-586 402,-586 525,-586 525,-586 531,-586 537,-592 537,-598 537,-598 537,-610 537,-610 537,-616 531,-622 525,-622"/>
<text text-anchor="middle" x="463.5" y="-601.5" font-family="sans" font-size="10.00">rename_copy_soapdenovo</text>
</g>
<!-- 13&#45;&gt;3 -->
<g id="edge13" class="edge">
<title>13&#45;&gt;3</title>
<path fill="none" stroke="grey" stroke-width="2" d="M537.35,-586.59C586.45,-575.68 650.83,-561.37 700.71,-550.29"/>
<polygon fill="grey" stroke="grey" stroke-width="2" points="701.49,-553.7 710.49,-548.11 699.97,-546.87 701.49,-553.7"/>
</g>
<!-- 14 -->
<g id="node15" class="node">
<title>14</title>
<path fill="none" stroke="#d8cb56" stroke-width="2" d="M690,-622C690,-622 567,-622 567,-622 561,-622 555,-616 555,-610 555,-610 555,-598 555,-598 555,-592 561,-586 567,-586 567,-586 690,-586 690,-586 696,-586 702,-592 702,-598 702,-598 702,-610 702,-610 702,-616 696,-622 690,-622"/>
<text text-anchor="middle" x="628.5" y="-601.5" font-family="sans" font-size="10.00">rename_copy_soapdenovo</text>
</g>
<!-- 14&#45;&gt;3 -->
<g id="edge14" class="edge">
<title>14&#45;&gt;3</title>
<path fill="none" stroke="grey" stroke-width="2" d="M665.19,-585.88C685.52,-576.39 710.97,-564.51 732.6,-554.42"/>
<polygon fill="grey" stroke="grey" stroke-width="2" points="734.34,-557.47 741.93,-550.07 731.38,-551.13 734.34,-557.47"/>
</g>
<!-- 15 -->
<g id="node16" class="node">
<title>15</title>
<path fill="none" stroke="#56d8b9" stroke-width="2" d="M825,-622C825,-622 732,-622 732,-622 726,-622 720,-616 720,-610 720,-610 720,-598 720,-598 720,-592 726,-586 732,-586 732,-586 825,-586 825,-586 831,-586 837,-592 837,-598 837,-598 837,-610 837,-610 837,-616 831,-622 825,-622"/>
<text text-anchor="middle" x="778.5" y="-601.5" font-family="sans" font-size="10.00">rename_copy_Abyss</text>
</g>
<!-- 15&#45;&gt;3 -->
<g id="edge15" class="edge">
<title>15&#45;&gt;3</title>
<path fill="none" stroke="grey" stroke-width="2" d="M778.5,-585.7C778.5,-577.98 778.5,-568.71 778.5,-560.11"/>
<polygon fill="grey" stroke="grey" stroke-width="2" points="782,-560.1 778.5,-550.1 775,-560.1 782,-560.1"/>
</g>
<!-- 16 -->
<g id="node17" class="node">
<title>16</title>
<path fill="none" stroke="#56d8b9" stroke-width="2" d="M960,-622C960,-622 867,-622 867,-622 861,-622 855,-616 855,-610 855,-610 855,-598 855,-598 855,-592 861,-586 867,-586 867,-586 960,-586 960,-586 966,-586 972,-592 972,-598 972,-598 972,-610 972,-610 972,-616 966,-622 960,-622"/>
<text text-anchor="middle" x="913.5" y="-601.5" font-family="sans" font-size="10.00">rename_copy_Abyss</text>
</g>
<!-- 16&#45;&gt;3 -->
<g id="edge16" class="edge">
<title>16&#45;&gt;3</title>
<path fill="none" stroke="grey" stroke-width="2" d="M880.48,-585.88C862.42,-576.51 839.85,-564.81 820.55,-554.8"/>
<polygon fill="grey" stroke="grey" stroke-width="2" points="822.14,-551.69 811.65,-550.19 818.92,-557.9 822.14,-551.69"/>
</g>
<!-- 17 -->
<g id="node18" class="node">
<title>17</title>
<path fill="none" stroke="#56d8b9" stroke-width="2" d="M1095,-622C1095,-622 1002,-622 1002,-622 996,-622 990,-616 990,-610 990,-610 990,-598 990,-598 990,-592 996,-586 1002,-586 1002,-586 1095,-586 1095,-586 1101,-586 1107,-592 1107,-598 1107,-598 1107,-610 1107,-610 1107,-616 1101,-622 1095,-622"/>
<text text-anchor="middle" x="1048.5" y="-601.5" font-family="sans" font-size="10.00">rename_copy_Abyss</text>
</g>
<!-- 17&#45;&gt;3 -->
<g id="edge17" class="edge">
<title>17&#45;&gt;3</title>
<path fill="none" stroke="grey" stroke-width="2" d="M989.91,-587.81C950.06,-577.48 896.95,-563.71 853.93,-552.56"/>
<polygon fill="grey" stroke="grey" stroke-width="2" points="854.64,-549.12 844.08,-550 852.88,-555.9 854.64,-549.12"/>
</g>
<!-- 18 -->
<g id="node19" class="node">
<title>18</title>
<path fill="none" stroke="#59d856" stroke-width="2" d="M1115,-766C1115,-766 1008,-766 1008,-766 1002,-766 996,-760 996,-754 996,-754 996,-742 996,-742 996,-736 1002,-730 1008,-730 1008,-730 1115,-730 1115,-730 1121,-730 1127,-736 1127,-742 1127,-742 1127,-754 1127,-754 1127,-760 1121,-766 1115,-766"/>
<text text-anchor="middle" x="1061.5" y="-745.5" font-family="sans" font-size="10.00">rename_copy_Discovar</text>
</g>
<!-- 18&#45;&gt;3 -->
<g id="edge18" class="edge">
<title>18&#45;&gt;3</title>
<path fill="none" stroke="grey" stroke-width="2" d="M1077.01,-729.92C1103.99,-698.11 1153.36,-629.1 1116.5,-586 1083.74,-547.7 945.87,-536.89 856.65,-533.95"/>
<polygon fill="grey" stroke="grey" stroke-width="2" points="856.66,-530.45 846.56,-533.65 856.45,-537.45 856.66,-530.45"/>
</g>
<!-- 19&#45;&gt;4 -->
<g id="edge19" class="edge">
<title>19&#45;&gt;4</title>
<path fill="none" stroke="grey" stroke-width="2" d="M677.16,-437.42C721.94,-427.44 768.58,-414.5 786.5,-401 816.28,-378.58 819.59,-364.93 829.5,-329 833.76,-313.58 838.65,-306.12 829.5,-293 818.91,-277.82 777.4,-263.51 741.65,-253.59"/>
<polygon fill="grey" stroke="grey" stroke-width="2" points="742.32,-250.14 731.75,-250.91 740.49,-256.9 742.32,-250.14"/>
</g>
<!-- 39 -->
<g id="node40" class="node">
<title>39</title>
<path fill="none" stroke="#d89556" stroke-width="2" d="M591.5,-401C591.5,-401 561.5,-401 561.5,-401 555.5,-401 549.5,-395 549.5,-389 549.5,-389 549.5,-377 549.5,-377 549.5,-371 555.5,-365 561.5,-365 561.5,-365 591.5,-365 591.5,-365 597.5,-365 603.5,-371 603.5,-377 603.5,-377 603.5,-389 603.5,-389 603.5,-395 597.5,-401 591.5,-401"/>
<text text-anchor="middle" x="576.5" y="-380.5" font-family="sans" font-size="10.00">RagTag</text>
</g>
<!-- 19&#45;&gt;39 -->
<g id="edge62" class="edge">
<title>19&#45;&gt;39</title>
<path fill="none" stroke="grey" stroke-width="2" d="M576.5,-436.69C576.5,-428.91 576.5,-419.84 576.5,-411.45"/>
<polygon fill="grey" stroke="grey" stroke-width="2" points="580,-411.32 576.5,-401.32 573,-411.32 580,-411.32"/>
</g>
<!-- 20&#45;&gt;5 -->
<g id="edge20" class="edge">
<title>20&#45;&gt;5</title>
<path fill="none" stroke="grey" stroke-width="2" d="M830.18,-436.85C842.79,-427.72 855.62,-415.63 862.5,-401 882.92,-357.56 874.73,-339.42 862.5,-293 860.01,-283.54 855.4,-273.99 850.53,-265.66"/>
<polygon fill="grey" stroke="grey" stroke-width="2" points="853.49,-263.79 845.23,-257.15 847.55,-267.49 853.49,-263.79"/>
</g>
<!-- 40 -->
<g id="node41" class="node">
<title>40</title>
<path fill="none" stroke="#d89556" stroke-width="2" d="M765.5,-401C765.5,-401 735.5,-401 735.5,-401 729.5,-401 723.5,-395 723.5,-389 723.5,-389 723.5,-377 723.5,-377 723.5,-371 729.5,-365 735.5,-365 735.5,-365 765.5,-365 765.5,-365 771.5,-365 777.5,-371 777.5,-377 777.5,-377 777.5,-389 777.5,-389 777.5,-395 771.5,-401 765.5,-401"/>
<text text-anchor="middle" x="750.5" y="-380.5" font-family="sans" font-size="10.00">RagTag</text>
</g>
<!-- 20&#45;&gt;40 -->
<g id="edge63" class="edge">
<title>20&#45;&gt;40</title>
<path fill="none" stroke="grey" stroke-width="2" d="M783.2,-436.69C778.1,-428.47 772.12,-418.83 766.67,-410.05"/>
<polygon fill="grey" stroke="grey" stroke-width="2" points="769.5,-407.97 761.25,-401.32 763.55,-411.66 769.5,-407.97"/>
</g>
<!-- 21&#45;&gt;6 -->
<g id="edge21" class="edge">
<title>21&#45;&gt;6</title>
<path fill="none" stroke="grey" stroke-width="2" d="M316.63,-436.96C283.74,-412.12 234.5,-365.94 234.5,-312 234.5,-312 234.5,-312 234.5,-238 234.5,-181.2 289.99,-137.65 331.1,-113.19"/>
<polygon fill="grey" stroke="grey" stroke-width="2" points="332.98,-116.14 339.89,-108.11 329.48,-110.08 332.98,-116.14"/>
</g>
<!-- 41 -->
<g id="node42" class="node">
<title>41</title>
<path fill="none" stroke="#d89556" stroke-width="2" d="M360.5,-401C360.5,-401 330.5,-401 330.5,-401 324.5,-401 318.5,-395 318.5,-389 318.5,-389 318.5,-377 318.5,-377 318.5,-371 324.5,-365 330.5,-365 330.5,-365 360.5,-365 360.5,-365 366.5,-365 372.5,-371 372.5,-377 372.5,-377 372.5,-389 372.5,-389 372.5,-395 366.5,-401 360.5,-401"/>
<text text-anchor="middle" x="345.5" y="-380.5" font-family="sans" font-size="10.00">RagTag</text>
</g>
<!-- 21&#45;&gt;41 -->
<g id="edge64" class="edge">
<title>21&#45;&gt;41</title>
<path fill="none" stroke="grey" stroke-width="2" d="M345.5,-436.69C345.5,-428.91 345.5,-419.84 345.5,-411.45"/>
<polygon fill="grey" stroke="grey" stroke-width="2" points="349,-411.32 345.5,-401.32 342,-411.32 349,-411.32"/>
</g>
<!-- 22 -->
<g id="node23" class="node">
<title>22</title>
<path fill="none" stroke="#d86e56" stroke-width="2" d="M553,-182.5C553,-182.5 508,-182.5 508,-182.5 502,-182.5 496,-176.5 496,-170.5 496,-170.5 496,-158.5 496,-158.5 496,-152.5 502,-146.5 508,-146.5 508,-146.5 553,-146.5 553,-146.5 559,-146.5 565,-152.5 565,-158.5 565,-158.5 565,-170.5 565,-170.5 565,-176.5 559,-182.5 553,-182.5"/>
<text text-anchor="middle" x="530.5" y="-162" font-family="sans" font-size="10.00">finalReport</text>
</g>
<!-- 22&#45;&gt;7 -->
<g id="edge22" class="edge">
<title>22&#45;&gt;7</title>
<path fill="none" stroke="grey" stroke-width="2" d="M530.5,-146.32C530.5,-137.92 530.5,-127.62 530.5,-118.19"/>
<polygon fill="grey" stroke="grey" stroke-width="2" points="534,-118.06 530.5,-108.06 527,-118.06 534,-118.06"/>
</g>
<!-- 23 -->
<g id="node24" class="node">
<title>23</title>
<path fill="none" stroke="#56d87b" stroke-width="2" d="M789.5,-982C789.5,-982 733.5,-982 733.5,-982 727.5,-982 721.5,-976 721.5,-970 721.5,-970 721.5,-958 721.5,-958 721.5,-952 727.5,-946 733.5,-946 733.5,-946 789.5,-946 789.5,-946 795.5,-946 801.5,-952 801.5,-958 801.5,-958 801.5,-970 801.5,-970 801.5,-976 795.5,-982 789.5,-982"/>
<text text-anchor="middle" x="761.5" y="-967" font-family="sans" font-size="10.00">trimmomatic</text>
<text text-anchor="middle" x="761.5" y="-956" font-family="sans" font-size="10.00">id: TESTFILE</text>
</g>
<!-- 23&#45;&gt;10 -->
<g id="edge23" class="edge">
<title>23&#45;&gt;10</title>
<path fill="none" stroke="grey" stroke-width="2" d="M721.43,-955.15C678.32,-946.34 607.65,-930.87 538.46,-910.1"/>
<polygon fill="grey" stroke="grey" stroke-width="2" points="539.3,-906.7 528.71,-907.14 537.26,-913.4 539.3,-906.7"/>
</g>
<!-- 23&#45;&gt;11 -->
<g id="edge24" class="edge">
<title>23&#45;&gt;11</title>
<path fill="none" stroke="grey" stroke-width="2" d="M721.33,-947.29C693.64,-936.46 656.79,-922.05 628.01,-910.8"/>
<polygon fill="grey" stroke="grey" stroke-width="2" points="629.18,-907.5 618.59,-907.11 626.63,-914.01 629.18,-907.5"/>
</g>
<!-- 27 -->
<g id="node28" class="node">
<title>27</title>
<path fill="none" stroke="#56a9d8" stroke-width="2" d="M779,-694C779,-694 728,-694 728,-694 722,-694 716,-688 716,-682 716,-682 716,-670 716,-670 716,-664 722,-658 728,-658 728,-658 779,-658 779,-658 785,-658 791,-664 791,-670 791,-670 791,-682 791,-682 791,-688 785,-694 779,-694"/>
<text text-anchor="middle" x="753.5" y="-679" font-family="sans" font-size="10.00">ABySS</text>
<text text-anchor="middle" x="753.5" y="-668" font-family="sans" font-size="10.00">kmer: lower</text>
</g>
<!-- 23&#45;&gt;27 -->
<g id="edge44" class="edge">
<title>23&#45;&gt;27</title>
<path fill="none" stroke="grey" stroke-width="2" d="M769.81,-945.79C774.24,-935.63 779.24,-922.38 781.5,-910 795.86,-831.3 800.75,-807.65 781.5,-730 779.21,-720.75 774.97,-711.34 770.48,-703.07"/>
<polygon fill="grey" stroke="grey" stroke-width="2" points="773.43,-701.17 765.39,-694.28 767.37,-704.68 773.43,-701.17"/>
</g>
<!-- 28 -->
<g id="node29" class="node">
<title>28</title>
<path fill="none" stroke="#56a9d8" stroke-width="2" d="M873.5,-694C873.5,-694 821.5,-694 821.5,-694 815.5,-694 809.5,-688 809.5,-682 809.5,-682 809.5,-670 809.5,-670 809.5,-664 815.5,-658 821.5,-658 821.5,-658 873.5,-658 873.5,-658 879.5,-658 885.5,-664 885.5,-670 885.5,-670 885.5,-682 885.5,-682 885.5,-688 879.5,-694 873.5,-694"/>
<text text-anchor="middle" x="847.5" y="-679" font-family="sans" font-size="10.00">ABySS</text>
<text text-anchor="middle" x="847.5" y="-668" font-family="sans" font-size="10.00">kmer: upper</text>
</g>
<!-- 23&#45;&gt;28 -->
<g id="edge46" class="edge">
<title>23&#45;&gt;28</title>
<path fill="none" stroke="grey" stroke-width="2" d="M776.52,-945.99C784.48,-936.11 793.78,-923.07 799.5,-910 830.25,-839.74 841.65,-748.82 845.59,-704.17"/>
<polygon fill="grey" stroke="grey" stroke-width="2" points="849.08,-704.37 846.41,-694.11 842.11,-703.79 849.08,-704.37"/>
</g>
<!-- 29 -->
<g id="node30" class="node">
<title>29</title>
<path fill="none" stroke="#56a9d8" stroke-width="2" d="M977.5,-694C977.5,-694 915.5,-694 915.5,-694 909.5,-694 903.5,-688 903.5,-682 903.5,-682 903.5,-670 903.5,-670 903.5,-664 909.5,-658 915.5,-658 915.5,-658 977.5,-658 977.5,-658 983.5,-658 989.5,-664 989.5,-670 989.5,-670 989.5,-682 989.5,-682 989.5,-688 983.5,-694 977.5,-694"/>
<text text-anchor="middle" x="946.5" y="-679" font-family="sans" font-size="10.00">ABySS</text>
<text text-anchor="middle" x="946.5" y="-668" font-family="sans" font-size="10.00">kmer: optimal</text>
</g>
<!-- 23&#45;&gt;29 -->
<g id="edge48" class="edge">
<title>23&#45;&gt;29</title>
<path fill="none" stroke="grey" stroke-width="2" d="M783.95,-945.95C795.76,-936.26 809.93,-923.41 820.5,-910 873.82,-842.33 916.57,-748.93 935.67,-703.69"/>
<polygon fill="grey" stroke="grey" stroke-width="2" points="938.98,-704.86 939.6,-694.29 932.52,-702.17 938.98,-704.86"/>
</g>
<!-- 34 -->
<g id="node35" class="node">
<title>34</title>
<path fill="none" stroke="#68d856" stroke-width="2" d="M583.5,-766C583.5,-766 533.5,-766 533.5,-766 527.5,-766 521.5,-760 521.5,-754 521.5,-754 521.5,-742 521.5,-742 521.5,-736 527.5,-730 533.5,-730 533.5,-730 583.5,-730 583.5,-730 589.5,-730 595.5,-736 595.5,-742 595.5,-742 595.5,-754 595.5,-754 595.5,-760 589.5,-766 583.5,-766"/>
<text text-anchor="middle" x="558.5" y="-745.5" font-family="sans" font-size="10.00">soap_config</text>
</g>
<!-- 23&#45;&gt;34 -->
<g id="edge57" class="edge">
<title>23&#45;&gt;34</title>
<path fill="none" stroke="grey" stroke-width="2" d="M721.34,-946.21C702.98,-937.25 681.74,-924.96 665.5,-910 622.47,-870.37 588.44,-810.07 571.09,-775.62"/>
<polygon fill="grey" stroke="grey" stroke-width="2" points="574.02,-773.64 566.45,-766.22 567.74,-776.74 574.02,-773.64"/>
</g>
<!-- 35 -->
<g id="node36" class="node">
<title>35</title>
<path fill="none" stroke="#566bd8" stroke-width="2" d="M1034,-910C1034,-910 977,-910 977,-910 971,-910 965,-904 965,-898 965,-898 965,-886 965,-886 965,-880 971,-874 977,-874 977,-874 1034,-874 1034,-874 1040,-874 1046,-880 1046,-886 1046,-886 1046,-898 1046,-898 1046,-904 1040,-910 1034,-910"/>
<text text-anchor="middle" x="1005.5" y="-889.5" font-family="sans" font-size="10.00">DiscoVarPrep</text>
</g>
<!-- 23&#45;&gt;35 -->
<g id="edge58" class="edge">
<title>23&#45;&gt;35</title>
<path fill="none" stroke="grey" stroke-width="2" d="M801.52,-951.52C843.46,-939.49 909.47,-920.55 954.98,-907.49"/>
<polygon fill="grey" stroke="grey" stroke-width="2" points="956,-910.84 964.65,-904.72 954.07,-904.11 956,-910.84"/>
</g>
<!-- 43 -->
<g id="node44" class="node">
<title>43</title>
<path fill="none" stroke="#ced856" stroke-width="2" d="M760.5,-910C760.5,-910 686.5,-910 686.5,-910 680.5,-910 674.5,-904 674.5,-898 674.5,-898 674.5,-886 674.5,-886 674.5,-880 680.5,-874 686.5,-874 686.5,-874 760.5,-874 760.5,-874 766.5,-874 772.5,-880 772.5,-886 772.5,-886 772.5,-898 772.5,-898 772.5,-904 766.5,-910 760.5,-910"/>
<text text-anchor="middle" x="723.5" y="-889.5" font-family="sans" font-size="10.00">KmerGenie_prep</text>
</g>
<!-- 23&#45;&gt;43 -->
<g id="edge66" class="edge">
<title>23&#45;&gt;43</title>
<path fill="none" stroke="grey" stroke-width="2" d="M752.11,-945.7C747.74,-937.64 742.44,-927.89 737.6,-918.98"/>
<polygon fill="grey" stroke="grey" stroke-width="2" points="740.63,-917.22 732.79,-910.1 734.48,-920.56 740.63,-917.22"/>
</g>
<!-- 24 -->
<g id="node25" class="node">
<title>24</title>
<path fill="none" stroke="#5692d8" stroke-width="2" d="M487.5,-694C487.5,-694 435.5,-694 435.5,-694 429.5,-694 423.5,-688 423.5,-682 423.5,-682 423.5,-670 423.5,-670 423.5,-664 429.5,-658 435.5,-658 435.5,-658 487.5,-658 487.5,-658 493.5,-658 499.5,-664 499.5,-670 499.5,-670 499.5,-682 499.5,-682 499.5,-688 493.5,-694 487.5,-694"/>
<text text-anchor="middle" x="461.5" y="-679" font-family="sans" font-size="10.00">soapdenovo</text>
<text text-anchor="middle" x="461.5" y="-668" font-family="sans" font-size="10.00">kmer: lower</text>
</g>
<!-- 24&#45;&gt;12 -->
<g id="edge25" class="edge">
<title>24&#45;&gt;12</title>
<path fill="none" stroke="grey" stroke-width="2" d="M423.28,-658.59C400.69,-648.88 371.84,-636.5 347.57,-626.08"/>
<polygon fill="grey" stroke="grey" stroke-width="2" points="348.75,-622.77 338.18,-622.04 345.99,-629.2 348.75,-622.77"/>
</g>
<!-- 25 -->
<g id="node26" class="node">
<title>25</title>
<path fill="none" stroke="#5692d8" stroke-width="2" d="M581.5,-694C581.5,-694 529.5,-694 529.5,-694 523.5,-694 517.5,-688 517.5,-682 517.5,-682 517.5,-670 517.5,-670 517.5,-664 523.5,-658 529.5,-658 529.5,-658 581.5,-658 581.5,-658 587.5,-658 593.5,-664 593.5,-670 593.5,-670 593.5,-682 593.5,-682 593.5,-688 587.5,-694 581.5,-694"/>
<text text-anchor="middle" x="555.5" y="-679" font-family="sans" font-size="10.00">soapdenovo</text>
<text text-anchor="middle" x="555.5" y="-668" font-family="sans" font-size="10.00">kmer: upper</text>
</g>
<!-- 25&#45;&gt;13 -->
<g id="edge26" class="edge">
<title>25&#45;&gt;13</title>
<path fill="none" stroke="grey" stroke-width="2" d="M532.76,-657.7C521.06,-648.8 506.64,-637.82 493.99,-628.2"/>
<polygon fill="grey" stroke="grey" stroke-width="2" points="496.06,-625.37 485.98,-622.1 491.82,-630.94 496.06,-625.37"/>
</g>
<!-- 26 -->
<g id="node27" class="node">
<title>26</title>
<path fill="none" stroke="#5692d8" stroke-width="2" d="M685.5,-694C685.5,-694 623.5,-694 623.5,-694 617.5,-694 611.5,-688 611.5,-682 611.5,-682 611.5,-670 611.5,-670 611.5,-664 617.5,-658 623.5,-658 623.5,-658 685.5,-658 685.5,-658 691.5,-658 697.5,-664 697.5,-670 697.5,-670 697.5,-682 697.5,-682 697.5,-688 691.5,-694 685.5,-694"/>
<text text-anchor="middle" x="654.5" y="-679" font-family="sans" font-size="10.00">soapdenovo</text>
<text text-anchor="middle" x="654.5" y="-668" font-family="sans" font-size="10.00">kmer: optimal</text>
</g>
<!-- 26&#45;&gt;14 -->
<g id="edge27" class="edge">
<title>26&#45;&gt;14</title>
<path fill="none" stroke="grey" stroke-width="2" d="M648.07,-657.7C645.14,-649.81 641.61,-640.3 638.36,-631.55"/>
<polygon fill="grey" stroke="grey" stroke-width="2" points="641.62,-630.26 634.85,-622.1 635.05,-632.7 641.62,-630.26"/>
</g>
<!-- 27&#45;&gt;15 -->
<g id="edge28" class="edge">
<title>27&#45;&gt;15</title>
<path fill="none" stroke="grey" stroke-width="2" d="M759.68,-657.7C762.5,-649.81 765.89,-640.3 769.02,-631.55"/>
<polygon fill="grey" stroke="grey" stroke-width="2" points="772.32,-632.7 772.39,-622.1 765.73,-630.34 772.32,-632.7"/>
</g>
<!-- 28&#45;&gt;16 -->
<g id="edge29" class="edge">
<title>28&#45;&gt;16</title>
<path fill="none" stroke="grey" stroke-width="2" d="M863.81,-657.7C871.81,-649.22 881.57,-638.86 890.32,-629.58"/>
<polygon fill="grey" stroke="grey" stroke-width="2" points="893.06,-631.78 897.37,-622.1 887.97,-626.98 893.06,-631.78"/>
</g>
<!-- 29&#45;&gt;17 -->
<g id="edge30" class="edge">
<title>29&#45;&gt;17</title>
<path fill="none" stroke="grey" stroke-width="2" d="M971.45,-657.88C984.54,-648.89 1000.76,-637.76 1014.94,-628.03"/>
<polygon fill="grey" stroke="grey" stroke-width="2" points="1017.19,-630.73 1023.45,-622.19 1013.23,-624.96 1017.19,-630.73"/>
</g>
<!-- 30 -->
<g id="node31" class="node">
<title>30</title>
<path fill="none" stroke="#56d8d0" stroke-width="2" d="M1063,-838C1063,-838 990,-838 990,-838 984,-838 978,-832 978,-826 978,-826 978,-814 978,-814 978,-808 984,-802 990,-802 990,-802 1063,-802 1063,-802 1069,-802 1075,-808 1075,-814 1075,-814 1075,-826 1075,-826 1075,-832 1069,-838 1063,-838"/>
<text text-anchor="middle" x="1026.5" y="-817.5" font-family="sans" font-size="10.00">DiscovarDenovo</text>
</g>
<!-- 30&#45;&gt;18 -->
<g id="edge31" class="edge">
<title>30&#45;&gt;18</title>
<path fill="none" stroke="grey" stroke-width="2" d="M1035.15,-801.7C1039.14,-793.73 1043.95,-784.1 1048.37,-775.26"/>
<polygon fill="grey" stroke="grey" stroke-width="2" points="1051.61,-776.61 1052.95,-766.1 1045.35,-773.48 1051.61,-776.61"/>
</g>
<!-- 31 -->
<g id="node32" class="node">
<title>31</title>
<path fill="none" stroke="#56d86b" stroke-width="2" d="M538,-257C538,-257 471,-257 471,-257 465,-257 459,-251 459,-245 459,-245 459,-233 459,-233 459,-227 465,-221 471,-221 471,-221 538,-221 538,-221 544,-221 550,-227 550,-233 550,-233 550,-245 550,-245 550,-251 544,-257 538,-257"/>
<text text-anchor="middle" x="504.5" y="-236.5" font-family="sans" font-size="10.00">finalReportPrep</text>
</g>
<!-- 31&#45;&gt;22 -->
<g id="edge35" class="edge">
<title>31&#45;&gt;22</title>
<path fill="none" stroke="grey" stroke-width="2" d="M510.66,-220.82C513.74,-212.24 517.53,-201.67 520.97,-192.08"/>
<polygon fill="grey" stroke="grey" stroke-width="2" points="524.3,-193.15 524.38,-182.56 517.71,-190.79 524.3,-193.15"/>
</g>
<!-- 32 -->
<g id="node33" class="node">
<title>32</title>
<path fill="none" stroke="#56d892" stroke-width="2" d="M650.5,-329C650.5,-329 590.5,-329 590.5,-329 584.5,-329 578.5,-323 578.5,-317 578.5,-317 578.5,-305 578.5,-305 578.5,-299 584.5,-293 590.5,-293 590.5,-293 650.5,-293 650.5,-293 656.5,-293 662.5,-299 662.5,-305 662.5,-305 662.5,-317 662.5,-317 662.5,-323 656.5,-329 650.5,-329"/>
<text text-anchor="middle" x="620.5" y="-308.5" font-family="sans" font-size="10.00">quast_RagTag</text>
</g>
<!-- 32&#45;&gt;22 -->
<g id="edge36" class="edge">
<title>32&#45;&gt;22</title>
<path fill="none" stroke="grey" stroke-width="2" d="M609.82,-292.86C594.19,-267.76 564.96,-220.83 546.68,-191.48"/>
<polygon fill="grey" stroke="grey" stroke-width="2" points="549.42,-189.26 541.16,-182.62 543.48,-192.96 549.42,-189.26"/>
</g>
<!-- 33 -->
<g id="node34" class="node">
<title>33</title>
<path fill="none" stroke="#d8a456" stroke-width="2" d="M760.5,-766C760.5,-766 636.5,-766 636.5,-766 630.5,-766 624.5,-760 624.5,-754 624.5,-754 624.5,-742 624.5,-742 624.5,-736 630.5,-730 636.5,-730 636.5,-730 760.5,-730 760.5,-730 766.5,-730 772.5,-736 772.5,-742 772.5,-742 772.5,-754 772.5,-754 772.5,-760 766.5,-766 760.5,-766"/>
<text text-anchor="middle" x="698.5" y="-745.5" font-family="sans" font-size="10.00">KmerInputLowerUpperBest</text>
</g>
<!-- 33&#45;&gt;24 -->
<g id="edge37" class="edge">
<title>33&#45;&gt;24</title>
<path fill="none" stroke="grey" stroke-width="2" d="M632.63,-729.93C598.27,-720.72 555.38,-708.75 509.22,-694.13"/>
<polygon fill="grey" stroke="grey" stroke-width="2" points="510.23,-690.77 499.64,-691.07 508.1,-697.44 510.23,-690.77"/>
</g>
<!-- 33&#45;&gt;25 -->
<g id="edge39" class="edge">
<title>33&#45;&gt;25</title>
<path fill="none" stroke="grey" stroke-width="2" d="M663.52,-729.88C644.3,-720.47 620.27,-708.71 599.76,-698.67"/>
<polygon fill="grey" stroke="grey" stroke-width="2" points="601.14,-695.44 590.62,-694.19 598.06,-701.73 601.14,-695.44"/>
</g>
<!-- 33&#45;&gt;26 -->
<g id="edge41" class="edge">
<title>33&#45;&gt;26</title>
<path fill="none" stroke="grey" stroke-width="2" d="M687.62,-729.7C682.51,-721.56 676.3,-711.69 670.66,-702.7"/>
<polygon fill="grey" stroke="grey" stroke-width="2" points="673.54,-700.71 665.25,-694.1 667.61,-704.43 673.54,-700.71"/>
</g>
<!-- 33&#45;&gt;27 -->
<g id="edge43" class="edge">
<title>33&#45;&gt;27</title>
<path fill="none" stroke="grey" stroke-width="2" d="M712.1,-729.7C718.62,-721.39 726.57,-711.28 733.75,-702.14"/>
<polygon fill="grey" stroke="grey" stroke-width="2" points="736.63,-704.13 740.06,-694.1 731.13,-699.81 736.63,-704.13"/>
</g>
<!-- 33&#45;&gt;28 -->
<g id="edge45" class="edge">
<title>33&#45;&gt;28</title>
<path fill="none" stroke="grey" stroke-width="2" d="M734.95,-729.88C755.14,-720.39 780.42,-708.51 801.91,-698.42"/>
<polygon fill="grey" stroke="grey" stroke-width="2" points="803.61,-701.49 811.17,-694.07 800.63,-695.15 803.61,-701.49"/>
</g>
<!-- 33&#45;&gt;29 -->
<g id="edge47" class="edge">
<title>33&#45;&gt;29</title>
<path fill="none" stroke="grey" stroke-width="2" d="M764.97,-729.94C800.65,-720.57 845.57,-708.43 893.75,-694.16"/>
<polygon fill="grey" stroke="grey" stroke-width="2" points="894.84,-697.48 903.42,-691.27 892.84,-690.77 894.84,-697.48"/>
</g>
<!-- 34&#45;&gt;24 -->
<g id="edge38" class="edge">
<title>34&#45;&gt;24</title>
<path fill="none" stroke="grey" stroke-width="2" d="M534.52,-729.7C522.19,-720.8 506.98,-709.82 493.65,-700.2"/>
<polygon fill="grey" stroke="grey" stroke-width="2" points="495.36,-697.12 485.2,-694.1 491.26,-702.79 495.36,-697.12"/>
</g>
<!-- 34&#45;&gt;25 -->
<g id="edge40" class="edge">
<title>34&#45;&gt;25</title>
<path fill="none" stroke="grey" stroke-width="2" d="M557.76,-729.7C557.43,-721.98 557.03,-712.71 556.66,-704.11"/>
<polygon fill="grey" stroke="grey" stroke-width="2" points="560.16,-703.95 556.23,-694.1 553.16,-704.25 560.16,-703.95"/>
</g>
<!-- 34&#45;&gt;26 -->
<g id="edge42" class="edge">
<title>34&#45;&gt;26</title>
<path fill="none" stroke="grey" stroke-width="2" d="M582.23,-729.7C594.44,-720.8 609.49,-709.82 622.68,-700.2"/>
<polygon fill="grey" stroke="grey" stroke-width="2" points="625.02,-702.82 631.04,-694.1 620.9,-697.17 625.02,-702.82"/>
</g>
<!-- 35&#45;&gt;30 -->
<g id="edge49" class="edge">
<title>35&#45;&gt;30</title>
<path fill="none" stroke="grey" stroke-width="2" d="M1010.69,-873.7C1013.03,-865.9 1015.85,-856.51 1018.45,-847.83"/>
<polygon fill="grey" stroke="grey" stroke-width="2" points="1021.85,-848.69 1021.37,-838.1 1015.14,-846.68 1021.85,-848.69"/>
</g>
<!-- 36 -->
<g id="node37" class="node">
<title>36</title>
<path fill="none" stroke="#56d8a9" stroke-width="2" d="M548.5,-329C548.5,-329 432.5,-329 432.5,-329 426.5,-329 420.5,-323 420.5,-317 420.5,-317 420.5,-305 420.5,-305 420.5,-299 426.5,-293 432.5,-293 432.5,-293 548.5,-293 548.5,-293 554.5,-293 560.5,-299 560.5,-305 560.5,-305 560.5,-317 560.5,-317 560.5,-323 554.5,-329 548.5,-329"/>
<text text-anchor="middle" x="490.5" y="-308.5" font-family="sans" font-size="10.00">BUSCO_RagTag_scaffolds</text>
</g>
<!-- 36&#45;&gt;31 -->
<g id="edge50" class="edge">
<title>36&#45;&gt;31</title>
<path fill="none" stroke="grey" stroke-width="2" d="M493.96,-292.7C495.5,-284.98 497.36,-275.71 499.08,-267.11"/>
<polygon fill="grey" stroke="grey" stroke-width="2" points="502.55,-267.6 501.08,-257.1 495.69,-266.22 502.55,-267.6"/>
</g>
<!-- 37 -->
<g id="node38" class="node">
<title>37</title>
<path fill="none" stroke="#56d8a9" stroke-width="2" d="M808.5,-329C808.5,-329 692.5,-329 692.5,-329 686.5,-329 680.5,-323 680.5,-317 680.5,-317 680.5,-305 680.5,-305 680.5,-299 686.5,-293 692.5,-293 692.5,-293 808.5,-293 808.5,-293 814.5,-293 820.5,-299 820.5,-305 820.5,-305 820.5,-317 820.5,-317 820.5,-323 814.5,-329 808.5,-329"/>
<text text-anchor="middle" x="750.5" y="-308.5" font-family="sans" font-size="10.00">BUSCO_RagTag_scaffolds</text>
</g>
<!-- 37&#45;&gt;31 -->
<g id="edge51" class="edge">
<title>37&#45;&gt;31</title>
<path fill="none" stroke="grey" stroke-width="2" d="M690.64,-292.97C650.95,-281.67 599.23,-266.95 560.38,-255.9"/>
<polygon fill="grey" stroke="grey" stroke-width="2" points="560.87,-252.4 550.29,-253.03 558.95,-259.13 560.87,-252.4"/>
</g>
<!-- 38 -->
<g id="node39" class="node">
<title>38</title>
<path fill="none" stroke="#56d8a9" stroke-width="2" d="M390.5,-329C390.5,-329 274.5,-329 274.5,-329 268.5,-329 262.5,-323 262.5,-317 262.5,-317 262.5,-305 262.5,-305 262.5,-299 268.5,-293 274.5,-293 274.5,-293 390.5,-293 390.5,-293 396.5,-293 402.5,-299 402.5,-305 402.5,-305 402.5,-317 402.5,-317 402.5,-323 396.5,-329 390.5,-329"/>
<text text-anchor="middle" x="332.5" y="-308.5" font-family="sans" font-size="10.00">BUSCO_RagTag_scaffolds</text>
</g>
<!-- 38&#45;&gt;31 -->
<g id="edge52" class="edge">
<title>38&#45;&gt;31</title>
<path fill="none" stroke="grey" stroke-width="2" d="M374.58,-292.88C398.3,-283.22 428.12,-271.09 453.2,-260.88"/>
<polygon fill="grey" stroke="grey" stroke-width="2" points="454.62,-264.08 462.56,-257.07 451.98,-257.6 454.62,-264.08"/>
</g>
<!-- 39&#45;&gt;32 -->
<g id="edge53" class="edge">
<title>39&#45;&gt;32</title>
<path fill="none" stroke="grey" stroke-width="2" d="M587.38,-364.7C592.49,-356.56 598.7,-346.69 604.34,-337.7"/>
<polygon fill="grey" stroke="grey" stroke-width="2" points="607.39,-339.43 609.75,-329.1 601.46,-335.71 607.39,-339.43"/>
</g>
<!-- 39&#45;&gt;36 -->
<g id="edge59" class="edge">
<title>39&#45;&gt;36</title>
<path fill="none" stroke="grey" stroke-width="2" d="M555.24,-364.7C544.41,-355.88 531.08,-345.03 519.34,-335.47"/>
<polygon fill="grey" stroke="grey" stroke-width="2" points="521.48,-332.7 511.51,-329.1 517.06,-338.13 521.48,-332.7"/>
</g>
<!-- 40&#45;&gt;32 -->
<g id="edge54" class="edge">
<title>40&#45;&gt;32</title>
<path fill="none" stroke="grey" stroke-width="2" d="M723.25,-367.33C705.3,-357.66 681.47,-344.83 661.28,-333.96"/>
<polygon fill="grey" stroke="grey" stroke-width="2" points="662.76,-330.78 652.3,-329.12 659.44,-336.94 662.76,-330.78"/>
</g>
<!-- 40&#45;&gt;37 -->
<g id="edge60" class="edge">
<title>40&#45;&gt;37</title>
<path fill="none" stroke="grey" stroke-width="2" d="M750.5,-364.7C750.5,-356.98 750.5,-347.71 750.5,-339.11"/>
<polygon fill="grey" stroke="grey" stroke-width="2" points="754,-339.1 750.5,-329.1 747,-339.1 754,-339.1"/>
</g>
<!-- 41&#45;&gt;32 -->
<g id="edge55" class="edge">
<title>41&#45;&gt;32</title>
<path fill="none" stroke="grey" stroke-width="2" d="M372.6,-376.41C413.18,-367.86 492.32,-350.5 568.53,-329.15"/>
<polygon fill="grey" stroke="grey" stroke-width="2" points="569.62,-332.48 578.29,-326.39 567.71,-325.75 569.62,-332.48"/>
</g>
<!-- 41&#45;&gt;38 -->
<g id="edge61" class="edge">
<title>41&#45;&gt;38</title>
<path fill="none" stroke="grey" stroke-width="2" d="M342.29,-364.7C340.85,-356.98 339.13,-347.71 337.54,-339.11"/>
<polygon fill="grey" stroke="grey" stroke-width="2" points="340.94,-338.3 335.68,-329.1 334.06,-339.58 340.94,-338.3"/>
</g>
<!-- 42 -->
<g id="node43" class="node">
<title>42</title>
<path fill="none" stroke="#b6d856" stroke-width="2" d="M741,-838C741,-838 694,-838 694,-838 688,-838 682,-832 682,-826 682,-826 682,-814 682,-814 682,-808 688,-802 694,-802 694,-802 741,-802 741,-802 747,-802 753,-808 753,-814 753,-814 753,-826 753,-826 753,-832 747,-838 741,-838"/>
<text text-anchor="middle" x="717.5" y="-817.5" font-family="sans" font-size="10.00">KmerGenie</text>
</g>
<!-- 42&#45;&gt;33 -->
<g id="edge56" class="edge">
<title>42&#45;&gt;33</title>
<path fill="none" stroke="grey" stroke-width="2" d="M712.8,-801.7C710.69,-793.9 708.14,-784.51 705.78,-775.83"/>
<polygon fill="grey" stroke="grey" stroke-width="2" points="709.14,-774.84 703.14,-766.1 702.38,-776.67 709.14,-774.84"/>
</g>
<!-- 43&#45;&gt;42 -->
<g id="edge65" class="edge">
<title>43&#45;&gt;42</title>
<path fill="none" stroke="grey" stroke-width="2" d="M722.02,-873.7C721.36,-865.98 720.56,-856.71 719.82,-848.11"/>
<polygon fill="grey" stroke="grey" stroke-width="2" points="723.31,-847.77 718.97,-838.1 716.33,-848.37 723.31,-847.77"/>
</g>
</g>
</svg>
