<?xml version="1.0" encoding="UTF-8" standalone="no"?>
<!DOCTYPE svg PUBLIC "-//W3C//DTD SVG 1.1//EN"
 "http://www.w3.org/Graphics/SVG/1.1/DTD/svg11.dtd">
<!-- Generated by graphviz version 2.42.3 (20191010.1750)
 -->
<!-- Title: snakemake_dag Pages: 1 -->
<svg width="1151pt" height="918pt"
 viewBox="0.00 0.00 1151.00 918.00" xmlns="http://www.w3.org/2000/svg" xmlns:xlink="http://www.w3.org/1999/xlink">
<g id="graph0" class="graph" transform="scale(1 1) rotate(0) translate(4 914)">
<title>snakemake_dag</title>
<polygon fill="white" stroke="transparent" points="-4,4 -4,-914 1147,-914 1147,4 -4,4"/>
<!-- 0 -->
<g id="node1" class="node">
<title>0</title>
<path fill="none" stroke="#d87d56" stroke-width="2" d="M547.5,-36C547.5,-36 517.5,-36 517.5,-36 511.5,-36 505.5,-30 505.5,-24 505.5,-24 505.5,-12 505.5,-12 505.5,-6 511.5,0 517.5,0 517.5,0 547.5,0 547.5,0 553.5,0 559.5,-6 559.5,-12 559.5,-12 559.5,-24 559.5,-24 559.5,-30 553.5,-36 547.5,-36"/>
<text text-anchor="middle" x="532.5" y="-15.5" font-family="sans" font-size="10.00">all</text>
</g>
<!-- 1 -->
<g id="node2" class="node">
<title>1</title>
<path fill="none" stroke="#56d8c9" stroke-width="2" d="M156,-108C156,-108 103,-108 103,-108 97,-108 91,-102 91,-96 91,-96 91,-84 91,-84 91,-78 97,-72 103,-72 103,-72 156,-72 156,-72 162,-72 168,-78 168,-84 168,-84 168,-96 168,-96 168,-102 162,-108 156,-108"/>
<text text-anchor="middle" x="129.5" y="-87.5" font-family="sans" font-size="10.00">multiqc_raw</text>
</g>
<!-- 1&#45;&gt;0 -->
<g id="edge1" class="edge">
<title>1&#45;&gt;0</title>
<path fill="none" stroke="grey" stroke-width="2" d="M168.09,-75.83C172.91,-74.42 177.8,-73.1 182.5,-72 295.01,-45.62 431.06,-29.4 495.38,-22.64"/>
<polygon fill="grey" stroke="grey" stroke-width="2" points="495.85,-26.12 505.44,-21.61 495.13,-19.15 495.85,-26.12"/>
</g>
<!-- 2 -->
<g id="node3" class="node">
<title>2</title>
<path fill="none" stroke="#56d8b1" stroke-width="2" d="M520,-766C520,-766 465,-766 465,-766 459,-766 453,-760 453,-754 453,-754 453,-742 453,-742 453,-736 459,-730 465,-730 465,-730 520,-730 520,-730 526,-730 532,-736 532,-742 532,-742 532,-754 532,-754 532,-760 526,-766 520,-766"/>
<text text-anchor="middle" x="492.5" y="-745.5" font-family="sans" font-size="10.00">multiqc_trim</text>
</g>
<!-- 2&#45;&gt;0 -->
<g id="edge2" class="edge">
<title>2&#45;&gt;0</title>
<path fill="none" stroke="grey" stroke-width="2" d="M452.89,-745.76C372.23,-740.9 196.5,-717.43 196.5,-605 196.5,-605 196.5,-605 196.5,-163.5 196.5,-34.6 407.77,-19.26 495.26,-18.44"/>
<polygon fill="grey" stroke="grey" stroke-width="2" points="495.3,-21.94 505.29,-18.41 495.28,-14.94 495.3,-21.94"/>
</g>
<!-- 3 -->
<g id="node4" class="node">
<title>3</title>
<path fill="none" stroke="#5682d8" stroke-width="2" d="M834.5,-478C834.5,-478 722.5,-478 722.5,-478 716.5,-478 710.5,-472 710.5,-466 710.5,-466 710.5,-454 710.5,-454 710.5,-448 716.5,-442 722.5,-442 722.5,-442 834.5,-442 834.5,-442 840.5,-442 846.5,-448 846.5,-454 846.5,-454 846.5,-466 846.5,-466 846.5,-472 840.5,-478 834.5,-478"/>
<text text-anchor="middle" x="778.5" y="-457.5" font-family="sans" font-size="10.00">quast_contigs_summary</text>
</g>
<!-- 3&#45;&gt;0 -->
<g id="edge3" class="edge">
<title>3&#45;&gt;0</title>
<path fill="none" stroke="grey" stroke-width="2" d="M846.52,-453.57C881.11,-447.28 921.1,-433.96 946.5,-406 975.22,-374.38 966.5,-354.71 966.5,-312 966.5,-312 966.5,-312 966.5,-163.5 966.5,-80.2 675.03,-36.38 569.81,-23.28"/>
<polygon fill="grey" stroke="grey" stroke-width="2" points="570,-19.78 559.65,-22.04 569.15,-26.73 570,-19.78"/>
</g>
<!-- 19 -->
<g id="node20" class="node">
<title>19</title>
<path fill="none" stroke="#56d0d8" stroke-width="2" d="M707,-406C707,-406 530,-406 530,-406 524,-406 518,-400 518,-394 518,-394 518,-377 518,-377 518,-371 524,-365 530,-365 530,-365 707,-365 707,-365 713,-365 719,-371 719,-377 719,-377 719,-394 719,-394 719,-400 713,-406 707,-406"/>
<text text-anchor="middle" x="618.5" y="-394" font-family="sans" font-size="10.00">extract_best_N50_contigs_for_BUSCO</text>
<text text-anchor="middle" x="618.5" y="-383" font-family="sans" font-size="10.00">assembler: SOAP</text>
<text text-anchor="middle" x="618.5" y="-372" font-family="sans" font-size="10.00">id: TESTFILE</text>
</g>
<!-- 3&#45;&gt;19 -->
<g id="edge33" class="edge">
<title>3&#45;&gt;19</title>
<path fill="none" stroke="grey" stroke-width="2" d="M740.58,-441.82C719.79,-432.4 693.7,-420.57 670.97,-410.28"/>
<polygon fill="grey" stroke="grey" stroke-width="2" points="672.35,-407.06 661.8,-406.12 669.46,-413.43 672.35,-407.06"/>
</g>
<!-- 20 -->
<g id="node21" class="node">
<title>20</title>
<path fill="none" stroke="#56d0d8" stroke-width="2" d="M926,-406C926,-406 749,-406 749,-406 743,-406 737,-400 737,-394 737,-394 737,-377 737,-377 737,-371 743,-365 749,-365 749,-365 926,-365 926,-365 932,-365 938,-371 938,-377 938,-377 938,-394 938,-394 938,-400 932,-406 926,-406"/>
<text text-anchor="middle" x="837.5" y="-394" font-family="sans" font-size="10.00">extract_best_N50_contigs_for_BUSCO</text>
<text text-anchor="middle" x="837.5" y="-383" font-family="sans" font-size="10.00">assembler: ABYSS</text>
<text text-anchor="middle" x="837.5" y="-372" font-family="sans" font-size="10.00">id: TESTFILE</text>
</g>
<!-- 3&#45;&gt;20 -->
<g id="edge34" class="edge">
<title>3&#45;&gt;20</title>
<path fill="none" stroke="grey" stroke-width="2" d="M792.48,-441.82C799.23,-433.53 807.49,-423.38 815.09,-414.04"/>
<polygon fill="grey" stroke="grey" stroke-width="2" points="817.94,-416.08 821.53,-406.12 812.51,-411.67 817.94,-416.08"/>
</g>
<!-- 21 -->
<g id="node22" class="node">
<title>21</title>
<path fill="none" stroke="#56d0d8" stroke-width="2" d="M454,-406C454,-406 277,-406 277,-406 271,-406 265,-400 265,-394 265,-394 265,-377 265,-377 265,-371 271,-365 277,-365 277,-365 454,-365 454,-365 460,-365 466,-371 466,-377 466,-377 466,-394 466,-394 466,-400 460,-406 454,-406"/>
<text text-anchor="middle" x="365.5" y="-394" font-family="sans" font-size="10.00">extract_best_N50_contigs_for_BUSCO</text>
<text text-anchor="middle" x="365.5" y="-383" font-family="sans" font-size="10.00">assembler: DISCOVAR</text>
<text text-anchor="middle" x="365.5" y="-372" font-family="sans" font-size="10.00">id: TESTFILE</text>
</g>
<!-- 3&#45;&gt;21 -->
<g id="edge35" class="edge">
<title>3&#45;&gt;21</title>
<path fill="none" stroke="grey" stroke-width="2" d="M710.3,-447.03C646.71,-435.87 550.75,-419.02 476.19,-405.93"/>
<polygon fill="grey" stroke="grey" stroke-width="2" points="476.74,-402.47 466.28,-404.19 475.53,-409.37 476.74,-402.47"/>
</g>
<!-- 4 -->
<g id="node5" class="node">
<title>4</title>
<path fill="none" stroke="#56a9d8" stroke-width="2" d="M679.5,-108C679.5,-108 611.5,-108 611.5,-108 605.5,-108 599.5,-102 599.5,-96 599.5,-96 599.5,-84 599.5,-84 599.5,-78 605.5,-72 611.5,-72 611.5,-72 679.5,-72 679.5,-72 685.5,-72 691.5,-78 691.5,-84 691.5,-84 691.5,-96 691.5,-96 691.5,-102 685.5,-108 679.5,-108"/>
<text text-anchor="middle" x="645.5" y="-87.5" font-family="sans" font-size="10.00">BUSCO_contigs</text>
</g>
<!-- 4&#45;&gt;0 -->
<g id="edge4" class="edge">
<title>4&#45;&gt;0</title>
<path fill="none" stroke="grey" stroke-width="2" d="M617.86,-71.88C602.97,-62.66 584.43,-51.17 568.44,-41.26"/>
<polygon fill="grey" stroke="grey" stroke-width="2" points="570.2,-38.24 559.86,-35.95 566.52,-44.19 570.2,-38.24"/>
</g>
<!-- 5 -->
<g id="node6" class="node">
<title>5</title>
<path fill="none" stroke="#56a9d8" stroke-width="2" d="M926.5,-182.5C926.5,-182.5 858.5,-182.5 858.5,-182.5 852.5,-182.5 846.5,-176.5 846.5,-170.5 846.5,-170.5 846.5,-158.5 846.5,-158.5 846.5,-152.5 852.5,-146.5 858.5,-146.5 858.5,-146.5 926.5,-146.5 926.5,-146.5 932.5,-146.5 938.5,-152.5 938.5,-158.5 938.5,-158.5 938.5,-170.5 938.5,-170.5 938.5,-176.5 932.5,-182.5 926.5,-182.5"/>
<text text-anchor="middle" x="892.5" y="-162" font-family="sans" font-size="10.00">BUSCO_contigs</text>
</g>
<!-- 5&#45;&gt;0 -->
<g id="edge5" class="edge">
<title>5&#45;&gt;0</title>
<path fill="none" stroke="grey" stroke-width="2" d="M860.16,-146.38C822.48,-126.84 758.05,-94.66 700.5,-72 656.4,-54.63 604.13,-38.87 569.74,-29.13"/>
<polygon fill="grey" stroke="grey" stroke-width="2" points="570.24,-25.64 559.67,-26.31 568.35,-32.38 570.24,-25.64"/>
</g>
<!-- 6 -->
<g id="node7" class="node">
<title>6</title>
<path fill="none" stroke="#56a9d8" stroke-width="2" d="M364.5,-108C364.5,-108 296.5,-108 296.5,-108 290.5,-108 284.5,-102 284.5,-96 284.5,-96 284.5,-84 284.5,-84 284.5,-78 290.5,-72 296.5,-72 296.5,-72 364.5,-72 364.5,-72 370.5,-72 376.5,-78 376.5,-84 376.5,-84 376.5,-96 376.5,-96 376.5,-102 370.5,-108 364.5,-108"/>
<text text-anchor="middle" x="330.5" y="-87.5" font-family="sans" font-size="10.00">BUSCO_contigs</text>
</g>
<!-- 6&#45;&gt;0 -->
<g id="edge6" class="edge">
<title>6&#45;&gt;0</title>
<path fill="none" stroke="grey" stroke-width="2" d="M376.59,-73.03C412.57,-60.56 461.92,-43.46 495.39,-31.86"/>
<polygon fill="grey" stroke="grey" stroke-width="2" points="496.93,-35.03 505.23,-28.45 494.64,-28.42 496.93,-35.03"/>
</g>
<!-- 7 -->
<g id="node8" class="node">
<title>7</title>
<path fill="none" stroke="#566bd8" stroke-width="2" d="M555,-108C555,-108 510,-108 510,-108 504,-108 498,-102 498,-96 498,-96 498,-84 498,-84 498,-78 504,-72 510,-72 510,-72 555,-72 555,-72 561,-72 567,-78 567,-84 567,-84 567,-96 567,-96 567,-102 561,-108 555,-108"/>
<text text-anchor="middle" x="532.5" y="-87.5" font-family="sans" font-size="10.00">finalReport</text>
</g>
<!-- 7&#45;&gt;0 -->
<g id="edge7" class="edge">
<title>7&#45;&gt;0</title>
<path fill="none" stroke="grey" stroke-width="2" d="M532.5,-71.7C532.5,-63.98 532.5,-54.71 532.5,-46.11"/>
<polygon fill="grey" stroke="grey" stroke-width="2" points="536,-46.1 532.5,-36.1 529,-46.1 536,-46.1"/>
</g>
<!-- 8 -->
<g id="node9" class="node">
<title>8</title>
<path fill="none" stroke="#d8ac56" stroke-width="2" d="M156,-185C156,-185 105,-185 105,-185 99,-185 93,-179 93,-173 93,-173 93,-156 93,-156 93,-150 99,-144 105,-144 105,-144 156,-144 156,-144 162,-144 168,-150 168,-156 168,-156 168,-173 168,-173 168,-179 162,-185 156,-185"/>
<text text-anchor="middle" x="130.5" y="-173" font-family="sans" font-size="10.00">fastqc_raw</text>
<text text-anchor="middle" x="130.5" y="-162" font-family="sans" font-size="10.00">id: TESTFILE</text>
<text text-anchor="middle" x="130.5" y="-151" font-family="sans" font-size="10.00">read: 1P</text>
</g>
<!-- 8&#45;&gt;1 -->
<g id="edge8" class="edge">
<title>8&#45;&gt;1</title>
<path fill="none" stroke="grey" stroke-width="2" d="M130.23,-143.69C130.12,-135.91 129.99,-126.84 129.88,-118.45"/>
<polygon fill="grey" stroke="grey" stroke-width="2" points="133.38,-118.27 129.74,-108.32 126.38,-118.37 133.38,-118.27"/>
</g>
<!-- 9 -->
<g id="node10" class="node">
<title>9</title>
<path fill="none" stroke="#d8ac56" stroke-width="2" d="M63,-185C63,-185 12,-185 12,-185 6,-185 0,-179 0,-173 0,-173 0,-156 0,-156 0,-150 6,-144 12,-144 12,-144 63,-144 63,-144 69,-144 75,-150 75,-156 75,-156 75,-173 75,-173 75,-179 69,-185 63,-185"/>
<text text-anchor="middle" x="37.5" y="-173" font-family="sans" font-size="10.00">fastqc_raw</text>
<text text-anchor="middle" x="37.5" y="-162" font-family="sans" font-size="10.00">id: TESTFILE</text>
<text text-anchor="middle" x="37.5" y="-151" font-family="sans" font-size="10.00">read: 2P</text>
</g>
<!-- 9&#45;&gt;1 -->
<g id="edge9" class="edge">
<title>9&#45;&gt;1</title>
<path fill="none" stroke="grey" stroke-width="2" d="M62.64,-143.69C74.14,-134.63 87.84,-123.83 99.84,-114.37"/>
<polygon fill="grey" stroke="grey" stroke-width="2" points="102.14,-117.02 107.83,-108.08 97.81,-111.52 102.14,-117.02"/>
</g>
<!-- 10 -->
<g id="node11" class="node">
<title>10</title>
<path fill="none" stroke="#b6d856" stroke-width="2" d="M516.5,-838C516.5,-838 468.5,-838 468.5,-838 462.5,-838 456.5,-832 456.5,-826 456.5,-826 456.5,-814 456.5,-814 456.5,-808 462.5,-802 468.5,-802 468.5,-802 516.5,-802 516.5,-802 522.5,-802 528.5,-808 528.5,-814 528.5,-814 528.5,-826 528.5,-826 528.5,-832 522.5,-838 516.5,-838"/>
<text text-anchor="middle" x="492.5" y="-823" font-family="sans" font-size="10.00">fastqc_trim</text>
<text text-anchor="middle" x="492.5" y="-812" font-family="sans" font-size="10.00">read: 1P</text>
</g>
<!-- 10&#45;&gt;2 -->
<g id="edge10" class="edge">
<title>10&#45;&gt;2</title>
<path fill="none" stroke="grey" stroke-width="2" d="M492.5,-801.7C492.5,-793.98 492.5,-784.71 492.5,-776.11"/>
<polygon fill="grey" stroke="grey" stroke-width="2" points="496,-776.1 492.5,-766.1 489,-776.1 496,-776.1"/>
</g>
<!-- 11 -->
<g id="node12" class="node">
<title>11</title>
<path fill="none" stroke="#b6d856" stroke-width="2" d="M606.5,-838C606.5,-838 558.5,-838 558.5,-838 552.5,-838 546.5,-832 546.5,-826 546.5,-826 546.5,-814 546.5,-814 546.5,-808 552.5,-802 558.5,-802 558.5,-802 606.5,-802 606.5,-802 612.5,-802 618.5,-808 618.5,-814 618.5,-814 618.5,-826 618.5,-826 618.5,-832 612.5,-838 606.5,-838"/>
<text text-anchor="middle" x="582.5" y="-823" font-family="sans" font-size="10.00">fastqc_trim</text>
<text text-anchor="middle" x="582.5" y="-812" font-family="sans" font-size="10.00">read: 2P</text>
</g>
<!-- 11&#45;&gt;2 -->
<g id="edge11" class="edge">
<title>11&#45;&gt;2</title>
<path fill="none" stroke="grey" stroke-width="2" d="M560.25,-801.7C548.92,-792.88 534.97,-782.03 522.68,-772.47"/>
<polygon fill="grey" stroke="grey" stroke-width="2" points="524.53,-769.48 514.49,-766.1 520.24,-775.01 524.53,-769.48"/>
</g>
<!-- 12 -->
<g id="node13" class="node">
<title>12</title>
<path fill="none" stroke="#c6d856" stroke-width="2" d="M360,-550C360,-550 237,-550 237,-550 231,-550 225,-544 225,-538 225,-538 225,-526 225,-526 225,-520 231,-514 237,-514 237,-514 360,-514 360,-514 366,-514 372,-520 372,-526 372,-526 372,-538 372,-538 372,-544 366,-550 360,-550"/>
<text text-anchor="middle" x="298.5" y="-529.5" font-family="sans" font-size="10.00">rename_copy_soapdenovo</text>
</g>
<!-- 12&#45;&gt;3 -->
<g id="edge12" class="edge">
<title>12&#45;&gt;3</title>
<path fill="none" stroke="grey" stroke-width="2" d="M372.21,-515.46C375.01,-514.95 377.78,-514.46 380.5,-514 491.05,-495.2 619.83,-479.1 700.27,-469.73"/>
<polygon fill="grey" stroke="grey" stroke-width="2" points="700.79,-473.19 710.32,-468.57 699.98,-466.24 700.79,-473.19"/>
</g>
<!-- 13 -->
<g id="node14" class="node">
<title>13</title>
<path fill="none" stroke="#c6d856" stroke-width="2" d="M525,-550C525,-550 402,-550 402,-550 396,-550 390,-544 390,-538 390,-538 390,-526 390,-526 390,-520 396,-514 402,-514 402,-514 525,-514 525,-514 531,-514 537,-520 537,-526 537,-526 537,-538 537,-538 537,-544 531,-550 525,-550"/>
<text text-anchor="middle" x="463.5" y="-529.5" font-family="sans" font-size="10.00">rename_copy_soapdenovo</text>
</g>
<!-- 13&#45;&gt;3 -->
<g id="edge13" class="edge">
<title>13&#45;&gt;3</title>
<path fill="none" stroke="grey" stroke-width="2" d="M537.35,-514.59C586.45,-503.68 650.83,-489.37 700.71,-478.29"/>
<polygon fill="grey" stroke="grey" stroke-width="2" points="701.49,-481.7 710.49,-476.11 699.97,-474.87 701.49,-481.7"/>
</g>
<!-- 14 -->
<g id="node15" class="node">
<title>14</title>
<path fill="none" stroke="#c6d856" stroke-width="2" d="M690,-550C690,-550 567,-550 567,-550 561,-550 555,-544 555,-538 555,-538 555,-526 555,-526 555,-520 561,-514 567,-514 567,-514 690,-514 690,-514 696,-514 702,-520 702,-526 702,-526 702,-538 702,-538 702,-544 696,-550 690,-550"/>
<text text-anchor="middle" x="628.5" y="-529.5" font-family="sans" font-size="10.00">rename_copy_soapdenovo</text>
</g>
<!-- 14&#45;&gt;3 -->
<g id="edge14" class="edge">
<title>14&#45;&gt;3</title>
<path fill="none" stroke="grey" stroke-width="2" d="M665.19,-513.88C685.52,-504.39 710.97,-492.51 732.6,-482.42"/>
<polygon fill="grey" stroke="grey" stroke-width="2" points="734.34,-485.47 741.93,-478.07 731.38,-479.13 734.34,-485.47"/>
</g>
<!-- 15 -->
<g id="node16" class="node">
<title>15</title>
<path fill="none" stroke="#d8d356" stroke-width="2" d="M825,-550C825,-550 732,-550 732,-550 726,-550 720,-544 720,-538 720,-538 720,-526 720,-526 720,-520 726,-514 732,-514 732,-514 825,-514 825,-514 831,-514 837,-520 837,-526 837,-526 837,-538 837,-538 837,-544 831,-550 825,-550"/>
<text text-anchor="middle" x="778.5" y="-529.5" font-family="sans" font-size="10.00">rename_copy_Abyss</text>
</g>
<!-- 15&#45;&gt;3 -->
<g id="edge15" class="edge">
<title>15&#45;&gt;3</title>
<path fill="none" stroke="grey" stroke-width="2" d="M778.5,-513.7C778.5,-505.98 778.5,-496.71 778.5,-488.11"/>
<polygon fill="grey" stroke="grey" stroke-width="2" points="782,-488.1 778.5,-478.1 775,-488.1 782,-488.1"/>
</g>
<!-- 16 -->
<g id="node17" class="node">
<title>16</title>
<path fill="none" stroke="#d8d356" stroke-width="2" d="M960,-550C960,-550 867,-550 867,-550 861,-550 855,-544 855,-538 855,-538 855,-526 855,-526 855,-520 861,-514 867,-514 867,-514 960,-514 960,-514 966,-514 972,-520 972,-526 972,-526 972,-538 972,-538 972,-544 966,-550 960,-550"/>
<text text-anchor="middle" x="913.5" y="-529.5" font-family="sans" font-size="10.00">rename_copy_Abyss</text>
</g>
<!-- 16&#45;&gt;3 -->
<g id="edge16" class="edge">
<title>16&#45;&gt;3</title>
<path fill="none" stroke="grey" stroke-width="2" d="M880.48,-513.88C862.42,-504.51 839.85,-492.81 820.55,-482.8"/>
<polygon fill="grey" stroke="grey" stroke-width="2" points="822.14,-479.69 811.65,-478.19 818.92,-485.9 822.14,-479.69"/>
</g>
<!-- 17 -->
<g id="node18" class="node">
<title>17</title>
<path fill="none" stroke="#d8d356" stroke-width="2" d="M1095,-550C1095,-550 1002,-550 1002,-550 996,-550 990,-544 990,-538 990,-538 990,-526 990,-526 990,-520 996,-514 1002,-514 1002,-514 1095,-514 1095,-514 1101,-514 1107,-520 1107,-526 1107,-526 1107,-538 1107,-538 1107,-544 1101,-550 1095,-550"/>
<text text-anchor="middle" x="1048.5" y="-529.5" font-family="sans" font-size="10.00">rename_copy_Abyss</text>
</g>
<!-- 17&#45;&gt;3 -->
<g id="edge17" class="edge">
<title>17&#45;&gt;3</title>
<path fill="none" stroke="grey" stroke-width="2" d="M989.91,-515.81C950.06,-505.48 896.95,-491.71 853.93,-480.56"/>
<polygon fill="grey" stroke="grey" stroke-width="2" points="854.64,-477.12 844.08,-478 852.88,-483.9 854.64,-477.12"/>
</g>
<!-- 18 -->
<g id="node19" class="node">
<title>18</title>
<path fill="none" stroke="#56d873" stroke-width="2" d="M1131,-694C1131,-694 1024,-694 1024,-694 1018,-694 1012,-688 1012,-682 1012,-682 1012,-670 1012,-670 1012,-664 1018,-658 1024,-658 1024,-658 1131,-658 1131,-658 1137,-658 1143,-664 1143,-670 1143,-670 1143,-682 1143,-682 1143,-688 1137,-694 1131,-694"/>
<text text-anchor="middle" x="1077.5" y="-673.5" font-family="sans" font-size="10.00">rename_copy_Discovar</text>
</g>
<!-- 18&#45;&gt;3 -->
<g id="edge18" class="edge">
<title>18&#45;&gt;3</title>
<path fill="none" stroke="grey" stroke-width="2" d="M1090.32,-657.71C1112.51,-625.54 1152.39,-555.96 1116.5,-514 1083.74,-475.7 945.87,-464.89 856.65,-461.95"/>
<polygon fill="grey" stroke="grey" stroke-width="2" points="856.66,-458.45 846.56,-461.65 856.45,-465.45 856.66,-458.45"/>
</g>
<!-- 19&#45;&gt;4 -->
<g id="edge19" class="edge">
<title>19&#45;&gt;4</title>
<path fill="none" stroke="grey" stroke-width="2" d="M716.84,-364.86C741.36,-356.66 766.37,-345.14 786.5,-329 815.58,-305.69 819.59,-292.93 829.5,-257 848.86,-186.83 762.25,-136.9 701.29,-111.11"/>
<polygon fill="grey" stroke="grey" stroke-width="2" points="702.33,-107.75 691.75,-107.18 699.66,-114.22 702.33,-107.75"/>
</g>
<!-- 35 -->
<g id="node36" class="node">
<title>35</title>
<path fill="none" stroke="#78d856" stroke-width="2" d="M633.5,-329C633.5,-329 603.5,-329 603.5,-329 597.5,-329 591.5,-323 591.5,-317 591.5,-317 591.5,-305 591.5,-305 591.5,-299 597.5,-293 603.5,-293 603.5,-293 633.5,-293 633.5,-293 639.5,-293 645.5,-299 645.5,-305 645.5,-305 645.5,-317 645.5,-317 645.5,-323 639.5,-329 633.5,-329"/>
<text text-anchor="middle" x="618.5" y="-308.5" font-family="sans" font-size="10.00">RagTag</text>
</g>
<!-- 19&#45;&gt;35 -->
<g id="edge58" class="edge">
<title>19&#45;&gt;35</title>
<path fill="none" stroke="grey" stroke-width="2" d="M618.5,-364.69C618.5,-356.91 618.5,-347.84 618.5,-339.45"/>
<polygon fill="grey" stroke="grey" stroke-width="2" points="622,-339.32 618.5,-329.32 615,-339.32 622,-339.32"/>
</g>
<!-- 20&#45;&gt;5 -->
<g id="edge20" class="edge">
<title>20&#45;&gt;5</title>
<path fill="none" stroke="grey" stroke-width="2" d="M847.72,-364.92C852.8,-354.49 858.66,-341.31 862.5,-329 877.09,-282.22 885.53,-225.56 889.55,-192.71"/>
<polygon fill="grey" stroke="grey" stroke-width="2" points="893.05,-192.88 890.75,-182.54 886.1,-192.06 893.05,-192.88"/>
</g>
<!-- 36 -->
<g id="node37" class="node">
<title>36</title>
<path fill="none" stroke="#78d856" stroke-width="2" d="M765.5,-329C765.5,-329 735.5,-329 735.5,-329 729.5,-329 723.5,-323 723.5,-317 723.5,-317 723.5,-305 723.5,-305 723.5,-299 729.5,-293 735.5,-293 735.5,-293 765.5,-293 765.5,-293 771.5,-293 777.5,-299 777.5,-305 777.5,-305 777.5,-317 777.5,-317 777.5,-323 771.5,-329 765.5,-329"/>
<text text-anchor="middle" x="750.5" y="-308.5" font-family="sans" font-size="10.00">RagTag</text>
</g>
<!-- 20&#45;&gt;36 -->
<g id="edge59" class="edge">
<title>20&#45;&gt;36</title>
<path fill="none" stroke="grey" stroke-width="2" d="M813.73,-364.69C802.96,-355.72 790.14,-345.04 778.87,-335.65"/>
<polygon fill="grey" stroke="grey" stroke-width="2" points="780.92,-332.79 770.99,-329.08 776.44,-338.17 780.92,-332.79"/>
</g>
<!-- 21&#45;&gt;6 -->
<g id="edge21" class="edge">
<title>21&#45;&gt;6</title>
<path fill="none" stroke="grey" stroke-width="2" d="M339.6,-364.87C312.21,-342.31 270.64,-302.49 253.5,-257 234.08,-205.48 276.25,-147.63 305.51,-115.64"/>
<polygon fill="grey" stroke="grey" stroke-width="2" points="308.32,-117.76 312.63,-108.08 303.23,-112.97 308.32,-117.76"/>
</g>
<!-- 37 -->
<g id="node38" class="node">
<title>37</title>
<path fill="none" stroke="#78d856" stroke-width="2" d="M380.5,-329C380.5,-329 350.5,-329 350.5,-329 344.5,-329 338.5,-323 338.5,-317 338.5,-317 338.5,-305 338.5,-305 338.5,-299 344.5,-293 350.5,-293 350.5,-293 380.5,-293 380.5,-293 386.5,-293 392.5,-299 392.5,-305 392.5,-305 392.5,-317 392.5,-317 392.5,-323 386.5,-329 380.5,-329"/>
<text text-anchor="middle" x="365.5" y="-308.5" font-family="sans" font-size="10.00">RagTag</text>
</g>
<!-- 21&#45;&gt;37 -->
<g id="edge60" class="edge">
<title>21&#45;&gt;37</title>
<path fill="none" stroke="grey" stroke-width="2" d="M365.5,-364.69C365.5,-356.91 365.5,-347.84 365.5,-339.45"/>
<polygon fill="grey" stroke="grey" stroke-width="2" points="369,-339.32 365.5,-329.32 362,-339.32 369,-339.32"/>
</g>
<!-- 22 -->
<g id="node23" class="node">
<title>22</title>
<path fill="none" stroke="#d85656" stroke-width="2" d="M537,-182.5C537,-182.5 470,-182.5 470,-182.5 464,-182.5 458,-176.5 458,-170.5 458,-170.5 458,-158.5 458,-158.5 458,-152.5 464,-146.5 470,-146.5 470,-146.5 537,-146.5 537,-146.5 543,-146.5 549,-152.5 549,-158.5 549,-158.5 549,-170.5 549,-170.5 549,-176.5 543,-182.5 537,-182.5"/>
<text text-anchor="middle" x="503.5" y="-162" font-family="sans" font-size="10.00">finalReportPrep</text>
</g>
<!-- 22&#45;&gt;7 -->
<g id="edge22" class="edge">
<title>22&#45;&gt;7</title>
<path fill="none" stroke="grey" stroke-width="2" d="M510.37,-146.32C513.8,-137.74 518.03,-127.17 521.87,-117.58"/>
<polygon fill="grey" stroke="grey" stroke-width="2" points="525.21,-118.64 525.68,-108.06 518.71,-116.04 525.21,-118.64"/>
</g>
<!-- 23 -->
<g id="node24" class="node">
<title>23</title>
<path fill="none" stroke="#61d856" stroke-width="2" d="M650.5,-257C650.5,-257 590.5,-257 590.5,-257 584.5,-257 578.5,-251 578.5,-245 578.5,-245 578.5,-233 578.5,-233 578.5,-227 584.5,-221 590.5,-221 590.5,-221 650.5,-221 650.5,-221 656.5,-221 662.5,-227 662.5,-233 662.5,-233 662.5,-245 662.5,-245 662.5,-251 656.5,-257 650.5,-257"/>
<text text-anchor="middle" x="620.5" y="-236.5" font-family="sans" font-size="10.00">quast_RagTag</text>
</g>
<!-- 23&#45;&gt;7 -->
<g id="edge23" class="edge">
<title>23&#45;&gt;7</title>
<path fill="none" stroke="grey" stroke-width="2" d="M610.23,-220.85C594.87,-195.18 565.78,-146.59 547.87,-116.68"/>
<polygon fill="grey" stroke="grey" stroke-width="2" points="550.84,-114.82 542.7,-108.04 544.83,-118.42 550.84,-114.82"/>
</g>
<!-- 24 -->
<g id="node25" class="node">
<title>24</title>
<path fill="none" stroke="#5692d8" stroke-width="2" d="M789.5,-910C789.5,-910 733.5,-910 733.5,-910 727.5,-910 721.5,-904 721.5,-898 721.5,-898 721.5,-886 721.5,-886 721.5,-880 727.5,-874 733.5,-874 733.5,-874 789.5,-874 789.5,-874 795.5,-874 801.5,-880 801.5,-886 801.5,-886 801.5,-898 801.5,-898 801.5,-904 795.5,-910 789.5,-910"/>
<text text-anchor="middle" x="761.5" y="-895" font-family="sans" font-size="10.00">trimmomatic</text>
<text text-anchor="middle" x="761.5" y="-884" font-family="sans" font-size="10.00">id: TESTFILE</text>
</g>
<!-- 24&#45;&gt;10 -->
<g id="edge24" class="edge">
<title>24&#45;&gt;10</title>
<path fill="none" stroke="grey" stroke-width="2" d="M721.43,-883.15C678.32,-874.34 607.65,-858.87 538.46,-838.1"/>
<polygon fill="grey" stroke="grey" stroke-width="2" points="539.3,-834.7 528.71,-835.14 537.26,-841.4 539.3,-834.7"/>
</g>
<!-- 24&#45;&gt;11 -->
<g id="edge25" class="edge">
<title>24&#45;&gt;11</title>
<path fill="none" stroke="grey" stroke-width="2" d="M721.33,-875.29C693.64,-864.46 656.79,-850.05 628.01,-838.8"/>
<polygon fill="grey" stroke="grey" stroke-width="2" points="629.18,-835.5 618.59,-835.11 626.63,-842.01 629.18,-835.5"/>
</g>
<!-- 28 -->
<g id="node29" class="node">
<title>28</title>
<path fill="none" stroke="#56d88a" stroke-width="2" d="M779,-622C779,-622 728,-622 728,-622 722,-622 716,-616 716,-610 716,-610 716,-598 716,-598 716,-592 722,-586 728,-586 728,-586 779,-586 779,-586 785,-586 791,-592 791,-598 791,-598 791,-610 791,-610 791,-616 785,-622 779,-622"/>
<text text-anchor="middle" x="753.5" y="-607" font-family="sans" font-size="10.00">ABySS</text>
<text text-anchor="middle" x="753.5" y="-596" font-family="sans" font-size="10.00">kmer: lower</text>
</g>
<!-- 24&#45;&gt;28 -->
<g id="edge49" class="edge">
<title>24&#45;&gt;28</title>
<path fill="none" stroke="grey" stroke-width="2" d="M769.81,-873.79C774.24,-863.63 779.24,-850.38 781.5,-838 795.86,-759.3 800.75,-735.65 781.5,-658 779.21,-648.75 774.97,-639.34 770.48,-631.07"/>
<polygon fill="grey" stroke="grey" stroke-width="2" points="773.43,-629.17 765.39,-622.28 767.37,-632.68 773.43,-629.17"/>
</g>
<!-- 29 -->
<g id="node30" class="node">
<title>29</title>
<path fill="none" stroke="#56d88a" stroke-width="2" d="M873.5,-622C873.5,-622 821.5,-622 821.5,-622 815.5,-622 809.5,-616 809.5,-610 809.5,-610 809.5,-598 809.5,-598 809.5,-592 815.5,-586 821.5,-586 821.5,-586 873.5,-586 873.5,-586 879.5,-586 885.5,-592 885.5,-598 885.5,-598 885.5,-610 885.5,-610 885.5,-616 879.5,-622 873.5,-622"/>
<text text-anchor="middle" x="847.5" y="-607" font-family="sans" font-size="10.00">ABySS</text>
<text text-anchor="middle" x="847.5" y="-596" font-family="sans" font-size="10.00">kmer: upper</text>
</g>
<!-- 24&#45;&gt;29 -->
<g id="edge51" class="edge">
<title>24&#45;&gt;29</title>
<path fill="none" stroke="grey" stroke-width="2" d="M776.52,-873.99C784.48,-864.11 793.78,-851.07 799.5,-838 830.25,-767.74 841.65,-676.82 845.59,-632.17"/>
<polygon fill="grey" stroke="grey" stroke-width="2" points="849.08,-632.37 846.41,-622.11 842.11,-631.79 849.08,-632.37"/>
</g>
<!-- 30 -->
<g id="node31" class="node">
<title>30</title>
<path fill="none" stroke="#56d88a" stroke-width="2" d="M977.5,-622C977.5,-622 915.5,-622 915.5,-622 909.5,-622 903.5,-616 903.5,-610 903.5,-610 903.5,-598 903.5,-598 903.5,-592 909.5,-586 915.5,-586 915.5,-586 977.5,-586 977.5,-586 983.5,-586 989.5,-592 989.5,-598 989.5,-598 989.5,-610 989.5,-610 989.5,-616 983.5,-622 977.5,-622"/>
<text text-anchor="middle" x="946.5" y="-607" font-family="sans" font-size="10.00">ABySS</text>
<text text-anchor="middle" x="946.5" y="-596" font-family="sans" font-size="10.00">kmer: optimal</text>
</g>
<!-- 24&#45;&gt;30 -->
<g id="edge53" class="edge">
<title>24&#45;&gt;30</title>
<path fill="none" stroke="grey" stroke-width="2" d="M783.95,-873.95C795.76,-864.26 809.93,-851.41 820.5,-838 873.82,-770.33 916.57,-676.93 935.67,-631.69"/>
<polygon fill="grey" stroke="grey" stroke-width="2" points="938.98,-632.86 939.6,-622.29 932.52,-630.17 938.98,-632.86"/>
</g>
<!-- 39 -->
<g id="node40" class="node">
<title>39</title>
<path fill="none" stroke="#d89556" stroke-width="2" d="M583.5,-694C583.5,-694 533.5,-694 533.5,-694 527.5,-694 521.5,-688 521.5,-682 521.5,-682 521.5,-670 521.5,-670 521.5,-664 527.5,-658 533.5,-658 533.5,-658 583.5,-658 583.5,-658 589.5,-658 595.5,-664 595.5,-670 595.5,-670 595.5,-682 595.5,-682 595.5,-688 589.5,-694 583.5,-694"/>
<text text-anchor="middle" x="558.5" y="-673.5" font-family="sans" font-size="10.00">soap_config</text>
</g>
<!-- 24&#45;&gt;39 -->
<g id="edge62" class="edge">
<title>24&#45;&gt;39</title>
<path fill="none" stroke="grey" stroke-width="2" d="M721.34,-874.21C702.98,-865.25 681.74,-852.96 665.5,-838 622.47,-798.37 588.44,-738.07 571.09,-703.62"/>
<polygon fill="grey" stroke="grey" stroke-width="2" points="574.02,-701.64 566.45,-694.22 567.74,-704.74 574.02,-701.64"/>
</g>
<!-- 40 -->
<g id="node41" class="node">
<title>40</title>
<path fill="none" stroke="#d8bc56" stroke-width="2" d="M1038,-838C1038,-838 981,-838 981,-838 975,-838 969,-832 969,-826 969,-826 969,-814 969,-814 969,-808 975,-802 981,-802 981,-802 1038,-802 1038,-802 1044,-802 1050,-808 1050,-814 1050,-814 1050,-826 1050,-826 1050,-832 1044,-838 1038,-838"/>
<text text-anchor="middle" x="1009.5" y="-817.5" font-family="sans" font-size="10.00">DiscoVarPrep</text>
</g>
<!-- 24&#45;&gt;40 -->
<g id="edge63" class="edge">
<title>24&#45;&gt;40</title>
<path fill="none" stroke="grey" stroke-width="2" d="M801.62,-879.68C844.41,-867.6 912.27,-848.44 958.75,-835.33"/>
<polygon fill="grey" stroke="grey" stroke-width="2" points="959.94,-838.63 968.61,-832.54 958.04,-831.89 959.94,-838.63"/>
</g>
<!-- 42 -->
<g id="node43" class="node">
<title>42</title>
<path fill="none" stroke="#9fd856" stroke-width="2" d="M760.5,-838C760.5,-838 686.5,-838 686.5,-838 680.5,-838 674.5,-832 674.5,-826 674.5,-826 674.5,-814 674.5,-814 674.5,-808 680.5,-802 686.5,-802 686.5,-802 760.5,-802 760.5,-802 766.5,-802 772.5,-808 772.5,-814 772.5,-814 772.5,-826 772.5,-826 772.5,-832 766.5,-838 760.5,-838"/>
<text text-anchor="middle" x="723.5" y="-817.5" font-family="sans" font-size="10.00">KmerGenie_prep</text>
</g>
<!-- 24&#45;&gt;42 -->
<g id="edge65" class="edge">
<title>24&#45;&gt;42</title>
<path fill="none" stroke="grey" stroke-width="2" d="M752.11,-873.7C747.74,-865.64 742.44,-855.89 737.6,-846.98"/>
<polygon fill="grey" stroke="grey" stroke-width="2" points="740.63,-845.22 732.79,-838.1 734.48,-848.56 740.63,-845.22"/>
</g>
<!-- 25 -->
<g id="node26" class="node">
<title>25</title>
<path fill="none" stroke="#56d8a2" stroke-width="2" d="M487.5,-622C487.5,-622 435.5,-622 435.5,-622 429.5,-622 423.5,-616 423.5,-610 423.5,-610 423.5,-598 423.5,-598 423.5,-592 429.5,-586 435.5,-586 435.5,-586 487.5,-586 487.5,-586 493.5,-586 499.5,-592 499.5,-598 499.5,-598 499.5,-610 499.5,-610 499.5,-616 493.5,-622 487.5,-622"/>
<text text-anchor="middle" x="461.5" y="-607" font-family="sans" font-size="10.00">soapdenovo</text>
<text text-anchor="middle" x="461.5" y="-596" font-family="sans" font-size="10.00">kmer: lower</text>
</g>
<!-- 25&#45;&gt;12 -->
<g id="edge26" class="edge">
<title>25&#45;&gt;12</title>
<path fill="none" stroke="grey" stroke-width="2" d="M423.28,-586.59C400.69,-576.88 371.84,-564.5 347.57,-554.08"/>
<polygon fill="grey" stroke="grey" stroke-width="2" points="348.75,-550.77 338.18,-550.04 345.99,-557.2 348.75,-550.77"/>
</g>
<!-- 26 -->
<g id="node27" class="node">
<title>26</title>
<path fill="none" stroke="#56d8a2" stroke-width="2" d="M581.5,-622C581.5,-622 529.5,-622 529.5,-622 523.5,-622 517.5,-616 517.5,-610 517.5,-610 517.5,-598 517.5,-598 517.5,-592 523.5,-586 529.5,-586 529.5,-586 581.5,-586 581.5,-586 587.5,-586 593.5,-592 593.5,-598 593.5,-598 593.5,-610 593.5,-610 593.5,-616 587.5,-622 581.5,-622"/>
<text text-anchor="middle" x="555.5" y="-607" font-family="sans" font-size="10.00">soapdenovo</text>
<text text-anchor="middle" x="555.5" y="-596" font-family="sans" font-size="10.00">kmer: upper</text>
</g>
<!-- 26&#45;&gt;13 -->
<g id="edge27" class="edge">
<title>26&#45;&gt;13</title>
<path fill="none" stroke="grey" stroke-width="2" d="M532.76,-585.7C521.06,-576.8 506.64,-565.82 493.99,-556.2"/>
<polygon fill="grey" stroke="grey" stroke-width="2" points="496.06,-553.37 485.98,-550.1 491.82,-558.94 496.06,-553.37"/>
</g>
<!-- 27 -->
<g id="node28" class="node">
<title>27</title>
<path fill="none" stroke="#56d8a2" stroke-width="2" d="M685.5,-622C685.5,-622 623.5,-622 623.5,-622 617.5,-622 611.5,-616 611.5,-610 611.5,-610 611.5,-598 611.5,-598 611.5,-592 617.5,-586 623.5,-586 623.5,-586 685.5,-586 685.5,-586 691.5,-586 697.5,-592 697.5,-598 697.5,-598 697.5,-610 697.5,-610 697.5,-616 691.5,-622 685.5,-622"/>
<text text-anchor="middle" x="654.5" y="-607" font-family="sans" font-size="10.00">soapdenovo</text>
<text text-anchor="middle" x="654.5" y="-596" font-family="sans" font-size="10.00">kmer: optimal</text>
</g>
<!-- 27&#45;&gt;14 -->
<g id="edge28" class="edge">
<title>27&#45;&gt;14</title>
<path fill="none" stroke="grey" stroke-width="2" d="M648.07,-585.7C645.14,-577.81 641.61,-568.3 638.36,-559.55"/>
<polygon fill="grey" stroke="grey" stroke-width="2" points="641.62,-558.26 634.85,-550.1 635.05,-560.7 641.62,-558.26"/>
</g>
<!-- 28&#45;&gt;15 -->
<g id="edge29" class="edge">
<title>28&#45;&gt;15</title>
<path fill="none" stroke="grey" stroke-width="2" d="M759.68,-585.7C762.5,-577.81 765.89,-568.3 769.02,-559.55"/>
<polygon fill="grey" stroke="grey" stroke-width="2" points="772.32,-560.7 772.39,-550.1 765.73,-558.34 772.32,-560.7"/>
</g>
<!-- 29&#45;&gt;16 -->
<g id="edge30" class="edge">
<title>29&#45;&gt;16</title>
<path fill="none" stroke="grey" stroke-width="2" d="M863.81,-585.7C871.81,-577.22 881.57,-566.86 890.32,-557.58"/>
<polygon fill="grey" stroke="grey" stroke-width="2" points="893.06,-559.78 897.37,-550.1 887.97,-554.98 893.06,-559.78"/>
</g>
<!-- 30&#45;&gt;17 -->
<g id="edge31" class="edge">
<title>30&#45;&gt;17</title>
<path fill="none" stroke="grey" stroke-width="2" d="M971.45,-585.88C984.54,-576.89 1000.76,-565.76 1014.94,-556.03"/>
<polygon fill="grey" stroke="grey" stroke-width="2" points="1017.19,-558.73 1023.45,-550.19 1013.23,-552.96 1017.19,-558.73"/>
</g>
<!-- 31 -->
<g id="node32" class="node">
<title>31</title>
<path fill="none" stroke="#d86e56" stroke-width="2" d="M1071,-766C1071,-766 998,-766 998,-766 992,-766 986,-760 986,-754 986,-754 986,-742 986,-742 986,-736 992,-730 998,-730 998,-730 1071,-730 1071,-730 1077,-730 1083,-736 1083,-742 1083,-742 1083,-754 1083,-754 1083,-760 1077,-766 1071,-766"/>
<text text-anchor="middle" x="1034.5" y="-745.5" font-family="sans" font-size="10.00">DiscovarDenovo</text>
</g>
<!-- 31&#45;&gt;18 -->
<g id="edge32" class="edge">
<title>31&#45;&gt;18</title>
<path fill="none" stroke="grey" stroke-width="2" d="M1045.13,-729.7C1050.13,-721.56 1056.19,-711.69 1061.71,-702.7"/>
<polygon fill="grey" stroke="grey" stroke-width="2" points="1064.74,-704.46 1066.99,-694.1 1058.78,-700.79 1064.74,-704.46"/>
</g>
<!-- 32 -->
<g id="node33" class="node">
<title>32</title>
<path fill="none" stroke="#88d856" stroke-width="2" d="M548.5,-257C548.5,-257 432.5,-257 432.5,-257 426.5,-257 420.5,-251 420.5,-245 420.5,-245 420.5,-233 420.5,-233 420.5,-227 426.5,-221 432.5,-221 432.5,-221 548.5,-221 548.5,-221 554.5,-221 560.5,-227 560.5,-233 560.5,-233 560.5,-245 560.5,-245 560.5,-251 554.5,-257 548.5,-257"/>
<text text-anchor="middle" x="490.5" y="-236.5" font-family="sans" font-size="10.00">BUSCO_RagTag_scaffolds</text>
</g>
<!-- 32&#45;&gt;22 -->
<g id="edge36" class="edge">
<title>32&#45;&gt;22</title>
<path fill="none" stroke="grey" stroke-width="2" d="M493.58,-220.82C495.09,-212.42 496.93,-202.12 498.63,-192.69"/>
<polygon fill="grey" stroke="grey" stroke-width="2" points="502.12,-193.02 500.44,-182.56 495.23,-191.78 502.12,-193.02"/>
</g>
<!-- 33 -->
<g id="node34" class="node">
<title>33</title>
<path fill="none" stroke="#88d856" stroke-width="2" d="M808.5,-257C808.5,-257 692.5,-257 692.5,-257 686.5,-257 680.5,-251 680.5,-245 680.5,-245 680.5,-233 680.5,-233 680.5,-227 686.5,-221 692.5,-221 692.5,-221 808.5,-221 808.5,-221 814.5,-221 820.5,-227 820.5,-233 820.5,-233 820.5,-245 820.5,-245 820.5,-251 814.5,-257 808.5,-257"/>
<text text-anchor="middle" x="750.5" y="-236.5" font-family="sans" font-size="10.00">BUSCO_RagTag_scaffolds</text>
</g>
<!-- 33&#45;&gt;22 -->
<g id="edge37" class="edge">
<title>33&#45;&gt;22</title>
<path fill="none" stroke="grey" stroke-width="2" d="M692.28,-220.91C652.04,-209.1 598.84,-193.48 559.17,-181.84"/>
<polygon fill="grey" stroke="grey" stroke-width="2" points="559.97,-178.43 549.39,-178.97 558,-185.15 559.97,-178.43"/>
</g>
<!-- 34 -->
<g id="node35" class="node">
<title>34</title>
<path fill="none" stroke="#88d856" stroke-width="2" d="M390.5,-257C390.5,-257 274.5,-257 274.5,-257 268.5,-257 262.5,-251 262.5,-245 262.5,-245 262.5,-233 262.5,-233 262.5,-227 268.5,-221 274.5,-221 274.5,-221 390.5,-221 390.5,-221 396.5,-221 402.5,-227 402.5,-233 402.5,-233 402.5,-245 402.5,-245 402.5,-251 396.5,-257 390.5,-257"/>
<text text-anchor="middle" x="332.5" y="-236.5" font-family="sans" font-size="10.00">BUSCO_RagTag_scaffolds</text>
</g>
<!-- 34&#45;&gt;22 -->
<g id="edge38" class="edge">
<title>34&#45;&gt;22</title>
<path fill="none" stroke="grey" stroke-width="2" d="M373.02,-220.82C397.3,-210.53 428.34,-197.37 454.06,-186.46"/>
<polygon fill="grey" stroke="grey" stroke-width="2" points="455.43,-189.68 463.27,-182.56 452.69,-183.24 455.43,-189.68"/>
</g>
<!-- 35&#45;&gt;23 -->
<g id="edge39" class="edge">
<title>35&#45;&gt;23</title>
<path fill="none" stroke="grey" stroke-width="2" d="M618.99,-292.7C619.21,-284.98 619.48,-275.71 619.73,-267.11"/>
<polygon fill="grey" stroke="grey" stroke-width="2" points="623.22,-267.2 620.01,-257.1 616.23,-267 623.22,-267.2"/>
</g>
<!-- 35&#45;&gt;32 -->
<g id="edge55" class="edge">
<title>35&#45;&gt;32</title>
<path fill="none" stroke="grey" stroke-width="2" d="M591.35,-295.15C573.66,-285.48 550.27,-272.69 530.47,-261.86"/>
<polygon fill="grey" stroke="grey" stroke-width="2" points="532.11,-258.77 521.66,-257.04 528.75,-264.91 532.11,-258.77"/>
</g>
<!-- 36&#45;&gt;23 -->
<g id="edge40" class="edge">
<title>36&#45;&gt;23</title>
<path fill="none" stroke="grey" stroke-width="2" d="M723.25,-295.33C705.3,-285.66 681.47,-272.83 661.28,-261.96"/>
<polygon fill="grey" stroke="grey" stroke-width="2" points="662.76,-258.78 652.3,-257.12 659.44,-264.94 662.76,-258.78"/>
</g>
<!-- 36&#45;&gt;33 -->
<g id="edge56" class="edge">
<title>36&#45;&gt;33</title>
<path fill="none" stroke="grey" stroke-width="2" d="M750.5,-292.7C750.5,-284.98 750.5,-275.71 750.5,-267.11"/>
<polygon fill="grey" stroke="grey" stroke-width="2" points="754,-267.1 750.5,-257.1 747,-267.1 754,-267.1"/>
</g>
<!-- 37&#45;&gt;23 -->
<g id="edge41" class="edge">
<title>37&#45;&gt;23</title>
<path fill="none" stroke="grey" stroke-width="2" d="M392.72,-303.55C430.22,-294.53 500.06,-277.25 568.61,-257.17"/>
<polygon fill="grey" stroke="grey" stroke-width="2" points="569.67,-260.51 578.27,-254.32 567.69,-253.79 569.67,-260.51"/>
</g>
<!-- 37&#45;&gt;34 -->
<g id="edge57" class="edge">
<title>37&#45;&gt;34</title>
<path fill="none" stroke="grey" stroke-width="2" d="M357.34,-292.7C353.59,-284.73 349.05,-275.1 344.88,-266.26"/>
<polygon fill="grey" stroke="grey" stroke-width="2" points="347.99,-264.66 340.56,-257.1 341.66,-267.64 347.99,-264.66"/>
</g>
<!-- 38 -->
<g id="node39" class="node">
<title>38</title>
<path fill="none" stroke="#56d863" stroke-width="2" d="M760.5,-694C760.5,-694 636.5,-694 636.5,-694 630.5,-694 624.5,-688 624.5,-682 624.5,-682 624.5,-670 624.5,-670 624.5,-664 630.5,-658 636.5,-658 636.5,-658 760.5,-658 760.5,-658 766.5,-658 772.5,-664 772.5,-670 772.5,-670 772.5,-682 772.5,-682 772.5,-688 766.5,-694 760.5,-694"/>
<text text-anchor="middle" x="698.5" y="-673.5" font-family="sans" font-size="10.00">KmerInputLowerUpperBest</text>
</g>
<!-- 38&#45;&gt;25 -->
<g id="edge42" class="edge">
<title>38&#45;&gt;25</title>
<path fill="none" stroke="grey" stroke-width="2" d="M632.63,-657.93C598.27,-648.72 555.38,-636.75 509.22,-622.13"/>
<polygon fill="grey" stroke="grey" stroke-width="2" points="510.23,-618.77 499.64,-619.07 508.1,-625.44 510.23,-618.77"/>
</g>
<!-- 38&#45;&gt;26 -->
<g id="edge44" class="edge">
<title>38&#45;&gt;26</title>
<path fill="none" stroke="grey" stroke-width="2" d="M663.52,-657.88C644.3,-648.47 620.27,-636.71 599.76,-626.67"/>
<polygon fill="grey" stroke="grey" stroke-width="2" points="601.14,-623.44 590.62,-622.19 598.06,-629.73 601.14,-623.44"/>
</g>
<!-- 38&#45;&gt;27 -->
<g id="edge46" class="edge">
<title>38&#45;&gt;27</title>
<path fill="none" stroke="grey" stroke-width="2" d="M687.62,-657.7C682.51,-649.56 676.3,-639.69 670.66,-630.7"/>
<polygon fill="grey" stroke="grey" stroke-width="2" points="673.54,-628.71 665.25,-622.1 667.61,-632.43 673.54,-628.71"/>
</g>
<!-- 38&#45;&gt;28 -->
<g id="edge48" class="edge">
<title>38&#45;&gt;28</title>
<path fill="none" stroke="grey" stroke-width="2" d="M712.1,-657.7C718.62,-649.39 726.57,-639.28 733.75,-630.14"/>
<polygon fill="grey" stroke="grey" stroke-width="2" points="736.63,-632.13 740.06,-622.1 731.13,-627.81 736.63,-632.13"/>
</g>
<!-- 38&#45;&gt;29 -->
<g id="edge50" class="edge">
<title>38&#45;&gt;29</title>
<path fill="none" stroke="grey" stroke-width="2" d="M734.95,-657.88C755.14,-648.39 780.42,-636.51 801.91,-626.42"/>
<polygon fill="grey" stroke="grey" stroke-width="2" points="803.61,-629.49 811.17,-622.07 800.63,-623.15 803.61,-629.49"/>
</g>
<!-- 38&#45;&gt;30 -->
<g id="edge52" class="edge">
<title>38&#45;&gt;30</title>
<path fill="none" stroke="grey" stroke-width="2" d="M764.97,-657.94C800.65,-648.57 845.57,-636.43 893.75,-622.16"/>
<polygon fill="grey" stroke="grey" stroke-width="2" points="894.84,-625.48 903.42,-619.27 892.84,-618.77 894.84,-625.48"/>
</g>
<!-- 39&#45;&gt;25 -->
<g id="edge43" class="edge">
<title>39&#45;&gt;25</title>
<path fill="none" stroke="grey" stroke-width="2" d="M534.52,-657.7C522.19,-648.8 506.98,-637.82 493.65,-628.2"/>
<polygon fill="grey" stroke="grey" stroke-width="2" points="495.36,-625.12 485.2,-622.1 491.26,-630.79 495.36,-625.12"/>
</g>
<!-- 39&#45;&gt;26 -->
<g id="edge45" class="edge">
<title>39&#45;&gt;26</title>
<path fill="none" stroke="grey" stroke-width="2" d="M557.76,-657.7C557.43,-649.98 557.03,-640.71 556.66,-632.11"/>
<polygon fill="grey" stroke="grey" stroke-width="2" points="560.16,-631.95 556.23,-622.1 553.16,-632.25 560.16,-631.95"/>
</g>
<!-- 39&#45;&gt;27 -->
<g id="edge47" class="edge">
<title>39&#45;&gt;27</title>
<path fill="none" stroke="grey" stroke-width="2" d="M582.23,-657.7C594.44,-648.8 609.49,-637.82 622.68,-628.2"/>
<polygon fill="grey" stroke="grey" stroke-width="2" points="625.02,-630.82 631.04,-622.1 620.9,-625.17 625.02,-630.82"/>
</g>
<!-- 40&#45;&gt;31 -->
<g id="edge54" class="edge">
<title>40&#45;&gt;31</title>
<path fill="none" stroke="grey" stroke-width="2" d="M1015.68,-801.7C1018.5,-793.81 1021.89,-784.3 1025.02,-775.55"/>
<polygon fill="grey" stroke="grey" stroke-width="2" points="1028.32,-776.7 1028.39,-766.1 1021.73,-774.34 1028.32,-776.7"/>
</g>
<!-- 41 -->
<g id="node42" class="node">
<title>41</title>
<path fill="none" stroke="#56c1d8" stroke-width="2" d="M741,-766C741,-766 694,-766 694,-766 688,-766 682,-760 682,-754 682,-754 682,-742 682,-742 682,-736 688,-730 694,-730 694,-730 741,-730 741,-730 747,-730 753,-736 753,-742 753,-742 753,-754 753,-754 753,-760 747,-766 741,-766"/>
<text text-anchor="middle" x="717.5" y="-745.5" font-family="sans" font-size="10.00">KmerGenie</text>
</g>
<!-- 41&#45;&gt;38 -->
<g id="edge61" class="edge">
<title>41&#45;&gt;38</title>
<path fill="none" stroke="grey" stroke-width="2" d="M712.8,-729.7C710.69,-721.9 708.14,-712.51 705.78,-703.83"/>
<polygon fill="grey" stroke="grey" stroke-width="2" points="709.14,-702.84 703.14,-694.1 702.38,-704.67 709.14,-702.84"/>
</g>
<!-- 42&#45;&gt;41 -->
<g id="edge64" class="edge">
<title>42&#45;&gt;41</title>
<path fill="none" stroke="grey" stroke-width="2" d="M722.02,-801.7C721.36,-793.98 720.56,-784.71 719.82,-776.11"/>
<polygon fill="grey" stroke="grey" stroke-width="2" points="723.31,-775.77 718.97,-766.1 716.33,-776.37 723.31,-775.77"/>
</g>
</g>
</svg>
